<svg width="21" height="19" viewBox="0 0 21 19" fill="currentColor" xmlns="http://www.w3.org/2000/svg">
<path d="M13.8748 4.75019C13.2331 4.7498 12.5942 4.83589 11.9755 5.00613C11.7312 4.6076 11.4345 4.24372 11.0933 3.92426L11.9848 2.65207C12.0413 2.57137 12.0814 2.48032 12.1027 2.38414C12.124 2.28796 12.1262 2.18852 12.1091 2.09149C12.092 1.99447 12.056 1.90177 12.003 1.81868C11.9501 1.73559 11.8813 1.66373 11.8006 1.60722C11.7199 1.55071 11.6289 1.51065 11.5327 1.48933C11.4365 1.468 11.3371 1.46583 11.24 1.48294C11.143 1.50005 11.0503 1.53609 10.9672 1.58903C10.8841 1.64196 10.8123 1.71074 10.7558 1.79144L9.8642 3.06269C9.13104 2.69251 8.32114 2.49983 7.49983 2.50019C7.44545 2.50019 7.39108 2.50019 7.3367 2.50019L7.06576 0.973005C7.05154 0.873495 7.01746 0.777859 6.96555 0.69178C6.91364 0.605701 6.84495 0.530935 6.76358 0.471927C6.6822 0.412918 6.58979 0.37087 6.49184 0.348282C6.39389 0.325694 6.2924 0.323027 6.19339 0.340438C6.09439 0.35785 5.9999 0.394986 5.91553 0.449638C5.83117 0.504291 5.75865 0.575345 5.70229 0.658578C5.64593 0.741812 5.60687 0.835526 5.58744 0.934152C5.56802 1.03278 5.56861 1.1343 5.5892 1.23269L5.8592 2.76457C5.02741 3.03968 4.27752 3.51823 3.67764 4.15676L2.40076 3.26332C2.32012 3.20542 2.2288 3.16411 2.13207 3.14177C2.03534 3.11944 1.93515 3.11653 1.83729 3.13321C1.73943 3.14989 1.64586 3.18584 1.562 3.23896C1.47813 3.29208 1.40565 3.36132 1.34875 3.44267C1.29186 3.52401 1.25167 3.61585 1.23053 3.71284C1.20939 3.80983 1.20772 3.91006 1.22561 4.0077C1.2435 4.10535 1.2806 4.19847 1.33475 4.28167C1.3889 4.36487 1.45903 4.43649 1.54107 4.49238L2.81232 5.38488C2.44083 6.11789 2.24808 6.92842 2.24982 7.75019C2.24982 7.80363 2.24982 7.85801 2.24982 7.91144L0.722637 8.18144C0.537787 8.21383 0.371793 8.31433 0.257424 8.46312C0.143055 8.61191 0.0886211 8.79816 0.104868 8.98512C0.121116 9.17209 0.206863 9.34616 0.345184 9.47299C0.483504 9.59982 0.664347 9.67018 0.852012 9.67019C0.895689 9.67013 0.939283 9.66637 0.982324 9.65894L2.51232 9.38894C2.64675 9.79823 2.83128 10.1893 3.0617 10.5533C2.34432 11.2197 1.8442 12.0866 1.62648 13.0412C1.40876 13.9958 1.48353 14.9938 1.84105 15.9053C2.19856 16.8168 2.82226 17.5995 3.63092 18.1515C4.43958 18.7035 5.39572 18.9993 6.37483 19.0002H13.8748C15.7645 19.0002 17.5768 18.2495 18.913 16.9133C20.2492 15.5771 20.9998 13.7649 20.9998 11.8752C20.9998 9.98553 20.2492 8.17325 18.913 6.83706C17.5768 5.50086 15.7645 4.75019 13.8748 4.75019ZM3.74982 7.75019C3.75027 6.956 4.00286 6.18245 4.47118 5.54102C4.9395 4.8996 5.59937 4.42342 6.3557 4.18111C7.11203 3.9388 7.92576 3.94287 8.67963 4.19274C9.4335 4.44261 10.0886 4.92536 10.5504 5.57144C9.02053 6.37657 7.83418 7.7088 7.21107 9.32144C6.22514 9.15126 5.21074 9.28771 4.30482 9.71238C3.94213 9.12214 3.75003 8.44296 3.74982 7.75019ZM13.8748 17.5002H6.37483C5.91322 17.4993 5.4567 17.4038 5.03349 17.2195C4.61028 17.0352 4.22937 16.766 3.91432 16.4287C3.59927 16.0913 3.35678 15.6929 3.20184 15.2581C3.0469 14.8232 2.9828 14.3612 3.01351 13.9007C3.04422 13.4401 3.16909 12.9907 3.38038 12.5803C3.59168 12.1699 3.88492 11.8072 4.24197 11.5146C4.59902 11.2221 5.01229 11.0059 5.45622 10.8794C5.90016 10.7529 6.36532 10.7188 6.82295 10.7793C6.78826 11.0014 6.76389 11.2283 6.75076 11.4571C6.73933 11.656 6.80737 11.8513 6.93994 12C7.0725 12.1488 7.25873 12.2388 7.45764 12.2502C7.65655 12.2616 7.85186 12.1936 8.0006 12.061C8.14934 11.9285 8.23933 11.7422 8.25076 11.5433C8.2718 11.1692 8.33086 10.7983 8.42701 10.4361C8.42701 10.4211 8.43545 10.4061 8.43826 10.3911C8.71392 9.37811 9.26732 8.46234 10.0359 7.74721C10.8046 7.03209 11.7578 6.5461 12.7881 6.34412C13.8183 6.14215 14.8845 6.23223 15.8663 6.6042C16.848 6.97617 17.7062 7.61521 18.344 8.44916C18.9817 9.28311 19.3736 10.2788 19.4754 11.3237C19.5772 12.3686 19.3848 13.4211 18.92 14.3625C18.4552 15.3038 17.7365 16.0965 16.845 16.6509C15.9534 17.2054 14.9247 17.4995 13.8748 17.5002Z"/>
</svg>
