<svg width="19" height="19" viewBox="0 0 19 19" fill="currentColor" xmlns="http://www.w3.org/2000/svg">
<path d="M18.0603 8.18899L10.5603 0.688992C10.279 0.4079 9.89766 0.25 9.50001 0.25C9.10236 0.25 8.72097 0.4079 8.4397 0.688992L0.939697 8.18899C0.799732 8.32792 0.688783 8.49328 0.6133 8.67547C0.537817 8.85766 0.499308 9.05304 0.500009 9.25024V18.2502C0.500009 18.4492 0.579027 18.6399 0.719679 18.7806C0.860332 18.9212 1.0511 19.0002 1.25001 19.0002H7.25001C7.44892 19.0002 7.63969 18.9212 7.78034 18.7806C7.92099 18.6399 8.00001 18.4492 8.00001 18.2502V13.0002H11V18.2502C11 18.4492 11.079 18.6399 11.2197 18.7806C11.3603 18.9212 11.5511 19.0002 11.75 19.0002H17.75C17.9489 19.0002 18.1397 18.9212 18.2803 18.7806C18.421 18.6399 18.5 18.4492 18.5 18.2502V9.25024C18.5007 9.05304 18.4622 8.85766 18.3867 8.67547C18.3112 8.49328 18.2003 8.32792 18.0603 8.18899ZM17 17.5002H12.5V12.2502C12.5 12.0513 12.421 11.8606 12.2803 11.7199C12.1397 11.5793 11.9489 11.5002 11.75 11.5002H7.25001C7.0511 11.5002 6.86033 11.5793 6.71968 11.7199C6.57903 11.8606 6.50001 12.0513 6.50001 12.2502V17.5002H2.00001V9.25024L9.50001 1.75024L17 9.25024V17.5002Z"/>
</svg>
