<svg width="24" height="21" viewBox="0 0 24 21" fill="none" xmlns="http://www.w3.org/2000/svg">
<path fill-rule="evenodd" clip-rule="evenodd" d="M0 0.987305H23.3333V20.9873H0V9.55013C4.35374 9.55013 7.74988 9.93936 10.1988 10.7076C9.83798 10.9458 9.48582 11.1558 9.19205 11.331C8.98678 11.4534 8.80997 11.5588 8.67878 11.6449C8.67878 11.6449 9.98043 11.5381 11.5476 11.2108C13.5677 12.1061 14.6898 13.3595 14.9236 14.9614C15.1724 16.6665 12.5701 18.2173 11.1288 19.0762C10.8803 19.2244 10.6663 19.3519 10.5074 19.4561C10.5074 19.4561 21.1905 18.58 20.4143 14.4016C20.0574 12.48 17.7207 11.1607 14.6374 10.2701C16.0526 9.63866 17.0973 8.73766 16.8615 7.46736C16.1288 3.52035 5.29638 2.648 0 2.648V0.987305ZM11.6222 9.56613C12.1 9.06242 12.4105 8.50695 12.3264 7.93007C11.8957 4.97759 7.81626 3.45764 0 3.45764V8.57054C3.04 8.57054 7.58643 8.80778 11.6222 9.56613Z" fill="#DC1F33"/>
</svg>
