<svg width="21" height="18" viewBox="0 0 21 18" fill="currentColor" xmlns="http://www.w3.org/2000/svg">
<path d="M19.9613 1.65854C19.8714 1.58854 19.7668 1.53992 19.6554 1.51636C19.5439 1.49281 19.4286 1.49494 19.3181 1.5226L13.5872 2.9551L7.83563 0.0788546C7.67537 -0.00107695 7.49181 -0.0210294 7.31812 0.0226047L1.31812 1.5226C1.15587 1.56316 1.01183 1.65679 0.908889 1.7886C0.805951 1.92042 0.750025 2.08286 0.75 2.2501V15.7501C0.750017 15.8641 0.776005 15.9765 0.825991 16.0789C0.875976 16.1814 0.948644 16.271 1.03847 16.3412C1.12831 16.4113 1.23294 16.46 1.34442 16.4837C1.45591 16.5073 1.57131 16.5052 1.68187 16.4776L7.41281 15.0451L13.1644 17.9214C13.2688 17.9728 13.3836 17.9998 13.5 18.0001C13.5613 18.0001 13.6224 17.9925 13.6819 17.9776L19.6819 16.4776C19.8441 16.437 19.9882 16.3434 20.0911 16.2116C20.194 16.0798 20.25 15.9174 20.25 15.7501V2.2501C20.25 2.13603 20.224 2.02346 20.174 1.92095C20.124 1.81844 20.0512 1.7287 19.9613 1.65854ZM8.25 1.96323L12.75 4.21323V16.037L8.25 13.787V1.96323ZM2.25 2.83604L6.75 1.71104V13.6642L2.25 14.7892V2.83604ZM18.75 15.1642L14.25 16.2892V4.33604L18.75 3.21104V15.1642Z"/>
</svg>
