<svg width="24" height="25" viewBox="0 0 24 25" fill="currentColor" xmlns="http://www.w3.org/2000/svg">
<path d="M12 16.0127C11.2089 16.0127 10.4355 15.7781 9.77772 15.3386C9.11992 14.899 8.60723 14.2743 8.30448 13.5434C8.00173 12.8125 7.92252 12.0083 8.07686 11.2323C8.2312 10.4564 8.61216 9.74368 9.17157 9.18427C9.73098 8.62486 10.4437 8.24389 11.2196 8.08955C11.9956 7.93521 12.7998 8.01443 13.5307 8.31718C14.2616 8.61993 14.8864 9.13262 15.3259 9.79041C15.7654 10.4482 16 11.2216 16 12.0127C16 13.0736 15.5786 14.091 14.8284 14.8411C14.0783 15.5913 13.0609 16.0127 12 16.0127ZM12 10.0127C11.6044 10.0127 11.2178 10.13 10.8889 10.3498C10.56 10.5695 10.3036 10.8819 10.1522 11.2473C10.0009 11.6128 9.96126 12.0149 10.0384 12.4029C10.1156 12.7908 10.3061 13.1472 10.5858 13.4269C10.8655 13.7066 11.2219 13.8971 11.6098 13.9743C11.9978 14.0514 12.3999 14.0118 12.7654 13.8605C13.1308 13.7091 13.4432 13.4527 13.6629 13.1238C13.8827 12.7949 14 12.4083 14 12.0127C14 11.4823 13.7893 10.9736 13.4142 10.5985C13.0391 10.2234 12.5304 10.0127 12 10.0127ZM12.5 22.0127H11.5C10.837 22.0127 10.2011 21.7493 9.73223 21.2805C9.26339 20.8116 9 20.1757 9 19.5127C9.00199 19.4896 8.99644 19.4665 8.98418 19.4469C8.97192 19.4272 8.95361 19.4121 8.932 19.4037C8.883 19.3797 8.826 19.4317 8.826 19.4317C8.35675 19.9016 7.72042 20.1663 7.05636 20.168C6.3923 20.1697 5.75463 19.9082 5.283 19.4407L4.577 18.7337C4.34458 18.5011 4.16033 18.2249 4.03481 17.9209C3.90929 17.617 3.84497 17.2913 3.84553 16.9625C3.84609 16.6336 3.91151 16.3081 4.03806 16.0046C4.16461 15.7011 4.34979 15.4255 4.583 15.1937C4.59976 15.1785 4.61087 15.158 4.6145 15.1357C4.61813 15.1133 4.61408 15.0904 4.603 15.0707C4.59164 15.0536 4.57638 15.0394 4.55847 15.0293C4.54057 15.0192 4.52053 15.0135 4.5 15.0127C3.83696 15.0127 3.20107 14.7493 2.73223 14.2805C2.26339 13.8116 2 13.1757 2 12.5127V11.5127C2 10.8497 2.26339 10.2138 2.73223 9.74493C3.20107 9.27609 3.83696 9.0127 4.5 9.0127C4.52231 9.0139 4.54448 9.00846 4.56371 8.99707C4.58293 8.98568 4.59834 8.96885 4.608 8.9487C4.61538 8.93184 4.61722 8.91308 4.61327 8.89512C4.60932 8.87715 4.59977 8.8609 4.586 8.8487C4.352 8.61656 4.16605 8.34057 4.03879 8.03651C3.91153 7.73245 3.84546 7.40629 3.84434 7.07668C3.84323 6.74707 3.9071 6.42047 4.0323 6.11556C4.1575 5.81065 4.34157 5.53341 4.574 5.2997L5.282 4.5907C5.75172 4.12372 6.38715 3.86161 7.0495 3.86161C7.71185 3.86161 8.34728 4.12372 8.817 4.5907C8.83074 4.61017 8.85099 4.6241 8.87409 4.62996C8.89719 4.63583 8.92163 4.63325 8.943 4.6227C9 4.5927 9 4.5127 9 4.5127C9 3.84965 9.26339 3.21377 9.73223 2.74493C10.2011 2.27609 10.837 2.0127 11.5 2.0127H12.5C13.163 2.0127 13.7989 2.27609 14.2678 2.74493C14.7366 3.21377 15 3.84965 15 4.5127C15 4.5127 14.995 4.6127 15.05 4.6327C15.0702 4.63901 15.0916 4.64003 15.1123 4.63565C15.1329 4.63127 15.1521 4.62165 15.168 4.6077C15.3998 4.37017 15.6768 4.18144 15.9827 4.05264C16.2885 3.92383 16.6171 3.85755 16.949 3.8577C17.2775 3.85654 17.6029 3.92065 17.9064 4.04631C18.2099 4.17197 18.4855 4.35667 18.717 4.5897L19.417 5.2897C19.8857 5.75851 20.149 6.39428 20.149 7.0572C20.149 7.72011 19.8857 8.35588 19.417 8.8247C19.403 8.8457 19.345 8.8887 19.368 8.9487C19.3706 8.95975 19.3753 8.97018 19.382 8.97939C19.3886 8.9886 19.397 8.99641 19.4067 9.00236C19.4163 9.00831 19.4271 9.01228 19.4383 9.01406C19.4495 9.01583 19.461 9.01537 19.472 9.0127C19.8023 9.01019 20.1299 9.07294 20.4359 9.19735C20.7419 9.32175 21.0204 9.50536 21.2552 9.73764C21.4901 9.96992 21.6768 10.2463 21.8046 10.5509C21.9324 10.8555 21.9988 11.1824 22 11.5127V12.5127C22 13.1757 21.7366 13.8116 21.2678 14.2805C20.7989 14.7493 20.163 15.0127 19.5 15.0127C19.44 15.0127 19.386 15.0127 19.367 15.0617C19.348 15.1107 19.358 15.1417 19.407 15.1827C19.6425 15.4141 19.8299 15.6898 19.9583 15.994C20.0867 16.2981 20.1535 16.6247 20.155 16.9549C20.1565 17.285 20.0926 17.6122 19.9669 17.9175C19.8413 18.2228 19.6564 18.5002 19.423 18.7337L18.723 19.4397C18.2533 19.9067 17.6178 20.1688 16.9555 20.1688C16.2932 20.1688 15.6577 19.9067 15.188 19.4397C15.188 19.4397 15.132 19.3717 15.076 19.3917C15.0561 19.3977 15.0385 19.4098 15.0258 19.4263C15.013 19.4428 15.0058 19.4629 15.005 19.4837C15.0076 19.8145 14.9448 20.1426 14.8202 20.4491C14.6955 20.7555 14.5115 21.0343 14.2786 21.2694C14.0458 21.5044 13.7688 21.6911 13.4636 21.8187C13.1583 21.9462 12.8308 22.0122 12.5 22.0127ZM9.671 17.5447L9.715 17.5627C10.0938 17.7222 10.4174 17.9893 10.6458 18.3309C10.8742 18.6726 10.9974 19.0737 11 19.4847C10.9973 19.5524 11.0082 19.62 11.0321 19.6834C11.0559 19.7468 11.0922 19.8048 11.1387 19.854C11.1853 19.9032 11.2413 19.9426 11.3033 19.9699C11.3654 19.9971 11.4322 20.0117 11.5 20.0127H12.5C12.6326 20.0127 12.7598 19.96 12.8536 19.8662C12.9473 19.7725 13 19.6453 13 19.5127C13.0002 19.093 13.1247 18.6827 13.3578 18.3337C13.591 17.9847 13.9223 17.7126 14.31 17.5517C14.6899 17.3952 15.1077 17.3545 15.5107 17.4348C15.9137 17.515 16.284 17.7126 16.575 18.0027C16.6208 18.0531 16.6762 18.0937 16.7381 18.1221C16.7999 18.1506 16.8668 18.1663 16.9348 18.1684C17.0029 18.1704 17.0706 18.1588 17.134 18.1341C17.1975 18.1094 17.2553 18.0722 17.304 18.0247L18.004 17.3247C18.0506 17.2782 18.0875 17.2231 18.1127 17.1623C18.1379 17.1016 18.1509 17.0365 18.1509 16.9707C18.1509 16.9049 18.1379 16.8398 18.1127 16.7791C18.0875 16.7183 18.0506 16.6631 18.004 16.6167C17.7144 16.3254 17.5154 15.9565 17.4311 15.5545C17.3468 15.1526 17.3808 14.7348 17.529 14.3517C17.535 14.3357 17.54 14.3207 17.547 14.3047L17.553 14.2907C17.7106 13.9114 17.9774 13.5874 18.3194 13.3599C18.6614 13.1324 19.0632 13.0115 19.474 13.0127C19.5416 13.0152 19.609 13.0042 19.6722 12.9803C19.7355 12.9564 19.7933 12.9201 19.8424 12.8735C19.8914 12.8269 19.9306 12.771 19.9576 12.709C19.9847 12.6471 19.9991 12.5803 20 12.5127V11.5127C20 11.3801 19.9473 11.2529 19.8536 11.1591C19.7598 11.0654 19.6326 11.0127 19.5 11.0127C19.0828 11.0174 18.6739 10.8969 18.3259 10.6667C17.9779 10.4366 17.707 10.1074 17.548 9.72169L17.529 9.6757C17.3772 9.29836 17.3402 8.88461 17.4225 8.48631C17.5049 8.08801 17.703 7.72289 17.992 7.4367C18.0419 7.39071 18.0822 7.33518 18.1103 7.27338C18.1384 7.21159 18.1539 7.14479 18.1557 7.07692C18.1576 7.00905 18.1458 6.9415 18.1211 6.87825C18.0965 6.81501 18.0593 6.75735 18.012 6.7087L17.312 6.0087C17.2655 5.96229 17.2103 5.92552 17.1495 5.90046C17.0888 5.87541 17.0237 5.86258 16.958 5.8627C16.8922 5.86271 16.8271 5.8757 16.7664 5.90093C16.7056 5.92615 16.6504 5.96311 16.604 6.0097C16.3083 6.30396 15.9327 6.50483 15.5237 6.58733C15.1148 6.66982 14.6906 6.63031 14.304 6.4737C13.9177 6.31909 13.5868 6.05191 13.3542 5.70685C13.1217 5.36179 12.9983 4.95479 13 4.5387C13.0025 4.47112 12.9915 4.40372 12.9676 4.34046C12.9437 4.2772 12.9074 4.21936 12.8608 4.17035C12.8142 4.12133 12.7583 4.08213 12.6963 4.05506C12.6344 4.02799 12.5676 4.01358 12.5 4.0127H11.5C11.3674 4.0127 11.2402 4.06537 11.1464 4.15914C11.0527 4.25291 11 4.38009 11 4.5127C11.003 4.92814 10.8827 5.33515 10.6544 5.68222C10.426 6.02929 10.0999 6.30083 9.71715 6.46248C9.33443 6.62414 8.91237 6.66863 8.50435 6.59035C8.09634 6.51206 7.72071 6.31452 7.425 6.0227C7.37934 5.97282 7.32415 5.93261 7.26268 5.90443C7.20122 5.87625 7.13473 5.86067 7.06714 5.85862C6.99956 5.85657 6.93225 5.86809 6.86919 5.89249C6.80613 5.91689 6.7486 5.95368 6.7 6.0007L5.988 6.7127C5.89426 6.80646 5.84161 6.93361 5.84161 7.0662C5.84161 7.19878 5.89426 7.32593 5.988 7.4197C6.28487 7.71032 6.48834 8.08285 6.57242 8.48969C6.65649 8.89654 6.61735 9.31921 6.46 9.7037C6.43347 9.77007 6.39995 9.83342 6.36 9.8927C6.18316 10.2265 5.91978 10.5067 5.59746 10.7037C5.27514 10.9008 4.90575 11.0075 4.528 11.0127C4.46029 11.01 4.39273 11.0209 4.3293 11.0447C4.26587 11.0686 4.20785 11.1049 4.15865 11.1514C4.10945 11.198 4.07006 11.254 4.04282 11.316C4.01557 11.3781 4.00101 11.4449 4 11.5127V12.5127C4 12.6453 4.05268 12.7725 4.14645 12.8662C4.24021 12.96 4.36739 13.0127 4.5 13.0127C4.91367 13.008 5.31938 13.1265 5.66542 13.3532C6.01146 13.5799 6.28216 13.9045 6.443 14.2857L6.449 14.2997C6.458 14.3207 6.466 14.3407 6.473 14.3627C6.61912 14.7408 6.65269 15.1531 6.56964 15.5499C6.4866 15.9467 6.29049 16.3109 6.005 16.5987C5.95512 16.6458 5.91525 16.7025 5.88776 16.7654C5.86027 16.8283 5.84573 16.8961 5.845 16.9647C5.84442 17.0306 5.85704 17.096 5.88211 17.157C5.90718 17.2179 5.94421 17.2733 5.991 17.3197L6.697 18.0257C6.79076 18.1194 6.91792 18.1721 7.0505 18.1721C7.18308 18.1721 7.31024 18.1194 7.404 18.0257C7.69242 17.731 8.06147 17.5282 8.46481 17.4426C8.86815 17.357 9.28778 17.3925 9.671 17.5447Z" />
</svg>
