<svg width="13" height="24" viewBox="0 0 13 24" fill="currentColor" xmlns="http://www.w3.org/2000/svg">
<path d="M7.25 14.3438V8.25C7.25 8.05109 7.17098 7.86032 7.03033 7.71967C6.88968 7.57902 6.69891 7.5 6.5 7.5C6.30109 7.5 6.11032 7.57902 5.96967 7.71967C5.82902 7.86032 5.75 8.05109 5.75 8.25V14.3438C5.04301 14.5263 4.42686 14.9604 4.01705 15.5648C3.60724 16.1691 3.43191 16.9021 3.52391 17.6265C3.61592 18.3509 3.96895 19.0168 4.51683 19.4995C5.06471 19.9822 5.76982 20.2485 6.5 20.2485C7.23018 20.2485 7.9353 19.9822 8.48317 19.4995C9.03105 19.0168 9.38408 18.3509 9.47609 17.6265C9.5681 16.9021 9.39276 16.1691 8.98295 15.5648C8.57314 14.9604 7.95699 14.5263 7.25 14.3438ZM6.5 18.75C6.20333 18.75 5.91332 18.662 5.66665 18.4972C5.41997 18.3324 5.22771 18.0981 5.11418 17.824C5.00065 17.5499 4.97094 17.2483 5.02882 16.9574C5.0867 16.6664 5.22956 16.3991 5.43934 16.1893C5.64912 15.9796 5.91639 15.8367 6.20737 15.7788C6.49834 15.7209 6.79994 15.7507 7.07403 15.8642C7.34812 15.9777 7.58238 16.17 7.7472 16.4166C7.91203 16.6633 8 16.9533 8 17.25C8 17.6478 7.84197 18.0294 7.56066 18.3107C7.27936 18.592 6.89783 18.75 6.5 18.75ZM10.25 12.5625V4.5C10.25 3.50544 9.85491 2.55161 9.15165 1.84835C8.44839 1.14509 7.49456 0.75 6.5 0.75C5.50544 0.75 4.55161 1.14509 3.84835 1.84835C3.14509 2.55161 2.75 3.50544 2.75 4.5V12.5625C1.77961 13.3394 1.07449 14.3986 0.732094 15.5936C0.389694 16.7886 0.426917 18.0605 0.838618 19.2334C1.25032 20.4063 2.01617 21.4224 3.03034 22.1413C4.0445 22.8601 5.25691 23.2463 6.5 23.2463C7.74309 23.2463 8.9555 22.8601 9.96966 22.1413C10.9838 21.4224 11.7497 20.4063 12.1614 19.2334C12.5731 18.0605 12.6103 16.7886 12.2679 15.5936C11.9255 14.3986 11.2204 13.3394 10.25 12.5625ZM6.5 21.75C5.54182 21.7501 4.60863 21.4443 3.8363 20.8772C3.06396 20.3101 2.4928 19.5113 2.20598 18.597C1.91915 17.6828 1.93164 16.7009 2.24161 15.7942C2.55159 14.8876 3.14287 14.1035 3.92938 13.5563C4.0289 13.4868 4.11007 13.3942 4.16592 13.2864C4.22176 13.1786 4.25062 13.0589 4.25 12.9375V4.5C4.25 3.90326 4.48705 3.33097 4.90901 2.90901C5.33097 2.48705 5.90326 2.25 6.5 2.25C7.09674 2.25 7.66903 2.48705 8.09099 2.90901C8.51295 3.33097 8.75 3.90326 8.75 4.5V12.9375C8.74999 13.0583 8.77913 13.1772 8.83495 13.2843C8.89077 13.3914 8.97162 13.4834 9.07063 13.5525C9.85877 14.0992 10.4516 14.8835 10.7626 15.7908C11.0737 16.6982 11.0866 17.6812 10.7996 18.5965C10.5126 19.5117 9.94063 20.3113 9.16717 20.8786C8.3937 21.4459 7.4592 21.7512 6.5 21.75Z" />
</svg>
