<svg width="25" height="25" viewBox="0 0 25 25" fill="none" xmlns="http://www.w3.org/2000/svg">
<circle cx="12.7153" cy="12.6304" r="12" fill="white"/>
<path fill-rule="evenodd" clip-rule="evenodd" d="M13.2349 8.01495C13.2349 7.73231 13.0058 7.50317 12.7231 7.50317C12.4405 7.50317 12.2114 7.73231 12.2114 8.01495C12.2114 8.2976 12.4405 8.52674 12.7231 8.52674C13.0058 8.52674 13.2349 8.2976 13.2349 8.01495ZM16.1594 12.694C16.1594 14.5918 14.621 16.1302 12.7232 16.1302C10.8254 16.1302 9.28694 14.5918 9.28694 12.694C9.28694 10.7962 10.8254 9.25775 12.7232 9.25775C14.621 9.25775 16.1594 10.7962 16.1594 12.694ZM12.7231 16.8003C13.0058 16.8003 13.2349 17.0294 13.2349 17.3121C13.2349 17.5947 13.0058 17.8238 12.7231 17.8238C12.4405 17.8238 12.2114 17.5947 12.2114 17.3121C12.2114 17.0294 12.4405 16.8003 12.7231 16.8003ZM17.4024 13.2058C17.6851 13.2058 17.9142 12.9767 17.9142 12.694C17.9142 12.4114 17.6851 12.1822 17.4024 12.1822C17.1198 12.1822 16.8906 12.4114 16.8906 12.694C16.8906 12.9767 17.1198 13.2058 17.4024 13.2058ZM8.4961 12.694C8.4961 12.9767 8.26697 13.2058 7.98432 13.2058C7.70167 13.2058 7.47253 12.9767 7.47253 12.694C7.47253 12.4114 7.70167 12.1822 7.98432 12.1822C8.26697 12.1822 8.4961 12.4114 8.4961 12.694ZM15.67 16.3645C15.8698 16.5644 16.1939 16.5644 16.3937 16.3645C16.5936 16.1646 16.5936 15.8406 16.3937 15.6407C16.1939 15.4409 15.8698 15.4409 15.67 15.6407C15.4701 15.8406 15.4701 16.1646 15.67 16.3645ZM9.77653 9.74724C9.57667 9.9471 9.25262 9.9471 9.05276 9.74724C8.8529 9.54737 8.8529 9.22333 9.05276 9.02347C9.25262 8.82361 9.57667 8.82361 9.77653 9.02347C9.97639 9.22333 9.97639 9.54737 9.77653 9.74724ZM16.3937 9.74728C16.5936 9.54742 16.5936 9.22337 16.3937 9.02351C16.1938 8.82365 15.8698 8.82365 15.6699 9.02351C15.4701 9.22337 15.4701 9.54742 15.6699 9.74728C15.8698 9.94714 16.1938 9.94714 16.3937 9.74728ZM9.7766 15.6407C9.97647 15.8406 9.97647 16.1646 9.7766 16.3645C9.57674 16.5643 9.2527 16.5643 9.05284 16.3645C8.85297 16.1646 8.85297 15.8406 9.05284 15.6407C9.2527 15.4408 9.57674 15.4408 9.7766 15.6407Z" fill="url(#paint0_linear_19_3897)"/>
<defs>
<linearGradient id="paint0_linear_19_3897" x1="12.6934" y1="7.50317" x2="12.6934" y2="17.8239" gradientUnits="userSpaceOnUse">
<stop stop-color="#FFD600"/>
<stop offset="1" stop-color="#FFB800"/>
</linearGradient>
</defs>
</svg>
