<svg width="25" height="25" viewBox="0 0 25 25" fill="none" xmlns="http://www.w3.org/2000/svg">
<circle cx="12.9819" cy="12.6304" r="12" fill="white"/>
<path fill-rule="evenodd" clip-rule="evenodd" d="M18.7249 11.6075C17.2136 11.9445 15.6916 11.0324 15.2871 9.52247C15.1617 9.05455 15.1579 8.58269 15.2565 8.14048C15.2159 8.14953 15.1753 8.15949 15.1347 8.17036C13.5842 8.5858 12.6641 10.1795 13.0796 11.73C13.495 13.2804 15.0887 14.2006 16.6392 13.7851C17.7217 13.495 18.497 12.6306 18.7249 11.6075Z" fill="url(#paint0_linear_19_3856)"/>
<path fill-rule="evenodd" clip-rule="evenodd" d="M15.9758 12.3032C15.9758 12.8385 15.5324 13.285 14.9697 13.285L14.9455 13.2847V13.285H9.81821C9.69771 13.285 9.60003 13.3827 9.60003 13.5032C9.60003 13.6237 9.69771 13.7214 9.81821 13.7214L14.9697 13.7214L15.0546 13.7214C15.0726 13.7214 15.0902 13.7192 15.107 13.715C15.8392 13.6471 16.4122 13.0409 16.4122 12.3032C16.4122 11.52 15.7664 10.885 14.9697 10.885L14.9532 10.8851L14.9455 10.885C14.825 10.885 14.7273 10.9827 14.7273 11.1032C14.7273 11.2237 14.825 11.3214 14.9455 11.3214V11.3217L14.9697 11.3214C15.5324 11.3214 15.9758 11.7679 15.9758 12.3032ZM7.60007 12.1971C7.60007 12.0616 7.70996 11.9517 7.84552 11.9517H12.4455C12.5811 11.9517 12.691 12.0616 12.691 12.1971C12.691 12.3327 12.5811 12.4426 12.4455 12.4426H7.84552C7.70996 12.4426 7.60007 12.3327 7.60007 12.1971ZM12.4364 14.9214V14.9215C12.9874 14.9341 13.4182 15.3754 13.4182 15.9032C13.4182 16.4309 12.9874 16.8723 12.4364 16.8849V16.885C12.3159 16.885 12.2182 16.9827 12.2182 17.1032C12.2182 17.2237 12.3159 17.3214 12.4364 17.3214C13.2218 17.3087 13.8546 16.6786 13.8546 15.9032C13.8546 15.1309 13.2268 14.5027 12.4457 14.4852L12.4364 14.485H7.30912C7.18862 14.485 7.09094 14.5827 7.09094 14.7032C7.09094 14.8237 7.18862 14.9214 7.30912 14.9214H12.4364Z" fill="black"/>
<circle cx="16.2546" cy="15.2485" r="0.218182" fill="#6134FF"/>
<circle cx="18.0001" cy="9.46668" r="0.327273" fill="url(#paint1_linear_19_3856)"/>
<circle cx="12.1092" cy="10.6667" r="0.218182" fill="url(#paint2_linear_19_3856)"/>
<defs>
<linearGradient id="paint0_linear_19_3856" x1="16.03" y1="13.9483" x2="14.5256" y2="8.33369" gradientUnits="userSpaceOnUse">
<stop stop-color="#B486FF"/>
<stop offset="1" stop-color="#4C20FF"/>
</linearGradient>
<linearGradient id="paint1_linear_19_3856" x1="18.0001" y1="9.1394" x2="18.0001" y2="9.79395" gradientUnits="userSpaceOnUse">
<stop stop-color="#C3B1FF"/>
<stop offset="1" stop-color="#6134FF"/>
</linearGradient>
<linearGradient id="paint2_linear_19_3856" x1="12.1092" y1="10.4485" x2="12.1092" y2="10.8848" gradientUnits="userSpaceOnUse">
<stop stop-color="#C3B1FF"/>
<stop offset="1" stop-color="#6134FF"/>
</linearGradient>
</defs>
</svg>
