<svg width="25" height="25" viewBox="0 0 25 25" fill="none" xmlns="http://www.w3.org/2000/svg">
<ellipse cx="12.9819" cy="12.9067" rx="12" ry="12" fill="white"/>
<path fill-rule="evenodd" clip-rule="evenodd" d="M8.42043 11.4268C8.86593 10.9813 9.4294 10.7257 10.0103 10.6599C10.0747 9.23894 11.2472 8.10669 12.6841 8.10669C14.0749 8.10669 15.2179 9.16745 15.3483 10.524C16.6824 10.3155 17.9865 11.1427 18.3439 12.4765C18.7262 13.9034 17.8802 15.3701 16.454 15.7539L16.4513 15.7546C16.3184 15.7902 16.1819 15.7114 16.1463 15.5786L16.1407 15.5519C16.1215 15.4279 16.1984 15.3068 16.3224 15.2736L16.3224 15.2736C17.4846 14.9622 18.1743 13.7676 17.8629 12.6054C17.5515 11.4431 16.3568 10.7534 15.1946 11.0649L16.1407 15.5519C16.1408 15.5527 16.141 15.5535 16.1411 15.5543L15.1631 11.027C15.1465 11.0304 15.1293 11.0323 15.1117 11.0323C14.9742 11.0323 14.8627 10.9208 14.8627 10.7833V10.7833H14.8626V10.7833C14.8626 9.58004 13.8872 8.60464 12.684 8.60464C11.5256 8.60464 10.5783 9.50885 10.5094 10.65C11.1258 10.6951 11.7295 10.9526 12.2016 11.4227L12.2058 11.4268C12.303 11.5241 12.303 11.6817 12.2058 11.7789C12.1085 11.8762 11.9509 11.8762 11.8537 11.7789L11.8536 11.7789L11.8536 11.7789C11.0028 10.9281 9.62336 10.9281 8.77256 11.7789C7.92318 12.6283 7.92177 14.0046 8.76834 14.8557L8.77268 14.8599C8.86991 14.9572 8.86991 15.1148 8.77268 15.212C8.67544 15.3093 8.51779 15.3093 8.42056 15.212L8.42049 15.212L8.42043 15.212C7.37516 14.1668 7.37516 12.4721 8.42043 11.4268ZM16.1463 15.5786L16.1411 15.5543C16.1424 15.5624 16.1442 15.5705 16.1463 15.5786Z" fill="black"/>
<ellipse cx="13.091" cy="14.3248" rx="0.545454" ry="0.545455" fill="url(#paint0_linear_19_3517)"/>
<ellipse cx="10.5273" cy="16.1247" rx="0.490909" ry="0.490909" fill="url(#paint1_linear_19_3517)"/>
<ellipse cx="13.0365" cy="17.2158" rx="0.381818" ry="0.381818" fill="url(#paint2_linear_19_3517)"/>
<ellipse cx="14.8364" cy="16.0702" rx="0.327272" ry="0.327273" fill="url(#paint3_linear_19_3517)"/>
<defs>
<linearGradient id="paint0_linear_19_3517" x1="13.091" y1="13.7793" x2="13.091" y2="14.8702" gradientUnits="userSpaceOnUse">
<stop stop-color="#9AC4FF"/>
<stop offset="1" stop-color="#3A8BFF"/>
</linearGradient>
<linearGradient id="paint1_linear_19_3517" x1="10.5273" y1="15.6338" x2="10.5273" y2="16.6156" gradientUnits="userSpaceOnUse">
<stop stop-color="#9AC4FF"/>
<stop offset="1" stop-color="#3A8BFF"/>
</linearGradient>
<linearGradient id="paint2_linear_19_3517" x1="13.0365" y1="16.834" x2="13.0365" y2="17.5976" gradientUnits="userSpaceOnUse">
<stop stop-color="#9AC4FF"/>
<stop offset="1" stop-color="#3A8BFF"/>
</linearGradient>
<linearGradient id="paint3_linear_19_3517" x1="14.8364" y1="15.7429" x2="14.8364" y2="16.3975" gradientUnits="userSpaceOnUse">
<stop stop-color="#9AC4FF"/>
<stop offset="1" stop-color="#3A8BFF"/>
</linearGradient>
</defs>
</svg>
