<svg width="25" height="25" viewBox="0 0 25 25" fill="none" xmlns="http://www.w3.org/2000/svg">
<circle cx="12.5152" cy="12.3542" r="12" fill="white"/>
<path fill-rule="evenodd" clip-rule="evenodd" d="M12.6318 9.1936L12.6338 9.19045C13.2936 8.18626 14.6421 7.90562 15.6478 8.56392C16.6545 9.2229 16.9364 10.5732 16.2774 11.5799L16.2774 11.5799L16.2775 11.58C16.2775 11.58 16.2775 11.58 16.2775 11.58C16.2021 11.695 16.2344 11.8494 16.3494 11.9247C16.4645 12 16.6188 11.9678 16.6941 11.8527C16.6947 11.8517 16.6954 11.8508 16.696 11.8498C17.5032 10.6133 17.1564 8.95629 15.9206 8.14732C14.6844 7.33815 13.0266 7.68366 12.2165 8.91884L12.2152 8.92088C12.1398 9.03593 12.1721 9.19025 12.2871 9.26556C12.4022 9.34087 12.5565 9.30866 12.6318 9.1936Z" fill="#FFD600"/>
<path fill-rule="evenodd" clip-rule="evenodd" d="M7.73552 12.1433C8.18103 11.6978 8.74451 11.4422 9.3254 11.3765C9.38986 9.9555 10.5623 8.82324 11.9992 8.82324C13.39 8.82324 14.533 9.884 14.6634 11.2406C15.9975 11.032 17.3016 11.8593 17.659 13.193C18.0413 14.6199 17.1954 16.0866 15.7692 16.4704L15.7664 16.4712C15.6336 16.5068 15.497 16.4279 15.4614 16.2951C15.4258 16.1623 15.5047 16.0258 15.6375 15.9902L15.6375 15.9902L15.6375 15.9902C16.7997 15.6787 17.4894 14.4841 17.178 13.3219C16.8666 12.1597 15.6719 11.47 14.5097 11.7814L14.5097 11.7814C14.3827 11.8154 14.2522 11.7448 14.21 11.6224C14.1895 11.5862 14.1778 11.5444 14.1778 11.4998V11.4998H14.1778V11.4998C14.1778 10.2966 13.2024 9.32119 11.9991 9.32119C10.8407 9.32119 9.89339 10.2254 9.82455 11.3666C10.4409 11.4116 11.0446 11.6692 11.5166 12.1392L11.5209 12.1434C11.6181 12.2406 11.6181 12.3983 11.5209 12.4955C11.4236 12.5927 11.266 12.5927 11.1688 12.4955L11.1687 12.4954L11.1687 12.4955C10.3179 11.6447 8.93846 11.6447 8.08766 12.4955C7.23826 13.3449 7.23686 14.7211 8.08346 15.5723L8.08777 15.5765C8.18501 15.6737 8.18501 15.8314 8.08777 15.9286C7.99054 16.0258 7.83289 16.0258 7.73565 15.9286L7.73559 15.9285L7.73552 15.9286C6.69025 14.8833 6.69025 13.1886 7.73552 12.1433Z" fill="black"/>
</svg>
