<svg width="16" height="16" viewBox="0 0 16 16" fill="none" xmlns="http://www.w3.org/2000/svg">
<path fill-rule="evenodd" clip-rule="evenodd" d="M3.33325 1.33334C2.22868 1.33334 1.33325 2.22877 1.33325 3.33334V8.00001C1.33325 8.3682 1.63173 8.66668 1.99992 8.66668H6.66659C7.03477 8.66668 7.33325 8.3682 7.33325 8.00001V2.00001C7.33325 1.63182 7.03477 1.33334 6.66659 1.33334H3.33325ZM2.66659 3.33334C2.66659 2.96515 2.96506 2.66668 3.33325 2.66668H5.99992V7.33334H2.66659V3.33334Z" fill="#5A6672"/>
<path fill-rule="evenodd" clip-rule="evenodd" d="M1.99992 10C1.63173 10 1.33325 10.2985 1.33325 10.6667V12.6667C1.33325 13.7712 2.22868 14.6667 3.33325 14.6667H6.66659C7.03477 14.6667 7.33325 14.3682 7.33325 14V10.6667C7.33325 10.2985 7.03477 10 6.66659 10H1.99992ZM2.66659 12.6667V11.3333H5.99992V13.3333H3.33325C2.96506 13.3333 2.66659 13.0349 2.66659 12.6667Z" fill="#5A6672"/>
<path fill-rule="evenodd" clip-rule="evenodd" d="M8.66659 8.00001C8.66659 7.63182 8.96506 7.33334 9.33325 7.33334H13.9999C14.3681 7.33334 14.6666 7.63182 14.6666 8.00001V12.6667C14.6666 13.7712 13.7712 14.6667 12.6666 14.6667H9.33325C8.96506 14.6667 8.66659 14.3682 8.66659 14V8.00001ZM9.99992 8.66668V13.3333H12.6666C13.0348 13.3333 13.3333 13.0349 13.3333 12.6667V8.66668H9.99992Z" fill="#5A6672"/>
<path fill-rule="evenodd" clip-rule="evenodd" d="M9.33325 1.33334C8.96506 1.33334 8.66659 1.63182 8.66659 2.00001V5.33334C8.66659 5.70153 8.96506 6.00001 9.33325 6.00001H13.9999C14.3681 6.00001 14.6666 5.70153 14.6666 5.33334V3.33334C14.6666 2.22877 13.7712 1.33334 12.6666 1.33334H9.33325ZM9.99992 4.66668V2.66668H12.6666C13.0348 2.66668 13.3333 2.96515 13.3333 3.33334V4.66668H9.99992Z" fill="#5A6672"/>
</svg>
