<svg width="25" height="25" viewBox="0 0 25 25" fill="none" xmlns="http://www.w3.org/2000/svg">
<ellipse cx="12.7819" cy="12.9067" rx="12" ry="12" fill="white"/>
<path fill-rule="evenodd" clip-rule="evenodd" d="M8.22038 11.6448C8.66588 11.1993 9.22936 10.9437 9.81025 10.8779C9.8747 9.45696 11.0471 8.32471 12.484 8.32471C13.8748 8.32471 15.0178 9.38546 15.1482 10.7421C16.4823 10.5335 17.7865 11.3607 18.1439 12.6945C18.5262 14.1214 17.6802 15.5881 16.254 15.9719L16.2512 15.9726C16.1184 16.0082 15.9819 15.9294 15.9463 15.7966C15.9107 15.6638 15.9895 15.5272 16.1223 15.4916L16.1223 15.4916C17.2845 15.1802 17.9742 13.9856 17.6628 12.8234C17.3514 11.6612 16.1568 10.9715 14.9946 11.2829L14.9946 11.2829C14.8675 11.3169 14.7371 11.2463 14.6949 11.1239C14.6744 11.0877 14.6627 11.0459 14.6627 11.0013V11.0013H14.6626V11.0013C14.6626 9.79806 13.6872 8.82266 12.484 8.82266C11.3255 8.82266 10.3782 9.72687 10.3094 10.868C10.9257 10.9131 11.5295 11.1707 12.0015 11.6407L12.0057 11.6448C12.103 11.7421 12.103 11.8997 12.0057 11.997C11.9085 12.0942 11.7509 12.0942 11.6536 11.997L11.6536 11.9969L11.6535 11.9969C10.8027 11.1461 9.42332 11.1461 8.57252 11.9969C7.72313 12.8463 7.72172 14.2226 8.56829 15.0737L8.57263 15.0779C8.66987 15.1752 8.66987 15.3328 8.57263 15.4301C8.4754 15.5273 8.31775 15.5273 8.22052 15.4301L8.22045 15.43L8.22038 15.4301C7.17512 14.3848 7.17512 12.6901 8.22038 11.6448Z" fill="black"/>
<path fill-rule="evenodd" clip-rule="evenodd" d="M14.7455 15.3036C14.7632 15.3056 14.7812 15.3066 14.7994 15.3066H14.8008C15.0716 15.3062 15.291 15.0866 15.291 14.8157C15.291 14.5446 15.0712 14.3248 14.8001 14.3248C14.7816 14.3248 14.7634 14.3258 14.7455 14.3278L14.7455 14.3248C14.625 14.3248 14.5273 14.2271 14.5273 14.1066C14.5273 13.9861 14.625 13.8884 14.7455 13.8884C14.7515 13.8884 14.7574 13.8887 14.7633 13.8891C14.7755 13.8887 14.7878 13.8884 14.8001 13.8884C15.3122 13.8884 15.7273 14.3036 15.7273 14.8157C15.7273 15.2923 15.3678 15.6849 14.9052 15.7371C14.889 15.7409 14.872 15.743 14.8546 15.743H14.8005L14.8001 15.743L14.7996 15.743H11.691C11.5705 15.743 11.4728 15.6453 11.4728 15.5248C11.4728 15.4043 11.5705 15.3066 11.691 15.3066H14.7455V15.3036ZM10.1637 14.6521C10.1637 14.5316 10.2614 14.4339 10.3819 14.4339H13.2182C13.3387 14.4339 13.4364 14.5316 13.4364 14.6521C13.4364 14.7726 13.3387 14.8702 13.2182 14.8702H10.3819C10.2614 14.8702 10.1637 14.7726 10.1637 14.6521ZM13.163 16.5066C13.1448 16.5066 13.1268 16.5077 13.1092 16.5096V16.5066H10.0546C9.93411 16.5066 9.83643 16.4089 9.83643 16.2884C9.83643 16.1679 9.93411 16.0702 10.0546 16.0702H13.1632H13.1637H13.1642H13.2182C13.2357 16.0702 13.2526 16.0723 13.2688 16.0761C13.7314 16.1283 14.091 16.5209 14.091 16.9975C14.091 17.5096 13.6758 17.9248 13.1637 17.9248C13.1514 17.9248 13.1391 17.9246 13.1269 17.9241C13.1211 17.9246 13.1151 17.9248 13.1092 17.9248C12.9887 17.9248 12.891 17.8271 12.891 17.7066C12.891 17.5861 12.9887 17.4884 13.1092 17.4884H13.1092V17.4854C13.1271 17.4874 13.1453 17.4884 13.1637 17.4884C13.4348 17.4884 13.6546 17.2686 13.6546 16.9975C13.6546 16.7266 13.4352 16.507 13.1644 16.5066H13.163Z" fill="url(#paint0_linear_19_3415)"/>
<defs>
<linearGradient id="paint0_linear_19_3415" x1="9.83643" y1="14.8702" x2="12.7819" y2="17.9248" gradientUnits="userSpaceOnUse">
<stop stop-color="#95BFFF"/>
<stop offset="1" stop-color="#5096FF"/>
</linearGradient>
</defs>
</svg>
