<svg width="24" height="24" viewBox="0 0 24 24" fill="none" xmlns="http://www.w3.org/2000/svg">
<mask id="mask0_993_20092" style="mask-type:alpha" maskUnits="userSpaceOnUse" x="3" y="3" width="18" height="18">
<path d="M18.75 5.95C18.75 5.5634 18.4366 5.25 18.05 5.25H14.815C14.1913 5.25 13.879 6.004 14.32 6.44498L14.9122 7.03719C15.1856 7.31056 15.1856 7.75378 14.9122 8.02714L13.4646 9.47469C13.1913 9.74806 13.1913 10.1913 13.4646 10.4646L13.5354 10.5353C13.8087 10.8087 14.2519 10.8087 14.5253 10.5353L15.9729 9.0878C16.2462 8.81444 16.6894 8.81444 16.9628 9.0878L17.555 9.68003C17.996 10.121 18.75 9.80869 18.75 9.18505V5.95ZM5.25 18.05C5.25 18.4366 5.5634 18.75 5.95 18.75H9.18505C9.80869 18.75 10.121 17.996 9.68003 17.555L9.0878 16.9628C8.81444 16.6894 8.81444 16.2462 9.0878 15.9729L10.5354 14.5253C10.8087 14.2519 10.8087 13.8087 10.5353 13.5354L10.4646 13.4646C10.1913 13.1913 9.74806 13.1913 9.47469 13.4646L8.02714 14.9122C7.75378 15.1856 7.31056 15.1856 7.03719 14.9122L6.44498 14.32C6.004 13.879 5.25 14.1913 5.25 14.815V18.05Z" fill="#2E2E2E"/>
</mask>
<g mask="url(#mask0_993_20092)">
<rect width="24" height="24" fill="#5A6672"/>
</g>
</svg>
