<svg width="25" height="25" viewBox="0 0 25 25" fill="none" xmlns="http://www.w3.org/2000/svg">
<path d="M18.7096 8.55896L20.2096 7.05896C20.5996 6.66896 20.5996 6.02904 20.2096 5.63904C19.8196 5.24904 19.1796 5.24904 18.7896 5.63904L17.2896 7.13904C17.2296 7.20904 17.1896 7.279 17.1496 7.349C16.0996 6.599 14.8496 6.08907 13.4996 5.91907V4.349H14.4996C15.0496 4.349 15.4996 3.899 15.4996 3.349C15.4996 2.799 15.0496 2.349 14.4996 2.349H10.4996C9.94957 2.349 9.49957 2.799 9.49957 3.349C9.49957 3.899 9.94957 4.349 10.4996 4.349H11.4996V5.91907C7.55957 6.40907 4.49957 9.779 4.49957 13.849C4.49957 18.259 8.08957 21.849 12.4996 21.849C16.9096 21.849 20.4996 18.259 20.4996 13.849C20.4996 11.859 19.7696 10.049 18.5696 8.64905C18.6096 8.61905 18.6696 8.59896 18.7096 8.55896ZM15.1196 17.129C14.9396 17.279 14.7196 17.349 14.4996 17.349C14.2096 17.349 13.9196 17.2191 13.7196 16.9691L11.7196 14.4691C11.5796 14.2991 11.4996 14.079 11.4996 13.849V10.349C11.4996 9.799 11.9496 9.349 12.4996 9.349C13.0496 9.349 13.4996 9.799 13.4996 10.349V13.4989L15.2796 15.7289C15.6296 16.1589 15.5596 16.789 15.1196 17.129Z" fill="#677A8E"/>
</svg>
