<svg width="25" height="25" viewBox="0 0 25 25" fill="none" xmlns="http://www.w3.org/2000/svg">
<path d="M22.0008 8.28894C22.0008 5.75894 20.0008 3.68895 17.5008 3.54895V3.349C17.5008 2.799 17.0508 2.349 16.5008 2.349C15.9508 2.349 15.5008 2.799 15.5008 3.349V3.51892H9.50079V3.349C9.50079 2.799 9.05079 2.349 8.50079 2.349C7.95079 2.349 7.50079 2.799 7.50079 3.349V3.54895C5.00079 3.68895 3.00079 5.75894 3.00079 8.28894V10.1791C3.00079 10.2091 3.01078 10.2389 3.02078 10.2689C3.01078 10.2889 3.00079 10.319 3.00079 10.349V17.349C3.00079 19.829 5.02079 21.849 7.50079 21.849H17.5008C19.9808 21.849 22.0008 19.829 22.0008 17.349V10.349C22.0008 10.319 21.9908 10.2889 21.9808 10.2689C21.9908 10.2389 22.0008 10.2091 22.0008 10.1791V8.28894ZM8.50079 18.349C7.95079 18.349 7.50079 17.899 7.50079 17.349C7.50079 16.799 7.95079 16.349 8.50079 16.349C9.05079 16.349 9.50079 16.799 9.50079 17.349C9.50079 17.899 9.05079 18.349 8.50079 18.349ZM8.50079 14.349C7.95079 14.349 7.50079 13.899 7.50079 13.349C7.50079 12.799 7.95079 12.349 8.50079 12.349C9.05079 12.349 9.50079 12.799 9.50079 13.349C9.50079 13.899 9.05079 14.349 8.50079 14.349ZM12.5008 18.349C11.9508 18.349 11.5008 17.899 11.5008 17.349C11.5008 16.799 11.9508 16.349 12.5008 16.349C13.0508 16.349 13.5008 16.799 13.5008 17.349C13.5008 17.899 13.0508 18.349 12.5008 18.349ZM12.5008 14.349C11.9508 14.349 11.5008 13.899 11.5008 13.349C11.5008 12.799 11.9508 12.349 12.5008 12.349C13.0508 12.349 13.5008 12.799 13.5008 13.349C13.5008 13.899 13.0508 14.349 12.5008 14.349ZM16.5008 18.349C15.9508 18.349 15.5008 17.899 15.5008 17.349C15.5008 16.799 15.9508 16.349 16.5008 16.349C17.0508 16.349 17.5008 16.799 17.5008 17.349C17.5008 17.899 17.0508 18.349 16.5008 18.349ZM16.5008 14.349C15.9508 14.349 15.5008 13.899 15.5008 13.349C15.5008 12.799 15.9508 12.349 16.5008 12.349C17.0508 12.349 17.5008 12.799 17.5008 13.349C17.5008 13.899 17.0508 14.349 16.5008 14.349ZM20.0008 9.849H5.00079V8.28894C5.00079 6.83894 6.1208 5.65894 7.5408 5.53894C7.6308 5.99894 8.02079 6.349 8.50079 6.349C8.99079 6.349 9.38079 5.98892 9.47079 5.51892H15.5308C15.6208 5.98892 16.0108 6.349 16.5008 6.349C16.9808 6.349 17.3708 5.99894 17.4608 5.53894C18.8808 5.65894 20.0008 6.84894 20.0008 8.28894V9.849Z" fill="#677A8E"/>
</svg>
