<svg width="25" height="25" viewBox="0 0 25 25" fill="none" xmlns="http://www.w3.org/2000/svg">
<path d="M3.64009 16.6781C3.09864 15.9171 2.81281 15.026 2.81281 14.099V10.099C2.81281 7.61804 4.84473 5.59904 7.34161 5.59904H12.3736C13.0368 5.59904 13.6689 5.74096 14.2516 6.01896C14.3985 6.08796 14.5032 6.22492 14.5294 6.38492C14.5565 6.54492 14.5052 6.70816 14.3894 6.82316L4.40595 16.7431C4.31134 16.8371 4.18252 16.8891 4.04968 16.8891C4.03559 16.8891 4.0215 16.8881 4.00741 16.8871C3.86048 16.8741 3.72563 16.7981 3.64009 16.6781ZM21.4725 7.94913C20.9562 7.67613 20.3372 7.70701 19.8542 8.02701L18.7069 8.78702C18.6023 8.85702 18.5388 8.97504 18.5388 9.09904V15.099C18.5388 15.224 18.6013 15.341 18.7069 15.411L19.8532 16.1701C20.1169 16.3461 20.4218 16.435 20.7288 16.435C20.9834 16.435 21.239 16.3729 21.4735 16.2489C21.9918 15.9749 22.3128 15.4421 22.3128 14.8581V9.33805C22.3118 8.75505 21.9898 8.22313 21.4725 7.94913ZM21.1363 4.80607C21.5298 4.41507 21.5298 3.783 21.1363 3.392C20.7428 3.001 20.1068 3.001 19.7133 3.392L3.61091 19.392C3.21741 19.783 3.21741 20.4151 3.61091 20.8061C3.80716 21.0011 4.06477 21.099 4.32241 21.099C4.58005 21.099 4.83765 21.0011 5.0339 20.8061L7.26409 18.59C7.29126 18.59 7.31444 18.599 7.34161 18.599H12.3736C14.8705 18.599 16.9024 16.58 16.9024 14.099V10.099C16.9024 9.76404 16.8642 9.43799 16.7927 9.12199L21.1363 4.80607Z" fill="#677A8E"/>
</svg>
