<svg width="25" height="25" viewBox="0 0 25 25" fill="none" xmlns="http://www.w3.org/2000/svg">
<path d="M12.5008 2.599C7.26079 2.599 3.00079 6.859 3.00079 12.099C3.00079 17.339 7.26079 21.599 12.5008 21.599C17.7408 21.599 22.0008 17.339 22.0008 12.099C22.0008 6.859 17.7408 2.599 12.5008 2.599ZM13.5008 17.099H11.5008C10.9508 17.099 10.5008 16.649 10.5008 16.099C10.5008 15.549 10.9508 15.099 11.5008 15.099H13.5008C14.0508 15.099 14.5008 15.549 14.5008 16.099C14.5008 16.649 14.0508 17.099 13.5008 17.099ZM15.0008 13.099H10.0008C9.45079 13.099 9.00079 12.649 9.00079 12.099C9.00079 11.549 9.45079 11.099 10.0008 11.099H15.0008C15.5508 11.099 16.0008 11.549 16.0008 12.099C16.0008 12.649 15.5508 13.099 15.0008 13.099ZM16.5008 9.099H8.50079C7.95079 9.099 7.50079 8.649 7.50079 8.099C7.50079 7.549 7.95079 7.099 8.50079 7.099H16.5008C17.0508 7.099 17.5008 7.549 17.5008 8.099C17.5008 8.649 17.0508 9.099 16.5008 9.099Z" fill="#677A8E"/>
</svg>
