<svg width="25" height="25" viewBox="0 0 25 25" fill="none" xmlns="http://www.w3.org/2000/svg">
<path d="M20.9908 20.1107C20.1688 21.0607 18.9938 21.5987 17.7498 21.5987C17.7108 21.5987 17.6717 21.5987 17.6327 21.5977C9.64475 21.3807 3.21774 14.9536 3.00274 6.96664C2.96774 5.66964 3.51375 4.44062 4.49975 3.59262C5.43675 2.78562 6.65675 2.44871 7.84875 2.66171C8.03175 2.69471 8.18875 2.73661 8.32275 2.78061C8.85075 2.95561 9.23475 3.41279 9.32275 3.97079L9.9928 8.22568C10.0768 8.75868 9.86878 9.29881 9.45178 9.63681C9.36778 9.70481 9.28076 9.76968 9.18976 9.82968C8.95776 9.98768 8.86975 10.2567 8.97375 10.4957C9.97575 12.8007 11.7958 14.6207 14.0998 15.6227C14.3398 15.7276 14.6088 15.6377 14.7708 15.4007C14.8177 15.3327 14.8667 15.2658 14.9167 15.2018C15.2527 14.7738 15.8038 14.5676 16.3478 14.6546L20.6797 15.3758C21.2517 15.4718 21.7168 15.8768 21.8658 16.4088C21.8928 16.5058 21.9188 16.6158 21.9408 16.7408C22.1498 17.9418 21.8038 19.1687 20.9908 20.1107Z" fill="#677A8E"/>
</svg>
