<svg width="25" height="25" viewBox="0 0 25 25" fill="none" xmlns="http://www.w3.org/2000/svg">
<path d="M21.5008 7.099V17.099C21.5008 19.856 19.2578 22.099 16.5008 22.099H12.5008C11.9488 22.099 11.5008 21.652 11.5008 21.099C11.5008 20.546 11.9488 20.099 12.5008 20.099H16.5008C18.1548 20.099 19.5008 18.753 19.5008 17.099V7.099C19.5008 5.445 18.1548 4.099 16.5008 4.099H12.5008C11.9488 4.099 11.5008 3.652 11.5008 3.099C11.5008 2.546 11.9488 2.099 12.5008 2.099H16.5008C19.2578 2.099 21.5008 4.342 21.5008 7.099ZM15.2078 11.392L11.2078 7.39197C10.8168 7.00097 10.1848 7.00097 9.79379 7.39197C9.40279 7.78297 9.40279 8.41503 9.79379 8.80603L12.0868 11.099H4.50079C3.94879 11.099 3.50079 11.546 3.50079 12.099C3.50079 12.652 3.94879 13.099 4.50079 13.099H12.0868L9.79379 15.392C9.40279 15.783 9.40279 16.415 9.79379 16.806C9.98879 17.001 10.2448 17.099 10.5008 17.099C10.7568 17.099 11.0128 17.001 11.2078 16.806L15.2078 12.806C15.5988 12.415 15.5988 11.782 15.2078 11.392Z" fill="#677A8E"/>
</svg>
