<svg width="25" height="25" viewBox="0 0 25 25" fill="none" xmlns="http://www.w3.org/2000/svg">
<path d="M21.9248 8.76735C20.6908 5.24635 17.6288 2.7285 13.9318 2.1985C12.9978 2.0655 12.0058 2.0655 11.0688 2.1985C7.37379 2.7285 4.31181 5.2463 3.08081 8.7593C2.69581 9.8233 2.50079 10.9474 2.50079 12.0994C2.50079 13.2514 2.69578 14.3744 3.07678 15.4304C4.31078 18.9514 7.37276 21.4693 11.0698 21.9993C11.5368 22.0653 12.0178 22.0994 12.5008 22.0994C12.9838 22.0994 13.4648 22.0663 13.9328 21.9993C17.6278 21.4693 20.6898 18.9515 21.9208 15.4385C22.3058 14.3745 22.5008 13.2504 22.5008 12.0984C22.5008 10.9464 22.3058 9.82335 21.9248 8.76735ZM20.5008 12.0984C20.5008 12.7814 20.4148 13.4504 20.2438 14.0994H17.3658C17.4458 13.4354 17.5008 12.7684 17.5008 12.0984C17.5008 11.4284 17.4458 10.7614 17.3658 10.0994H20.2448C20.4148 10.7454 20.5008 11.4144 20.5008 12.0984ZM9.65479 14.0994C9.56379 13.4374 9.50079 12.7684 9.50079 12.0984C9.50079 11.4304 9.56279 10.7634 9.65479 10.0994H15.3478C15.4388 10.7614 15.5018 11.4284 15.5018 12.0984C15.5018 12.7674 15.4398 13.4344 15.3478 14.0994H9.65479ZM4.75677 14.0994C4.58677 13.4534 4.50079 12.7824 4.50079 12.0984C4.50079 11.4164 4.58677 10.7474 4.75677 10.0994H7.6358C7.5558 10.7624 7.50079 11.4294 7.50079 12.0984C7.50079 12.7694 7.5558 13.4374 7.6358 14.0994H4.75677ZM19.4098 8.09938H16.9988C16.7308 6.96838 16.3478 5.87851 15.8518 4.83351C17.3458 5.51951 18.5838 6.65838 19.4098 8.09938ZM13.2028 4.14748C13.9798 5.38048 14.5658 6.70038 14.9458 8.09938H10.0558C10.4348 6.70438 11.0208 5.38248 11.7988 4.14748C12.0328 4.12748 12.2638 4.09841 12.5008 4.09841C12.7388 4.09841 12.9698 4.12748 13.2028 4.14748ZM9.14978 4.83229C8.65278 5.87929 8.26977 6.96938 8.00177 8.09938H5.58978C6.41578 6.65938 7.65478 5.51929 9.14978 4.83229ZM5.59277 16.0994H8.00281C8.27081 17.2294 8.65378 18.3193 9.14978 19.3633C7.65678 18.6783 6.41977 17.5394 5.59277 16.0994ZM11.7978 20.0493C11.0218 18.8163 10.4358 17.4964 10.0558 16.0994H14.9448C14.5658 17.4944 13.9798 18.8153 13.2028 20.0493C12.7348 20.0883 12.2648 20.0883 11.7978 20.0493ZM15.8528 19.3645C16.3488 18.3185 16.7318 17.2284 16.9998 16.0994H19.4108C18.5848 17.5384 17.3468 18.6785 15.8528 19.3645Z" fill="#677A8E"/>
</svg>
