<svg width="25" height="25" viewBox="0 0 25 25" fill="none" xmlns="http://www.w3.org/2000/svg">
<path d="M12.5008 2.099C6.99079 2.099 2.50079 6.589 2.50079 12.099C2.50079 17.609 6.99079 22.099 12.5008 22.099C18.0108 22.099 22.5008 17.609 22.5008 12.099C22.5008 6.589 18.0108 2.099 12.5008 2.099ZM17.2108 10.809L12.2108 15.809C12.0108 15.999 11.7608 16.099 11.5008 16.099C11.2408 16.099 10.9908 15.999 10.7908 15.809L7.7908 12.809C7.4008 12.419 7.4008 11.779 7.7908 11.389C8.1808 10.999 8.82079 10.999 9.21078 11.389L11.5008 13.6891L15.7908 9.38904C16.1808 8.99904 16.8208 8.99904 17.2108 9.38904C17.6008 9.77904 17.6008 10.419 17.2108 10.809Z" fill="#677A8E"/>
</svg>
