<svg width="25" height="25" viewBox="0 0 25 25" fill="none" xmlns="http://www.w3.org/2000/svg">
<path d="M20.8308 9.879H20.8008C20.5624 9.87759 20.3297 9.8056 20.1322 9.67213C19.9346 9.53865 19.7811 9.34966 19.6908 9.129C19.6908 9.12635 19.6897 9.1238 19.6879 9.12193C19.686 9.12005 19.6834 9.119 19.6808 9.119C19.5918 8.89905 19.569 8.65791 19.6152 8.42519C19.6614 8.19247 19.7746 7.9783 19.9408 7.809L19.9708 7.779C20.283 7.46563 20.4582 7.04132 20.4582 6.599C20.4582 6.15667 20.283 5.73237 19.9708 5.419L19.1808 4.639C18.8674 4.32683 18.4431 4.15156 18.0008 4.15156C17.5585 4.15156 17.1342 4.32683 16.8208 4.639L16.8108 4.659C16.6376 4.82581 16.4195 4.93835 16.1832 4.98277C15.9469 5.02719 15.7027 5.00155 15.4808 4.909C15.2571 4.82201 15.0648 4.66951 14.9292 4.47146C14.7936 4.2734 14.721 4.03903 14.7208 3.799V3.769C14.7216 3.55031 14.6793 3.33361 14.5962 3.13129C14.5132 2.92898 14.3911 2.74501 14.237 2.58991C14.0828 2.43481 13.8996 2.31162 13.6977 2.22738C13.4959 2.14315 13.2795 2.09952 13.0608 2.099H11.9408C11.7221 2.09952 11.5057 2.14315 11.3038 2.22738C11.102 2.31162 10.9188 2.43481 10.7646 2.58991C10.6105 2.74501 10.4884 2.92898 10.4054 3.13129C10.3223 3.33361 10.28 3.55031 10.2808 3.769V3.799C10.2803 4.03762 10.2087 4.27068 10.0751 4.4684C9.94151 4.66612 9.752 4.81952 9.53079 4.909C9.37985 4.97648 9.21613 5.01059 9.05079 5.009C8.89306 5.00939 8.7368 4.97867 8.59095 4.91862C8.4451 4.85856 8.31252 4.77034 8.20079 4.659L8.18079 4.639C7.86742 4.32683 7.44312 4.15156 7.00079 4.15156C6.55847 4.15156 6.13417 4.32683 5.82079 4.639L5.03079 5.419C4.71863 5.73237 4.54335 6.15667 4.54335 6.599C4.54335 7.04132 4.71863 7.46563 5.03079 7.779L5.06079 7.809C5.2284 7.97954 5.34204 8.19569 5.38755 8.43043C5.43305 8.66518 5.40839 8.90813 5.31665 9.12895C5.22491 9.34976 5.07016 9.53866 4.8717 9.67206C4.67325 9.80545 4.4399 9.87743 4.20079 9.879H4.17079C3.72813 9.87979 3.30382 10.056 2.9908 10.369C2.67779 10.682 2.50159 11.1063 2.50079 11.549V12.659C2.50159 13.1017 2.67779 13.526 2.9908 13.839C3.30382 14.152 3.72813 14.3282 4.17079 14.329H4.20079C4.43997 14.327 4.67412 14.3977 4.8723 14.5316C5.07049 14.6655 5.22338 14.8564 5.31079 15.079C5.40143 15.3013 5.42606 15.5449 5.38172 15.7808C5.33738 16.0167 5.22595 16.2348 5.06079 16.409L5.04079 16.419C4.7285 16.7343 4.5533 17.1602 4.5533 17.604C4.5533 18.0478 4.7285 18.4737 5.04079 18.789L5.82079 19.569C6.13417 19.8812 6.55847 20.0564 7.00079 20.0564C7.44312 20.0564 7.86742 19.8812 8.18079 19.569L8.20079 19.549C8.36778 19.3791 8.58206 19.2635 8.81572 19.2171C9.04937 19.1707 9.29158 19.1958 9.51079 19.289C9.73622 19.3776 9.93 19.5316 10.0672 19.7311C10.2044 19.9307 10.2788 20.1668 10.2808 20.409V20.439C10.2803 20.6571 10.3228 20.8732 10.4061 21.0749C10.4893 21.2765 10.6116 21.4597 10.7658 21.614C10.9201 21.7682 11.1033 21.8905 11.3049 21.9737C11.5066 22.0569 11.7227 22.0995 11.9408 22.099H13.0608C13.2789 22.0995 13.495 22.0569 13.6967 21.9737C13.8983 21.8905 14.0815 21.7682 14.2358 21.614C14.39 21.4597 14.5123 21.2765 14.5955 21.0749C14.6787 20.8732 14.7213 20.6571 14.7208 20.439V20.409C14.7228 20.1668 14.7971 19.9307 14.9344 19.7311C15.0716 19.5316 15.2654 19.3776 15.4908 19.289C15.71 19.1958 15.9522 19.1707 16.1859 19.2171C16.4195 19.2635 16.6338 19.3791 16.8008 19.549L16.8208 19.569C17.1342 19.8812 17.5585 20.0564 18.0008 20.0564C18.4431 20.0564 18.8674 19.8812 19.1808 19.569L19.9608 18.789C20.2731 18.4737 20.4483 18.0478 20.4483 17.604C20.4483 17.1602 20.2731 16.7343 19.9608 16.419L19.9408 16.409C19.7756 16.2348 19.6642 16.0167 19.6199 15.7808C19.5755 15.5449 19.6002 15.3013 19.6908 15.079C19.7782 14.8564 19.9311 14.6655 20.1293 14.5316C20.3275 14.3977 20.5616 14.327 20.8008 14.329H20.8308C21.2735 14.3282 21.6978 14.152 22.0108 13.839C22.3238 13.526 22.5 13.1017 22.5008 12.659V11.549C22.5 11.1063 22.3238 10.682 22.0108 10.369C21.6978 10.056 21.2735 9.87979 20.8308 9.879ZM12.5008 15.599C11.8086 15.599 11.1319 15.3937 10.5563 15.0091C9.98073 14.6246 9.53212 14.0779 9.26721 13.4384C9.00231 12.7988 8.933 12.0951 9.06804 11.4162C9.20309 10.7372 9.53644 10.1136 10.0259 9.62413C10.5154 9.13464 11.139 8.8013 11.818 8.66625C12.4969 8.5312 13.2006 8.60051 13.8402 8.86542C14.4797 9.13033 15.0264 9.57893 15.4109 10.1545C15.7955 10.7301 16.0008 11.4068 16.0008 12.099C16.0008 13.0273 15.632 13.9175 14.9757 14.5739C14.3193 15.2302 13.4291 15.599 12.5008 15.599Z" fill="#677A8E"/>
</svg>
