<svg width="25" height="25" viewBox="0 0 25 25" fill="none" xmlns="http://www.w3.org/2000/svg">
<path d="M19.9483 14.621C20.0263 14.776 20.0173 14.96 19.9263 15.107C19.8353 15.2539 19.6743 15.344 19.5013 15.344H7.00031V20.8493C7.00031 21.4021 6.55231 21.849 6.00031 21.849C5.44831 21.849 5.00031 21.4021 5.00031 20.8493V13.8515L5.00131 13.8464V6.84759C5.00131 4.36737 7.02031 2.349 9.50131 2.349H19.5013C19.6743 2.349 19.8353 2.43903 19.9263 2.58599C20.0173 2.73294 20.0263 2.91672 19.9483 3.07167L17.3953 8.17506C17.1853 8.59492 17.1853 9.09681 17.3953 9.51668L19.9483 14.621Z" fill="#677A8E"/>
</svg>
