<svg width="24" height="25" viewBox="0 0 24 25" fill="none" xmlns="http://www.w3.org/2000/svg">
<path d="M19.8553 2.17175H4.14624C2.72806 2.17175 1.63715 3.31721 1.63715 4.68084V15.8627C1.63715 17.2263 2.72806 18.3718 4.14624 18.3718H19.9099C21.2735 18.3718 22.419 17.2808 22.419 15.8627V4.68084C22.419 3.31721 21.2735 2.17175 19.8553 2.17175ZM19.2008 20.6081H15.2735V20.2263C15.2735 19.8445 15.0008 19.6263 14.6735 19.6263H8.94624C8.56442 19.6263 8.34624 19.899 8.34624 20.2263V20.6081H4.41896C4.03715 20.6081 3.70987 20.9354 3.70987 21.3172C3.70987 21.699 4.03715 22.0263 4.41896 22.0263H19.2008C19.5826 22.0263 19.9099 21.699 19.9099 21.3172C19.9099 20.8808 19.6371 20.6081 19.2008 20.6081Z" fill="#677A8E"/>
<path d="M13.0612 11.1329C12.7323 11.4585 12.7354 11.991 13.0681 12.3128L15.774 14.9291C16.0967 15.2411 16.6094 15.2381 16.9283 14.9224C17.2573 14.5967 17.2542 14.0643 16.9214 13.7425L14.2155 11.1261C13.8929 10.8142 13.3802 10.8172 13.0612 11.1329ZM15.0865 9.46798C14.8697 9.46798 14.6361 9.4411 14.4526 9.36582L8.68571 14.9173C8.36915 15.2221 7.86816 15.2215 7.55227 14.9161C7.2203 14.5951 7.22048 14.0629 7.55266 13.7421L10.6946 10.7083C10.8977 10.5122 10.8983 10.1869 10.6959 9.9901L10.2801 9.58587C10.169 9.47781 9.99253 9.47632 9.8796 9.58248C9.76803 9.68736 9.59413 9.68735 9.48258 9.58246L9.44803 9.54998C9.23085 9.34578 8.87471 9.49976 8.87471 9.79787V10.3843C8.87471 10.4894 8.83204 10.59 8.75649 10.6631C8.60557 10.809 8.36594 10.8083 8.21585 10.6616L6.80577 9.28266C6.65358 9.13383 6.65427 8.88873 6.8073 8.74076C6.87778 8.67262 6.97198 8.63453 7.07001 8.63453H7.71396C7.9933 8.63453 8.13128 8.29507 7.93115 8.10018C7.80534 7.97767 7.8057 7.77541 7.93194 7.65335L9.68108 5.9621C9.83487 5.81259 10.0177 5.69395 10.2191 5.61299C10.4205 5.53203 10.6364 5.49036 10.8545 5.49036C11.0726 5.49036 11.2885 5.53203 11.4899 5.61299C11.532 5.62991 11.5732 5.64847 11.6136 5.66862C11.8641 5.79362 11.8646 6.12377 11.6656 6.32068L11.219 6.76273C11.0192 6.9605 11.0217 7.28408 11.2245 7.47878L11.4404 7.6861C11.5487 7.79001 11.549 7.96302 11.4411 8.06731C11.3333 8.17156 11.3335 8.34445 11.4416 8.44839L11.886 8.87565C12.0822 9.06431 12.3933 9.06135 12.5859 8.869L13.2514 8.20436C13.1735 8.02691 13.1401 7.80107 13.1401 7.60212C13.1379 7.35387 13.1867 7.10767 13.2836 6.87777C13.3805 6.64787 13.5236 6.43884 13.7046 6.2628C13.8856 6.08676 14.101 5.94719 14.3382 5.8522C14.5754 5.7572 14.8298 5.70865 15.0865 5.70937C15.1737 5.70937 15.2582 5.71469 15.3401 5.72533C15.6698 5.76813 15.727 6.16551 15.488 6.39661L14.9115 6.95405C14.6758 7.18197 14.6758 7.55984 14.9115 7.78776C15.1363 8.00508 15.4928 8.00508 15.7176 7.78776L16.3523 7.17403C16.582 6.95201 16.9653 7.00531 17.0129 7.32115C17.0263 7.40971 17.0329 7.50292 17.0329 7.60212C17.0329 8.63453 16.171 9.46798 15.0865 9.46798Z" fill="white"/>
</svg>
