<svg width="25" height="25" viewBox="0 0 25 25" fill="none" xmlns="http://www.w3.org/2000/svg">
<path d="M21.0008 7.1012C21.0008 15.4622 19.7938 19.5382 12.6388 21.5812C12.5938 21.5942 12.5478 21.6012 12.5018 21.6012C12.4558 21.6012 12.4098 21.5942 12.3648 21.5812C5.20881 19.5362 4.00079 15.5021 4.00079 7.23011C4.00079 7.00611 4.14981 6.81015 4.36481 6.74915C8.20781 5.66415 11.1348 3.76027 12.1648 2.74427C12.2598 2.65127 12.3938 2.57922 12.5198 2.60022C12.6518 2.60122 12.7788 2.65515 12.8718 2.74915C13.8028 3.69315 17.7328 5.64913 20.6588 6.62513C20.8628 6.69513 21.0008 6.8862 21.0008 7.1012Z" fill="#677A8E"/>
</svg>
