<svg width="25" height="25" viewBox="0 0 25 25" fill="none" xmlns="http://www.w3.org/2000/svg">
<path d="M22.5008 6.349C22.5008 6.902 22.0528 7.349 21.5008 7.349H3.50079C2.94879 7.349 2.50079 6.902 2.50079 6.349C2.50079 5.796 2.94879 5.349 3.50079 5.349H7.05981C7.49081 5.349 7.87179 5.07492 8.00879 4.66492L8.32477 3.71692C8.59777 2.89892 9.3608 2.349 10.2218 2.349H14.7808C15.6428 2.349 16.4058 2.89894 16.6778 3.71594L16.9938 4.66589C17.1298 5.07389 17.5118 5.349 17.9428 5.349H21.5008C22.0528 5.349 22.5008 5.796 22.5008 6.349ZM19.8008 9.37903L19.1908 18.579C19.0608 20.419 17.5208 21.849 15.6908 21.849H9.31079C7.48079 21.849 5.94079 20.419 5.81079 18.589L5.20081 9.37903C5.19081 9.24903 5.24081 9.10891 5.33081 9.00891C5.43081 8.90891 5.56081 8.849 5.70081 8.849H19.3008C19.4408 8.849 19.5708 8.90891 19.6708 9.00891C19.7608 9.10891 19.8108 9.24903 19.8008 9.37903ZM11.5008 12.349C11.5008 11.799 11.0508 11.349 10.5008 11.349C9.95079 11.349 9.50079 11.799 9.50079 12.349V17.349C9.50079 17.899 9.95079 18.349 10.5008 18.349C11.0508 18.349 11.5008 17.899 11.5008 17.349V12.349ZM15.5008 12.349C15.5008 11.799 15.0508 11.349 14.5008 11.349C13.9508 11.349 13.5008 11.799 13.5008 12.349V17.349C13.5008 17.899 13.9508 18.349 14.5008 18.349C15.0508 18.349 15.5008 17.899 15.5008 17.349V12.349Z" fill="#677A8E"/>
</svg>
