<svg width="25" height="25" viewBox="0 0 25 25" fill="none" xmlns="http://www.w3.org/2000/svg">
<path d="M15.5008 2.599H9.50079C5.92079 2.599 3.00079 5.519 3.00079 9.099V15.099C3.00079 18.679 5.92079 21.599 9.50079 21.599H15.5008C19.0808 21.599 22.0008 18.679 22.0008 15.099V9.099C22.0008 5.519 19.0808 2.599 15.5008 2.599ZM16.5008 13.099H13.5008V16.099C13.5008 16.649 13.0508 17.099 12.5008 17.099C11.9508 17.099 11.5008 16.649 11.5008 16.099V13.099H8.50079C7.95079 13.099 7.50079 12.649 7.50079 12.099C7.50079 11.549 7.95079 11.099 8.50079 11.099H11.5008V8.099C11.5008 7.549 11.9508 7.099 12.5008 7.099C13.0508 7.099 13.5008 7.549 13.5008 8.099V11.099H16.5008C17.0508 11.099 17.5008 11.549 17.5008 12.099C17.5008 12.649 17.0508 13.099 16.5008 13.099Z" fill="#677A8E"/>
</svg>
