<svg width="25" height="25" viewBox="0 0 25 25" fill="none" xmlns="http://www.w3.org/2000/svg">
<path fill-rule="evenodd" clip-rule="evenodd" d="M9.50079 5.349C9.50079 4.75226 9.73785 4.17997 10.1598 3.75801C10.5818 3.33605 11.1541 3.099 11.7508 3.099H13.2508C13.8475 3.099 14.4198 3.33605 14.8418 3.75801C15.2637 4.17997 15.5008 4.75226 15.5008 5.349V6.849C15.5008 7.44574 15.2637 8.01803 14.8418 8.43999C14.4198 8.86195 13.8475 9.099 13.2508 9.099V10.599H17.0008C17.1997 10.599 17.3905 10.678 17.5311 10.8187C17.6718 10.9593 17.7508 11.1501 17.7508 11.349V12.849C17.7508 13.0479 17.6718 13.2387 17.5311 13.3793C17.3905 13.52 17.1997 13.599 17.0008 13.599C16.8019 13.599 16.6111 13.52 16.4705 13.3793C16.3298 13.2387 16.2508 13.0479 16.2508 12.849V12.099H8.75079V12.849C8.75079 13.0479 8.67178 13.2387 8.53112 13.3793C8.39047 13.52 8.19971 13.599 8.00079 13.599C7.80188 13.599 7.61112 13.52 7.47046 13.3793C7.32981 13.2387 7.25079 13.0479 7.25079 12.849V11.349C7.25079 11.1501 7.32981 10.9593 7.47046 10.8187C7.61112 10.678 7.80188 10.599 8.00079 10.599H11.7508V9.099C11.1541 9.099 10.5818 8.86195 10.1598 8.43999C9.73785 8.01803 9.50079 7.44574 9.50079 6.849V5.349ZM5.00079 17.349C5.00079 16.7523 5.23785 16.18 5.6598 15.758C6.08176 15.3361 6.65406 15.099 7.25079 15.099H8.75079C9.34753 15.099 9.91983 15.3361 10.3418 15.758C10.7637 16.18 11.0008 16.7523 11.0008 17.349V18.849C11.0008 19.4457 10.7637 20.018 10.3418 20.44C9.91983 20.8619 9.34753 21.099 8.75079 21.099H7.25079C6.65406 21.099 6.08176 20.8619 5.6598 20.44C5.23785 20.018 5.00079 19.4457 5.00079 18.849V17.349ZM14.0008 17.349C14.0008 16.7523 14.2378 16.18 14.6598 15.758C15.0818 15.3361 15.6541 15.099 16.2508 15.099H17.7508C18.3475 15.099 18.9198 15.3361 19.3418 15.758C19.7637 16.18 20.0008 16.7523 20.0008 17.349V18.849C20.0008 19.4457 19.7637 20.018 19.3418 20.44C18.9198 20.8619 18.3475 21.099 17.7508 21.099H16.2508C15.6541 21.099 15.0818 20.8619 14.6598 20.44C14.2378 20.018 14.0008 19.4457 14.0008 18.849V17.349Z" fill="#677A8E"/>
</svg>
