<svg width="25" height="25" viewBox="0 0 25 25" fill="none" xmlns="http://www.w3.org/2000/svg">
<path d="M17.5008 3.099H7.50079C4.74379 3.099 2.50079 5.342 2.50079 8.099V16.099C2.50079 18.856 4.74379 21.099 7.50079 21.099H17.5008C20.2578 21.099 22.5008 18.856 22.5008 16.099V8.099C22.5008 5.342 20.2578 3.099 17.5008 3.099ZM7.50079 5.099H17.5008C19.1548 5.099 20.5008 6.445 20.5008 8.099V12.6849L16.9178 9.10193C16.1368 8.32093 14.8648 8.32093 14.0838 9.10193L9.50079 13.6849L8.9178 13.1019C8.1368 12.3209 6.86479 12.3209 6.08379 13.1019L4.50079 14.6849V8.099C4.50079 6.445 5.84679 5.099 7.50079 5.099ZM7.00079 9.099C7.00079 8.271 7.67279 7.599 8.50079 7.599C9.32879 7.599 10.0008 8.271 10.0008 9.099C10.0008 9.927 9.32879 10.599 8.50079 10.599C7.67279 10.599 7.00079 9.927 7.00079 9.099Z" fill="#677A8E"/>
</svg>
