<svg width="24" height="25" viewBox="0 0 24 25" fill="none" xmlns="http://www.w3.org/2000/svg">
<path d="M7.00128 7.59851C7.00128 4.84151 9.24428 2.59851 12.0013 2.59851C14.7583 2.59851 17.0013 4.84151 17.0013 7.59851C17.0013 10.3555 14.7583 12.5985 12.0013 12.5985C9.24428 12.5985 7.00128 10.3555 7.00128 7.59851ZM16.1183 13.6696C15.5593 13.5276 14.9513 13.6076 14.4483 13.8876C12.9303 14.7316 11.0723 14.7316 9.55426 13.8876C9.05226 13.6086 8.44328 13.5296 7.88428 13.6696C5.89228 14.1726 4.50128 15.9806 4.50128 18.0656V19.0765C4.50128 19.7145 4.67126 20.3384 4.99426 20.8824C5.25726 21.3244 5.7503 21.5995 6.2793 21.5995H17.7223C18.2513 21.5995 18.7443 21.3255 19.0073 20.8815C19.3303 20.3385 19.5003 19.7145 19.5003 19.0765V18.0656C19.5013 15.9806 18.1103 14.1726 16.1183 13.6696Z" fill="#677A8E"/>
</svg>
