<svg width="25" height="25" viewBox="0 0 25 25" fill="none" xmlns="http://www.w3.org/2000/svg">
<path fill-rule="evenodd" clip-rule="evenodd" d="M5.50079 2.099C3.84394 2.099 2.50079 3.44214 2.50079 5.099V12.099C2.50079 12.6513 2.94851 13.099 3.50079 13.099H10.5008C11.0531 13.099 11.5008 12.6513 11.5008 12.099V3.099C11.5008 2.54671 11.0531 2.099 10.5008 2.099H5.50079Z" fill="#677A8E"/>
<path fill-rule="evenodd" clip-rule="evenodd" d="M3.50079 15.099C2.94851 15.099 2.50079 15.5467 2.50079 16.099V19.099C2.50079 20.7559 3.84394 22.099 5.50079 22.099H10.5008C11.0531 22.099 11.5008 21.6513 11.5008 21.099V16.099C11.5008 15.5467 11.0531 15.099 10.5008 15.099H3.50079Z" fill="#677A8E"/>
<path fill-rule="evenodd" clip-rule="evenodd" d="M13.5008 12.099C13.5008 11.5467 13.9485 11.099 14.5008 11.099H21.5008C22.0531 11.099 22.5008 11.5467 22.5008 12.099V19.099C22.5008 20.7559 21.1576 22.099 19.5008 22.099H14.5008C13.9485 22.099 13.5008 21.6513 13.5008 21.099V12.099Z" fill="#677A8E"/>
<path fill-rule="evenodd" clip-rule="evenodd" d="M14.5008 2.099C13.9485 2.099 13.5008 2.54671 13.5008 3.099V8.099C13.5008 8.65128 13.9485 9.099 14.5008 9.099H21.5008C22.0531 9.099 22.5008 8.65128 22.5008 8.099V5.099C22.5008 3.44214 21.1576 2.099 19.5008 2.099H14.5008Z" fill="#677A8E"/>
</svg>
