<svg width="25" height="25" viewBox="0 0 25 25" fill="none" xmlns="http://www.w3.org/2000/svg">
<path d="M10.8608 11.809L3.6908 6.71912C4.4808 5.44912 5.90079 4.599 7.50079 4.599H17.5008C19.1008 4.599 20.5108 5.43911 21.3108 6.70911L14.1608 11.7889C13.1508 12.4589 11.8508 12.459 10.8608 11.809ZM21.9808 8.6991L15.3008 13.4391C14.4408 14.0091 13.4608 14.2889 12.4908 14.2889C11.5308 14.2889 10.5708 14.0091 9.73077 13.4491L3.02081 8.6991C3.01081 8.8291 3.00079 8.969 3.00079 9.099V15.099C3.00079 17.579 5.02079 19.599 7.50079 19.599H17.5008C19.9808 19.599 22.0008 17.579 22.0008 15.099V9.099C22.0008 8.969 21.9908 8.8291 21.9808 8.6991Z" fill="#677A8E"/>
</svg>
