<svg width="25" height="25" viewBox="0 0 25 25" fill="none" xmlns="http://www.w3.org/2000/svg">
<path d="M21.4352 11.7294L18.3212 14.7216L19.0562 18.9425C19.1762 19.6315 18.8982 20.3185 18.3302 20.7345C17.7512 21.1575 16.9952 21.2156 16.3572 20.8866L12.5012 18.8895L8.64524 20.8866C8.37124 21.0286 8.07424 21.0985 7.77924 21.0985C7.38924 21.0985 7.00222 20.9755 6.67222 20.7345C6.10522 20.3185 5.82623 19.6315 5.94623 18.9425L6.68122 14.7216L3.56724 11.7294C3.05724 11.2394 2.87422 10.5185 3.09022 9.84851C3.30822 9.17051 3.88621 8.68757 4.59821 8.58557L8.90723 7.96838L10.8332 4.12341C11.1492 3.49141 11.7892 3.09949 12.5012 3.09949C13.2132 3.09949 13.8532 3.49241 14.1692 4.12341L16.0952 7.96838L20.4042 8.58557C21.1152 8.68757 21.6932 9.17051 21.9112 9.84851C22.1272 10.5185 21.9452 11.2394 21.4352 11.7294Z" fill="#677A8E"/>
</svg>
