<svg width="25" height="25" viewBox="0 0 25 25" fill="none" xmlns="http://www.w3.org/2000/svg">
<path d="M21.511 10.339C20.2215 8.19899 17.3426 4.599 12.4945 4.599C7.65644 4.599 4.7676 8.19899 3.4881 10.339C2.83836 11.429 2.83836 12.769 3.4881 13.849C4.7676 15.999 7.65644 19.599 12.4945 19.599C17.3426 19.599 20.2215 15.999 21.511 13.849C21.8309 13.309 22.0008 12.709 22.0008 12.099C22.0008 11.489 21.8309 10.889 21.511 10.339ZM12.4945 16.599C10.0155 16.599 7.9963 14.579 7.9963 12.099C7.9963 9.619 10.0155 7.599 12.4945 7.599C14.9736 7.599 16.9928 9.619 16.9928 12.099C16.9928 14.579 14.9736 16.599 12.4945 16.599ZM14.9836 11.9591C14.9936 12.0091 14.9935 12.049 14.9935 12.099C14.9935 13.479 13.874 14.599 12.4945 14.599C11.1151 14.599 9.99552 13.479 9.99552 12.099C9.99552 10.719 11.1151 9.599 12.4945 9.599C13.1043 9.599 13.6641 9.81908 14.0939 10.1791C13.744 10.3391 13.4941 10.689 13.4941 11.099C13.4941 11.649 13.944 12.099 14.4937 12.099C14.6737 12.099 14.8436 12.0491 14.9836 11.9591Z" fill="#677A8E"/>
</svg>
