<svg width="25" height="25" viewBox="0 0 25 25" fill="none" xmlns="http://www.w3.org/2000/svg">
<path d="M7.00079 7.599C7.00079 4.567 9.46779 2.099 12.5008 2.099C15.5338 2.099 18.0008 4.567 18.0008 7.599C18.0008 10.289 16.0568 12.5311 13.5008 13.0031V17.099C13.5008 17.652 13.0528 18.099 12.5008 18.099C11.9488 18.099 11.5008 17.652 11.5008 17.099V13.0031C8.94479 12.5311 7.00079 10.289 7.00079 7.599ZM15.6988 14.4091C15.1608 14.2981 14.6298 14.649 14.5208 15.191C14.4108 15.732 14.7608 16.26 15.3028 16.37C17.4848 16.811 18.5008 17.663 18.5008 18.099C18.5008 18.804 16.2228 20.099 12.5008 20.099C8.77879 20.099 6.50079 18.804 6.50079 18.099C6.50079 17.662 7.51779 16.811 9.69879 16.37C10.2408 16.261 10.5908 15.732 10.4808 15.191C10.3718 14.65 9.8438 14.2971 9.3028 14.4091C6.2958 15.0171 4.50079 16.397 4.50079 18.099C4.50079 20.725 8.52479 22.099 12.5008 22.099C16.4768 22.099 20.5008 20.725 20.5008 18.099C20.5008 16.397 18.7058 15.0171 15.6988 14.4091Z" fill="#677A8E"/>
</svg>
