<svg width="25" height="25" viewBox="0 0 25 25" fill="none" xmlns="http://www.w3.org/2000/svg">
<path d="M20.0008 14.849C20.0008 15.125 19.7768 15.349 19.5008 15.349H13.5008V20.849C13.5008 21.402 13.0538 21.849 12.5008 21.849C11.9478 21.849 11.5008 21.402 11.5008 20.849V15.349H5.50079C5.36779 15.349 5.24079 15.296 5.14679 15.203C5.05279 15.11 5.00079 14.982 5.00079 14.849C5.00079 12.781 5.80582 10.8369 7.26782 9.37488L8.00079 8.64197V6.04089C7.34379 5.24989 7.00079 3.872 7.00079 2.849C7.00079 2.573 7.22479 2.349 7.50079 2.349H17.5008C17.7768 2.349 18.0008 2.573 18.0008 2.849C18.0008 3.872 17.6578 5.24892 17.0018 6.03992L17.0008 8.64197L17.7338 9.37488C19.1958 10.8379 20.0008 12.782 20.0008 14.849Z" fill="#677A8E"/>
</svg>
