<svg width="25" height="25" viewBox="0 0 25 25" fill="none" xmlns="http://www.w3.org/2000/svg">
<path d="M10.4996 19.849H14.4996C14.4996 20.849 13.7826 21.849 12.4996 21.849C11.2166 21.849 10.4996 20.849 10.4996 19.849ZM20.7416 15.6239L19.6356 13.778C19.2166 13.079 18.9956 12.2789 18.9956 11.4659V8.83899C18.9956 5.25999 16.0816 2.349 12.5006 2.349C8.91957 2.349 6.00556 5.25999 6.00556 8.83899V11.4659C6.00556 12.2789 5.78456 13.079 5.36556 13.778L4.25955 15.6239C3.92155 16.1859 3.91357 16.8639 4.23757 17.4359C4.56157 18.0079 5.14755 18.349 5.80455 18.349H19.1986C19.8566 18.349 20.4426 18.0069 20.7666 17.4359C21.0876 16.8649 21.0796 16.1869 20.7416 15.6239Z" fill="#677A8E"/>
</svg>
