<svg width="25" height="25" viewBox="0 0 25 25" fill="none" xmlns="http://www.w3.org/2000/svg">
<path d="M17.5008 3.099H7.50079C5.02079 3.099 3.00079 5.119 3.00079 7.599V20.599C3.00079 20.799 3.12079 20.979 3.31079 21.059C3.37079 21.089 3.44079 21.099 3.50079 21.099C3.63079 21.099 3.7608 21.0491 3.8508 20.9491L6.27078 18.5389C6.55078 18.2589 6.93078 18.099 7.33078 18.099H17.5008C19.9808 18.099 22.0008 16.079 22.0008 13.599V7.599C22.0008 5.119 19.9808 3.099 17.5008 3.099ZM8.50079 11.849C7.81079 11.849 7.25079 11.289 7.25079 10.599C7.25079 9.909 7.81079 9.349 8.50079 9.349C9.19079 9.349 9.75079 9.909 9.75079 10.599C9.75079 11.289 9.19079 11.849 8.50079 11.849ZM12.5008 11.849C11.8108 11.849 11.2508 11.289 11.2508 10.599C11.2508 9.909 11.8108 9.349 12.5008 9.349C13.1908 9.349 13.7508 9.909 13.7508 10.599C13.7508 11.289 13.1908 11.849 12.5008 11.849ZM16.5008 11.849C15.8108 11.849 15.2508 11.289 15.2508 10.599C15.2508 9.909 15.8108 9.349 16.5008 9.349C17.1908 9.349 17.7508 9.909 17.7508 10.599C17.7508 11.289 17.1908 11.849 16.5008 11.849Z" fill="#677A8E"/>
</svg>
