<svg width="25" height="25" viewBox="0 0 25 25" fill="none" xmlns="http://www.w3.org/2000/svg">
<path d="M22.0008 17.7389V18.2489C22.0008 18.9889 21.7508 19.6989 21.2908 20.2689C21.1208 20.4889 20.8408 20.599 20.5508 20.599H17.8708C18.2808 19.889 18.5008 19.0789 18.5008 18.2489V17.7389C18.5008 16.2989 17.9708 14.9691 17.0708 13.9591C17.1408 13.9391 17.2008 13.899 17.2608 13.869C17.7208 13.609 18.2908 13.5291 18.8308 13.6591C20.6908 14.1291 22.0008 15.7989 22.0008 17.7389ZM15.0008 3.599C14.6808 3.599 14.3708 3.6291 14.0708 3.6991C15.2608 4.7891 16.0008 6.359 16.0008 8.099C16.0008 9.839 15.2608 11.4089 14.0708 12.4989C14.3708 12.5689 14.6808 12.599 15.0008 12.599C17.4808 12.599 19.5008 10.579 19.5008 8.099C19.5008 5.619 17.4808 3.599 15.0008 3.599ZM10.0008 3.599C7.52079 3.599 5.50079 5.619 5.50079 8.099C5.50079 10.579 7.52079 12.599 10.0008 12.599C12.4808 12.599 14.5008 10.579 14.5008 8.099C14.5008 5.619 12.4808 3.599 10.0008 3.599ZM13.8308 13.6591C13.6508 13.6191 13.4808 13.599 13.3008 13.599C12.9308 13.599 12.5708 13.689 12.2608 13.869C11.5608 14.249 10.7808 14.4391 10.0008 14.4391C9.22079 14.4391 8.4508 14.249 7.7608 13.879C7.4308 13.699 7.0608 13.599 6.6908 13.599C6.5308 13.599 6.38077 13.619 6.23077 13.649C4.33077 14.089 3.00079 15.7789 3.00079 17.7389V18.2489C3.00079 18.9889 3.25082 19.6989 3.71082 20.2689C3.88082 20.4889 4.16081 20.599 4.45081 20.599H15.5508C15.8408 20.599 16.1208 20.4889 16.2908 20.2689C16.7508 19.6989 17.0008 18.9889 17.0008 18.2489V17.7389C17.0008 15.7989 15.6908 14.1291 13.8308 13.6591Z" fill="#677A8E"/>
</svg>
