<svg width="25" height="25" viewBox="0 0 25 25" fill="none" xmlns="http://www.w3.org/2000/svg">
<path d="M14.5008 10.099C14.5008 11.199 13.6008 12.099 12.5008 12.099C11.4008 12.099 10.5008 11.199 10.5008 10.099C10.5008 8.999 11.4008 8.099 12.5008 8.099C13.6008 8.099 14.5008 8.999 14.5008 10.099ZM20.0008 10.099C20.0008 16.179 15.3308 19.989 13.3308 21.339C13.0808 21.519 12.7908 21.599 12.5008 21.599C12.2108 21.599 11.9208 21.519 11.6608 21.339C9.6608 19.989 5.00079 16.189 5.00079 10.099C5.00079 5.819 8.22079 2.599 12.5008 2.599C16.7708 2.599 20.0008 5.819 20.0008 10.099ZM16.5008 10.099C16.5008 7.889 14.7108 6.099 12.5008 6.099C10.2908 6.099 8.50079 7.889 8.50079 10.099C8.50079 12.309 10.2908 14.099 12.5008 14.099C14.7108 14.099 16.5008 12.309 16.5008 10.099Z" fill="#677A8E"/>
</svg>
