<svg width="25" height="25" viewBox="0 0 25 25" fill="none" xmlns="http://www.w3.org/2000/svg">
<path d="M13.7508 6.61029V17.5893C13.7508 18.7773 13.0808 19.8242 12.0018 20.3202C11.5948 20.5082 11.1658 20.5993 10.7408 20.5993C10.0438 20.5993 9.3578 20.3513 8.7998 19.8723L6.20581 17.6464C6.11481 17.5684 5.99977 17.5253 5.88177 17.5253L5.1438 17.5244C3.8248 17.5234 2.75079 16.4462 2.75079 15.1242V9.07342C2.75079 7.75242 3.82382 6.67628 5.14282 6.67328L5.88177 6.6723C5.99977 6.6713 6.11477 6.62918 6.20477 6.55218L8.80078 4.32538C9.69878 3.55438 10.9288 3.38236 12.0018 3.87836C13.0808 4.37436 13.7508 5.42029 13.7508 6.61029ZM17.0478 8.4953C16.7138 8.0573 16.0868 7.9684 15.6468 8.3034C15.2068 8.6374 15.1208 9.26428 15.4548 9.70428C15.9758 10.3913 16.2518 11.2203 16.2518 12.1003C16.2518 12.9803 15.9768 13.8093 15.4548 14.4963C15.1208 14.9363 15.2068 15.5634 15.6468 15.8974C15.8278 16.0344 16.0408 16.1003 16.2508 16.1003C16.5538 16.1003 16.8518 15.9633 17.0488 15.7043C17.8358 14.6673 18.2518 13.4203 18.2518 12.1003C18.2518 10.7803 17.8348 9.5323 17.0478 8.4953ZM19.6938 5.43036C19.3238 5.01936 18.6928 4.98738 18.2818 5.35638C17.8718 5.72538 17.8378 6.35725 18.2078 6.76825C19.5248 8.23325 20.2508 10.1263 20.2508 12.0993C20.2508 14.0723 19.5248 15.9654 18.2078 17.4304C17.8378 17.8414 17.8718 18.4732 18.2818 18.8422C18.4728 19.0142 18.7128 19.0993 18.9508 19.0993C19.2238 19.0993 19.4968 18.9882 19.6938 18.7682C21.3418 16.9352 22.2508 14.5663 22.2508 12.0993C22.2508 9.6323 21.3428 7.26336 19.6938 5.43036Z" fill="#677A8E"/>
</svg>
