<svg width="25" height="25" viewBox="0 0 25 25" fill="none" xmlns="http://www.w3.org/2000/svg">
<path d="M12.5008 2.599C7.26079 2.599 3.00079 6.859 3.00079 12.099C3.00079 17.339 7.26079 21.599 12.5008 21.599C17.7408 21.599 22.0008 17.339 22.0008 12.099C22.0008 6.859 17.7408 2.599 12.5008 2.599ZM16.5008 13.099H12.5008C11.9508 13.099 11.5008 12.649 11.5008 12.099V7.099C11.5008 6.549 11.9508 6.099 12.5008 6.099C13.0508 6.099 13.5008 6.549 13.5008 7.099V11.099H16.5008C17.0508 11.099 17.5008 11.549 17.5008 12.099C17.5008 12.649 17.0508 13.099 16.5008 13.099Z" fill="#677A8E"/>
</svg>
