<svg width="25" height="25" viewBox="0 0 25 25" fill="none" xmlns="http://www.w3.org/2000/svg">
<path d="M21.5103 10.34C20.9675 9.443 20.0847 8.2281 18.8651 7.1381L21.1964 4.80607C21.5872 4.41507 21.5872 3.783 21.1964 3.392C20.8055 3.001 20.1737 3.001 19.7828 3.392L3.78809 19.392C3.39722 19.783 3.39722 20.4151 3.78809 20.8061C3.98303 21.0011 4.23894 21.099 4.49486 21.099C4.75078 21.099 5.00669 21.0011 5.20163 20.8061L7.7358 18.2712C9.20531 19.1502 10.7978 19.6 12.4932 19.6C17.3216 19.6 20.2107 16 21.5103 13.86C22.1601 12.77 22.1601 11.43 21.5103 10.34ZM12.4932 16.6C11.6115 16.6 10.8018 16.3331 10.109 15.8971L11.5815 14.423C11.8635 14.534 12.1693 14.6 12.4922 14.6C13.8718 14.6 14.9914 13.48 14.9914 12.1C14.9914 12.05 14.9914 12.0201 14.9814 11.9701C14.8415 12.0501 14.6715 12.1 14.4916 12.1C14.3216 12.1 14.1697 12.0471 14.0307 11.9731L16.292 9.7111C16.7299 10.4051 16.9907 11.221 16.9907 12.1C16.9917 14.58 14.9724 16.6 12.4932 16.6ZM4.81577 15.7201C4.32593 15.1401 3.87609 14.51 3.48622 13.86C2.83643 12.77 2.83643 11.43 3.47621 10.34C4.77579 8.2 7.67482 4.60001 12.4932 4.60001C13.4229 4.60001 14.3226 4.72992 15.2423 5.00992C15.4123 5.05992 15.5422 5.20003 15.5922 5.37003C15.6322 5.54003 15.5822 5.72 15.4523 5.84L13.5629 7.73014C13.223 7.65014 12.8631 7.60001 12.4932 7.60001C10.014 7.60001 7.99471 9.62001 7.99471 12.1C7.99471 12.47 8.03471 12.8301 8.12468 13.1801L5.55552 15.7499C5.45555 15.8499 5.3356 15.9001 5.19565 15.9001C5.19565 15.9001 5.18563 15.9001 5.17564 15.9001C5.03568 15.8901 4.90574 15.8301 4.81577 15.7201Z" fill="#677A8E"/>
</svg>
