<svg width="25" height="25" viewBox="0 0 25 25" fill="none" xmlns="http://www.w3.org/2000/svg">
<path d="M21.5008 7.099V17.099C21.5008 19.856 19.2578 22.099 16.5008 22.099H12.5008C11.9488 22.099 11.5008 21.652 11.5008 21.099C11.5008 20.546 11.9488 20.099 12.5008 20.099H16.5008C18.1548 20.099 19.5008 18.753 19.5008 17.099V7.099C19.5008 5.445 18.1548 4.099 16.5008 4.099H12.5008C11.9488 4.099 11.5008 3.652 11.5008 3.099C11.5008 2.546 11.9488 2.099 12.5008 2.099H16.5008C19.2578 2.099 21.5008 4.342 21.5008 7.099ZM3.57654 12.481C3.47554 12.237 3.47554 11.961 3.57654 11.717C3.62754 11.594 3.70055 11.484 3.79355 11.391L7.79255 7.39197C8.18355 7.00097 8.81555 7.00097 9.20655 7.39197C9.59755 7.78297 9.59755 8.41503 9.20655 8.80603L6.91355 11.099H14.4995C15.0515 11.099 15.4995 11.546 15.4995 12.099C15.4995 12.652 15.0515 13.099 14.4995 13.099H6.91355L9.20655 15.392C9.59755 15.783 9.59755 16.415 9.20655 16.806C9.01155 17.001 8.75555 17.099 8.49955 17.099C8.24355 17.099 7.98755 17.001 7.79255 16.806L3.79355 12.807C3.70055 12.714 3.62754 12.604 3.57654 12.481Z" fill="#677A8E"/>
</svg>
