<svg width="25" height="25" viewBox="0 0 25 25" fill="none" xmlns="http://www.w3.org/2000/svg">
<path d="M20.6808 10.4491L14.1508 3.91907C13.3108 3.07907 12.1508 2.599 10.9708 2.599H6.50079C4.57079 2.599 3.00079 4.169 3.00079 6.099V10.569C3.00079 11.769 3.4708 12.8989 4.3208 13.7489L10.8508 20.2789C11.7008 21.1289 12.8308 21.599 14.0308 21.599C15.2408 21.599 16.3708 21.1289 17.2208 20.2789L20.6808 16.819C22.4408 15.059 22.4408 12.2091 20.6808 10.4491ZM8.00079 9.099C7.17079 9.099 6.50079 8.429 6.50079 7.599C6.50079 6.769 7.17079 6.099 8.00079 6.099C8.83079 6.099 9.50079 6.769 9.50079 7.599C9.50079 8.429 8.83079 9.099 8.00079 9.099Z" fill="#677A8E"/>
</svg>
