<svg width="25" height="25" viewBox="0 0 25 25" fill="none" xmlns="http://www.w3.org/2000/svg">
<path d="M12.5008 2.099C6.99079 2.099 2.50079 6.589 2.50079 12.099C2.50079 17.609 6.99079 22.099 12.5008 22.099C18.0108 22.099 22.5008 17.609 22.5008 12.099C22.5008 6.589 18.0108 2.099 12.5008 2.099ZM13.5008 16.099C13.5008 16.649 13.0508 17.099 12.5008 17.099C11.9508 17.099 11.5008 16.649 11.5008 16.099V12.099C11.5008 11.549 11.9508 11.099 12.5008 11.099C13.0508 11.099 13.5008 11.549 13.5008 12.099V16.099ZM12.5008 9.099C11.9508 9.099 11.5008 8.649 11.5008 8.099C11.5008 7.549 11.9508 7.099 12.5008 7.099C13.0508 7.099 13.5008 7.549 13.5008 8.099C13.5008 8.649 13.0508 9.099 12.5008 9.099Z" fill="#677A8E"/>
</svg>
