<svg width="25" height="25" viewBox="0 0 25 25" fill="none" xmlns="http://www.w3.org/2000/svg">
<path d="M11.5008 19.599H17.2008C16.6108 21.069 15.1808 22.099 13.5008 22.099H6.50079C4.29079 22.099 2.50079 20.309 2.50079 18.099V10.099C2.50079 8.059 4.03079 6.37903 6.00079 6.12903V14.099C6.00079 17.129 8.47079 19.599 11.5008 19.599ZM20.0008 6.349H22.1208C22.0608 6.259 21.9908 6.179 21.9108 6.099L18.5008 2.68909C18.4208 2.60909 18.3408 2.53889 18.2508 2.48889V4.599C18.2508 5.559 19.0408 6.349 20.0008 6.349ZM20.0008 7.849C18.2108 7.849 16.7508 6.389 16.7508 4.599V2.099H11.5008C9.29079 2.099 7.50079 3.889 7.50079 6.099V14.099C7.50079 16.309 9.29079 18.099 11.5008 18.099H18.5008C20.7108 18.099 22.5008 16.309 22.5008 14.099V7.849H20.0008Z" fill="#677A8E"/>
</svg>
