<svg width="25" height="25" viewBox="0 0 25 25" fill="none" xmlns="http://www.w3.org/2000/svg">
<path fill-rule="evenodd" clip-rule="evenodd" d="M20.2508 13.2695C20.1508 13.1595 20.0108 13.0995 19.8708 13.0995H5.1308C4.9908 13.0995 4.85079 13.1595 4.75079 13.2695C4.66079 13.3795 4.6208 13.5196 4.6308 13.6696L5.34079 19.0495C5.57079 20.7895 7.06079 22.0995 8.81079 22.0995H16.2108C17.9708 22.0995 19.4708 20.7895 19.6908 19.0395L20.3708 13.6596C20.3808 13.5196 20.3408 13.3795 20.2508 13.2695ZM11.5008 18.0995C11.5008 18.6495 11.0508 19.0995 10.5008 19.0995C9.95079 19.0995 9.50079 18.6495 9.50079 18.0995V16.0995C9.50079 15.5495 9.95079 15.0995 10.5008 15.0995C11.0508 15.0995 11.5008 15.5495 11.5008 16.0995V18.0995ZM15.5008 18.0995C15.5008 18.6495 15.0508 19.0995 14.5008 19.0995C13.9508 19.0995 13.5008 18.6495 13.5008 18.0995V16.0995C13.5008 15.5495 13.9508 15.0995 14.5008 15.0995C15.0508 15.0995 15.5008 15.5495 15.5008 16.0995V18.0995ZM22.5008 9.34953C22.5008 10.5925 21.4938 11.5995 20.2508 11.5995H4.75079C3.50779 11.5995 2.50079 10.5925 2.50079 9.34953C2.50079 8.10653 3.50779 7.09953 4.75079 7.09953H6.93478L9.6438 2.58464C9.9278 2.10964 10.5408 1.95662 11.0158 2.24162C11.4898 2.52562 11.6428 3.13945 11.3588 3.61345L9.26779 7.09856H15.7358L13.6448 3.61345C13.3608 3.13945 13.5138 2.52562 13.9878 2.24162C14.4618 1.95762 15.0758 2.11064 15.3598 2.58464L18.0688 7.09953H20.2528C21.4938 7.09953 22.5008 8.10653 22.5008 9.34953Z" fill="#677A8E"/>
</svg>
