<svg width="25" height="25" viewBox="0 0 25 25" fill="none" xmlns="http://www.w3.org/2000/svg">
<path d="M17.5008 10.8318H15.0208V11.3628C15.0208 12.7451 13.9008 13.867 12.5208 13.867C11.1508 13.867 10.0208 12.7451 10.0208 11.3628V10.8318H7.50079C5.02079 10.8318 3.00079 12.8553 3.00079 15.3395V16.3413C3.00079 18.8255 5.02079 20.849 7.50079 20.849H17.5008C19.9908 20.849 22.0008 18.8255 22.0008 16.3413V15.3395C22.0008 12.8553 19.9908 10.8318 17.5008 10.8318ZM17.5008 16.5917C16.8108 16.5917 16.2608 16.0307 16.2608 15.3395C16.2608 14.6484 16.8108 14.0874 17.5008 14.0874C18.2008 14.0874 18.7608 14.6484 18.7608 15.3395C18.7608 16.0307 18.2008 16.5917 17.5008 16.5917ZM16.2308 8.06706C16.0408 8.25738 15.7808 8.35759 15.5208 8.35759C15.2708 8.35759 15.0108 8.25738 14.8208 8.06706L13.5208 6.76477V11.3628C13.5208 11.9137 13.0808 12.3645 12.5208 12.3645C11.9708 12.3645 11.5208 11.9137 11.5208 11.3628V6.76477L10.2308 8.06706C10.0408 8.25738 9.78081 8.35759 9.52081 8.35759C9.27081 8.35759 9.0108 8.25738 8.8208 8.06706C8.4308 7.67639 8.4308 7.03536 8.8208 6.64469L11.8208 3.63954C12.0108 3.44921 12.2708 3.349 12.5208 3.349C12.7808 3.349 13.0408 3.44921 13.2308 3.63954L16.2308 6.64469C16.6208 7.03536 16.6208 7.67639 16.2308 8.06706Z" fill="#677A8E"/>
</svg>
