<svg width="25" height="25" viewBox="0 0 25 25" fill="none" xmlns="http://www.w3.org/2000/svg">
<path d="M22.2011 10.2798C21.3981 6.29581 18.3051 3.20195 14.3201 2.39895C13.5871 2.25195 12.8251 2.43899 12.2391 2.91799C11.6551 3.39699 11.3201 4.10298 11.3201 4.85598V10.2798C11.3201 11.9338 12.6661 13.2798 14.3201 13.2798H19.7441C20.4981 13.2798 21.2041 12.9449 21.6821 12.3609C22.1601 11.7769 22.3501 11.0178 22.2011 10.2798ZM20.1361 11.0928C20.0781 11.1618 19.9521 11.2798 19.7441 11.2798H14.3201C13.7681 11.2798 13.3201 10.8318 13.3201 10.2798V4.85598C13.3201 4.64798 13.4371 4.52189 13.5071 4.46389C13.5641 4.41789 13.6731 4.3489 13.8231 4.3489C13.8551 4.3489 13.8891 4.35189 13.9261 4.35989C17.1181 5.00289 19.5981 7.48185 20.2401 10.6739C20.2811 10.8769 20.1921 11.0238 20.1361 11.0928ZM19.9881 15.2869C20.1761 15.5679 20.2141 15.924 20.0861 16.24C18.6911 19.682 15.4201 21.8479 11.7601 21.8479C11.4431 21.8479 11.1221 21.8309 10.8001 21.7979C6.66412 21.3729 3.22512 17.9349 2.80012 13.7989C2.38512 9.75985 4.61912 6.02796 8.36012 4.51296C8.67812 4.38696 9.03312 4.42186 9.31312 4.61086C9.58712 4.79686 9.75111 5.10482 9.75111 5.43582V12.3489C9.75111 13.7279 10.8721 14.8489 12.2511 14.8489H19.1631C19.4941 14.8489 19.8031 15.0129 19.9881 15.2869Z" fill="#677A8E"/>
</svg>
