<svg width="25" height="25" viewBox="0 0 25 25" fill="none" xmlns="http://www.w3.org/2000/svg">
<path d="M10.5008 5.04772C10.5008 3.97147 11.3962 3.099 12.5008 3.099C13.6054 3.099 14.5008 3.97147 14.5008 5.04772C14.5008 6.12396 13.6054 6.99644 12.5008 6.99644C11.3962 6.99644 10.5008 6.12396 10.5008 5.04772Z" fill="#677A8E"/>
<path d="M10.5008 11.8426C10.5008 10.7663 11.3962 9.89387 12.5008 9.89387C13.6054 9.89387 14.5008 10.7663 14.5008 11.8426C14.5008 12.9188 13.6054 13.7913 12.5008 13.7913C11.3962 13.7913 10.5008 12.9188 10.5008 11.8426Z" fill="#677A8E"/>
<path d="M12.5008 17.2016C11.3962 17.2016 10.5008 18.074 10.5008 19.1503C10.5008 20.2265 11.3962 21.099 12.5008 21.099C13.6054 21.099 14.5008 20.2265 14.5008 19.1503C14.5008 18.074 13.6054 17.2016 12.5008 17.2016Z" fill="#677A8E"/>
</svg>
