<svg width="25" height="25" viewBox="0 0 25 25" fill="none" xmlns="http://www.w3.org/2000/svg">
<path d="M10.5007 19.849H14.5007C14.5007 20.849 13.7837 21.849 12.5007 21.849C11.2177 21.849 10.5007 20.849 10.5007 19.849ZM5.02068 15.829C5.14868 15.829 5.27667 15.779 5.37467 15.683L16.5747 4.48303C16.6757 4.38103 16.7287 4.242 16.7207 4.099C16.7127 3.956 16.6427 3.82396 16.5307 3.73596C15.3737 2.82896 13.9807 2.349 12.5017 2.349C8.91769 2.349 6.00169 5.25999 6.00169 8.83899V11.4691C6.00169 12.2891 5.78068 13.0881 5.36268 13.7831L4.59267 15.0731C4.46367 15.2891 4.51568 15.568 4.71468 15.723C4.80468 15.794 4.91268 15.829 5.02068 15.829ZM21.2077 3.14197C20.8167 2.75097 20.1847 2.75097 19.7937 3.14197L3.79368 19.142C3.40268 19.533 3.40268 20.165 3.79368 20.556C3.98868 20.751 4.24468 20.849 4.50068 20.849C4.75668 20.849 5.01268 20.751 5.20768 20.556L7.41468 18.349H19.2007C19.8557 18.349 20.4397 18.009 20.7627 17.441C21.0877 16.869 21.0787 16.1889 20.7407 15.6229L19.6397 13.7821C19.2227 13.0891 19.0017 12.2891 19.0017 11.4701V8.83997C19.0017 8.21997 18.9077 7.61493 18.7367 7.02893L21.2087 4.55701C21.5987 4.16501 21.5987 3.53297 21.2077 3.14197Z" fill="#677A8E"/>
</svg>
