<svg width="25" height="25" viewBox="0 0 25 25" fill="none" xmlns="http://www.w3.org/2000/svg">
<path d="M8.3808 2.87382C8.5008 2.81385 8.62079 2.76398 8.75079 2.724V19.2054L6.62079 20.2947C5.85079 20.6945 4.96079 20.6547 4.22079 20.2049C3.46079 19.7451 3.00079 18.9254 3.00079 18.0158V7.84121C3.00079 6.48191 3.74079 5.2526 4.93079 4.64292L8.3808 2.87382ZM10.2508 2.724V19.2054L14.3808 21.3242C14.5008 21.3841 14.6208 21.434 14.7508 21.474V4.99259L10.6208 2.87382C10.5008 2.81385 10.3808 2.76398 10.2508 2.724ZM20.7808 3.99311C20.0408 3.54335 19.1508 3.51352 18.3808 3.90332L16.2508 4.99259V21.474C16.3808 21.434 16.5008 21.3841 16.6208 21.3242L20.0708 19.5551C21.2608 18.9454 22.0008 17.7161 22.0008 16.3568V6.18216C22.0008 5.27263 21.5408 4.45287 20.7808 3.99311Z" fill="#677A8E"/>
</svg>
