<svg width="24" height="25" viewBox="0 0 24 25" fill="none" xmlns="http://www.w3.org/2000/svg">
<path d="M20.7018 14.8351L15.6779 19.8771C14.271 21.2891 12.3137 22.099 10.3073 22.099C8.33193 22.099 6.49244 21.343 5.12657 19.972C2.24593 17.08 2.28793 12.333 5.22152 9.39001L10.9448 3.64612C11.939 2.64812 13.2599 2.099 14.6668 2.099C16.0736 2.099 17.3945 2.64812 18.3887 3.64612C20.439 5.70412 20.439 9.05101 18.3887 11.109L12.6384 16.88C11.4564 18.068 9.39108 18.068 8.20906 16.88C6.99006 15.657 6.99006 13.666 8.20906 12.443L13.2599 7.3739C13.6486 6.9809 14.2811 6.98095 14.6727 7.37195C15.0634 7.76195 15.0644 8.39501 14.6747 8.78601L9.62385 13.8551C9.18121 14.2991 9.18121 15.0229 9.62385 15.4669C10.0525 15.8969 10.7949 15.8969 11.2226 15.4669L16.9728 9.69592C18.2468 8.41692 18.2468 6.33701 16.9728 5.05701C15.7409 3.82101 13.5916 3.82101 12.3596 5.05701L6.63631 10.8009C4.51506 12.9289 4.47212 16.482 6.54142 18.559C7.52961 19.551 8.86749 20.098 10.3073 20.098C11.7861 20.098 13.2279 19.502 14.263 18.464L19.2869 13.422C19.6766 13.029 20.3081 13.03 20.6998 13.42C21.0904 13.811 21.0915 14.4451 20.7018 14.8351Z" fill="#677A8E"/>
</svg>
