<svg width="25" height="25" viewBox="0 0 25 25" fill="none" xmlns="http://www.w3.org/2000/svg">
<path d="M13.0007 2.599C7.48494 2.599 3.00073 7.08321 3.00073 12.599C3.00073 18.1148 7.48494 22.599 13.0007 22.599C18.5165 22.599 23.0007 18.1148 23.0007 12.599C23.0007 7.08321 18.5165 2.599 13.0007 2.599ZM16.906 14.399C16.6955 14.599 16.4323 14.7043 16.1586 14.7043C15.8849 14.7043 15.6218 14.599 15.4112 14.399L13.0007 11.9779L10.5902 14.399C10.1797 14.8095 9.50597 14.8095 9.09545 14.399C8.68492 13.9884 8.68492 13.3148 9.09545 12.9043L12.2533 9.74641C12.6639 9.33588 13.3376 9.33588 13.7481 9.74641L16.906 12.9043C17.3165 13.3148 17.3165 13.9884 16.906 14.399Z" fill="#677A8E"/>
</svg>
