<svg width="25" height="25" viewBox="0 0 25 25" fill="none" xmlns="http://www.w3.org/2000/svg">
<path d="M19.0008 15.849V19.849C19.0008 20.952 18.1038 21.849 17.0008 21.849C15.8978 21.849 15.0008 20.952 15.0008 19.849V15.849C15.0008 14.746 15.8978 13.849 17.0008 13.849C18.1038 13.849 19.0008 14.746 19.0008 15.849ZM8.00079 13.849C6.89779 13.849 6.00079 14.746 6.00079 15.849V19.849C6.00079 20.952 6.89779 21.849 8.00079 21.849C9.10379 21.849 10.0008 20.952 10.0008 19.849V15.849C10.0008 14.746 9.10379 13.849 8.00079 13.849ZM12.5008 2.349C6.98679 2.349 2.50079 6.835 2.50079 12.349V17.349C2.50079 17.902 2.94879 18.349 3.50079 18.349C4.05279 18.349 4.50079 17.902 4.50079 17.349V12.349C4.50079 7.938 8.08979 4.349 12.5008 4.349C16.9118 4.349 20.5008 7.938 20.5008 12.349V17.349C20.5008 17.902 20.9488 18.349 21.5008 18.349C22.0528 18.349 22.5008 17.902 22.5008 17.349V12.349C22.5008 6.835 18.0148 2.349 12.5008 2.349Z" fill="#677A8E"/>
</svg>
