<svg width="24" height="25" viewBox="0 0 24 25" fill="none" xmlns="http://www.w3.org/2000/svg">
<path d="M17.0008 10.339V7.349C17.0008 4.589 14.7608 2.349 12.0008 2.349C9.24079 2.349 7.00079 4.589 7.00079 7.349V10.339C5.52079 11.079 4.50079 12.589 4.50079 14.349V17.349C4.50079 19.829 6.52079 21.849 9.00079 21.849H15.0008C17.4808 21.849 19.5008 19.829 19.5008 17.349V14.349C19.5008 12.589 18.4808 11.079 17.0008 10.339ZM13.0008 16.349C13.0008 16.899 12.5508 17.349 12.0008 17.349C11.4508 17.349 11.0008 16.899 11.0008 16.349V15.349C11.0008 14.799 11.4508 14.349 12.0008 14.349C12.5508 14.349 13.0008 14.799 13.0008 15.349V16.349ZM15.0008 9.849H9.00079V7.349C9.00079 5.699 10.3508 4.349 12.0008 4.349C13.6508 4.349 15.0008 5.699 15.0008 7.349V9.849Z" fill="#677A8E"/>
</svg>
