<svg width="25" height="25" viewBox="0 0 25 25" fill="none" xmlns="http://www.w3.org/2000/svg">
<path d="M20.8508 6.80896C20.8508 8.46896 19.7508 9.87899 18.2408 10.339C18.4108 9.78899 18.5008 9.199 18.5008 8.599C18.5008 6.409 17.3208 4.4891 15.5708 3.4491C16.0508 3.2291 16.5808 3.099 17.1508 3.099C19.1908 3.099 20.8508 4.75896 20.8508 6.80896ZM20.1008 11.399C19.6808 11.279 19.2208 11.339 18.8508 11.549C18.4108 11.7889 17.9408 11.9291 17.4608 11.9591C17.2608 12.2591 17.0308 12.549 16.7608 12.809C18.6908 13.439 20.1008 15.109 20.4208 17.099H21.1108C21.5708 17.099 21.9908 16.8591 22.2008 16.4691C22.4008 16.0991 22.5008 15.6789 22.5008 15.2589V14.549C22.5008 13.059 21.5108 11.769 20.1008 11.399ZM9.43079 3.4491C8.95079 3.2291 8.42077 3.099 7.85077 3.099C5.81077 3.099 4.15082 4.75896 4.15082 6.80896C4.15082 8.46896 5.2508 9.87899 6.7608 10.339C6.5908 9.78899 6.50079 9.199 6.50079 8.599C6.50079 6.409 7.68079 4.4891 9.43079 3.4491ZM8.24078 12.809C7.97078 12.549 7.74077 12.2591 7.54077 11.9591C7.06077 11.9291 6.59082 11.7889 6.15082 11.549C5.78082 11.339 5.32082 11.279 4.90082 11.399C3.49082 11.769 2.50079 13.059 2.50079 14.549V15.2589C2.50079 15.6789 2.60078 16.0991 2.80078 16.4691C3.01078 16.8591 3.4308 17.099 3.8808 17.099H4.58081C4.90081 15.109 6.31078 13.439 8.24078 12.809ZM16.0808 14.1691C15.9108 14.1291 15.7308 14.099 15.5508 14.099C15.2108 14.099 14.8608 14.189 14.5608 14.359C13.9208 14.709 13.2108 14.889 12.5008 14.889C11.7908 14.889 11.0808 14.709 10.4408 14.359C10.1408 14.189 9.79081 14.099 9.45081 14.099C9.27081 14.099 9.09078 14.1291 8.92078 14.1691C7.20078 14.6291 6.00079 16.1989 6.00079 17.9989V18.869C6.00079 19.379 6.13079 19.889 6.37079 20.329C6.62079 20.809 7.12079 21.099 7.68079 21.099H17.3208C17.8808 21.099 18.3808 20.809 18.6308 20.329C18.8708 19.889 19.0008 19.379 19.0008 18.869V17.9989C19.0008 16.1989 17.8008 14.6291 16.0808 14.1691ZM17.0008 8.599C17.0008 6.114 14.9858 4.099 12.5008 4.099C10.0158 4.099 8.00079 6.114 8.00079 8.599C8.00079 11.084 10.0158 13.099 12.5008 13.099C14.9858 13.099 17.0008 11.084 17.0008 8.599Z" fill="#677A8E"/>
</svg>
