<svg width="25" height="25" viewBox="0 0 25 25" fill="none" xmlns="http://www.w3.org/2000/svg">
<path d="M21.0008 18.099C21.0008 20.029 19.4308 21.599 17.5008 21.599H15.0308V19.099C15.0308 17.719 13.9108 16.599 12.5308 16.599C11.1508 16.599 10.0308 17.719 10.0308 19.099V21.599H7.50079C5.57079 21.599 4.00079 20.029 4.00079 18.099V13.4491C4.80079 13.8591 5.69078 14.099 6.49078 14.099C7.62078 14.099 8.72079 13.629 9.50079 12.879C10.2708 13.629 11.3708 14.099 12.5008 14.099C13.6308 14.099 14.7308 13.629 15.5008 12.879C16.2808 13.629 17.3808 14.099 18.5108 14.099C19.3108 14.099 20.2008 13.8591 21.0008 13.4491V18.099ZM21.9748 8.94104L20.8868 5.6759C20.2738 3.8349 18.5578 2.599 16.6178 2.599H8.38379C6.44379 2.599 4.72881 3.8349 4.11481 5.6759L3.02679 8.94104C3.00979 8.99304 3.00079 9.04498 3.00079 9.09998C3.00379 11.03 4.56878 12.599 6.49078 12.599C7.67878 12.599 8.8188 12.0179 9.4978 11.1329C10.1708 12.0179 11.3098 12.599 12.5008 12.599C13.6918 12.599 14.8308 12.0179 15.5038 11.1329C16.1828 12.0179 17.3238 12.599 18.5108 12.599C20.4318 12.599 21.9978 11.03 22.0008 9.09998C22.0008 9.04498 21.9918 8.99304 21.9748 8.94104Z" fill="#677A8E"/>
</svg>
