<svg width="25" height="25" viewBox="0 0 25 25" fill="none" xmlns="http://www.w3.org/2000/svg">
<path d="M12.5008 2.099C6.99079 2.099 2.50079 6.589 2.50079 12.099C2.50079 17.609 6.99079 22.099 12.5008 22.099C18.0108 22.099 22.5008 17.609 22.5008 12.099C22.5008 6.589 18.0108 2.099 12.5008 2.099ZM12.5008 18.099C11.9508 18.099 11.5008 17.649 11.5008 17.099C11.5008 16.549 11.9508 16.099 12.5008 16.099C13.0508 16.099 13.5008 16.549 13.5008 17.099C13.5008 17.649 13.0508 18.099 12.5008 18.099ZM14.5408 13.4191C13.6208 14.0291 13.4708 14.3591 13.4508 14.4191C13.3108 14.8391 12.9208 15.099 12.5008 15.099C12.3908 15.099 12.2908 15.0789 12.1808 15.049C11.6608 14.8689 11.3808 14.2989 11.5508 13.7789C11.8608 12.8789 12.7708 12.1889 13.4308 11.7489C14.6808 10.9189 14.5208 10.0189 14.4708 9.72888C14.3308 8.93888 13.6608 8.26903 12.8708 8.12903C12.2608 8.01903 11.6808 8.17897 11.2108 8.56897C10.7608 8.94897 10.5008 9.509 10.5008 10.099C10.5008 10.649 10.0508 11.099 9.50079 11.099C8.95079 11.099 8.50079 10.649 8.50079 10.099C8.50079 8.919 9.02079 7.79894 9.93079 7.03894C10.8408 6.26894 12.0408 5.95906 13.2208 6.15906C14.8308 6.44906 16.1508 7.76903 16.4408 9.37903C16.7208 10.979 16.0408 12.4191 14.5408 13.4191Z" fill="#677A8E"/>
</svg>
