<svg width="25" height="25" viewBox="0 0 25 25" fill="none" xmlns="http://www.w3.org/2000/svg">
<path d="M21.9217 5.76812L18.6417 18.8882C18.1717 20.7582 16.5717 21.5982 15.1717 21.5982C15.1617 21.5982 15.1517 21.5982 15.1517 21.5982C13.7417 21.5882 12.1317 20.7282 11.6917 18.8382L10.8317 15.1883L16.2117 9.80816C16.6017 9.41816 16.6017 8.77824 16.2117 8.38824C15.8217 7.99824 15.1817 7.99824 14.7917 8.38824L9.41165 13.7681L5.76168 12.9083C3.87168 12.4683 3.01168 10.8583 3.00168 9.45831C2.99168 8.04831 3.8317 6.42831 5.7117 5.95831L18.8317 2.67828C19.7017 2.45828 20.6117 2.7082 21.2517 3.3482C21.8917 3.9882 22.1417 4.89812 21.9217 5.76812Z" fill="#677A8E"/>
</svg>
