<svg width="25" height="25" viewBox="0 0 25 25" fill="none" xmlns="http://www.w3.org/2000/svg">
<path d="M7.75079 10.3495C7.75079 9.93549 8.08679 9.59949 8.50079 9.59949H16.5008C16.9148 9.59949 17.2508 9.93549 17.2508 10.3495C17.2508 10.7635 16.9148 11.0995 16.5008 11.0995H8.50079C8.08679 11.0995 7.75079 10.7635 7.75079 10.3495ZM9.50079 8.09949H15.5008C15.9148 8.09949 16.2508 7.76349 16.2508 7.34949C16.2508 6.93549 15.9148 6.59949 15.5008 6.59949H9.50079C9.08679 6.59949 8.75079 6.93549 8.75079 7.34949C8.75079 7.76349 9.08679 8.09949 9.50079 8.09949ZM22.5008 13.8365V16.3495C22.5008 18.8305 20.4818 20.8495 18.0008 20.8495H7.00079C4.51979 20.8495 2.50079 18.8305 2.50079 16.3495V13.8365C2.50079 13.4045 2.56981 12.9784 2.70581 12.5704L4.64081 6.76746C5.32281 4.72246 7.22879 3.34851 9.38379 3.34851H15.6178C17.7728 3.34851 19.6798 4.72246 20.3608 6.76746L22.2958 12.5704C22.4318 12.9784 22.5008 13.4055 22.5008 13.8365ZM4.7218 12.8495H9.50079C9.77679 12.8495 10.0008 13.0735 10.0008 13.3495C10.0008 14.7285 11.1228 15.8495 12.5008 15.8495C13.8788 15.8495 15.0008 14.7285 15.0008 13.3495C15.0008 13.0735 15.2248 12.8495 15.5008 12.8495H20.2798L18.4638 7.40149C18.0548 6.17349 16.9108 5.34949 15.6178 5.34949H9.38379C8.09079 5.34949 6.94678 6.17349 6.53778 7.40149L4.7218 12.8495Z" fill="#677A8E"/>
</svg>
