<svg width="25" height="25" viewBox="0 0 25 25" fill="none" xmlns="http://www.w3.org/2000/svg">
<path d="M14.5008 2.599H10.5008C8.02079 2.599 6.00079 4.619 6.00079 7.099V17.099C6.00079 19.579 8.02079 21.599 10.5008 21.599H14.5008C16.9808 21.599 19.0008 19.579 19.0008 17.099V7.099C19.0008 4.619 16.9808 2.599 14.5008 2.599ZM13.0008 19.099H12.0008C11.4508 19.099 11.0008 18.649 11.0008 18.099C11.0008 17.549 11.4508 17.099 12.0008 17.099H13.0008C13.5508 17.099 14.0008 17.549 14.0008 18.099C14.0008 18.649 13.5508 19.099 13.0008 19.099Z" fill="#677A8E"/>
</svg>
