<svg width="25" height="25" viewBox="0 0 25 25" fill="none" xmlns="http://www.w3.org/2000/svg">
<path d="M6.77081 4.60205L16.2308 8.99408L13.7008 10.1173C12.9808 10.4482 12.0108 10.4382 11.3008 10.1273L3.75079 6.70797C4.23079 6.00603 4.93077 5.42426 5.79077 5.04321L6.77081 4.60205ZM19.2108 5.04321L14.8208 3.08785C13.3708 2.43605 11.6308 2.43605 10.1808 3.08785L8.59082 3.78974L18.0408 8.17198L21.2508 6.70797C20.7708 6.00603 20.0708 5.42426 19.2108 5.04321ZM3.1308 8.0716C3.0408 8.40252 3.00079 8.74348 3.00079 9.09445V15.1512C3.00079 16.886 4.07077 18.4404 5.79077 19.2025L10.1908 21.1578C10.6808 21.3885 11.2108 21.5288 11.7508 21.599V11.8119C11.3808 11.7518 11.0208 11.6414 10.6908 11.501L3.1308 8.0716ZM21.8708 8.0716L14.3108 11.501C13.9808 11.6414 13.6208 11.7518 13.2508 11.8119V21.599C13.7908 21.5288 14.3208 21.3885 14.8208 21.1578L19.2108 19.2025C20.9308 18.4404 22.0008 16.886 22.0008 15.1512V9.09445C22.0008 8.74348 21.9608 8.40252 21.8708 8.0716Z" fill="#677A8E"/>
</svg>
