<svg width="25" height="25" viewBox="0 0 25 25" fill="none" xmlns="http://www.w3.org/2000/svg">
<path d="M20.2108 8.099L15.4408 12.869C15.1608 13.149 15.0008 13.5291 15.0008 13.9291V18.099C15.0008 18.259 14.9308 18.4089 14.8008 18.4989L10.8008 21.4989C10.7108 21.5689 10.6108 21.599 10.5008 21.599C10.4208 21.599 10.3508 21.579 10.2808 21.549C10.1108 21.459 10.0008 21.289 10.0008 21.099V13.9291C10.0008 13.5291 9.84079 13.149 9.56079 12.869L4.7908 8.099H20.2108ZM19.0008 2.599H6.00079C4.90079 2.599 4.00079 3.499 4.00079 4.599V6.099H21.0008V4.599C21.0008 3.499 20.1008 2.599 19.0008 2.599Z" fill="#677A8E"/>
</svg>
