<svg width="25" height="25" viewBox="0 0 25 25" fill="none" xmlns="http://www.w3.org/2000/svg">
<path d="M17.5008 2.099H7.50079C4.74379 2.099 2.50079 4.342 2.50079 7.099V17.099C2.50079 19.856 4.74379 22.099 7.50079 22.099H17.5008C20.2578 22.099 22.5008 19.856 22.5008 17.099V7.099C22.5008 4.342 20.2578 2.099 17.5008 2.099ZM20.5008 11.099H18.5008V9.099H20.5008V11.099ZM6.50079 11.099H4.50079V9.099H6.50079V11.099ZM4.50079 13.099H6.50079V15.099H4.50079V13.099ZM18.5008 13.099H20.5008V15.099H18.5008V13.099ZM20.5008 7.099H18.5008V4.28308C19.6618 4.69708 20.5008 5.797 20.5008 7.099ZM6.50079 4.28308V7.099H4.50079C4.50079 5.797 5.33979 4.69708 6.50079 4.28308ZM4.50079 17.099H6.50079V19.9149C5.33979 19.5009 4.50079 18.401 4.50079 17.099ZM18.5008 19.9149V17.099H20.5008C20.5008 18.401 19.6618 19.5009 18.5008 19.9149Z" fill="#677A8E"/>
</svg>
