<svg width="25" height="25" viewBox="0 0 25 25" fill="none" xmlns="http://www.w3.org/2000/svg">
<path d="M15.5008 2.599H9.50079C7.02079 2.599 5.00079 4.619 5.00079 7.099V17.099C5.00079 19.579 7.02079 21.599 9.50079 21.599H15.5008C17.9808 21.599 20.0008 19.579 20.0008 17.099V7.099C20.0008 4.619 17.9808 2.599 15.5008 2.599ZM13.0008 19.099H12.0008C11.4508 19.099 11.0008 18.649 11.0008 18.099C11.0008 17.549 11.4508 17.099 12.0008 17.099H13.0008C13.5508 17.099 14.0008 17.549 14.0008 18.099C14.0008 18.649 13.5508 19.099 13.0008 19.099Z" fill="#677A8E"/>
</svg>
