<svg width="25" height="25" viewBox="0 0 25 25" fill="none" xmlns="http://www.w3.org/2000/svg">
<path d="M15.5008 3.099H9.50079V7.599H15.5008V3.099ZM15.5008 9.099H9.50079V15.099H15.5008V9.099ZM17.0008 15.099V9.099H21.5008V15.099H17.0008ZM15.5008 16.599H9.50079V21.099H15.5008V16.599ZM17.0008 21.099V16.599H21.5008V17.349C21.5008 18.3436 21.1057 19.2974 20.4024 20.0006C19.6992 20.7039 18.7454 21.099 17.7508 21.099H17.0008ZM17.0008 7.599V3.099H17.7508C18.7454 3.099 19.6992 3.49409 20.4024 4.19735C21.1057 4.90061 21.5008 5.85444 21.5008 6.849V7.599H17.0008ZM7.25079 3.099H8.00079V7.599H3.50079V6.849C3.50079 5.85444 3.89588 4.90061 4.59914 4.19735C5.3024 3.49409 6.25623 3.099 7.25079 3.099ZM3.50079 9.099H8.00079V15.099H3.50079V9.099ZM3.50079 16.599H8.00079V21.099H7.25079C6.25623 21.099 5.3024 20.7039 4.59914 20.0006C3.89588 19.2974 3.50079 18.3436 3.50079 17.349V16.599Z" fill="#677A8E"/>
</svg>
