<svg width="25" height="25" viewBox="0 0 25 25" fill="none" xmlns="http://www.w3.org/2000/svg">
<path d="M21.0558 10.5665L19.2157 12.4064C18.8245 12.7974 18.1921 12.7974 17.8009 12.4064C17.4097 12.0154 17.4097 11.3836 17.8009 10.9926L19.6409 9.15247C20.7946 7.99847 20.7946 6.12143 19.6409 4.96643C18.5223 3.84743 16.5722 3.84743 15.4546 4.96643L12.0937 8.32556C11.9756 8.44356 11.8855 8.55148 11.8265 8.64148C10.928 9.86548 11.0551 11.4726 12.0947 12.5116C12.4849 12.9026 12.4849 13.5354 12.0947 13.9254C11.8996 14.1204 11.6434 14.2184 11.3873 14.2184C11.1311 14.2184 10.875 14.1204 10.6789 13.9254C8.93589 12.1824 8.72679 9.48249 10.1806 7.50549C10.2837 7.34449 10.4567 7.1335 10.6778 6.9115L14.0398 3.55139C14.9763 2.61439 16.223 2.09851 17.5478 2.09851C18.8725 2.09851 20.1193 2.61539 21.0568 3.55139C22.9899 5.48639 22.9899 8.63253 21.0558 10.5665ZM12.9192 10.2726C12.5279 10.6636 12.5279 11.2954 12.9192 11.6864C13.7366 12.5034 14.0038 13.6825 13.6075 14.7845C13.4765 15.1775 13.2383 15.5544 12.9192 15.8734L9.55825 19.2325C8.44061 20.3515 6.49049 20.3515 5.37185 19.2325C4.21819 18.0785 4.21819 16.2015 5.37185 15.0465L7.21188 13.2064C7.60311 12.8154 7.60311 12.1836 7.21188 11.7926C6.82066 11.4016 6.1883 11.4016 5.79708 11.7926L3.95704 13.6324C2.02294 15.5664 2.02294 18.7126 3.95704 20.6466C4.89458 21.5836 6.1403 22.0995 7.46606 22.0995C8.79181 22.0995 10.0375 21.5826 10.974 20.6466L14.335 17.2875C14.8733 16.7485 15.2785 16.1016 15.4986 15.4386C16.142 13.6506 15.6857 11.6236 14.334 10.2726C13.9438 9.88158 13.3094 9.88158 12.9192 10.2726Z" fill="#677A8E"/>
</svg>
