<svg width="25" height="25" viewBox="0 0 25 25" fill="none" xmlns="http://www.w3.org/2000/svg">
<path d="M16.7508 10.0991V14.0991C16.7508 16.5801 14.7318 18.5991 12.2508 18.5991H7.25079C4.76979 18.5991 2.75079 16.5801 2.75079 14.0991V10.0991C2.75079 7.61812 4.76979 5.59912 7.25079 5.59912H12.2508C14.7318 5.59912 16.7508 7.61812 16.7508 10.0991ZM21.3498 7.83813C20.7978 7.54313 20.1308 7.5761 19.6138 7.9231L18.4738 8.68311C18.3348 8.77611 18.2508 8.93212 18.2508 9.09912V15.0991C18.2508 15.2661 18.3338 15.4221 18.4738 15.5151L19.6128 16.2742C19.8968 16.4642 20.2238 16.5601 20.5518 16.5601C20.8248 16.5601 21.0988 16.4941 21.3498 16.3601C21.9058 16.0641 22.2508 15.4891 22.2508 14.8591V9.33911C22.2508 8.70911 21.9058 8.13413 21.3498 7.83813Z" fill="#677A8E"/>
</svg>
