<svg width="25" height="25" viewBox="0 0 25 25" fill="none" xmlns="http://www.w3.org/2000/svg">
<path d="M13.0007 2.599C7.48494 2.599 3.00073 7.08321 3.00073 12.599C3.00073 18.1148 7.48494 22.599 13.0007 22.599C18.5165 22.599 23.0007 18.1148 23.0007 12.599C23.0007 7.08321 18.5165 2.599 13.0007 2.599ZM16.906 12.2937L13.7481 15.4516C13.5376 15.6516 13.2744 15.7569 13.0007 15.7569C12.727 15.7569 12.4639 15.6516 12.2533 15.4516L9.09545 12.2937C8.68492 11.8832 8.68492 11.2096 9.09545 10.799C9.50597 10.3885 10.1797 10.3885 10.5902 10.799L13.0007 13.2201L15.4112 10.799C15.8218 10.3885 16.4955 10.3885 16.906 10.799C17.3165 11.2096 17.3165 11.8832 16.906 12.2937Z" fill="#677A8E"/>
</svg>
