<svg width="25" height="25" viewBox="0 0 25 25" fill="none" xmlns="http://www.w3.org/2000/svg">
<path d="M22.0008 11.099V21.099C22.0008 21.299 21.8808 21.489 21.6908 21.559C21.6308 21.589 21.5608 21.599 21.5008 21.599C21.3708 21.599 21.2408 21.5491 21.1408 21.4491L19.3308 19.599H10.5008C8.57079 19.599 7.00079 18.029 7.00079 16.099H14.5008C17.2608 16.099 19.5008 13.859 19.5008 11.099V7.7489C20.9408 8.1789 22.0008 9.519 22.0008 11.099ZM18.0008 11.099V6.099C18.0008 4.169 16.4308 2.599 14.5008 2.599H6.50079C4.57079 2.599 3.00079 4.169 3.00079 6.099V16.099C3.00079 16.299 3.12079 16.489 3.31079 16.559C3.37079 16.589 3.44079 16.599 3.50079 16.599C3.63079 16.599 3.76078 16.5491 3.86078 16.4491L5.67081 14.599H14.5008C16.4308 14.599 18.0008 13.029 18.0008 11.099Z" fill="#677A8E"/>
</svg>
