<svg width="25" height="25" viewBox="0 0 25 25" fill="none" xmlns="http://www.w3.org/2000/svg">
<path d="M17.5008 4.599H7.50079C5.02079 4.599 3.00079 6.619 3.00079 9.099H22.0008C22.0008 6.619 19.9808 4.599 17.5008 4.599ZM3.00079 11.099V15.099C3.00079 17.579 5.02079 19.599 7.50079 19.599H17.5008C19.9808 19.599 22.0008 17.579 22.0008 15.099V11.099H3.00079ZM10.5008 16.099H7.50079C6.95079 16.099 6.50079 15.649 6.50079 15.099C6.50079 14.549 6.95079 14.099 7.50079 14.099H10.5008C11.0508 14.099 11.5008 14.549 11.5008 15.099C11.5008 15.649 11.0508 16.099 10.5008 16.099Z" fill="#677A8E"/>
</svg>
