<svg width="25" height="25" viewBox="0 0 25 25" fill="none" xmlns="http://www.w3.org/2000/svg">
<path d="M17.5008 10.8261H16.5808L14.2808 13.1314C13.8108 13.6125 13.1808 13.8731 12.5108 13.8731C11.8508 13.8731 11.2208 13.6125 10.7508 13.1314L8.45081 10.8261H7.50079C5.01079 10.8261 3.00079 12.8507 3.00079 15.3364V16.3387C3.00079 18.8344 5.01079 20.849 7.50079 20.849H17.5008C19.9808 20.849 22.0008 18.8344 22.0008 16.3387V15.3364C22.0008 12.8507 19.9808 10.8261 17.5008 10.8261ZM17.5008 16.5893C16.8008 16.5893 16.2408 16.028 16.2408 15.3364C16.2408 14.6448 16.8008 14.0835 17.5008 14.0835C18.1908 14.0835 18.7408 14.6448 18.7408 15.3364C18.7408 16.028 18.1908 16.5893 17.5008 16.5893ZM8.81079 9.06202C8.42079 8.67113 8.42079 8.03977 8.81079 7.64888C9.00079 7.44842 9.2608 7.35817 9.5108 7.35817C9.7708 7.35817 10.0308 7.44842 10.2208 7.64888L11.5108 8.94187V4.35129C11.5108 3.79001 11.9608 3.349 12.5108 3.349C13.0708 3.349 13.5108 3.79001 13.5108 4.35129V8.94187L14.8108 7.64888C15.0008 7.44842 15.2608 7.35817 15.5108 7.35817C15.7708 7.35817 16.0308 7.44842 16.2208 7.64888C16.6108 8.03977 16.6108 8.67113 16.2208 9.06202L13.2208 12.0689C13.0308 12.2694 12.7708 12.3696 12.5108 12.3696C12.2608 12.3696 12.0008 12.2694 11.8108 12.0689L8.81079 9.06202Z" fill="#677A8E"/>
</svg>
