<svg width="25" height="25" viewBox="0 0 25 25" fill="none" xmlns="http://www.w3.org/2000/svg">
<path d="M21.1208 9.96795L20.5408 9.38788C20.2608 9.10788 20.1008 8.72782 20.1008 8.32782V7.50775C20.1008 5.84775 18.7508 4.49774 17.0908 4.49774H16.2708C15.8708 4.49774 15.4908 4.3478 15.2108 4.0578L14.6308 3.47772C13.4608 2.30772 11.5508 2.30772 10.3708 3.47772L9.79077 4.0578C9.51077 4.3478 9.13077 4.49774 8.73077 4.49774H7.91077C6.25077 4.49774 4.90082 5.84775 4.90082 7.50775V8.32782C4.90082 8.72782 4.75082 9.10788 4.46082 9.38788L3.8808 9.96795C3.3108 10.538 3.00079 11.2978 3.00079 12.0978C3.00079 12.8978 3.3108 13.6577 3.8808 14.2277L4.46082 14.8078C4.75082 15.0878 4.90082 15.4679 4.90082 15.8679V16.6879C4.90082 18.3479 6.25077 19.6979 7.91077 19.6979H8.73077C9.13077 19.6979 9.51077 19.8479 9.79077 20.1379L10.3708 20.718C10.9608 21.308 11.7308 21.5978 12.5008 21.5978C13.2708 21.5978 14.0408 21.308 14.6308 20.718L15.2108 20.1379C15.4908 19.8479 15.8708 19.6979 16.2708 19.6979H17.0908C18.7508 19.6979 20.1008 18.3479 20.1008 16.6879V15.8679C20.1008 15.4679 20.2608 15.0878 20.5408 14.8078L21.1208 14.2277C21.6908 13.6577 22.0008 12.8978 22.0008 12.0978C22.0008 11.2978 21.6908 10.538 21.1208 9.96795ZM10.0008 8.34784C10.6908 8.34784 11.2508 8.90784 11.2508 9.59784C11.2508 10.2878 10.6908 10.8478 10.0008 10.8478C9.31079 10.8478 8.75079 10.2878 8.75079 9.59784C8.75079 8.90784 9.31079 8.34784 10.0008 8.34784ZM15.0008 15.8478C14.3108 15.8478 13.7508 15.2878 13.7508 14.5978C13.7508 13.9078 14.3108 13.3478 15.0008 13.3478C15.6908 13.3478 16.2508 13.9078 16.2508 14.5978C16.2508 15.2878 15.6908 15.8478 15.0008 15.8478ZM16.2108 9.8078L10.2108 15.8078C10.0108 15.9978 9.76079 16.0978 9.50079 16.0978C9.25079 16.0978 8.99077 15.9978 8.79077 15.8078C8.40077 15.4178 8.40077 14.7779 8.79077 14.3879L14.7908 8.38788C15.1908 7.99788 15.8208 7.99788 16.2108 8.38788C16.6008 8.77788 16.6008 9.4178 16.2108 9.8078Z" fill="#677A8E"/>
</svg>
