<svg width="25" height="25" viewBox="0 0 25 25" fill="none" xmlns="http://www.w3.org/2000/svg">
<path d="M21.5008 10.599H22.0008V9.099C22.0008 6.624 19.9758 4.599 17.5008 4.599H17.0008C16.7248 4.599 16.5008 4.823 16.5008 5.099V7.099C16.5008 7.649 16.0508 8.099 15.5008 8.099C14.9508 8.099 14.5008 7.649 14.5008 7.099V5.099C14.5008 4.823 14.2768 4.599 14.0008 4.599H7.50079C5.02579 4.599 3.00079 6.624 3.00079 9.099V10.599H3.50079C4.33079 10.599 5.00079 11.269 5.00079 12.099C5.00079 12.929 4.33079 13.599 3.50079 13.599H3.00079V15.099C3.00079 17.574 5.02579 19.599 7.50079 19.599H14.0008C14.2768 19.599 14.5008 19.375 14.5008 19.099V17.099C14.5008 16.549 14.9508 16.099 15.5008 16.099C16.0508 16.099 16.5008 16.549 16.5008 17.099V19.099C16.5008 19.375 16.7248 19.599 17.0008 19.599H17.5008C19.9758 19.599 22.0008 17.574 22.0008 15.099V13.599H21.5008C20.6708 13.599 20.0008 12.929 20.0008 12.099C20.0008 11.269 20.6708 10.599 21.5008 10.599ZM16.5008 13.599C16.5008 14.149 16.0508 14.599 15.5008 14.599C14.9508 14.599 14.5008 14.149 14.5008 13.599V10.599C14.5008 10.049 14.9508 9.599 15.5008 9.599C16.0508 9.599 16.5008 10.049 16.5008 10.599V13.599Z" fill="#677A8E"/>
</svg>
