<svg width="25" height="25" viewBox="0 0 25 25" fill="none" xmlns="http://www.w3.org/2000/svg">
<path d="M14.5008 13.099C14.5008 14.199 13.6008 15.099 12.5008 15.099C11.4008 15.099 10.5008 14.199 10.5008 13.099C10.5008 11.999 11.4008 11.099 12.5008 11.099C13.6008 11.099 14.5008 11.999 14.5008 13.099ZM22.0008 11.099V16.099C22.0008 18.579 19.9808 20.599 17.5008 20.599H7.50079C5.02079 20.599 3.00079 18.579 3.00079 16.099V11.099C3.00079 8.709 4.8708 6.74901 7.2308 6.60901L8.49078 4.70911C8.96078 4.01911 9.7308 3.599 10.5708 3.599H14.4308C15.2708 3.599 16.0408 4.01911 16.5108 4.70911L17.7708 6.60901C20.1308 6.74901 22.0008 8.709 22.0008 11.099ZM16.5008 13.099C16.5008 10.889 14.7108 9.099 12.5008 9.099C10.2908 9.099 8.50079 10.889 8.50079 13.099C8.50079 15.309 10.2908 17.099 12.5008 17.099C14.7108 17.099 16.5008 15.309 16.5008 13.099ZM19.5008 10.099C19.5008 9.549 19.0508 9.099 18.5008 9.099C17.9508 9.099 17.5008 9.549 17.5008 10.099C17.5008 10.649 17.9508 11.099 18.5008 11.099C19.0508 11.099 19.5008 10.649 19.5008 10.099Z" fill="#677A8E"/>
</svg>
