<svg width="24" height="25" viewBox="0 0 24 25" fill="none" xmlns="http://www.w3.org/2000/svg">
<path d="M8.50079 3.599C6.92079 3.599 5.59782 4.658 5.16382 6.099H3.00079C2.44879 6.099 2.00079 6.546 2.00079 7.099C2.00079 7.652 2.44879 8.099 3.00079 8.099H5.16382C5.59782 9.54 6.92079 10.599 8.50079 10.599C10.4308 10.599 12.0008 9.029 12.0008 7.099C12.0008 5.169 10.4308 3.599 8.50079 3.599ZM8.50079 8.599C7.67379 8.599 7.00079 7.926 7.00079 7.099C7.00079 6.272 7.67379 5.599 8.50079 5.599C9.32779 5.599 10.0008 6.272 10.0008 7.099C10.0008 7.926 9.32779 8.599 8.50079 8.599ZM14.0008 7.099C14.0008 6.546 14.4488 6.099 15.0008 6.099H21.0008C21.5528 6.099 22.0008 6.546 22.0008 7.099C22.0008 7.652 21.5528 8.099 21.0008 8.099H15.0008C14.4488 8.099 14.0008 7.652 14.0008 7.099ZM21.0008 16.099H18.8378C18.4038 14.658 17.0808 13.599 15.5008 13.599C13.5708 13.599 12.0008 15.169 12.0008 17.099C12.0008 19.029 13.5708 20.599 15.5008 20.599C17.0808 20.599 18.4038 19.54 18.8378 18.099H21.0008C21.5528 18.099 22.0008 17.652 22.0008 17.099C22.0008 16.546 21.5528 16.099 21.0008 16.099ZM15.5008 18.599C14.6738 18.599 14.0008 17.926 14.0008 17.099C14.0008 16.272 14.6738 15.599 15.5008 15.599C16.3278 15.599 17.0008 16.272 17.0008 17.099C17.0008 17.926 16.3278 18.599 15.5008 18.599ZM10.0008 17.099C10.0008 17.652 9.55279 18.099 9.00079 18.099H3.00079C2.44879 18.099 2.00079 17.652 2.00079 17.099C2.00079 16.546 2.44879 16.099 3.00079 16.099H9.00079C9.55279 16.099 10.0008 16.546 10.0008 17.099Z" fill="#677A8E"/>
</svg>
