<svg width="25" height="25" viewBox="0 0 25 25" fill="none" xmlns="http://www.w3.org/2000/svg">
<path d="M13.0007 2.599C7.48494 2.599 3.00073 7.08321 3.00073 12.599C3.00073 18.1148 7.48494 22.599 13.0007 22.599C18.5165 22.599 23.0007 18.1148 23.0007 12.599C23.0007 7.08321 18.5165 2.599 13.0007 2.599ZM14.8008 15.0096C15.2113 15.4201 15.2113 16.0937 14.8008 16.5042C14.5902 16.7042 14.327 16.8095 14.0534 16.8095C13.7797 16.8095 13.5165 16.7042 13.306 16.5042L10.1481 13.3463C9.73755 12.9358 9.73755 12.2622 10.1481 11.8517L13.306 8.69378C13.7165 8.28325 14.3902 8.28325 14.8008 8.69378C15.2113 9.1043 15.2113 9.77791 14.8008 10.1884L12.3797 12.599L14.8008 15.0096Z" fill="#677A8E"/>
</svg>
