<svg width="25" height="25" viewBox="0 0 25 25" fill="none" xmlns="http://www.w3.org/2000/svg">
<path d="M2.50079 5.099C2.50079 4.546 2.94879 4.099 3.50079 4.099H16.5008C17.0528 4.099 17.5008 4.546 17.5008 5.099C17.5008 5.652 17.0528 6.099 16.5008 6.099H3.50079C2.94879 6.099 2.50079 5.652 2.50079 5.099ZM21.5008 11.099H3.50079C2.94879 11.099 2.50079 11.546 2.50079 12.099C2.50079 12.652 2.94879 13.099 3.50079 13.099H21.5008C22.0528 13.099 22.5008 12.652 22.5008 12.099C22.5008 11.546 22.0528 11.099 21.5008 11.099ZM12.5008 18.099H3.50079C2.94879 18.099 2.50079 18.546 2.50079 19.099C2.50079 19.652 2.94879 20.099 3.50079 20.099H12.5008C13.0528 20.099 13.5008 19.652 13.5008 19.099C13.5008 18.546 13.0528 18.099 12.5008 18.099Z" fill="#677A8E"/>
</svg>
