<svg width="25" height="25" viewBox="0 0 25 25" fill="none" xmlns="http://www.w3.org/2000/svg">
<path d="M15.5008 9.849H9.50079V7.349C9.50079 5.699 10.8508 4.349 12.5008 4.349C13.9008 4.349 15.2008 5.319 15.5308 6.599C15.6708 7.129 16.2108 7.45897 16.7508 7.31897C17.2808 7.17897 17.6108 6.639 17.4708 6.099C16.9108 3.929 14.8208 2.349 12.5008 2.349C9.74079 2.349 7.50079 4.589 7.50079 7.349V10.339C6.02079 11.079 5.00079 12.589 5.00079 14.349V17.349C5.00079 19.829 7.02079 21.849 9.50079 21.849H15.5008C17.9808 21.849 20.0008 19.829 20.0008 17.349V14.349C20.0008 11.869 17.9808 9.849 15.5008 9.849ZM13.5008 16.349C13.5008 16.899 13.0508 17.349 12.5008 17.349C11.9508 17.349 11.5008 16.899 11.5008 16.349V15.349C11.5008 14.799 11.9508 14.349 12.5008 14.349C13.0508 14.349 13.5008 14.799 13.5008 15.349V16.349Z" fill="#677A8E"/>
</svg>
