<svg width="25" height="25" viewBox="0 0 25 25" fill="none" xmlns="http://www.w3.org/2000/svg">
<path d="M13.0007 2.599C7.48494 2.599 3.00073 7.08321 3.00073 12.599C3.00073 18.1148 7.48494 22.599 13.0007 22.599C18.5165 22.599 23.0007 18.1148 23.0007 12.599C23.0007 7.08321 18.5165 2.599 13.0007 2.599ZM15.8534 13.3463L12.6955 16.5042C12.485 16.7042 12.2218 16.8095 11.9481 16.8095C11.6744 16.8095 11.4112 16.7042 11.2007 16.5042C10.7902 16.0937 10.7902 15.4201 11.2007 15.0096L13.6218 12.599L11.2007 10.1884C10.7902 9.77791 10.7902 9.1043 11.2007 8.69378C11.6112 8.28325 12.285 8.28325 12.6955 8.69378L15.8534 11.8517C16.2639 12.2622 16.2639 12.9358 15.8534 13.3463Z" fill="#677A8E"/>
</svg>
