<svg width="24" height="25" viewBox="0 0 24 25" fill="none" xmlns="http://www.w3.org/2000/svg">
<path d="M10.2748 14.9879L9.14677 16.1161C10.0148 16.5891 10.9948 16.848 12.0008 16.848C15.3098 16.848 18.0008 14.157 18.0008 10.848C18.0008 10.295 18.4488 9.84802 19.0008 9.84802C19.5528 9.84802 20.0008 10.295 20.0008 10.848C20.0008 14.92 16.9408 18.2839 13.0008 18.7789V19.849H16.0008C16.5528 19.849 17.0008 20.296 17.0008 20.849C17.0008 21.402 16.5528 21.849 16.0008 21.849H8.00077C7.44877 21.849 7.00077 21.402 7.00077 20.849C7.00077 20.296 7.44877 19.849 8.00077 19.849H11.0008V18.7789C9.81777 18.6299 8.68478 18.2181 7.68778 17.576L4.7078 20.556C4.5128 20.751 4.25677 20.849 4.00077 20.849C3.74477 20.849 3.4888 20.751 3.2938 20.556C2.9028 20.165 2.9028 19.533 3.2938 19.142L19.2938 3.14197C19.6848 2.75097 20.3168 2.75097 20.7078 3.14197C21.0988 3.53297 21.0988 4.16503 20.7078 4.55603L16.5008 8.76306V10.849C16.5008 13.33 14.4818 15.349 12.0008 15.349C11.4028 15.349 10.8218 15.2179 10.2748 14.9879ZM7.95676 12.2289C8.00376 12.2429 8.05177 12.2499 8.09977 12.2499C8.23077 12.2499 8.35777 12.1979 8.45377 12.1039L15.6338 4.92297C15.8048 4.75197 15.8288 4.48403 15.6918 4.28503C14.8538 3.07303 13.4738 2.349 12.0008 2.349C10.8088 2.349 9.6788 2.81609 8.8148 3.66809C7.9678 4.52709 7.50077 5.657 7.50077 6.849V10.849C7.50077 11.164 7.53682 11.492 7.61082 11.851C7.64782 12.031 7.78076 12.1759 7.95676 12.2289ZM5.7808 15.069C5.9358 15.069 6.0938 15.0329 6.2418 14.9559C6.7318 14.7009 6.92179 14.0981 6.66679 13.6071C6.23079 12.7691 5.99979 11.816 5.99979 10.849C5.99979 10.296 5.55179 9.849 4.99979 9.849C4.44779 9.849 3.99979 10.296 3.99979 10.849C3.99979 12.136 4.3088 13.4099 4.8928 14.5309C5.0708 14.8729 5.4198 15.069 5.7808 15.069Z" fill="#677A8E"/>
</svg>
