<svg width="25" height="25" viewBox="0 0 25 25" fill="none" xmlns="http://www.w3.org/2000/svg">
<path d="M14.0008 12.099C14.0008 12.929 13.3308 13.599 12.5008 13.599C11.6708 13.599 11.0008 12.929 11.0008 12.099C11.0008 11.269 11.6708 10.599 12.5008 10.599C13.3308 10.599 14.0008 11.269 14.0008 12.099ZM22.0008 12.099C22.0008 17.339 17.7408 21.599 12.5008 21.599C7.26079 21.599 3.00079 17.339 3.00079 12.099C3.00079 6.859 7.26079 2.599 12.5008 2.599C17.7408 2.599 22.0008 6.859 22.0008 12.099ZM17.1908 7.40906C16.8108 7.03906 16.2808 6.88892 15.7608 7.01892L11.7108 8.02893C10.0908 8.43893 8.84079 9.68896 8.43079 11.309L7.42081 15.359C7.29081 15.879 7.44079 16.4089 7.81079 16.7889C8.10079 17.0689 8.48079 17.2289 8.87079 17.2289C8.99079 17.2289 9.12078 17.2091 9.24078 17.1791L13.2908 16.1691C14.9108 15.7591 16.1608 14.509 16.5708 12.889L17.5808 8.83899C17.7108 8.31899 17.5608 7.78906 17.1908 7.40906Z" fill="#677A8E"/>
</svg>
