<svg width="25" height="25" viewBox="0 0 25 25" fill="none" xmlns="http://www.w3.org/2000/svg">
<path d="M17.5008 2.349H7.50079C5.01979 2.349 3.00079 4.368 3.00079 6.849V12.849C3.00079 15.33 5.01979 17.349 7.50079 17.349H11.5008V19.849H8.50079C7.94879 19.849 7.50079 20.296 7.50079 20.849C7.50079 21.402 7.94879 21.849 8.50079 21.849H16.5008C17.0528 21.849 17.5008 21.402 17.5008 20.849C17.5008 20.296 17.0528 19.849 16.5008 19.849H13.5008V17.349H17.5008C19.9818 17.349 22.0008 15.33 22.0008 12.849V6.849C22.0008 4.368 19.9818 2.349 17.5008 2.349Z" fill="#677A8E"/>
</svg>
