<svg width="25" height="25" viewBox="0 0 25 25" fill="none" xmlns="http://www.w3.org/2000/svg">
<path fill-rule="evenodd" clip-rule="evenodd" d="M11.5008 3.099C7.08252 3.099 3.50079 6.68072 3.50079 11.099C3.50079 15.5173 7.08252 19.099 11.5008 19.099C13.3495 19.099 15.0518 18.4719 16.4064 17.4189L19.7937 20.8061C20.1842 21.1966 20.8174 21.1966 21.2079 20.8061C21.5984 20.4156 21.5984 19.7824 21.2079 19.3919L17.8207 16.0046C18.8737 14.65 19.5008 12.9477 19.5008 11.099C19.5008 6.68072 15.9191 3.099 11.5008 3.099ZM5.50079 11.099C5.50079 7.78529 8.18709 5.099 11.5008 5.099C14.8145 5.099 17.5008 7.78529 17.5008 11.099C17.5008 14.4127 14.8145 17.099 11.5008 17.099C8.18709 17.099 5.50079 14.4127 5.50079 11.099Z" fill="#677A8E"/>
</svg>
