<svg width="25" height="25" viewBox="0 0 25 25" fill="none" xmlns="http://www.w3.org/2000/svg">
<path d="M12.4117 6.42908L18.1717 12.1891L10.2718 20.099C9.90177 20.469 9.43173 20.709 8.92173 20.799L4.18174 21.589C4.12174 21.599 4.07176 21.599 4.01176 21.599C3.75176 21.599 3.49173 21.489 3.30173 21.299C3.07173 21.069 2.96176 20.7391 3.01176 20.4191L3.80173 15.6791C3.89173 15.1691 4.13175 14.699 4.50175 14.329L12.4117 6.42908ZM20.8017 3.79895C20.0317 3.01895 19.0117 2.599 17.9217 2.599C16.8317 2.599 15.8117 3.01895 15.0417 3.79895L13.8318 5.00891L19.5918 10.7689L20.8017 9.55896C21.5817 8.78896 22.0017 7.76908 22.0017 6.67908C22.0017 5.58908 21.5817 4.56895 20.8017 3.79895Z" fill="#677A8E"/>
</svg>
