<svg width="25" height="25" viewBox="0 0 25 25" fill="none" xmlns="http://www.w3.org/2000/svg">
<path d="M3.50079 12.099C3.50079 10.9944 4.39622 10.099 5.50079 10.099C6.60536 10.099 7.50079 10.9944 7.50079 12.099C7.50079 13.2036 6.60536 14.099 5.50079 14.099C4.39622 14.099 3.50079 13.2036 3.50079 12.099Z" fill="#677A8E"/>
<path d="M10.5008 12.099C10.5008 10.9944 11.3962 10.099 12.5008 10.099C13.6054 10.099 14.5008 10.9944 14.5008 12.099C14.5008 13.2036 13.6054 14.099 12.5008 14.099C11.3962 14.099 10.5008 13.2036 10.5008 12.099Z" fill="#677A8E"/>
<path d="M19.5008 10.099C18.3962 10.099 17.5008 10.9944 17.5008 12.099C17.5008 13.2036 18.3962 14.099 19.5008 14.099C20.6054 14.099 21.5008 13.2036 21.5008 12.099C21.5008 10.9944 20.6054 10.099 19.5008 10.099Z" fill="#677A8E"/>
</svg>
