<svg width="25" height="25" viewBox="0 0 25 25" fill="none" xmlns="http://www.w3.org/2000/svg">
<path d="M8.00079 10.849V6.849C8.00079 4.368 10.0198 2.349 12.5008 2.349C14.9818 2.349 17.0008 4.368 17.0008 6.849V10.849C17.0008 13.33 14.9818 15.349 12.5008 15.349C10.0198 15.349 8.00079 13.33 8.00079 10.849ZM20.5008 10.849C20.5008 10.296 20.0528 9.849 19.5008 9.849C18.9488 9.849 18.5008 10.296 18.5008 10.849C18.5008 14.158 15.8098 16.849 12.5008 16.849C9.19179 16.849 6.50079 14.158 6.50079 10.849C6.50079 10.296 6.05279 9.849 5.50079 9.849C4.94879 9.849 4.50079 10.296 4.50079 10.849C4.50079 14.921 7.56079 18.2849 11.5008 18.7799V19.849H8.50079C7.94879 19.849 7.50079 20.296 7.50079 20.849C7.50079 21.402 7.94879 21.849 8.50079 21.849H16.5008C17.0528 21.849 17.5008 21.402 17.5008 20.849C17.5008 20.296 17.0528 19.849 16.5008 19.849H13.5008V18.7799C17.4408 18.2849 20.5008 14.921 20.5008 10.849Z" fill="#677A8E"/>
</svg>
