<svg width="25" height="25" viewBox="0 0 25 25" fill="none" xmlns="http://www.w3.org/2000/svg">
<ellipse cx="12.5152" cy="12.9067" rx="12" ry="12" fill="white"/>
<path fill-rule="evenodd" clip-rule="evenodd" d="M15.0643 7.45215C15.2368 7.45215 15.3766 7.59196 15.3766 7.76442C15.3766 7.93688 15.2368 8.07668 15.0643 8.07668C14.8918 8.07668 14.752 7.93688 14.752 7.76442C14.752 7.59196 14.8918 7.45215 15.0643 7.45215ZM15.0643 12.7161C16.2222 12.7161 17.1609 11.7774 17.1609 10.6194C17.1609 9.46148 16.2222 8.52278 15.0643 8.52278C13.9064 8.52278 12.9676 9.46148 12.9676 10.6194C12.9676 11.7774 13.9064 12.7161 15.0643 12.7161ZM17.9193 10.9317C18.0918 10.9317 18.2316 10.7919 18.2316 10.6194C18.2316 10.447 18.0918 10.3072 17.9193 10.3072C17.7469 10.3072 17.607 10.447 17.607 10.6194C17.607 10.7919 17.7469 10.9317 17.9193 10.9317ZM17.3039 12.859C17.1819 12.981 16.9842 12.981 16.8623 12.859C16.7403 12.7371 16.7403 12.5394 16.8623 12.4174C16.9842 12.2955 17.1819 12.2955 17.3039 12.4174C17.4258 12.5394 17.4258 12.7371 17.3039 12.859ZM12.8247 8.82144C12.9467 8.94339 13.1444 8.94339 13.2663 8.82144C13.3883 8.69949 13.3883 8.50177 13.2663 8.37983C13.1444 8.25788 12.9467 8.25788 12.8247 8.37983C12.7028 8.50177 12.7028 8.69949 12.8247 8.82144ZM16.8623 8.82148C16.7403 8.69953 16.7403 8.50181 16.8623 8.37987C16.9842 8.25792 17.182 8.25792 17.3039 8.37987C17.4259 8.50181 17.4259 8.69953 17.3039 8.82148C17.182 8.94343 16.9842 8.94343 16.8623 8.82148Z" fill="#FFD600"/>
<path fill-rule="evenodd" clip-rule="evenodd" d="M7.62633 11.9722C8.07183 11.5267 8.63531 11.2711 9.2162 11.2053C9.28065 9.78435 10.4531 8.6521 11.89 8.6521C13.2808 8.6521 14.4238 9.71285 14.5542 11.0695C15.8883 10.8609 17.1924 11.6881 17.5498 13.0219C17.9321 14.4488 17.0862 15.9155 15.66 16.2993L15.6572 16.3C15.5244 16.3356 15.3878 16.2568 15.3522 16.124C15.3166 15.9911 15.3955 15.8546 15.5283 15.819L15.5283 15.819L15.5283 15.819C16.6905 15.5076 17.3802 14.313 17.0688 13.1508C16.7574 11.9886 15.5627 11.2988 14.4005 11.6103L14.4005 11.6103C14.2735 11.6443 14.1431 11.5737 14.1008 11.4513C14.0803 11.4151 14.0686 11.3733 14.0686 11.3287V11.3287H14.0685V11.3287C14.0685 10.1254 13.0932 9.15005 11.8899 9.15005C10.7315 9.15005 9.78418 10.0543 9.71534 11.1954C10.3317 11.2405 10.9354 11.4981 11.4075 11.9681L11.4117 11.9722C11.5089 12.0695 11.5089 12.2271 11.4117 12.3243C11.3145 12.4216 11.1568 12.4216 11.0596 12.3243L11.0595 12.3243L11.0595 12.3243C10.2087 11.4735 8.82926 11.4735 7.97847 12.3243C7.12907 13.1737 7.12767 14.55 7.97427 15.4011L7.97858 15.4053C8.07581 15.5026 8.07581 15.6602 7.97858 15.7575C7.88134 15.8547 7.72369 15.8547 7.62646 15.7575L7.6264 15.7574L7.62633 15.7575C6.58106 14.7122 6.58106 13.0175 7.62633 11.9722Z" fill="black"/>
<path fill-rule="evenodd" clip-rule="evenodd" d="M14.1515 15.631C14.1691 15.633 14.1871 15.634 14.2053 15.634H14.2067C14.4775 15.6336 14.6969 15.414 14.6969 15.1431C14.6969 14.872 14.4771 14.6522 14.206 14.6522C14.1876 14.6522 14.1694 14.6532 14.1515 14.6552V14.6522C14.031 14.6522 13.9333 14.5545 13.9333 14.434C13.9333 14.3135 14.031 14.2158 14.1515 14.2158C14.1574 14.2158 14.1634 14.2161 14.1692 14.2165C14.1814 14.2161 14.1937 14.2158 14.206 14.2158C14.7181 14.2158 15.1333 14.631 15.1333 15.1431C15.1333 15.6197 14.7737 16.0123 14.3111 16.0645C14.2949 16.0683 14.278 16.0704 14.2605 16.0704H14.2065L14.206 16.0704L14.2055 16.0704H11.0969C10.9764 16.0704 10.8787 15.9727 10.8787 15.8522C10.8787 15.7317 10.9764 15.634 11.0969 15.634H14.1515V15.631ZM9.56964 14.9795C9.56964 14.859 9.66733 14.7613 9.78782 14.7613H12.6242C12.7447 14.7613 12.8424 14.859 12.8424 14.9795C12.8424 15.1 12.7447 15.1976 12.6242 15.1976H9.78782C9.66733 15.1976 9.56964 15.1 9.56964 14.9795ZM12.5689 16.834C12.5507 16.834 12.5328 16.835 12.5151 16.837V16.834H9.46055C9.34005 16.834 9.24237 16.7363 9.24237 16.6158C9.24237 16.4953 9.34005 16.3976 9.46055 16.3976H12.5692H12.5696H12.5701H12.6242C12.6416 16.3976 12.6585 16.3997 12.6748 16.4035C13.1374 16.4557 13.4969 16.8483 13.4969 17.3249C13.4969 17.837 13.0818 18.2522 12.5696 18.2522C12.5573 18.2522 12.5451 18.2519 12.5329 18.2515C12.527 18.2519 12.5211 18.2522 12.5151 18.2522C12.3946 18.2522 12.2969 18.1545 12.2969 18.034C12.2969 17.9135 12.3946 17.8158 12.5151 17.8158L12.5151 17.8128C12.533 17.8148 12.5512 17.8158 12.5696 17.8158C12.8408 17.8158 13.0605 17.596 13.0605 17.3249C13.0605 17.054 12.8411 16.8344 12.5703 16.834H12.5689Z" fill="url(#paint0_linear_19_3456)"/>
<defs>
<linearGradient id="paint0_linear_19_3456" x1="9.24237" y1="15.1976" x2="12.1878" y2="18.2522" gradientUnits="userSpaceOnUse">
<stop stop-color="#95BFFF"/>
<stop offset="1" stop-color="#5096FF"/>
</linearGradient>
</defs>
</svg>
