<svg width="24" height="24" viewBox="0 0 24 24" fill="none" xmlns="http://www.w3.org/2000/svg">
<circle cx="12.0485" cy="11.8117" r="11.7333" fill="white"/>
<path fill-rule="evenodd" clip-rule="evenodd" d="M14.9877 13.4116C15.5378 13.4116 15.9714 12.975 15.9714 12.4516C15.9714 11.9282 15.5378 11.4916 14.9877 11.4916L14.964 11.4919L14.964 11.4916C14.8462 11.4916 14.7507 11.3961 14.7507 11.2783C14.7507 11.1605 14.8462 11.0649 14.964 11.0649L14.9715 11.0651L14.9877 11.0649C15.7666 11.0649 16.3981 11.6858 16.3981 12.4516C16.3981 13.1729 15.8379 13.7656 15.1219 13.8321C15.1055 13.8361 15.0883 13.8383 15.0707 13.8383H14.9877H9.95065C9.83283 13.8383 9.73732 13.7428 9.73732 13.6249C9.73732 13.5071 9.83283 13.4116 9.95065 13.4116H14.964V13.4113L14.9877 13.4116ZM7.7818 12.3479C7.7818 12.2154 7.88925 12.1079 8.0218 12.1079H12.5196C12.6521 12.1079 12.7596 12.2154 12.7596 12.3479C12.7596 12.4805 12.6521 12.5879 12.5196 12.5879H8.0218C7.88925 12.5879 7.7818 12.4805 7.7818 12.3479ZM7.7818 14.9583C7.7818 14.811 7.90119 14.6916 8.04847 14.6916H15.3018C15.4491 14.6916 15.5685 14.811 15.5685 14.9583C15.5685 15.1056 15.4491 15.2249 15.3018 15.2249H8.04847C7.90119 15.2249 7.7818 15.1056 7.7818 14.9583Z" fill="black"/>
<circle cx="8.95513" cy="8.61175" r="0.32" fill="#FFD600"/>
<circle cx="11.7285" cy="8.61175" r="0.32" fill="#FFD600"/>
<circle cx="8.95513" cy="11.1718" r="0.32" fill="#FFD600"/>
<circle cx="11.7285" cy="11.1718" r="0.32" fill="#FFD600"/>
<circle cx="10.3418" cy="9.89178" r="0.32" fill="#FFD600"/>
</svg>
