<svg width="25" height="25" viewBox="0 0 25 25" fill="none" xmlns="http://www.w3.org/2000/svg">
<circle cx="12.5152" cy="12.6304" r="12" fill="white"/>
<path fill-rule="evenodd" clip-rule="evenodd" d="M7.73549 11.5254C8.181 11.0799 8.74448 10.8243 9.32537 10.7586C9.38983 9.33758 10.5623 8.20532 11.9992 8.20532C13.3899 8.20532 14.533 9.26608 14.6633 10.6227C15.9974 10.4141 17.3016 11.2413 17.659 12.5751C18.0413 14.002 17.1953 15.4687 15.7692 15.8525L15.7663 15.8532C15.6335 15.8888 15.497 15.81 15.4614 15.6772C15.4258 15.5444 15.5046 15.4079 15.6374 15.3723L15.6374 15.3722L15.6374 15.3722C16.7996 15.0608 17.4894 13.8662 17.1779 12.704C16.8665 11.5418 15.6719 10.8521 14.5097 11.1635L14.5097 11.1635C14.3826 11.1975 14.2522 11.1269 14.21 11.0044C14.1895 10.9683 14.1778 10.9265 14.1778 10.8819V10.8819H14.1777V10.8819C14.1777 9.67867 13.2023 8.70327 11.9991 8.70327C10.8406 8.70327 9.89336 9.60748 9.82452 10.7486C10.4409 10.7937 11.0446 11.0513 11.5166 11.5213L11.5209 11.5255C11.6181 11.6227 11.6181 11.7803 11.5209 11.8776C11.4236 11.9748 11.266 11.9748 11.1687 11.8776L11.1687 11.8775L11.1686 11.8775C10.3178 11.0267 8.93843 11.0267 8.08763 11.8775C7.23823 12.7269 7.23683 14.1032 8.08342 14.9543L8.08774 14.9586C8.18497 15.0558 8.18497 15.2134 8.08774 15.3107C7.99051 15.4079 7.83286 15.4079 7.73562 15.3107L7.73556 15.3106L7.73549 15.3107C6.69022 14.2654 6.69022 12.5707 7.73549 11.5254Z" fill="black"/>
<path fill-rule="evenodd" clip-rule="evenodd" d="M18.0061 9.80848C18.0762 9.65871 18.1303 9.50104 18.1665 9.33824C18.0107 9.37298 17.8547 9.39073 17.7007 9.39264C16.6875 9.40523 15.7557 8.73338 15.4814 7.70976C15.4265 7.50458 15.4014 7.29844 15.4037 7.09596C15.4045 7.0175 15.4095 6.93958 15.4184 6.86249C15.4274 6.78417 15.4405 6.70671 15.4575 6.63037C15.4258 6.63744 15.3941 6.64522 15.3624 6.65371C15.2315 6.68879 15.1063 6.73464 14.9876 6.79004C14.0082 7.24698 13.4679 8.35386 13.7573 9.43389C13.8706 9.8567 14.0961 10.2195 14.3931 10.4988C14.3779 10.446 14.3697 10.3902 14.3697 10.3325C14.3697 10.1937 14.4168 10.066 14.4959 9.96434C14.3528 9.77839 14.2433 9.56172 14.1788 9.32095C13.9655 8.52508 14.3101 7.71116 14.9727 7.29424C14.9841 7.46976 15.0128 7.64663 15.0599 7.8227C15.3684 8.97396 16.3744 9.7519 17.5015 9.82379C17.2638 10.2013 16.8888 10.4932 16.4245 10.6175C16.1089 10.7021 15.7903 10.699 15.4949 10.623C15.4039 10.787 15.2384 10.9039 15.0441 10.9279C15.4988 11.1261 16.0212 11.1774 16.5375 11.039C17.2107 10.8586 17.7318 10.3938 18.0061 9.80848Z" fill="#6538FF"/>
<path fill-rule="evenodd" clip-rule="evenodd" d="M7.73549 11.5254C8.181 11.0799 8.74448 10.8243 9.32537 10.7586C9.38983 9.33758 10.5623 8.20532 11.9992 8.20532C13.3899 8.20532 14.533 9.26608 14.6633 10.6227C15.9974 10.4141 17.3016 11.2413 17.659 12.5751C18.0413 14.002 17.1953 15.4687 15.7692 15.8525L15.7663 15.8532C15.6335 15.8888 15.497 15.81 15.4614 15.6772C15.4258 15.5444 15.5046 15.4079 15.6374 15.3723L15.6374 15.3722L15.6374 15.3722C16.7996 15.0608 17.4894 13.8662 17.1779 12.704C16.8669 11.543 15.6745 10.8535 14.5135 11.1624L14.5097 11.1635C14.3826 11.1975 14.2522 11.1269 14.21 11.0044C14.1895 10.9683 14.1778 10.9265 14.1778 10.8819V10.8819H14.1777V10.8819C14.1777 9.67867 13.2023 8.70327 11.9991 8.70327C10.8406 8.70327 9.89336 9.60748 9.82452 10.7486C10.4409 10.7937 11.0446 11.0513 11.5166 11.5213L11.5209 11.5255C11.6181 11.6227 11.6181 11.7803 11.5209 11.8776C11.4236 11.9748 11.266 11.9748 11.1687 11.8776L11.1687 11.8775L11.1686 11.8775C10.3178 11.0267 8.93843 11.0267 8.08763 11.8775C7.23823 12.7269 7.23683 14.1032 8.08342 14.9543L8.08774 14.9586C8.18497 15.0558 8.18497 15.2134 8.08774 15.3107C7.99051 15.4079 7.83286 15.4079 7.73562 15.3107L7.73556 15.3106L7.73549 15.3107C6.69022 14.2654 6.69022 12.5707 7.73549 11.5254Z" fill="black"/>
<rect x="14.6992" y="13.4417" width="0.545455" height="1.85455" rx="0.272727" transform="rotate(45 14.6992 13.4417)" fill="url(#paint0_linear_19_3680)"/>
<rect x="10.2415" y="14.4233" width="0.545455" height="2.49286" rx="0.272727" transform="rotate(45 10.2415 14.4233)" fill="url(#paint1_linear_19_3680)"/>
<rect x="14.8645" y="15.9507" width="0.545455" height="1.47099" rx="0.272727" transform="rotate(45 14.8645 15.9507)" fill="url(#paint2_linear_19_3680)"/>
<rect x="10.3918" y="16.2778" width="0.545455" height="1.47099" rx="0.272727" transform="rotate(45 10.3918 16.2778)" fill="url(#paint3_linear_19_3680)"/>
<path fill-rule="evenodd" clip-rule="evenodd" d="M12.8648 13.4462C12.8514 13.4432 12.8375 13.4417 12.8232 13.4417H11.6032C11.4986 13.4417 11.4139 13.5264 11.4139 13.631L11.414 13.6363C11.4125 13.6407 11.4111 13.645 11.4099 13.6495L10.7762 16.0144C10.7492 16.1154 10.8091 16.2192 10.9101 16.2463C10.9273 16.2509 10.9445 16.253 10.9615 16.2528C10.9782 16.2576 10.9959 16.2602 11.0142 16.2602H11.6045L11.0449 18.3486C11.0178 18.4496 11.0778 18.5534 11.1787 18.5805C11.1928 18.5842 11.207 18.5863 11.221 18.5868C11.2817 18.5999 11.3476 18.5828 11.3948 18.5356L14.1017 15.8287C14.1151 15.8153 14.1262 15.8003 14.1347 15.7843C14.1691 15.7501 14.1904 15.7026 14.1904 15.6502C14.1904 15.5457 14.1056 15.4609 14.0011 15.4609H12.5785L13.0545 13.6845C13.0816 13.5835 13.0217 13.4797 12.9207 13.4526C12.902 13.4476 12.8832 13.4456 12.8648 13.4462ZM11.8289 15.8822C11.8522 15.8794 11.8763 15.881 11.9003 15.8874C12.0013 15.9145 12.0613 16.0183 12.0342 16.1192L11.5798 17.8152L13.5554 15.8395H12.3604C12.3534 15.8395 12.3465 15.8392 12.3397 15.8384C12.3211 15.8392 12.302 15.8371 12.2831 15.8321C12.1821 15.805 12.1222 15.7012 12.1492 15.6002L12.6262 13.8203L11.7561 13.8203L11.2038 15.8816H11.8135C11.8187 15.8816 11.8238 15.8818 11.8289 15.8822Z" fill="#FFD600"/>
<defs>
<linearGradient id="paint0_linear_19_3680" x1="14.972" y1="13.4417" x2="14.972" y2="15.2962" gradientUnits="userSpaceOnUse">
<stop stop-color="#89B9FF"/>
<stop offset="1" stop-color="#4B94FF"/>
</linearGradient>
<linearGradient id="paint1_linear_19_3680" x1="10.5143" y1="14.4233" x2="10.5143" y2="16.9162" gradientUnits="userSpaceOnUse">
<stop stop-color="#89B9FF"/>
<stop offset="1" stop-color="#4B94FF"/>
</linearGradient>
<linearGradient id="paint2_linear_19_3680" x1="15.1372" y1="15.9507" x2="15.1372" y2="17.4217" gradientUnits="userSpaceOnUse">
<stop stop-color="#89B9FF"/>
<stop offset="1" stop-color="#4B94FF"/>
</linearGradient>
<linearGradient id="paint3_linear_19_3680" x1="10.6645" y1="16.2778" x2="10.6645" y2="17.7488" gradientUnits="userSpaceOnUse">
<stop stop-color="#89B9FF"/>
<stop offset="1" stop-color="#4B94FF"/>
</linearGradient>
</defs>
</svg>
