<svg width="25" height="25" viewBox="0 0 25 25" fill="none" xmlns="http://www.w3.org/2000/svg">
<rect x="0.448547" y="0.82251" width="24" height="24" rx="12" fill="white"/>
<path fill-rule="evenodd" clip-rule="evenodd" d="M7.83284 11.4517C8.27835 11.0062 8.84183 10.7506 9.42272 10.6848C9.48718 9.26385 10.6596 8.13159 12.0965 8.13159C13.4873 8.13159 14.6303 9.19235 14.7607 10.5489C16.0948 10.3404 17.3989 11.1676 17.7563 12.5014C18.1387 13.9283 17.2927 15.395 15.8665 15.7787L15.8637 15.7795C15.7309 15.8151 15.5943 15.7363 15.5588 15.6035C15.5232 15.4706 15.602 15.3341 15.7348 15.2985L15.7348 15.2985C16.897 14.9871 17.5867 13.7925 17.2753 12.6303C16.9639 11.468 15.7693 10.7783 14.607 11.0898L14.607 11.0898C14.48 11.1238 14.3495 11.0532 14.3073 10.9307C14.2868 10.8945 14.2751 10.8527 14.2751 10.8082V10.8082H14.2751V10.8082C14.2751 9.60494 13.2997 8.62954 12.0965 8.62954C10.938 8.62954 9.99071 9.53375 9.92187 10.6749C10.5382 10.72 11.1419 10.9776 11.614 11.4476L11.6182 11.4517C11.7154 11.549 11.7154 11.7066 11.6182 11.8038C11.521 11.9011 11.3633 11.9011 11.2661 11.8038L11.266 11.8038L11.266 11.8038C10.4152 10.953 9.03578 10.953 8.18498 11.8038C7.3356 12.6532 7.33419 14.0294 8.18075 14.8806L8.1851 14.8848C8.28233 14.9821 8.28233 15.1397 8.1851 15.2369C8.08786 15.3342 7.93021 15.3342 7.83298 15.2369L7.83291 15.2369L7.83284 15.237L7.83284 15.237C6.78757 14.1917 6.78757 12.497 7.83284 11.4517Z" fill="black"/>
<path d="M13.4853 14.9498C13.4853 15.5523 12.9968 16.0407 12.3944 16.0407C11.7919 16.0407 11.3034 15.5523 11.3034 14.9498C11.3034 14.8243 11.3639 14.6403 11.4829 14.414C11.5984 14.1944 11.7548 13.9611 11.9151 13.745C12.0747 13.5296 12.2349 13.3357 12.3554 13.1954C12.3689 13.1796 12.3819 13.1645 12.3944 13.1502C12.4068 13.1645 12.4198 13.1796 12.4334 13.1954C12.5538 13.3357 12.714 13.5296 12.8736 13.745C13.0339 13.9611 13.1903 14.1944 13.3058 14.414C13.4248 14.6403 13.4853 14.8243 13.4853 14.9498Z" stroke="#61BDFF" stroke-width="0.436364"/>
<path d="M10.6489 16.7238C10.6489 17.0463 10.3978 17.2952 10.1034 17.2952C9.80899 17.2952 9.55796 17.0463 9.55796 16.7238C9.55796 16.6683 9.58563 16.5718 9.65357 16.4383C9.71822 16.3112 9.80677 16.1743 9.89892 16.0458C9.97047 15.946 10.0423 15.8538 10.1034 15.7784C10.1645 15.8538 10.2364 15.946 10.3079 16.0458C10.4001 16.1743 10.4886 16.3112 10.5533 16.4383C10.6212 16.5718 10.6489 16.6683 10.6489 16.7238Z" stroke="#61BDFF" stroke-width="0.436364"/>
<path d="M15.0126 16.7654C15.0126 17.0692 14.7819 17.2953 14.5217 17.2953C14.2614 17.2953 14.0307 17.0692 14.0307 16.7654C14.0307 16.7146 14.0558 16.6246 14.1186 16.4985C14.1783 16.3787 14.2602 16.2496 14.3456 16.1281C14.4067 16.0412 14.4681 15.9603 14.5217 15.8923C14.5752 15.9603 14.6366 16.0412 14.6977 16.1281C14.7831 16.2496 14.865 16.3787 14.9247 16.4985C14.9875 16.6246 15.0126 16.7146 15.0126 16.7654Z" stroke="#61BDFF" stroke-width="0.436364"/>
</svg>
