<svg width="20" height="21" viewBox="0 0 20 21" fill="none" xmlns="http://www.w3.org/2000/svg">
<path fill-rule="evenodd" clip-rule="evenodd" d="M10.3589 0.836979L10.0005 1.349L9.64207 0.836979C9.85727 0.686339 10.1437 0.686339 10.3589 0.836979ZM10.0005 2.13025C9.84814 2.24909 9.65355 2.40558 9.42871 2.5967C8.86018 3.07995 8.10284 3.78065 7.34712 4.64974C5.82039 6.40547 4.37549 8.76153 4.37549 11.349C4.37549 12.8408 4.96812 14.2716 6.02301 15.3265C7.0779 16.3814 8.50865 16.974 10.0005 16.974C11.4923 16.974 12.9231 16.3814 13.978 15.3265C15.0329 14.2716 15.6255 12.8408 15.6255 11.349C15.6255 8.76153 14.1806 6.40547 12.6539 4.64974C11.8981 3.78065 11.1408 3.07995 10.5723 2.5967C10.3474 2.40558 10.1528 2.24909 10.0005 2.13025ZM9.6417 0.837241C9.6419 0.837102 9.64207 0.836979 10.0005 1.349C10.3589 0.836979 10.3591 0.837102 10.3593 0.837241L10.3598 0.837604L10.3613 0.838631L10.3659 0.84189L10.3818 0.853193C10.3953 0.862843 10.4145 0.876711 10.4392 0.894701C10.4885 0.930677 10.5593 0.983164 10.6486 1.0514C10.8271 1.18782 11.0797 1.38748 11.3818 1.64427C11.9852 2.15711 12.7903 2.90172 13.5971 3.82951C15.1954 5.66753 16.8755 8.31147 16.8755 11.349C16.8755 13.1724 16.1512 14.921 14.8618 16.2104C13.5725 17.4997 11.8239 18.224 10.0005 18.224C8.17712 18.224 6.42844 17.4997 5.13913 16.2104C3.84982 14.921 3.12549 13.1724 3.12549 11.349C3.12549 8.31147 4.80558 5.66753 6.40386 3.82951C7.21063 2.90172 8.0158 2.15711 8.61915 1.64427C8.92125 1.38748 9.17391 1.18782 9.35241 1.0514C9.44169 0.983164 9.51251 0.930677 9.56179 0.894701C9.58643 0.876711 9.6057 0.862843 9.61921 0.853193L9.6351 0.84189L9.63972 0.838631L9.64118 0.837604L9.6417 0.837241Z" fill="#1B51B3"/>
<path fill-rule="evenodd" clip-rule="evenodd" d="M13.8018 11.3659C14.142 11.4244 14.3703 11.7476 14.3117 12.0878C14.1583 12.9789 13.7321 13.8004 13.092 14.4389C12.4518 15.0775 11.6292 15.5016 10.7377 15.6527C10.3974 15.7104 10.0748 15.4813 10.0171 15.1409C9.95938 14.8006 10.1885 14.478 10.5288 14.4203C11.1651 14.3124 11.7523 14.0097 12.2092 13.5539C12.6661 13.0982 12.9703 12.5118 13.0798 11.8758C13.1384 11.5356 13.4616 11.3073 13.8018 11.3659Z" fill="#1B51B3"/>
</svg>
