<svg width="41" height="41" viewBox="0 0 41 41" fill="none" xmlns="http://www.w3.org/2000/svg">
<g filter="url(#filter0_i_1155_32582)">
<circle cx="20.5" cy="20.6765" r="20" fill="#FFEFE0"/>
</g>
<path d="M31.2813 17.6764C31.165 17.3177 30.9449 17.0014 30.6489 16.7678C30.3528 16.5342 29.9941 16.3936 29.6181 16.3639L24.3128 15.9355L22.2653 10.9846C22.1214 10.6346 21.8768 10.3354 21.5625 10.1248C21.2482 9.9142 20.8783 9.80176 20.5 9.80176C20.1217 9.80176 19.7519 9.9142 19.4375 10.1248C19.1232 10.3354 18.8786 10.6346 18.7347 10.9846L16.6891 15.9364L11.3838 16.3639C11.0071 16.395 10.648 16.5367 10.3516 16.7712C10.0553 17.0058 9.83482 17.3227 9.71801 17.6821C9.6012 18.0415 9.59324 18.4275 9.69512 18.7915C9.797 19.1554 10.0042 19.4811 10.2906 19.7277L14.3388 23.2189L13.1013 28.4408C13.011 28.809 13.0323 29.1957 13.1626 29.5517C13.2928 29.9077 13.5261 30.2168 13.8326 30.4398C14.1392 30.6628 14.5051 30.7895 14.8839 30.8038C15.2627 30.8182 15.6372 30.7194 15.9597 30.5202L20.5 27.7255L25.0403 30.5202C25.3627 30.7181 25.7366 30.8159 26.1146 30.8012C26.4926 30.7864 26.8577 30.6599 27.1638 30.4376C27.4699 30.2152 27.7031 29.9071 27.8339 29.5521C27.9647 29.1972 27.9873 28.8114 27.8988 28.4436L26.6613 23.2217L30.7094 19.7305C30.9975 19.4833 31.2057 19.1561 31.3076 18.7904C31.4094 18.4247 31.4002 18.0369 31.2813 17.6764ZM24.6747 21.9608C24.5186 22.0954 24.4025 22.2703 24.339 22.4663C24.2755 22.6624 24.2671 22.8722 24.3147 23.0727L25.5231 28.1764L21.0897 25.4502C20.9124 25.341 20.7082 25.2833 20.5 25.2833C20.2918 25.2833 20.0876 25.341 19.9103 25.4502L15.4769 28.1764L16.6853 23.0764C16.7329 22.8759 16.7245 22.6662 16.661 22.4701C16.5975 22.274 16.4814 22.0991 16.3253 21.9646L12.3625 18.5427L17.5563 18.1236C17.7629 18.107 17.961 18.0336 18.1286 17.9115C18.2962 17.7894 18.4268 17.6234 18.5059 17.4317L20.5 12.6036L22.4941 17.4317C22.5732 17.6234 22.7038 17.7894 22.8714 17.9115C23.039 18.0336 23.2371 18.107 23.4438 18.1236L28.6375 18.5427L24.6747 21.9608Z" fill="#FA963A"/>
<defs>
<filter id="filter0_i_1155_32582" x="0.5" y="0.676514" width="40" height="44" filterUnits="userSpaceOnUse" color-interpolation-filters="sRGB">
<feFlood flood-opacity="0" result="BackgroundImageFix"/>
<feBlend mode="normal" in="SourceGraphic" in2="BackgroundImageFix" result="shape"/>
<feColorMatrix in="SourceAlpha" type="matrix" values="0 0 0 0 0 0 0 0 0 0 0 0 0 0 0 0 0 0 127 0" result="hardAlpha"/>
<feOffset dy="4"/>
<feGaussianBlur stdDeviation="2"/>
<feComposite in2="hardAlpha" operator="arithmetic" k2="-1" k3="1"/>
<feColorMatrix type="matrix" values="0 0 0 0 1 0 0 0 0 1 0 0 0 0 1 0 0 0 0.3 0"/>
<feBlend mode="normal" in2="shape" result="effect1_innerShadow_1155_32582"/>
</filter>
</defs>
</svg>
