<svg width="41" height="41" viewBox="0 0 41 41" fill="none" xmlns="http://www.w3.org/2000/svg">
<circle cx="20.75" cy="20.6765" r="20" fill="#EDF3FF"/>
<path d="M16.0625 12.0515C15.2837 12.0515 14.5225 12.2824 13.8749 12.7151C13.2274 13.1478 12.7227 13.7627 12.4247 14.4822C12.1267 15.2017 12.0487 15.9934 12.2007 16.7572C12.3526 17.521 12.7276 18.2226 13.2783 18.7732C13.8289 19.3239 14.5305 19.6989 15.2943 19.8509C16.0581 20.0028 16.8498 19.9248 17.5693 19.6268C18.2888 19.3288 18.9038 18.8241 19.3364 18.1766C19.7691 17.5291 20 16.7678 20 15.989C20 14.9447 19.5852 13.9432 18.8467 13.2048C18.1083 12.4664 17.1068 12.0515 16.0625 12.0515ZM16.0625 17.6765C15.7287 17.6765 15.4025 17.5775 15.125 17.3921C14.8475 17.2067 14.6312 16.9431 14.5035 16.6348C14.3757 16.3264 14.3423 15.9871 14.4074 15.6598C14.4725 15.3325 14.6333 15.0318 14.8693 14.7958C15.1053 14.5598 15.4059 14.3991 15.7333 14.3339C16.0606 14.2688 16.3999 14.3022 16.7083 14.43C17.0166 14.5577 17.2802 14.774 17.4656 15.0515C17.651 15.329 17.75 15.6553 17.75 15.989C17.75 16.4366 17.5722 16.8658 17.2557 17.1823C16.9393 17.4987 16.5101 17.6765 16.0625 17.6765ZM25.4375 19.9265C26.2163 19.9265 26.9775 19.6956 27.6251 19.2629C28.2726 18.8303 28.7773 18.2153 29.0753 17.4958C29.3733 16.7763 29.4513 15.9846 29.2993 15.2208C29.1474 14.457 28.7724 13.7555 28.2217 13.2048C27.6711 12.6541 26.9695 12.2791 26.2057 12.1272C25.4419 11.9752 24.6502 12.0532 23.9307 12.3512C23.2112 12.6493 22.5962 13.1539 22.1636 13.8015C21.7309 14.449 21.5 15.2103 21.5 15.989C21.5 17.0333 21.9148 18.0348 22.6533 18.7732C23.3917 19.5117 24.3932 19.9265 25.4375 19.9265ZM25.4375 14.3015C25.7713 14.3015 26.0975 14.4005 26.375 14.5859C26.6525 14.7713 26.8688 15.0349 26.9965 15.3432C27.1243 15.6516 27.1577 15.9909 27.0926 16.3182C27.0275 16.6456 26.8667 16.9463 26.6307 17.1823C26.3947 17.4183 26.0941 17.579 25.7667 17.6441C25.4394 17.7092 25.1001 17.6758 24.7917 17.5481C24.4834 17.4203 24.2198 17.204 24.0344 16.9265C23.849 16.649 23.75 16.3228 23.75 15.989C23.75 15.5415 23.9278 15.1122 24.2443 14.7958C24.5607 14.4793 24.9899 14.3015 25.4375 14.3015ZM16.0625 21.4265C15.2837 21.4265 14.5225 21.6574 13.8749 22.0901C13.2274 22.5228 12.7227 23.1377 12.4247 23.8572C12.1267 24.5767 12.0487 25.3684 12.2007 26.1322C12.3526 26.896 12.7276 27.5976 13.2783 28.1482C13.8289 28.6989 14.5305 29.0739 15.2943 29.2259C16.0581 29.3778 16.8498 29.2998 17.5693 29.0018C18.2888 28.7038 18.9038 28.1991 19.3364 27.5516C19.7691 26.9041 20 26.1428 20 25.364C20 24.3197 19.5852 23.3182 18.8467 22.5798C18.1083 21.8414 17.1068 21.4265 16.0625 21.4265ZM16.0625 27.0515C15.7287 27.0515 15.4025 26.9525 15.125 26.7671C14.8475 26.5817 14.6312 26.3181 14.5035 26.0098C14.3757 25.7014 14.3423 25.3621 14.4074 25.0348C14.4725 24.7075 14.6333 24.4068 14.8693 24.1708C15.1053 23.9348 15.4059 23.7741 15.7333 23.7089C16.0606 23.6438 16.3999 23.6772 16.7083 23.805C17.0166 23.9327 17.2802 24.149 17.4656 24.4265C17.651 24.704 17.75 25.0303 17.75 25.364C17.75 25.8116 17.5722 26.2408 17.2557 26.5573C16.9393 26.8737 16.5101 27.0515 16.0625 27.0515ZM25.4375 21.4265C24.6587 21.4265 23.8975 21.6574 23.2499 22.0901C22.6024 22.5228 22.0977 23.1377 21.7997 23.8572C21.5017 24.5767 21.4237 25.3684 21.5757 26.1322C21.7276 26.896 22.1026 27.5976 22.6533 28.1482C23.2039 28.6989 23.9055 29.0739 24.6693 29.2259C25.4331 29.3778 26.2248 29.2998 26.9443 29.0018C27.6638 28.7038 28.2788 28.1991 28.7114 27.5516C29.1441 26.9041 29.375 26.1428 29.375 25.364C29.375 24.3197 28.9602 23.3182 28.2217 22.5798C27.4833 21.8414 26.4818 21.4265 25.4375 21.4265ZM25.4375 27.0515C25.1037 27.0515 24.7775 26.9525 24.5 26.7671C24.2225 26.5817 24.0062 26.3181 23.8785 26.0098C23.7507 25.7014 23.7173 25.3621 23.7824 25.0348C23.8475 24.7075 24.0083 24.4068 24.2443 24.1708C24.4803 23.9348 24.7809 23.7741 25.1083 23.7089C25.4356 23.6438 25.7749 23.6772 26.0833 23.805C26.3916 23.9327 26.6552 24.149 26.8406 24.4265C27.026 24.704 27.125 25.0303 27.125 25.364C27.125 25.8116 26.9472 26.2408 26.6307 26.5573C26.3143 26.8737 25.8851 27.0515 25.4375 27.0515Z" fill="#2773FF"/>
</svg>
