<svg width="73" height="13" viewBox="0 0 73 13" fill="none" xmlns="http://www.w3.org/2000/svg">
<path d="M2.61443 0.117209V8.84448H1.55761V0.117209H2.61443ZM7.25612 8.98085C6.64248 8.98085 6.11407 8.83596 5.67089 8.54619C5.22771 8.25641 4.8868 7.85727 4.64817 7.34874C4.40953 6.84022 4.29021 6.25926 4.29021 5.60585C4.29021 4.94107 4.41237 4.35443 4.65669 3.8459C4.90385 3.33454 5.2476 2.93539 5.68794 2.64846C6.13112 2.35869 6.64817 2.2138 7.23907 2.2138C7.6993 2.2138 8.11407 2.29903 8.48339 2.46948C8.85271 2.63994 9.15527 2.87857 9.39106 3.18539C9.62686 3.49221 9.77317 3.85016 9.82998 4.25926H8.8243C8.7476 3.96096 8.57714 3.69675 8.31294 3.46664C8.05157 3.23369 7.6993 3.11721 7.25612 3.11721C6.86407 3.11721 6.52032 3.21948 6.22487 3.42403C5.93226 3.62573 5.70356 3.91124 5.53879 4.28056C5.37686 4.64704 5.29589 5.07744 5.29589 5.57176C5.29589 6.07744 5.37544 6.51778 5.53453 6.89278C5.69646 7.26778 5.92373 7.55897 6.21635 7.76636C6.5118 7.97374 6.85839 8.07744 7.25612 8.07744C7.51748 8.07744 7.7547 8.03198 7.96777 7.94107C8.18084 7.85016 8.36123 7.71948 8.50896 7.54903C8.65669 7.37857 8.7618 7.17403 8.8243 6.93539H9.82998C9.77317 7.32176 9.63254 7.66977 9.40811 7.97943C9.18652 8.28624 8.89248 8.53056 8.52601 8.71238C8.16237 8.89136 7.73907 8.98085 7.25612 8.98085ZM13.9592 8.98085C13.3683 8.98085 12.8499 8.84022 12.4038 8.55897C11.9607 8.27772 11.6141 7.88426 11.3641 7.37857C11.1169 6.87289 10.9933 6.28198 10.9933 5.60585C10.9933 4.92403 11.1169 4.32886 11.3641 3.82033C11.6141 3.31181 11.9607 2.91693 12.4038 2.63568C12.8499 2.35443 13.3683 2.2138 13.9592 2.2138C14.5502 2.2138 15.0672 2.35443 15.5104 2.63568C15.9564 2.91693 16.303 3.31181 16.5502 3.82033C16.8002 4.32886 16.9252 4.92403 16.9252 5.60585C16.9252 6.28198 16.8002 6.87289 16.5502 7.37857C16.303 7.88426 15.9564 8.27772 15.5104 8.55897C15.0672 8.84022 14.5502 8.98085 13.9592 8.98085ZM13.9592 8.07744C14.4081 8.07744 14.7774 7.96238 15.0672 7.73227C15.357 7.50215 15.5715 7.1996 15.7107 6.8246C15.8499 6.4496 15.9195 6.04335 15.9195 5.60585C15.9195 5.16835 15.8499 4.76068 15.7107 4.38283C15.5715 4.00499 15.357 3.6996 15.0672 3.46664C14.7774 3.23369 14.4081 3.11721 13.9592 3.11721C13.5104 3.11721 13.1411 3.23369 12.8513 3.46664C12.5615 3.6996 12.347 4.00499 12.2078 4.38283C12.0686 4.76068 11.999 5.16835 11.999 5.60585C11.999 6.04335 12.0686 6.4496 12.2078 6.8246C12.347 7.1996 12.5615 7.50215 12.8513 7.73227C13.1411 7.96238 13.5104 8.07744 13.9592 8.07744ZM19.466 4.90698V8.84448H18.4603V2.29903H19.4319V3.32176H19.5171C19.6705 2.98937 19.9035 2.72232 20.216 2.52062C20.5285 2.31607 20.9319 2.2138 21.4262 2.2138C21.8694 2.2138 22.2572 2.30471 22.5896 2.48653C22.922 2.66551 23.1805 2.93823 23.3651 3.30471C23.5498 3.66835 23.6421 4.12857 23.6421 4.68539V8.84448H22.6364V4.75357C22.6364 4.23937 22.5029 3.8388 22.2359 3.55187C21.9688 3.2621 21.6024 3.11721 21.1364 3.11721C20.8154 3.11721 20.5285 3.18681 20.2757 3.32602C20.0257 3.46522 19.8282 3.66835 19.6833 3.93539C19.5384 4.20244 19.466 4.5263 19.466 4.90698ZM30.1162 3.76494L29.2128 4.02062C29.156 3.87005 29.0722 3.72374 28.9614 3.5817C28.8534 3.43681 28.7057 3.31749 28.5182 3.22374C28.3307 3.12999 28.0906 3.08312 27.798 3.08312C27.3975 3.08312 27.0636 3.17545 26.7966 3.36011C26.5324 3.54193 26.4003 3.77346 26.4003 4.05471C26.4003 4.30471 26.4912 4.50215 26.673 4.64704C26.8548 4.79193 27.1389 4.91266 27.5253 5.00926L28.4969 5.24789C29.0821 5.38994 29.5182 5.60727 29.8051 5.89988C30.0921 6.18965 30.2355 6.56323 30.2355 7.02062C30.2355 7.39562 30.1276 7.73085 29.9117 8.0263C29.6986 8.32176 29.4003 8.55471 29.0168 8.72516C28.6333 8.89562 28.1872 8.98085 27.6787 8.98085C27.0111 8.98085 26.4585 8.83596 26.021 8.54619C25.5835 8.25641 25.3065 7.83312 25.1901 7.2763L26.1446 7.03766C26.2355 7.38994 26.4074 7.65414 26.6602 7.83028C26.9159 8.00641 27.2497 8.09448 27.6617 8.09448C28.1304 8.09448 28.5026 7.99505 28.7781 7.79619C29.0565 7.59448 29.1958 7.35301 29.1958 7.07176C29.1958 6.84448 29.1162 6.65414 28.9571 6.50073C28.798 6.34448 28.5537 6.22801 28.2242 6.1513L27.1333 5.89562C26.5338 5.75357 26.0935 5.5334 25.8122 5.23511C25.5338 4.93397 25.3946 4.55755 25.3946 4.10585C25.3946 3.73653 25.4983 3.40982 25.7057 3.12573C25.9159 2.84164 26.2014 2.61863 26.5622 2.4567C26.9259 2.29477 27.3378 2.2138 27.798 2.2138C28.4458 2.2138 28.9543 2.35585 29.3236 2.63994C29.6958 2.92403 29.96 3.29903 30.1162 3.76494ZM39.7607 3.76494L38.8573 4.02062C38.8005 3.87005 38.7167 3.72374 38.6059 3.5817C38.498 3.43681 38.3502 3.31749 38.1627 3.22374C37.9752 3.12999 37.7352 3.08312 37.4426 3.08312C37.042 3.08312 36.7082 3.17545 36.4411 3.36011C36.1769 3.54193 36.0448 3.77346 36.0448 4.05471C36.0448 4.30471 36.1357 4.50215 36.3176 4.64704C36.4994 4.79193 36.7835 4.91266 37.1698 5.00926L38.1414 5.24789C38.7266 5.38994 39.1627 5.60727 39.4497 5.89988C39.7366 6.18965 39.8801 6.56323 39.8801 7.02062C39.8801 7.39562 39.7721 7.73085 39.5562 8.0263C39.3431 8.32176 39.0448 8.55471 38.6613 8.72516C38.2778 8.89562 37.8318 8.98085 37.3232 8.98085C36.6556 8.98085 36.1031 8.83596 35.6656 8.54619C35.2281 8.25641 34.9511 7.83312 34.8346 7.2763L35.7891 7.03766C35.8801 7.38994 36.0519 7.65414 36.3048 7.83028C36.5605 8.00641 36.8943 8.09448 37.3062 8.09448C37.7749 8.09448 38.1471 7.99505 38.4227 7.79619C38.7011 7.59448 38.8403 7.35301 38.8403 7.07176C38.8403 6.84448 38.7607 6.65414 38.6016 6.50073C38.4426 6.34448 38.1982 6.22801 37.8687 6.1513L36.7778 5.89562C36.1784 5.75357 35.738 5.5334 35.4568 5.23511C35.1784 4.93397 35.0391 4.55755 35.0391 4.10585C35.0391 3.73653 35.1428 3.40982 35.3502 3.12573C35.5605 2.84164 35.846 2.61863 36.2068 2.4567C36.5704 2.29477 36.9823 2.2138 37.4426 2.2138C38.0903 2.2138 38.5988 2.35585 38.9681 2.63994C39.3403 2.92403 39.6045 3.29903 39.7607 3.76494ZM44.053 8.98085C43.4621 8.98085 42.9436 8.84022 42.4976 8.55897C42.0544 8.27772 41.7078 7.88426 41.4578 7.37857C41.2107 6.87289 41.0871 6.28198 41.0871 5.60585C41.0871 4.92403 41.2107 4.32886 41.4578 3.82033C41.7078 3.31181 42.0544 2.91693 42.4976 2.63568C42.9436 2.35443 43.4621 2.2138 44.053 2.2138C44.6439 2.2138 45.1609 2.35443 45.6041 2.63568C46.0502 2.91693 46.3967 3.31181 46.6439 3.82033C46.8939 4.32886 47.0189 4.92403 47.0189 5.60585C47.0189 6.28198 46.8939 6.87289 46.6439 7.37857C46.3967 7.88426 46.0502 8.27772 45.6041 8.55897C45.1609 8.84022 44.6439 8.98085 44.053 8.98085ZM44.053 8.07744C44.5019 8.07744 44.8712 7.96238 45.1609 7.73227C45.4507 7.50215 45.6652 7.1996 45.8044 6.8246C45.9436 6.4496 46.0132 6.04335 46.0132 5.60585C46.0132 5.16835 45.9436 4.76068 45.8044 4.38283C45.6652 4.00499 45.4507 3.6996 45.1609 3.46664C44.8712 3.23369 44.5019 3.11721 44.053 3.11721C43.6041 3.11721 43.2348 3.23369 42.945 3.46664C42.6553 3.6996 42.4408 4.00499 42.3016 4.38283C42.1624 4.76068 42.0928 5.16835 42.0928 5.60585C42.0928 6.04335 42.1624 6.4496 42.3016 6.8246C42.4408 7.1996 42.6553 7.50215 42.945 7.73227C43.2348 7.96238 43.6041 8.07744 44.053 8.07744ZM52.6791 6.16835V2.29903H53.6847V8.84448H52.6791V7.73653H52.6109C52.4575 8.06891 52.2188 8.35158 51.895 8.58454C51.5711 8.81465 51.162 8.92971 50.6677 8.92971C50.2586 8.92971 49.895 8.84022 49.5768 8.66124C49.2586 8.47943 49.0086 8.2067 48.8268 7.84306C48.645 7.47658 48.5541 7.01494 48.5541 6.45812V2.29903H49.5597V6.38994C49.5597 6.86721 49.6933 7.24789 49.9603 7.53198C50.2302 7.81607 50.5739 7.95812 50.9916 7.95812C51.2416 7.95812 51.4958 7.8942 51.7543 7.76636C52.0157 7.63852 52.2345 7.44249 52.4106 7.17829C52.5896 6.91408 52.6791 6.57744 52.6791 6.16835ZM55.5267 8.84448V2.29903H56.4983V3.28766H56.5665C56.6858 2.9638 56.9017 2.70102 57.2142 2.49931C57.5267 2.29761 57.879 2.19675 58.271 2.19675C58.3449 2.19675 58.4372 2.19818 58.548 2.20102C58.6588 2.20386 58.7426 2.20812 58.7994 2.2138V3.23653C58.7654 3.228 58.6872 3.21522 58.5651 3.19818C58.4458 3.17829 58.3193 3.16835 58.1858 3.16835C57.8676 3.16835 57.5835 3.23511 57.3335 3.36863C57.0864 3.49931 56.8904 3.68113 56.7455 3.91408C56.6034 4.1442 56.5324 4.40698 56.5324 4.70244V8.84448H55.5267ZM62.4514 8.98085C61.8378 8.98085 61.3094 8.83596 60.8662 8.54619C60.423 8.25641 60.0821 7.85727 59.8435 7.34874C59.6048 6.84022 59.4855 6.25926 59.4855 5.60585C59.4855 4.94107 59.6077 4.35443 59.852 3.8459C60.0992 3.33454 60.4429 2.93539 60.8833 2.64846C61.3264 2.35869 61.8435 2.2138 62.4344 2.2138C62.8946 2.2138 63.3094 2.29903 63.6787 2.46948C64.048 2.63994 64.3506 2.87857 64.5864 3.18539C64.8222 3.49221 64.9685 3.85016 65.0253 4.25926H64.0196C63.9429 3.96096 63.7725 3.69675 63.5083 3.46664C63.2469 3.23369 62.8946 3.11721 62.4514 3.11721C62.0594 3.11721 61.7156 3.21948 61.4202 3.42403C61.1276 3.62573 60.8989 3.91124 60.7341 4.28056C60.5722 4.64704 60.4912 5.07744 60.4912 5.57176C60.4912 6.07744 60.5708 6.51778 60.7298 6.89278C60.8918 7.26778 61.119 7.55897 61.4117 7.76636C61.7071 7.97374 62.0537 8.07744 62.4514 8.07744C62.7128 8.07744 62.95 8.03198 63.1631 7.94107C63.3761 7.85016 63.5565 7.71948 63.7043 7.54903C63.852 7.37857 63.9571 7.17403 64.0196 6.93539H65.0253C64.9685 7.32176 64.8279 7.66977 64.6034 7.97943C64.3818 8.28624 64.0878 8.53056 63.7213 8.71238C63.3577 8.89136 62.9344 8.98085 62.4514 8.98085ZM69.2398 8.98085C68.6091 8.98085 68.0651 8.84164 67.6077 8.56323C67.1531 8.28198 66.8023 7.88994 66.5551 7.3871C66.3108 6.88141 66.1886 6.29335 66.1886 5.62289C66.1886 4.95244 66.3108 4.36153 66.5551 3.85016C66.8023 3.33596 67.146 2.93539 67.5864 2.64846C68.0296 2.35869 68.5466 2.2138 69.1375 2.2138C69.4784 2.2138 69.8151 2.27062 70.1475 2.38425C70.4798 2.49789 70.7824 2.68255 71.0551 2.93823C71.3279 3.19107 71.5452 3.5263 71.7071 3.94391C71.869 4.36153 71.95 4.87573 71.95 5.48653V5.91266H66.9046V5.04335H70.9273C70.9273 4.67403 70.8534 4.34448 70.7057 4.05471C70.5608 3.76494 70.3534 3.53624 70.0835 3.36863C69.8165 3.20102 69.5011 3.11721 69.1375 3.11721C68.7369 3.11721 68.3904 3.21664 68.0977 3.41551C67.808 3.61153 67.585 3.86721 67.4287 4.18255C67.2725 4.49789 67.1943 4.83596 67.1943 5.19676V5.7763C67.1943 6.27062 67.2796 6.68965 67.45 7.0334C67.6233 7.37431 67.8634 7.63426 68.1702 7.81323C68.477 7.98937 68.8335 8.07744 69.2398 8.07744C69.504 8.07744 69.7426 8.04051 69.9557 7.96664C70.1716 7.88994 70.3577 7.7763 70.5139 7.62573C70.6702 7.47232 70.7909 7.28198 70.8761 7.05471L71.8477 7.32744C71.7455 7.65698 71.5736 7.94676 71.3321 8.19676C71.0906 8.44391 70.7923 8.6371 70.4372 8.7763C70.0821 8.91266 69.683 8.98085 69.2398 8.98085Z" fill="black"/>
<path d="M0.500793 11.2308H24.5626V12.049H0.500793V11.2308ZM24.5594 11.2308H30.8321V12.049H24.5594V11.2308ZM30.8289 11.2308H40.4766V12.049H30.8289V11.2308ZM40.4734 11.2308H59.0722V12.049H40.4734V11.2308ZM58.8719 11.2308H72.5637V12.049H58.8719V11.2308Z" fill="black"/>
<a href="https://phosphoricons.com/">
<rect fill="black" fill-opacity="0" y="0.238636" width="72.0629" height="14.5227"/>
</a>
</svg>
