<svg width="40" height="41" viewBox="0 0 40 41" fill="none" xmlns="http://www.w3.org/2000/svg">
<g filter="url(#filter0_i_1155_32580)">
<circle cx="20" cy="20.6765" r="20" fill="#FFF7CE"/>
</g>
<path d="M29.1209 24.2325C28.3072 22.8328 27.875 20.8237 27.875 18.4265C27.875 16.3379 27.0453 14.3349 25.5685 12.858C24.0916 11.3812 22.0886 10.5515 20 10.5515C17.9114 10.5515 15.9084 11.3812 14.4315 12.858C12.9547 14.3349 12.125 16.3379 12.125 18.4265C12.125 20.8246 11.6947 22.8328 10.8809 24.2325C10.7149 24.5179 10.6269 24.8421 10.6257 25.1724C10.6246 25.5026 10.7103 25.8274 10.8744 26.114C11.0374 26.4008 11.274 26.6389 11.5598 26.8037C11.8455 26.9685 12.1701 27.0541 12.5 27.0515H27.5C27.8294 27.0536 28.1534 26.9678 28.4386 26.803C28.7239 26.6382 28.96 26.4004 29.1228 26.114C29.2876 25.8278 29.3741 25.5032 29.3738 25.173C29.3735 24.8427 29.2863 24.5184 29.1209 24.2325ZM13.1244 24.8015C13.9541 23.114 14.375 20.9709 14.375 18.4265C14.375 16.9347 14.9676 15.5039 16.0225 14.449C17.0774 13.3941 18.5082 12.8015 20 12.8015C21.4918 12.8015 22.9226 13.3941 23.9775 14.449C25.0324 15.5039 25.625 16.9347 25.625 18.4265C25.625 20.97 26.045 23.114 26.8747 24.8015H13.1244ZM24.125 29.6765C24.125 29.9749 24.0065 30.261 23.7955 30.472C23.5845 30.683 23.2984 30.8015 23 30.8015H17C16.7016 30.8015 16.4155 30.683 16.2045 30.472C15.9935 30.261 15.875 29.9749 15.875 29.6765C15.875 29.3781 15.9935 29.092 16.2045 28.881C16.4155 28.67 16.7016 28.5515 17 28.5515H23C23.2984 28.5515 23.5845 28.67 23.7955 28.881C24.0065 29.092 24.125 29.3781 24.125 29.6765Z" fill="#F5C002"/>
<defs>
<filter id="filter0_i_1155_32580" x="0" y="0.676514" width="40" height="44" filterUnits="userSpaceOnUse" color-interpolation-filters="sRGB">
<feFlood flood-opacity="0" result="BackgroundImageFix"/>
<feBlend mode="normal" in="SourceGraphic" in2="BackgroundImageFix" result="shape"/>
<feColorMatrix in="SourceAlpha" type="matrix" values="0 0 0 0 0 0 0 0 0 0 0 0 0 0 0 0 0 0 127 0" result="hardAlpha"/>
<feOffset dy="4"/>
<feGaussianBlur stdDeviation="2"/>
<feComposite in2="hardAlpha" operator="arithmetic" k2="-1" k3="1"/>
<feColorMatrix type="matrix" values="0 0 0 0 1 0 0 0 0 1 0 0 0 0 1 0 0 0 0.4 0"/>
<feBlend mode="normal" in2="shape" result="effect1_innerShadow_1155_32580"/>
</filter>
</defs>
</svg>
