<svg width="41" height="41" viewBox="0 0 41 41" fill="none" xmlns="http://www.w3.org/2000/svg">
<g filter="url(#filter0_i_1155_32581)">
<circle cx="20.25" cy="20.6765" r="20" fill="#E8F9F5"/>
</g>
<path d="M28.5 12.0515H12C11.5027 12.0515 11.0258 12.2491 10.6742 12.6007C10.3225 12.9523 10.125 13.4292 10.125 13.9265V23.6765C10.125 24.1738 10.3225 24.6507 10.6742 25.0023C11.0258 25.354 11.5027 25.5515 12 25.5515H28.5C28.9973 25.5515 29.4742 25.354 29.8258 25.0023C30.1775 24.6507 30.375 24.1738 30.375 23.6765V13.9265C30.375 13.4292 30.1775 12.9523 29.8258 12.6007C29.4742 12.2491 28.9973 12.0515 28.5 12.0515ZM28.125 23.3015H12.375V14.3015H28.125V23.3015ZM30.375 28.1765C30.375 28.4749 30.2565 28.761 30.0455 28.972C29.8345 29.183 29.5484 29.3015 29.25 29.3015H11.25C10.9516 29.3015 10.6655 29.183 10.4545 28.972C10.2435 28.761 10.125 28.4749 10.125 28.1765C10.125 27.8781 10.2435 27.592 10.4545 27.381C10.6655 27.17 10.9516 27.0515 11.25 27.0515H29.25C29.5484 27.0515 29.8345 27.17 30.0455 27.381C30.2565 27.592 30.375 27.8781 30.375 28.1765ZM18 20.6765V16.9265C17.9999 16.7257 18.0536 16.5285 18.1555 16.3554C18.2574 16.1823 18.4038 16.0396 18.5795 15.9423C18.7551 15.8449 18.9537 15.7963 19.1544 15.8015C19.3552 15.8068 19.5509 15.8657 19.7213 15.9721L22.7213 17.8471C22.8832 17.9482 23.0168 18.0889 23.1094 18.2558C23.202 18.4228 23.2506 18.6106 23.2506 18.8015C23.2506 18.9924 23.202 19.1802 23.1094 19.3472C23.0168 19.5142 22.8832 19.6548 22.7213 19.7559L19.7213 21.6309C19.5509 21.7373 19.3552 21.7963 19.1544 21.8015C18.9537 21.8068 18.7551 21.7582 18.5795 21.6608C18.4038 21.5634 18.2574 21.4207 18.1555 21.2477C18.0536 21.0746 17.9999 20.8774 18 20.6765Z" fill="#16C79A"/>
<defs>
<filter id="filter0_i_1155_32581" x="0.25" y="0.676514" width="40" height="44" filterUnits="userSpaceOnUse" color-interpolation-filters="sRGB">
<feFlood flood-opacity="0" result="BackgroundImageFix"/>
<feBlend mode="normal" in="SourceGraphic" in2="BackgroundImageFix" result="shape"/>
<feColorMatrix in="SourceAlpha" type="matrix" values="0 0 0 0 0 0 0 0 0 0 0 0 0 0 0 0 0 0 127 0" result="hardAlpha"/>
<feOffset dy="4"/>
<feGaussianBlur stdDeviation="2"/>
<feComposite in2="hardAlpha" operator="arithmetic" k2="-1" k3="1"/>
<feColorMatrix type="matrix" values="0 0 0 0 1 0 0 0 0 1 0 0 0 0 1 0 0 0 0.3 0"/>
<feBlend mode="normal" in2="shape" result="effect1_innerShadow_1155_32581"/>
</filter>
</defs>
</svg>
