<svg width="25" height="24" viewBox="0 0 25 24" fill="none" xmlns="http://www.w3.org/2000/svg">
<ellipse cx="12.9819" cy="12" rx="12" ry="12" fill="white"/>
<path fill-rule="evenodd" clip-rule="evenodd" d="M8.42037 10.5203C8.86587 10.0748 9.42935 9.81918 10.0102 9.75343C10.0747 8.33245 11.2471 7.2002 12.684 7.2002C14.0747 7.2002 15.2177 8.26079 15.3482 9.61724C16.6823 9.40867 17.9864 10.2359 18.3438 11.5697C18.7252 12.9932 17.8842 14.4563 16.4642 14.8443C16.4599 14.8457 16.4556 14.8469 16.4512 14.8481C16.3184 14.8837 16.1819 14.8049 16.1463 14.6721C16.1107 14.5392 16.1895 14.4027 16.3223 14.3671L16.3223 14.3671L16.3223 14.3671C17.4845 14.0557 18.1742 12.8611 17.8628 11.6989C17.5514 10.5367 16.3568 9.84695 15.1946 10.1584L15.1946 10.1584L15.1946 10.1584C15.0675 10.1924 14.9371 10.1218 14.8949 9.99936C14.8744 9.96317 14.8627 9.92135 14.8627 9.8768V9.87678H14.8626V9.87676C14.8626 8.67355 13.8872 7.69815 12.684 7.69815C11.5255 7.69815 10.5782 8.60236 10.5094 9.74353C11.1258 9.78861 11.7296 10.0462 12.2017 10.5164L12.2057 10.5203C12.303 10.6176 12.303 10.7752 12.2057 10.8724C12.1085 10.9697 11.9508 10.9697 11.8536 10.8724L11.8535 10.8724L11.8535 10.8724C11.0027 10.0216 9.6233 10.0216 8.7725 10.8724C7.92307 11.7219 7.9217 13.0982 8.76839 13.9493L8.77261 13.9534C8.86984 14.0507 8.86984 14.2083 8.77261 14.3056C8.67538 14.4028 8.51773 14.4028 8.42049 14.3056L8.42042 14.3055L8.42036 14.3056C7.3751 13.2603 7.3751 11.5656 8.42037 10.5203Z" fill="black"/>
<path fill-rule="evenodd" clip-rule="evenodd" d="M13.6587 12.2631C13.6453 12.2601 13.6314 12.2585 13.6172 12.2585L12.3972 12.2585C12.2926 12.2585 12.2079 12.3433 12.2079 12.4479L12.2079 12.4532C12.2065 12.4575 12.2051 12.4619 12.2039 12.4664L11.5702 14.8313C11.5432 14.9323 11.6031 15.0361 11.7041 15.0632C11.7213 15.0678 11.7385 15.0699 11.7555 15.0697C11.7722 15.0745 11.7899 15.0771 11.8082 15.0771L12.3984 15.0771L11.8389 17.1655C11.8118 17.2665 11.8717 17.3703 11.9727 17.3974C11.9868 17.4011 12.001 17.4032 12.015 17.4037C12.0757 17.4168 12.1416 17.3997 12.1888 17.3525L14.8957 14.6456C14.9091 14.6322 14.9201 14.6172 14.9287 14.6013C14.9631 14.567 14.9844 14.5195 14.9844 14.4671C14.9844 14.3626 14.8996 14.2778 14.7951 14.2778H13.3725L13.8485 12.5013C13.8756 12.4004 13.8156 12.2966 13.7147 12.2695C13.6959 12.2645 13.6771 12.2625 13.6587 12.2631ZM12.6229 14.6991C12.6462 14.6963 12.6703 14.6979 12.6943 14.7043C12.7953 14.7314 12.8552 14.8352 12.8282 14.9361L12.3738 16.6321L14.3494 14.6564L13.1544 14.6564C13.1474 14.6564 13.1404 14.6561 13.1336 14.6553C13.115 14.656 13.096 14.654 13.0771 14.649C12.9761 14.6219 12.9162 14.5181 12.9432 14.4171L13.4202 12.6372L12.5501 12.6372L11.9978 14.6985H12.6075C12.6127 14.6985 12.6178 14.6987 12.6229 14.6991Z" fill="#FFD600"/>
</svg>
