<svg width="25" height="25" viewBox="0 0 25 25" fill="none" xmlns="http://www.w3.org/2000/svg">
<circle cx="12.2485" cy="12.3542" r="12" fill="white"/>
<rect x="9.08484" y="15.627" width="6.43636" height="0.436364" rx="0.218182" fill="black"/>
<rect x="10.7212" y="16.8269" width="3.38182" height="0.436364" rx="0.218182" fill="black"/>
<path fill-rule="evenodd" clip-rule="evenodd" d="M7.3394 14.3179C7.2189 14.3179 7.12122 14.4156 7.12122 14.5361C7.12122 14.6566 7.2189 14.7542 7.3394 14.7542H13.3394C13.4599 14.7542 13.5576 14.6566 13.5576 14.5361C13.5576 14.4156 13.4599 14.3179 13.3394 14.3179H7.3394ZM14.103 14.3179C13.9825 14.3179 13.8849 14.4156 13.8849 14.5361C13.8849 14.6566 13.9825 14.7542 14.103 14.7542H17.1576C17.2781 14.7542 17.3758 14.6566 17.3758 14.5361C17.3758 14.4156 17.2781 14.3179 17.1576 14.3179H14.103Z" fill="black"/>
<mask id="path-5-inside-1_19_3944" fill="white">
<path fill-rule="evenodd" clip-rule="evenodd" d="M14.9425 13.5543C15.1466 13.1481 15.2614 12.6893 15.2614 12.2037C15.2614 10.5396 13.9125 9.19067 12.2485 9.19067C10.5844 9.19067 9.23547 10.5396 9.23547 12.2037C9.23547 12.6893 9.35036 13.1481 9.55443 13.5543H14.9425Z"/>
</mask>
<path d="M14.9425 13.5543V13.9907H15.2116L15.3324 13.7502L14.9425 13.5543ZM9.55443 13.5543L9.1645 13.7502L9.2853 13.9907H9.55443V13.5543ZM14.8251 12.2037C14.8251 12.6197 14.7268 13.0116 14.5526 13.3584L15.3324 13.7502C15.5663 13.2845 15.6978 12.7588 15.6978 12.2037H14.8251ZM12.2485 9.62704C13.6715 9.62704 14.8251 10.7806 14.8251 12.2037H15.6978C15.6978 10.2986 14.1535 8.75431 12.2485 8.75431V9.62704ZM9.67184 12.2037C9.67184 10.7806 10.8254 9.62704 12.2485 9.62704V8.75431C10.3434 8.75431 8.79911 10.2986 8.79911 12.2037H9.67184ZM9.94436 13.3584C9.77013 13.0116 9.67184 12.6197 9.67184 12.2037H8.79911C8.79911 12.7588 8.93059 13.2845 9.1645 13.7502L9.94436 13.3584ZM9.55443 13.9907H14.9425V13.1179H9.55443V13.9907Z" fill="#FFD600" mask="url(#path-5-inside-1_19_3944)"/>
<rect x="8.64844" y="13.1179" width="7.09091" height="0.436364" rx="0.218182" fill="#FFD600"/>
<rect x="12.4666" y="7.33618" width="1.2" height="0.436364" rx="0.218182" transform="rotate(90 12.4666 7.33618)" fill="#FFD600"/>
<rect x="9.62567" y="8.33228" width="1.2" height="0.436364" rx="0.218182" transform="rotate(45 9.62567 8.33228)" fill="#FFD600"/>
<rect x="14.0226" y="9.18066" width="1.2" height="0.436364" rx="0.218182" transform="rotate(-45 14.0226 9.18066)" fill="#FFD600"/>
<rect x="7.66663" y="11.0452" width="1.2" height="0.436364" rx="0.218182" fill="#FFD600"/>
<rect x="15.6302" y="11.0452" width="1.2" height="0.436364" rx="0.218182" fill="#FFD600"/>
</svg>
