<svg width="25" height="25" viewBox="0 0 25 25" fill="none" xmlns="http://www.w3.org/2000/svg">
<g clip-path="url(#clip0_403_7377)">
<path d="M8.96475 4.83414H18.8642C19.14 4.83414 19.3903 4.94586 19.5713 5.12688C19.7523 5.3079 19.864 5.55817 19.8641 5.83394L19.8641 15.7334C19.8641 16.2864 19.4171 16.7333 18.8642 16.7333C18.3112 16.7333 17.8644 16.2865 17.8644 15.7335L17.8644 8.24801L6.84339 19.269C6.45236 19.66 5.8202 19.66 5.42917 19.269C5.03814 18.878 5.03814 18.2458 5.42917 17.8548L16.4502 6.83379L8.96466 6.83384C8.41171 6.83384 7.96486 6.38699 7.96486 5.83403C7.96486 5.28107 8.41179 4.83414 8.96475 4.83414Z" fill="#677A8E"/>
</g>
<defs>
<clipPath id="clip0_403_7377">
<rect width="24" height="24" fill="white" transform="translate(0.500244 0.197998)"/>
</clipPath>
</defs>
</svg>
