<svg width="25" height="25" viewBox="0 0 25 25" fill="none" xmlns="http://www.w3.org/2000/svg">
<path d="M10.5003 5.14672C10.5003 4.07047 11.3957 3.198 12.5003 3.198C13.6049 3.198 14.5003 4.07047 14.5003 5.14672C14.5003 6.22296 13.6049 7.09543 12.5003 7.09543C11.3957 7.09543 10.5003 6.22296 10.5003 5.14672Z" fill="#92A1AF"/>
<path d="M10.5003 11.9416C10.5003 10.8653 11.3957 9.99287 12.5003 9.99287C13.6049 9.99287 14.5003 10.8653 14.5003 11.9416C14.5003 13.0178 13.6049 13.8903 12.5003 13.8903C11.3957 13.8903 10.5003 13.0178 10.5003 11.9416Z" fill="#92A1AF"/>
<path d="M12.5003 17.3006C11.3957 17.3006 10.5003 18.173 10.5003 19.2493C10.5003 20.3255 11.3957 21.198 12.5003 21.198C13.6049 21.198 14.5003 20.3255 14.5003 19.2493C14.5003 18.173 13.6049 17.3006 12.5003 17.3006Z" fill="#92A1AF"/>
</svg>
