<svg width="25" height="25" viewBox="0 0 25 25" fill="none" xmlns="http://www.w3.org/2000/svg">
<path d="M21.5003 11.198H22.5003V9.198C22.5003 6.441 20.2573 4.198 17.5003 4.198H7.50031C4.74331 4.198 2.50031 6.441 2.50031 9.198V11.198H3.50031C4.05131 11.198 4.50031 11.646 4.50031 12.198C4.50031 12.75 4.05131 13.198 3.50031 13.198H2.50031V15.198C2.50031 17.955 4.74331 20.198 7.50031 20.198H17.5003C20.2573 20.198 22.5003 17.955 22.5003 15.198V13.198H21.5003C20.9483 13.198 20.5003 12.75 20.5003 12.198C20.5003 11.646 20.9483 11.198 21.5003 11.198ZM20.5003 9.36902C19.3363 9.78202 18.5003 10.894 18.5003 12.198C18.5003 13.502 19.3363 14.614 20.5003 15.027V15.198C20.5003 16.852 19.1543 18.198 17.5003 18.198H16.5003V16.198C16.5003 15.645 16.0533 15.198 15.5003 15.198C14.9473 15.198 14.5003 15.645 14.5003 16.198V18.198H7.50031C5.84631 18.198 4.50031 16.852 4.50031 15.198V15.027C5.66431 14.614 6.50031 13.502 6.50031 12.198C6.50031 10.894 5.66431 9.78202 4.50031 9.36902V9.198C4.50031 7.544 5.84631 6.198 7.50031 6.198H14.5003V8.198C14.5003 8.751 14.9473 9.198 15.5003 9.198C16.0533 9.198 16.5003 8.751 16.5003 8.198V6.198H17.5003C19.1543 6.198 20.5003 7.544 20.5003 9.198V9.36902ZM16.5003 11.198V13.198C16.5003 13.751 16.0533 14.198 15.5003 14.198C14.9473 14.198 14.5003 13.751 14.5003 13.198V11.198C14.5003 10.645 14.9473 10.198 15.5003 10.198C16.0533 10.198 16.5003 10.645 16.5003 11.198Z" fill="#677A8E"/>
</svg>
