<svg width="25" height="25" viewBox="0 0 25 25" fill="none" xmlns="http://www.w3.org/2000/svg">
<path d="M12.5003 2.198C6.98631 2.198 2.50031 6.684 2.50031 12.198C2.50031 17.712 6.98631 22.198 12.5003 22.198C18.0143 22.198 22.5003 17.712 22.5003 12.198C22.5003 6.684 18.0143 2.198 12.5003 2.198ZM12.5003 20.198C8.08931 20.198 4.50031 16.609 4.50031 12.198C4.50031 7.787 8.08931 4.198 12.5003 4.198C16.9113 4.198 20.5003 7.787 20.5003 12.198C20.5003 16.609 16.9113 20.198 12.5003 20.198ZM16.4383 9.48096C16.7193 11.081 16.0453 12.5129 14.5413 13.5129C13.6163 14.1279 13.4693 14.457 13.4493 14.517C13.3083 14.935 12.9193 15.198 12.5013 15.198C12.3953 15.198 12.2873 15.181 12.1813 15.145C11.6583 14.969 11.3773 14.4021 11.5533 13.8781C11.8573 12.9771 12.7723 12.287 13.4333 11.847C14.6773 11.02 14.5193 10.121 14.4683 9.82605C14.3303 9.04005 13.6583 8.36798 12.8713 8.22998C12.2643 8.12198 11.6763 8.27704 11.2153 8.66504C10.7613 9.04604 10.5003 9.60402 10.5003 10.197C10.5003 10.75 10.0523 11.197 9.50031 11.197C8.94831 11.197 8.50031 10.75 8.50031 10.197C8.50031 9.01202 9.02129 7.89506 9.92929 7.13306C10.8363 6.37006 12.0363 6.05501 13.2173 6.26001C14.8303 6.54401 16.1543 7.86796 16.4383 9.48096ZM13.5003 17.198C13.5003 17.75 13.0523 18.198 12.5003 18.198C11.9483 18.198 11.5003 17.75 11.5003 17.198C11.5003 16.646 11.9483 16.198 12.5003 16.198C13.0523 16.198 13.5003 16.646 13.5003 17.198Z" fill="#677A8E"/>
</svg>
