<svg width="25" height="25" viewBox="0 0 25 25" fill="none" xmlns="http://www.w3.org/2000/svg">
<path d="M17.5003 3.198C17.5003 2.645 17.0523 2.198 16.5003 2.198C15.9483 2.198 15.5003 2.645 15.5003 3.198H9.50031C9.50031 2.645 9.05231 2.198 8.50031 2.198C7.94831 2.198 7.50031 2.645 7.50031 3.198C4.74331 3.198 2.50031 5.441 2.50031 8.198V17.198C2.50031 19.955 4.74331 22.198 7.50031 22.198H17.5003C20.2573 22.198 22.5003 19.955 22.5003 17.198V8.198C22.5003 5.441 20.2573 3.198 17.5003 3.198ZM7.50031 5.198V6.198C7.50031 6.751 7.94831 7.198 8.50031 7.198C9.05231 7.198 9.50031 6.751 9.50031 6.198V5.198H15.5003V6.198C15.5003 6.751 15.9483 7.198 16.5003 7.198C17.0523 7.198 17.5003 6.751 17.5003 6.198V5.198C19.1543 5.198 20.5003 6.544 20.5003 8.198H4.50031C4.50031 6.544 5.84631 5.198 7.50031 5.198ZM17.5003 20.198H7.50031C5.84631 20.198 4.50031 18.852 4.50031 17.198V10.198H20.5003V17.198C20.5003 18.852 19.1543 20.198 17.5003 20.198ZM17.5003 13.198C17.5003 13.75 17.0523 14.198 16.5003 14.198C15.9483 14.198 15.5003 13.75 15.5003 13.198C15.5003 12.646 15.9483 12.198 16.5003 12.198C17.0523 12.198 17.5003 12.646 17.5003 13.198ZM13.5003 13.198C13.5003 13.75 13.0523 14.198 12.5003 14.198C11.9483 14.198 11.5003 13.75 11.5003 13.198C11.5003 12.646 11.9483 12.198 12.5003 12.198C13.0523 12.198 13.5003 12.646 13.5003 13.198ZM9.50031 13.198C9.50031 13.75 9.05231 14.198 8.50031 14.198C7.94831 14.198 7.50031 13.75 7.50031 13.198C7.50031 12.646 7.94831 12.198 8.50031 12.198C9.05231 12.198 9.50031 12.646 9.50031 13.198ZM17.5003 17.198C17.5003 17.75 17.0523 18.198 16.5003 18.198C15.9483 18.198 15.5003 17.75 15.5003 17.198C15.5003 16.646 15.9483 16.198 16.5003 16.198C17.0523 16.198 17.5003 16.646 17.5003 17.198ZM13.5003 17.198C13.5003 17.75 13.0523 18.198 12.5003 18.198C11.9483 18.198 11.5003 17.75 11.5003 17.198C11.5003 16.646 11.9483 16.198 12.5003 16.198C13.0523 16.198 13.5003 16.646 13.5003 17.198ZM9.50031 17.198C9.50031 17.75 9.05231 18.198 8.50031 18.198C7.94831 18.198 7.50031 17.75 7.50031 17.198C7.50031 16.646 7.94831 16.198 8.50031 16.198C9.05231 16.198 9.50031 16.646 9.50031 17.198Z" fill="#677A8E"/>
</svg>
