<svg width="25" height="25" viewBox="0 0 25 25" fill="none" xmlns="http://www.w3.org/2000/svg">
<path d="M17.4998 17.8367V18.3436C17.4998 19.2806 17.1538 20.1776 16.5258 20.8696C16.3278 21.0876 16.0568 21.1976 15.7848 21.1976C15.5448 21.1976 15.3048 21.1116 15.1138 20.9376C14.7048 20.5666 14.6738 19.9346 15.0448 19.5256C15.3388 19.2026 15.5008 18.7817 15.5008 18.3427V17.8356C15.5008 16.5916 14.6638 15.5147 13.4648 15.2177C13.2998 15.1757 13.1268 15.1976 12.9878 15.2766C11.1308 16.2966 8.86181 16.2916 7.02081 15.2816C6.87381 15.1976 6.6998 15.1756 6.5368 15.2186C5.3378 15.5156 4.50079 16.5927 4.50079 17.8367V18.3436C4.50079 18.7816 4.66279 19.2016 4.95679 19.5266C5.32779 19.9356 5.29682 20.5686 4.88782 20.9396C4.47682 21.3096 3.84579 21.2796 3.47479 20.8706C2.84679 20.1776 2.50079 19.2806 2.50079 18.3446V17.8376C2.50079 15.6726 3.96181 13.7976 6.05481 13.2776C6.70781 13.1176 7.4138 13.2097 7.9928 13.5337C9.2288 14.2137 10.7648 14.2187 12.0178 13.5287C12.5888 13.2107 13.2948 13.1166 13.9478 13.2776C16.0388 13.7966 17.4998 15.6717 17.4998 17.8367ZM18.9458 13.2766C18.4108 13.1466 17.8668 13.4696 17.7348 14.0056C17.6028 14.5416 17.9288 15.0847 18.4648 15.2177C19.6638 15.5147 20.5008 16.5916 20.5008 17.8356V18.3427C20.5008 18.7807 20.3388 19.2016 20.0448 19.5256C19.6738 19.9346 19.7048 20.5666 20.1138 20.9376C20.3048 21.1116 20.5458 21.1976 20.7848 21.1976C21.0568 21.1976 21.3278 21.0876 21.5258 20.8696C22.1538 20.1776 22.4998 19.2796 22.4998 18.3436V17.8367C22.4998 15.6717 21.0388 13.7966 18.9458 13.2766ZM4.99982 8.19763C4.99982 5.44063 7.24282 3.19763 9.99982 3.19763C12.7568 3.19763 14.9998 5.44063 14.9998 8.19763C14.9998 10.9546 12.7568 13.1976 9.99982 13.1976C7.24282 13.1976 4.99982 10.9546 4.99982 8.19763ZM6.99982 8.19763C6.99982 9.85163 8.34582 11.1976 9.99982 11.1976C11.6538 11.1976 12.9998 9.85163 12.9998 8.19763C12.9998 6.54363 11.6538 5.19763 9.99982 5.19763C8.34582 5.19763 6.99982 6.54363 6.99982 8.19763ZM19.9998 8.19763C19.9998 5.67963 18.1188 3.54857 15.6238 3.23657C15.0748 3.17357 14.5758 3.55661 14.5078 4.10461C14.4398 4.65261 14.8278 5.15258 15.3768 5.22058C16.8728 5.40758 18.0008 6.68663 18.0008 8.19763C18.0008 9.11263 17.5908 9.96667 16.8758 10.5397C16.4448 10.8857 16.3758 11.5146 16.7208 11.9446C16.9178 12.1916 17.2088 12.3196 17.5018 12.3196C17.7208 12.3196 17.9418 12.2476 18.1268 12.0996C19.3168 11.1456 19.9998 9.72263 19.9998 8.19763Z" fill="#677A8E"/>
</svg>
