<svg width="24" height="25" viewBox="0 0 24 25" fill="none" xmlns="http://www.w3.org/2000/svg">
<path d="M8.83364 3.75355C8.83364 3.4736 8.72243 3.20512 8.52447 3.00716C8.32652 2.80921 8.05803 2.698 7.77808 2.698C7.49813 2.698 7.22965 2.80921 7.03169 3.00716C6.83374 3.20512 6.72253 3.4736 6.72253 3.75355V6.39244C6.72253 6.53242 6.66692 6.66666 6.56795 6.76564C6.46897 6.86462 6.33473 6.92022 6.19475 6.92022H3.55586C3.27591 6.92022 3.00743 7.03143 2.80947 7.22939C2.61152 7.42734 2.50031 7.69583 2.50031 7.97578C2.50031 8.25573 2.61152 8.52421 2.80947 8.72217C3.00743 8.92012 3.27591 9.03133 3.55586 9.03133H6.19475C6.89463 9.03133 7.56584 8.75331 8.06073 8.25842C8.55561 7.76353 8.83364 7.09232 8.83364 6.39244V3.75355ZM8.83364 20.6424C8.83364 20.9224 8.72243 21.1909 8.52447 21.3888C8.32652 21.5868 8.05803 21.698 7.77808 21.698C7.49813 21.698 7.22965 21.5868 7.03169 21.3888C6.83374 21.1909 6.72253 20.9224 6.72253 20.6424V18.0036C6.72253 17.8636 6.66692 17.7293 6.56795 17.6304C6.46897 17.5314 6.33473 17.4758 6.19475 17.4758H3.55586C3.27591 17.4758 3.00743 17.3646 2.80947 17.1666C2.61152 16.9687 2.50031 16.7002 2.50031 16.4202C2.50031 16.1403 2.61152 15.8718 2.80947 15.6738C3.00743 15.4759 3.27591 15.3647 3.55586 15.3647H6.19475C6.89463 15.3647 7.56584 15.6427 8.06073 16.1376C8.55561 16.6325 8.83364 17.3037 8.83364 18.0036V20.6424ZM16.2225 2.698C15.9426 2.698 15.6741 2.80921 15.4761 3.00716C15.2782 3.20512 15.167 3.4736 15.167 3.75355V6.39244C15.167 7.09232 15.445 7.76353 15.9399 8.25842C16.4348 8.75331 17.106 9.03133 17.8059 9.03133H20.4447C20.7247 9.03133 20.9932 8.92012 21.1911 8.72217C21.3891 8.52421 21.5003 8.25573 21.5003 7.97578C21.5003 7.69583 21.3891 7.42734 21.1911 7.22939C20.9932 7.03143 20.7247 6.92022 20.4447 6.92022H17.8059C17.6659 6.92022 17.5316 6.86462 17.4327 6.76564C17.3337 6.66666 17.2781 6.53242 17.2781 6.39244V3.75355C17.2781 3.4736 17.1669 3.20512 16.9689 3.00716C16.771 2.80921 16.5025 2.698 16.2225 2.698ZM15.167 20.6424C15.167 20.9224 15.2782 21.1909 15.4761 21.3888C15.6741 21.5868 15.9426 21.698 16.2225 21.698C16.5025 21.698 16.771 21.5868 16.9689 21.3888C17.1669 21.1909 17.2781 20.9224 17.2781 20.6424V18.0036C17.2781 17.8636 17.3337 17.7293 17.4327 17.6304C17.5316 17.5314 17.6659 17.4758 17.8059 17.4758H20.4447C20.7247 17.4758 20.9932 17.3646 21.1911 17.1666C21.3891 16.9687 21.5003 16.7002 21.5003 16.4202C21.5003 16.1403 21.3891 15.8718 21.1911 15.6738C20.9932 15.4759 20.7247 15.3647 20.4447 15.3647H17.8059C17.106 15.3647 16.4348 15.6427 15.9399 16.1376C15.445 16.6325 15.167 17.3037 15.167 18.0036V20.6424Z" fill="#677A8E"/>
</svg>
