<svg width="25" height="24" viewBox="0 0 25 24" fill="none" xmlns="http://www.w3.org/2000/svg">
<path d="M4.98923 12.55C5.18928 11.5715 5.72113 10.6921 6.49485 10.0606C7.26857 9.42904 8.23665 9.08411 9.23539 9.08411C10.2341 9.08411 11.2022 9.42904 11.9759 10.0606C12.7497 10.6921 13.2815 11.5715 13.4816 12.55M4.12256 13.4167C4.12256 15.6386 5.0052 17.7694 6.57632 19.3406C8.14744 20.9117 10.2783 21.7943 12.5002 21.7943C14.7221 21.7943 16.853 20.9117 18.4241 19.3406C19.9952 17.7694 20.8779 15.6386 20.8779 13.4167H4.12256Z" stroke="#677A8E" stroke-width="1.2" stroke-linecap="round" stroke-linejoin="round"/>
<path d="M6.47888 12.55C6.66347 11.9636 7.03028 11.4513 7.52598 11.0877C8.02168 10.724 8.62044 10.528 9.23521 10.528C9.84999 10.528 10.4488 10.724 10.9445 11.0877C11.4402 11.4513 11.807 11.9636 11.9915 12.55" stroke="#677A8E" stroke-width="1.2" stroke-linecap="round" stroke-linejoin="round"/>
<path d="M8.08655 12.55C8.21976 12.3708 8.39304 12.2253 8.59255 12.125C8.79205 12.0247 9.01225 11.9724 9.23555 11.9724C9.45884 11.9724 9.67904 12.0247 9.87855 12.125C10.0781 12.2253 10.2513 12.3708 10.3845 12.55M13.3689 9.80569C13.9603 9.41354 14.6389 9.17257 15.3452 9.10394C16.0514 9.03531 16.7638 9.14112 17.4196 9.41208C18.0754 9.68304 18.6547 10.1109 19.1066 10.658C19.5584 11.2051 19.8691 11.8548 20.0112 12.55" stroke="#677A8E" stroke-width="1.2" stroke-linecap="round" stroke-linejoin="round"/>
<path d="M14.1736 11.0053C14.547 10.759 14.9724 10.6027 15.4164 10.5488C15.8604 10.4949 16.3109 10.5447 16.7324 10.6945C17.1539 10.8442 17.5348 11.0897 17.8453 11.4117C18.1558 11.7337 18.3873 12.1233 18.5216 12.55M14.8096 12.3396C14.9575 12.2063 15.1316 12.1054 15.3208 12.0433C15.51 11.9813 15.7101 11.9594 15.9082 11.9792C16.1063 11.9989 16.2981 12.0599 16.4713 12.1581C16.6445 12.2564 16.7953 12.3897 16.9139 12.5496" stroke="#677A8E" stroke-width="1.2" stroke-linecap="round" stroke-linejoin="round"/>
<path d="M20.8336 4.17069L14.363 3.98602C14.116 4.41502 13.4953 4.71602 12.506 4.71602C11.19 4.71602 9.80396 4.67936 9.80396 4.67936M9.80396 2.24236C9.80396 2.24236 11.1903 2.20569 12.506 2.20569C13.493 2.20569 14.1126 2.50569 14.361 2.93236L20.8336 2.92636M9.80396 3.46069H12.999M12.1236 3.47969V9.65869M10.6793 3.47969V7.53336" stroke="#677A8E" stroke-linecap="round" stroke-linejoin="round"/>
</svg>
