<svg width="25" height="25" viewBox="0 0 25 25" fill="none" xmlns="http://www.w3.org/2000/svg">
<path d="M12.4603 3.52197C11.2053 2.94597 9.7723 3.14505 8.7243 4.04505L6.13129 6.271L5.3913 6.27197C3.7973 6.27497 2.50031 7.576 2.50031 9.172V15.2229C2.50031 16.8209 3.79833 18.121 5.39233 18.123L6.12933 18.124L8.7243 20.3501C9.3753 20.9101 10.1763 21.199 10.9903 21.199C11.4853 21.199 11.9863 21.092 12.4613 20.873C13.7203 20.295 14.5013 19.074 14.5013 17.687V6.70801C14.5003 5.32201 13.7193 4.10097 12.4603 3.52197ZM12.5003 17.687C12.5003 18.292 12.1733 18.8039 11.6243 19.0559C11.0793 19.3079 10.4803 19.223 10.0253 18.832L7.43134 16.606C7.06934 16.295 6.60729 16.124 6.13129 16.124L5.39429 16.123C4.90129 16.123 4.49933 15.7189 4.49933 15.2229V9.172C4.49933 8.677 4.90029 8.27297 5.39429 8.27197L6.13531 8.271C6.61131 8.269 7.07234 8.09694 7.43134 7.78894L10.0253 5.56299C10.3083 5.32199 10.6443 5.19702 10.9903 5.19702C11.2023 5.19702 11.4173 5.24397 11.6253 5.33997C12.1733 5.59197 12.5003 6.10399 12.5003 6.70899V17.687ZM18.5003 12.198C18.5003 13.518 18.0843 14.765 17.2973 15.802C17.1003 16.061 16.8023 16.198 16.4993 16.198C16.2893 16.198 16.0763 16.1321 15.8953 15.9951C15.4553 15.6611 15.3693 15.034 15.7033 14.594C16.2243 13.907 16.5003 13.078 16.5003 12.198C16.5003 11.318 16.2253 10.489 15.7033 9.802C15.3693 9.362 15.4553 8.735 15.8953 8.401C16.3353 8.066 16.9623 8.15502 17.2963 8.59302C18.0843 9.63102 18.5003 10.878 18.5003 12.198ZM22.5003 12.198C22.5003 14.665 21.5923 17.0339 19.9433 18.8669C19.7463 19.0869 19.4733 19.198 19.2003 19.198C18.9623 19.198 18.7223 19.1129 18.5313 18.9409C18.1213 18.5719 18.0873 17.9401 18.4573 17.5291C19.7743 16.0641 20.5003 14.171 20.5003 12.198C20.5003 10.225 19.7743 8.33195 18.4573 6.86695C18.0873 6.45595 18.1213 5.82396 18.5313 5.45496C18.9423 5.08496 19.5733 5.11805 19.9433 5.52905C21.5923 7.36205 22.5003 9.731 22.5003 12.198Z" fill="#677A8E"/>
</svg>
