<svg width="25" height="25" viewBox="0 0 25 25" fill="none" xmlns="http://www.w3.org/2000/svg">
<path d="M21.1704 15.7159L20.0644 13.871C19.6914 13.249 19.4954 12.5389 19.4954 11.8149V9.18799C19.4954 5.33399 16.3574 2.198 12.5004 2.198C8.64339 2.198 5.50538 5.33399 5.50538 9.18799V11.8149C5.50538 12.5389 5.30838 13.249 4.93638 13.87L3.83038 15.7159C3.39838 16.4359 3.38839 17.301 3.80139 18.031C4.21439 18.761 4.96339 19.198 5.80339 19.198H9.49939C9.49939 20.852 10.8454 22.198 12.4994 22.198C14.1534 22.198 15.4994 20.852 15.4994 19.198H19.1964C20.0364 19.198 20.7854 18.761 21.1994 18.031C21.6124 17.301 21.6014 16.4349 21.1704 15.7159ZM12.4994 20.198C11.9484 20.198 11.4994 19.75 11.4994 19.198H13.4994C13.4994 19.75 13.0504 20.198 12.4994 20.198ZM19.4584 17.046C19.4264 17.103 19.3494 17.198 19.1964 17.198H5.80238C5.64938 17.198 5.57239 17.102 5.54039 17.046C5.50839 16.99 5.46638 16.875 5.54438 16.745L6.65039 14.8979C7.20839 13.9659 7.50439 12.8999 7.50439 11.8149V9.18799C7.50439 6.43599 9.74539 4.198 12.4994 4.198C15.2534 4.198 17.4944 6.43599 17.4944 9.18799V11.8149C17.4944 12.8999 17.7894 13.966 18.3484 14.899L19.4554 16.745C19.5324 16.875 19.4904 16.989 19.4584 17.046Z" fill="#677A8E"/>
</svg>
