<svg width="25" height="25" viewBox="0 0 25 25" fill="none" xmlns="http://www.w3.org/2000/svg">
<path d="M15.5003 2.19897H9.50031C6.74331 2.19897 4.50031 4.44197 4.50031 7.19897V20.197C4.50031 20.943 4.9113 21.622 5.5723 21.968C6.2323 22.314 7.02531 22.2649 7.63931 21.8409L12.4983 18.474L17.3623 21.8409C17.7043 22.0769 18.1013 22.197 18.5003 22.197C18.8173 22.197 19.1363 22.121 19.4293 21.968C20.0903 21.621 20.5003 20.943 20.5003 20.197V7.19897C20.5003 4.44197 18.2573 2.19897 15.5003 2.19897ZM18.5003 20.197L13.6373 16.83C13.2963 16.595 12.8973 16.476 12.4983 16.476C12.0993 16.476 11.7003 16.594 11.3593 16.83L6.50031 20.197V7.19897C6.50031 5.54497 7.84631 4.19897 9.50031 4.19897H15.5003C17.1543 4.19897 18.5003 5.54497 18.5003 7.19897V20.197Z" fill="#677A8E"/>
</svg>
