<svg width="25" height="25" viewBox="0 0 25 25" fill="none" xmlns="http://www.w3.org/2000/svg">
<path d="M20.0672 13.8735C19.6962 13.2575 19.5002 12.5475 19.5002 11.8185V9.18848C19.5002 8.42648 19.3782 7.68451 19.1382 6.97351L21.2072 4.90454C21.5982 4.51354 21.5982 3.88148 21.2072 3.49048C20.8162 3.09948 20.1842 3.09948 19.7932 3.49048L5.7942 17.4895L5.79218 17.4915L3.79319 19.4905C3.40219 19.8815 3.40219 20.5135 3.79319 20.9045C3.98819 21.0995 4.24419 21.1975 4.50019 21.1975C4.75619 21.1975 5.01219 21.0995 5.20719 20.9045L6.91419 19.1975H9.50019C9.50019 20.8515 10.8462 22.1975 12.5002 22.1975C14.1542 22.1975 15.5002 20.8515 15.5002 19.1975H19.2002C20.0372 19.1975 20.7842 18.7625 21.1972 18.0355C21.6112 17.3055 21.6012 16.4375 21.1692 15.7145L20.0672 13.8735ZM12.5002 20.1985C11.9492 20.1985 11.5002 19.7505 11.5002 19.1985H13.5002C13.5002 19.7505 13.0512 20.1985 12.5002 20.1985ZM19.4572 17.0505C19.4182 17.1175 19.3432 17.1985 19.2002 17.1985H8.91419L17.4452 8.66748C17.4632 8.84148 17.5002 9.01148 17.5002 9.18848V11.8185C17.5002 12.9105 17.7952 13.9775 18.3522 14.9025L19.4522 16.7415C19.5322 16.8765 19.4902 16.9925 19.4572 17.0505ZM4.16119 15.1665L4.93119 13.8765C5.30419 13.2585 5.50019 12.5475 5.50019 11.8185V9.18848C5.50019 5.33448 8.64019 2.19849 12.5002 2.19849C14.0912 2.19849 15.5912 2.71553 16.8372 3.69153C17.2722 4.03253 17.3482 4.66146 17.0072 5.09546C16.6652 5.53046 16.0362 5.6055 15.6032 5.2655C14.7132 4.5675 13.6402 4.19849 12.5002 4.19849C9.74319 4.19849 7.50019 6.43648 7.50019 9.18848V11.8185C7.50019 12.9115 7.20519 13.9785 6.64619 14.9055L5.87818 16.1915C5.69018 16.5045 5.3582 16.6785 5.0182 16.6785C4.8442 16.6785 4.66719 16.6325 4.50619 16.5365C4.03319 16.2545 3.87819 15.6405 4.16119 15.1665Z" fill="#677A8E"/>
</svg>
