<svg width="25" height="25" viewBox="0 0 25 25" fill="none" xmlns="http://www.w3.org/2000/svg">
<path d="M14.0003 8.948C14.0003 8.53378 13.6645 8.198 13.2503 8.198C12.8361 8.198 12.5003 8.53378 12.5003 8.948V13.198L16.1754 15.379C16.5096 15.5773 16.9413 15.4675 17.14 15.1335C17.339 14.7992 17.2291 14.3668 16.8946 14.168L14.0003 12.448V8.948ZM13.5003 3.198C11.1134 3.198 8.82417 4.14621 7.13634 5.83404C5.44852 7.52186 4.50031 9.81105 4.50031 12.198H2.69261C2.24927 12.198 2.02524 12.7322 2.33598 13.0484L5.10722 15.8687C5.30179 16.0667 5.62042 16.0683 5.81697 15.8722L8.6442 13.052C8.95978 12.7372 8.73683 12.198 8.29108 12.198H6.50031C6.50031 10.3415 7.2378 8.56101 8.55056 7.24825C9.86331 5.9355 11.6438 5.198 13.5003 5.198C15.3568 5.198 17.1373 5.9355 18.4501 7.24825C19.7628 8.56101 20.5003 10.3415 20.5003 12.198C20.5003 14.0545 19.7628 15.835 18.4501 17.1477C17.1373 18.4605 15.3568 19.198 13.5003 19.198C11.931 19.198 10.4807 18.6757 9.316 17.7977C8.87376 17.4643 8.23858 17.4597 7.84696 17.8513C7.45795 18.2404 7.44963 18.879 7.87773 19.2246C8.5366 19.7563 9.26936 20.1924 10.0545 20.5183C11.1465 20.9716 12.318 21.2027 13.5003 21.198C15.8873 21.198 18.1764 20.2498 19.8643 18.562C21.5521 16.8741 22.5003 14.5849 22.5003 12.198C22.5003 9.81105 21.5521 7.52186 19.8643 5.83404C18.1764 4.14621 15.8873 3.198 13.5003 3.198Z" fill="#677A8E"/>
</svg>
