<svg width="25" height="25" viewBox="0 0 25 25" fill="none" xmlns="http://www.w3.org/2000/svg">
<path d="M21.9451 10.1841C21.3881 9.25612 20.4811 8.01109 19.2271 6.88309L21.2051 4.90519C21.5961 4.51519 21.5961 3.88213 21.2051 3.49113C20.8141 3.10013 20.1821 3.10013 19.7911 3.49113L9.32812 13.9541L9.32611 13.9561L3.79111 19.4911C3.40011 19.8821 3.40011 20.5142 3.79111 20.9052C3.98611 21.1002 4.24211 21.1982 4.49811 21.1982C4.75411 21.1982 5.01011 21.1002 5.20511 20.9052L7.37213 18.7381C8.95113 19.7071 10.6721 20.1982 12.5001 20.1982C17.5691 20.1982 20.5921 16.4501 21.9461 14.2121C22.6881 12.9701 22.6881 11.4281 21.9451 10.1841ZM14.9981 12.1991C14.9981 13.5781 13.8761 14.6991 12.4981 14.6991C12.1801 14.6991 11.8731 14.6361 11.5871 14.5241L14.8221 11.2891C14.9351 11.5741 14.9981 11.8811 14.9981 12.1991ZM20.2311 13.1812C19.0981 15.0552 16.5871 18.1991 12.5001 18.1991C11.2101 18.1991 9.98512 17.8822 8.84112 17.2702L10.1111 16.0002C10.8181 16.4492 11.6351 16.6991 12.4981 16.6991C14.9791 16.6991 16.9981 14.6801 16.9981 12.1991C16.9981 11.3361 16.7481 10.5192 16.2991 9.81217L17.8111 8.30009C18.9251 9.28009 19.7371 10.3891 20.2301 11.2121C20.5881 11.8111 20.5881 12.5872 20.2311 13.1812ZM4.43811 16.1441C3.93011 15.5411 3.46512 14.8931 3.05612 14.2151C2.31212 12.9701 2.31211 11.4272 3.05411 10.1862C4.40811 7.94719 7.43012 4.19913 12.5001 4.19913C13.4781 4.19913 14.4251 4.34014 15.3961 4.63114C15.9251 4.78914 16.2261 5.34716 16.0671 5.87516C15.9081 6.40416 15.3521 6.70516 14.8221 6.54716C14.0401 6.31316 13.2801 6.19913 12.4991 6.19913C8.41111 6.19913 5.90013 9.34308 4.76813 11.2171C4.41213 11.8121 4.41211 12.5872 4.77011 13.1872C5.12311 13.7712 5.52512 14.3332 5.96512 14.8542C6.32112 15.2772 6.26813 15.9081 5.84613 16.2631C5.65813 16.4221 5.42911 16.4992 5.20111 16.4992C4.91811 16.4992 4.63611 16.3781 4.43811 16.1441ZM11.7951 7.76115C12.3381 7.68415 12.8521 8.05111 12.9361 8.59611C13.0201 9.14211 12.6461 9.65407 12.1011 9.73807C11.0481 9.90107 10.1991 10.7502 10.0361 11.8022C9.96013 12.2962 9.53413 12.6502 9.04913 12.6502C8.99813 12.6502 8.94711 12.6461 8.89511 12.6381C8.34911 12.5541 7.97511 12.0431 8.05911 11.4971C8.35811 9.56111 9.85913 8.06015 11.7951 7.76115Z" fill="#677A8E"/>
</svg>
