<svg width="25" height="25" viewBox="0 0 25 25" fill="none" xmlns="http://www.w3.org/2000/svg">
<path d="M21.1581 3.54053C20.2931 2.67553 19.143 2.19849 17.92 2.19849C16.697 2.19849 15.547 2.67553 14.682 3.54053L4.14903 14.0735C3.70403 14.5185 3.41401 15.0815 3.31101 15.7015L2.52104 20.4395C2.44104 20.9195 2.59906 21.4125 2.94206 21.7555C3.22706 22.0405 3.61403 22.1975 4.01103 22.1975C4.09403 22.1975 4.17601 22.1905 4.25901 22.1765L8.99705 21.3865C9.61705 21.2835 10.18 20.9935 10.625 20.5485L21.1581 10.0155C22.0231 9.1505 22.5 7.99947 22.5 6.77747C22.5 5.55447 22.0231 4.40553 21.1581 3.54053ZM9.21104 19.1365C9.06304 19.2845 8.87505 19.3815 8.66905 19.4155L4.60703 20.0925L5.28404 16.0305C5.31804 15.8245 5.41503 15.6365 5.56303 15.4885L13.469 7.58252L17.117 11.2305L9.21104 19.1365ZM19.7441 8.60254L18.531 9.81543L14.883 6.16748L16.096 4.95447C16.583 4.46747 17.232 4.19849 17.92 4.19849C18.609 4.19849 19.2571 4.46747 19.7441 4.95447C20.2311 5.44147 20.5 6.08944 20.5 6.77844C20.5 7.46744 20.2311 8.11554 19.7441 8.60254Z" fill="#677A8E"/>
</svg>
