<svg width="25" height="25" viewBox="0 0 25 25" fill="none" xmlns="http://www.w3.org/2000/svg">
<path d="M22.4505 10.129C21.6475 6.14497 18.5545 3.05111 14.5695 2.24811C13.8365 2.10011 13.0745 2.28815 12.4885 2.76715C11.9045 3.24615 11.5695 3.95214 11.5695 4.70514V10.129C11.5695 11.783 12.9155 13.129 14.5695 13.129H19.9935C20.7475 13.129 21.4535 12.794 21.9315 12.21C22.4095 11.626 22.5995 10.867 22.4505 10.129ZM20.3855 10.942C20.3275 11.011 20.2015 11.129 19.9935 11.129H14.5695C14.0175 11.129 13.5695 10.681 13.5695 10.129V4.70514C13.5695 4.49714 13.6865 4.37105 13.7565 4.31305C13.8135 4.26705 13.9225 4.19806 14.0725 4.19806C14.1045 4.19806 14.1385 4.20105 14.1755 4.20905C17.3675 4.85205 19.8475 7.33101 20.4895 10.523C20.5305 10.726 20.4415 10.873 20.3855 10.942ZM21.0775 15.4891C19.8545 19.5021 16.2065 22.1981 12.0005 22.1981C6.76249 22.1981 2.50049 17.9361 2.50049 12.6981C2.50049 8.49206 5.19647 4.84416 9.20947 3.62116C9.73847 3.46116 10.2965 3.75917 10.4575 4.28717C10.6175 4.81517 10.3195 5.37397 9.7915 5.53497C6.6275 6.49897 4.50049 9.37806 4.50049 12.6981C4.50049 16.8341 7.86449 20.1981 12.0005 20.1981C15.3205 20.1981 18.1995 18.071 19.1635 14.907C19.3255 14.378 19.8855 14.083 20.4115 14.241C20.9395 14.402 21.2375 14.9611 21.0775 15.4891Z" fill="#677A8E"/>
</svg>
