<svg width="25" height="25" viewBox="0 0 25 25" fill="none" xmlns="http://www.w3.org/2000/svg">
<path fill-rule="evenodd" clip-rule="evenodd" d="M11.5003 3.198C7.08203 3.198 3.50031 6.77972 3.50031 11.198C3.50031 15.6163 7.08203 19.198 11.5003 19.198C13.349 19.198 15.0513 18.5709 16.4059 17.5179L19.7932 20.9051C20.1837 21.2956 20.8169 21.2956 21.2074 20.9051C21.5979 20.5146 21.5979 19.8814 21.2074 19.4909L17.8202 16.1036C18.8732 14.749 19.5003 13.0467 19.5003 11.198C19.5003 6.77972 15.9186 3.198 11.5003 3.198ZM5.50031 11.198C5.50031 7.88429 8.1866 5.198 11.5003 5.198C14.814 5.198 17.5003 7.88429 17.5003 11.198C17.5003 14.5117 14.814 17.198 11.5003 17.198C8.1866 17.198 5.50031 14.5117 5.50031 11.198Z" fill="#677A8E"/>
</svg>
