<svg width="25" height="25" viewBox="0 0 25 25" fill="none" xmlns="http://www.w3.org/2000/svg">
<path d="M12.5003 16.198C11.7092 16.198 10.9358 15.9634 10.278 15.5239C9.62023 15.0844 9.10754 14.4596 8.80479 13.7287C8.50204 12.9978 8.42282 12.1936 8.57716 11.4176C8.7315 10.6417 9.11247 9.92898 9.67188 9.36957C10.2313 8.81016 10.944 8.4292 11.7199 8.27486C12.4959 8.12052 13.3001 8.19973 14.031 8.50248C14.7619 8.80523 15.3867 9.31792 15.8262 9.97572C16.2657 10.6335 16.5003 11.4069 16.5003 12.198C16.5003 13.2589 16.0789 14.2763 15.3287 15.0264C14.5786 15.7766 13.5612 16.198 12.5003 16.198ZM12.5003 10.198C12.1047 10.198 11.7181 10.3153 11.3892 10.5351C11.0603 10.7548 10.8039 11.0672 10.6525 11.4326C10.5012 11.7981 10.4616 12.2002 10.5387 12.5882C10.6159 12.9761 10.8064 13.3325 11.0861 13.6122C11.3658 13.8919 11.7222 14.0824 12.1101 14.1596C12.4981 14.2367 12.9002 14.1971 13.2657 14.0458C13.6311 13.8944 13.9435 13.638 14.1632 13.3091C14.383 12.9802 14.5003 12.5936 14.5003 12.198C14.5003 11.6676 14.2896 11.1589 13.9145 10.7838C13.5394 10.4087 13.0307 10.198 12.5003 10.198ZM13.0003 22.198H12.0003C11.3373 22.198 10.7014 21.9346 10.2325 21.4658C9.7637 20.9969 9.50031 20.361 9.50031 19.698C9.5023 19.6749 9.49675 19.6518 9.48448 19.6322C9.47222 19.6125 9.45391 19.5974 9.43231 19.589C9.38331 19.565 9.32631 19.617 9.32631 19.617C8.85705 20.0869 8.22072 20.3516 7.55666 20.3533C6.8926 20.355 6.25494 20.0935 5.78331 19.626L5.07731 18.919C4.84488 18.6864 4.66064 18.4102 4.53512 18.1062C4.4096 17.8023 4.34528 17.4766 4.34583 17.1478C4.34639 16.8189 4.41182 16.4934 4.53837 16.1899C4.66491 15.8864 4.8501 15.6108 5.08331 15.379C5.10007 15.3638 5.11117 15.3433 5.11481 15.321C5.11844 15.2987 5.11439 15.2757 5.10331 15.256C5.09194 15.2389 5.07668 15.2247 5.05878 15.2146C5.04087 15.2045 5.02084 15.1988 5.00031 15.198C4.33726 15.198 3.70138 14.9346 3.23254 14.4658C2.7637 13.9969 2.50031 13.361 2.50031 12.698V11.698C2.50031 11.035 2.7637 10.3991 3.23254 9.93023C3.70138 9.46139 4.33726 9.198 5.00031 9.198C5.02262 9.1992 5.04479 9.19377 5.06401 9.18238C5.08323 9.17098 5.09865 9.15415 5.1083 9.134C5.11568 9.11714 5.11753 9.09839 5.11357 9.08042C5.10962 9.06245 5.10007 9.0462 5.08631 9.034C4.8523 8.80186 4.66636 8.52587 4.5391 8.22181C4.41184 7.91776 4.34576 7.5916 4.34465 7.26199C4.34353 6.93237 4.4074 6.60577 4.5326 6.30086C4.6578 5.99595 4.84188 5.71871 5.07431 5.485L5.78231 4.776C6.25203 4.30903 6.88746 4.04692 7.54981 4.04692C8.21215 4.04692 8.84758 4.30903 9.31731 4.776C9.33105 4.79547 9.35129 4.8094 9.3744 4.81527C9.3975 4.82113 9.42194 4.81856 9.44331 4.808C9.50031 4.778 9.50031 4.698 9.50031 4.698C9.50031 4.03496 9.7637 3.39907 10.2325 2.93023C10.7014 2.46139 11.3373 2.198 12.0003 2.198H13.0003C13.6633 2.198 14.2992 2.46139 14.7681 2.93023C15.2369 3.39907 15.5003 4.03496 15.5003 4.698C15.5003 4.698 15.4953 4.798 15.5503 4.818C15.5705 4.82432 15.5919 4.82533 15.6126 4.82096C15.6332 4.81658 15.6524 4.80695 15.6683 4.793C15.9001 4.55547 16.1771 4.36675 16.483 4.23794C16.7889 4.10913 17.1174 4.04285 17.4493 4.043C17.7778 4.04184 18.1032 4.10595 18.4067 4.23161C18.7103 4.35727 18.9858 4.54197 19.2173 4.775L19.9173 5.475C20.386 5.94382 20.6493 6.57959 20.6493 7.2425C20.6493 7.90541 20.386 8.54118 19.9173 9.01C19.9033 9.031 19.8453 9.074 19.8683 9.134C19.8709 9.14505 19.8756 9.15549 19.8823 9.1647C19.8889 9.17391 19.8973 9.18171 19.907 9.18766C19.9166 9.19361 19.9274 9.19759 19.9386 9.19936C19.9498 9.20114 19.9613 9.20067 19.9723 9.198C20.3026 9.19549 20.6302 9.25825 20.9362 9.38265C21.2422 9.50706 21.5207 9.69067 21.7555 9.92294C21.9904 10.1552 22.1771 10.4316 22.3049 10.7362C22.4327 11.0408 22.4991 11.3677 22.5003 11.698V12.698C22.5003 13.361 22.2369 13.9969 21.7681 14.4658C21.2992 14.9346 20.6633 15.198 20.0003 15.198C19.9403 15.198 19.8863 15.198 19.8673 15.247C19.8483 15.296 19.8583 15.327 19.9073 15.368C20.1428 15.5994 20.3302 15.8751 20.4586 16.1793C20.587 16.4834 20.6538 16.81 20.6553 17.1402C20.6568 17.4703 20.5929 17.7975 20.4672 18.1028C20.3416 18.4081 20.1567 18.6855 19.9233 18.919L19.2233 19.625C18.7536 20.092 18.1182 20.3541 17.4558 20.3541C16.7935 20.3541 16.158 20.092 15.6883 19.625C15.6883 19.625 15.6323 19.557 15.5763 19.577C15.5564 19.583 15.5388 19.5951 15.5261 19.6116C15.5133 19.6281 15.5061 19.6482 15.5053 19.669C15.5079 19.9998 15.4451 20.3279 15.3205 20.6344C15.1958 20.9408 15.0118 21.2196 14.779 21.4547C14.5461 21.6897 14.2691 21.8764 13.9639 22.004C13.6586 22.1315 13.3311 22.1975 13.0003 22.198ZM10.1713 17.73L10.2153 17.748C10.5941 17.9075 10.9177 18.1746 11.1461 18.5162C11.3745 18.8579 11.4977 19.259 11.5003 19.67C11.4976 19.7377 11.5085 19.8053 11.5324 19.8687C11.5562 19.9321 11.5925 19.9902 11.6391 20.0394C11.6856 20.0886 11.7416 20.1279 11.8036 20.1552C11.8657 20.1824 11.9326 20.197 12.0003 20.198H13.0003C13.1329 20.198 13.2601 20.1453 13.3539 20.0516C13.4476 19.9578 13.5003 19.8306 13.5003 19.698C13.5005 19.2783 13.625 18.868 13.8581 18.519C14.0913 18.17 14.4226 17.8979 14.8103 17.737C15.1903 17.5805 15.608 17.5398 16.011 17.6201C16.414 17.7003 16.7843 17.8979 17.0753 18.188C17.1211 18.2384 17.1765 18.279 17.2384 18.3074C17.3002 18.3359 17.3671 18.3516 17.4351 18.3537C17.5032 18.3557 17.5709 18.3441 17.6343 18.3194C17.6978 18.2947 17.7556 18.2575 17.8043 18.21L18.5043 17.51C18.5509 17.4636 18.5878 17.4084 18.613 17.3476C18.6382 17.2869 18.6512 17.2218 18.6512 17.156C18.6512 17.0902 18.6382 17.0251 18.613 16.9644C18.5878 16.9036 18.5509 16.8484 18.5043 16.802C18.2147 16.5107 18.0157 16.1418 17.9314 15.7398C17.8471 15.3379 17.8811 14.9201 18.0293 14.537C18.0353 14.521 18.0403 14.506 18.0473 14.49L18.0533 14.476C18.211 14.0967 18.4777 13.7727 18.8197 13.5452C19.1617 13.3177 19.5635 13.1968 19.9743 13.198C20.0419 13.2005 20.1093 13.1895 20.1725 13.1656C20.2358 13.1417 20.2936 13.1054 20.3427 13.0588C20.3917 13.0122 20.4309 12.9563 20.4579 12.8943C20.485 12.8324 20.4994 12.7656 20.5003 12.698V11.698C20.5003 11.5654 20.4476 11.4382 20.3539 11.3444C20.2601 11.2507 20.1329 11.198 20.0003 11.198C19.5831 11.2027 19.1742 11.0822 18.8262 10.852C18.4782 10.6219 18.2073 10.2927 18.0483 9.907L18.0293 9.861C17.8775 9.48366 17.8405 9.06991 17.9229 8.67161C18.0052 8.27332 18.2033 7.90819 18.4923 7.622C18.5423 7.57601 18.5825 7.52048 18.6106 7.45869C18.6387 7.39689 18.6542 7.33009 18.656 7.26222C18.6579 7.19435 18.6461 7.1268 18.6215 7.06356C18.5968 7.00031 18.5597 6.94266 18.5123 6.894L17.8123 6.194C17.7658 6.1476 17.7106 6.11082 17.6498 6.08577C17.5891 6.06071 17.524 6.04788 17.4583 6.048C17.3925 6.04801 17.3274 6.061 17.2667 6.08623C17.2059 6.11145 17.1507 6.14842 17.1043 6.195C16.8086 6.48927 16.433 6.69013 16.024 6.77263C15.6151 6.85513 15.191 6.81561 14.8043 6.659C14.418 6.50439 14.0871 6.23721 13.8546 5.89216C13.622 5.5471 13.4986 5.14009 13.5003 4.724C13.5028 4.65642 13.4918 4.58902 13.4679 4.52576C13.444 4.4625 13.4077 4.40466 13.3611 4.35565C13.3145 4.30663 13.2586 4.26744 13.1966 4.24036C13.1347 4.21329 13.0679 4.19888 13.0003 4.198H12.0003C11.8677 4.198 11.7405 4.25068 11.6468 4.34444C11.553 4.43821 11.5003 4.56539 11.5003 4.698C11.5033 5.11344 11.3831 5.52045 11.1547 5.86752C10.9263 6.21459 10.6002 6.48614 10.2175 6.64779C9.83474 6.80944 9.41267 6.85394 9.00466 6.77565C8.59664 6.69737 8.22102 6.49982 7.92531 6.208C7.87964 6.15813 7.82445 6.11791 7.76299 6.08973C7.70152 6.06155 7.63504 6.04598 7.56745 6.04393C7.49987 6.04188 7.43255 6.05339 7.36949 6.07779C7.30643 6.10219 7.24891 6.13899 7.2003 6.186L6.48831 6.898C6.39457 6.99176 6.34191 7.11892 6.34191 7.2515C6.34191 7.38408 6.39457 7.51123 6.48831 7.605C6.78517 7.89562 6.98864 8.26815 7.07272 8.675C7.1568 9.08184 7.11766 9.50451 6.96031 9.889C6.93377 9.95537 6.90025 10.0187 6.86031 10.078C6.68347 10.4118 6.42009 10.692 6.09777 10.889C5.77544 11.0861 5.40605 11.1928 5.02831 11.198C4.9606 11.1953 4.89304 11.2062 4.82961 11.23C4.76618 11.2539 4.70815 11.2902 4.65895 11.3367C4.60975 11.3833 4.57037 11.4393 4.54312 11.5013C4.51588 11.5634 4.50132 11.6302 4.50031 11.698V12.698C4.50031 12.8306 4.55298 12.9578 4.64675 13.0516C4.74052 13.1453 4.8677 13.198 5.00031 13.198C5.41397 13.1933 5.81969 13.3118 6.16573 13.5385C6.51177 13.7652 6.78246 14.0899 6.94331 14.471L6.94931 14.485C6.9583 14.506 6.96631 14.526 6.97331 14.548C7.11943 14.9261 7.15299 15.3384 7.06995 15.7352C6.9869 16.132 6.7908 16.4962 6.50531 16.784C6.45543 16.8311 6.41555 16.8878 6.38806 16.9507C6.36057 17.0136 6.34603 17.0814 6.3453 17.15C6.34472 17.2159 6.35734 17.2813 6.38241 17.3423C6.40749 17.4032 6.44451 17.4586 6.49131 17.505L7.19731 18.211C7.29107 18.3047 7.41822 18.3574 7.55081 18.3574C7.68339 18.3574 7.81054 18.3047 7.9043 18.211C8.19272 17.9163 8.56178 17.7135 8.96512 17.6279C9.36845 17.5423 9.78809 17.5778 10.1713 17.73Z" fill="#677A8E"/>
</svg>
