<svg width="25" height="25" viewBox="0 0 25 25" fill="none" xmlns="http://www.w3.org/2000/svg">
<path d="M3.50031 12.198C3.50031 11.0934 4.39574 10.198 5.50031 10.198C6.60487 10.198 7.50031 11.0934 7.50031 12.198C7.50031 13.3026 6.60487 14.198 5.50031 14.198C4.39574 14.198 3.50031 13.3026 3.50031 12.198Z" fill="#92A1AF"/>
<path d="M10.5003 12.198C10.5003 11.0934 11.3957 10.198 12.5003 10.198C13.6049 10.198 14.5003 11.0934 14.5003 12.198C14.5003 13.3026 13.6049 14.198 12.5003 14.198C11.3957 14.198 10.5003 13.3026 10.5003 12.198Z" fill="#92A1AF"/>
<path d="M19.5003 10.198C18.3957 10.198 17.5003 11.0934 17.5003 12.198C17.5003 13.3026 18.3957 14.198 19.5003 14.198C20.6049 14.198 21.5003 13.3026 21.5003 12.198C21.5003 11.0934 20.6049 10.198 19.5003 10.198Z" fill="#92A1AF"/>
</svg>
