<svg width="25" height="25" viewBox="0 0 25 25" fill="none" xmlns="http://www.w3.org/2000/svg">
<path d="M22.4993 9.19995C22.4993 9.09195 22.4822 8.98396 22.4482 8.88196L21.3603 5.61694C20.6783 3.57194 18.7722 2.198 16.6172 2.198H8.38324C6.22824 2.198 4.32126 3.57194 3.64026 5.61694L2.55225 8.88196C2.51825 8.98496 2.50128 9.09195 2.50128 9.19995C2.50328 10.205 2.88828 11.113 3.50128 11.816V18.198C3.50128 20.404 5.29528 22.198 7.50128 22.198H11.5283V18.198C11.5283 17.646 11.9773 17.198 12.5283 17.198C13.0793 17.198 13.5283 17.646 13.5283 18.198V22.198H17.4993C19.7053 22.198 21.4993 20.404 21.4993 18.198V11.816C22.1123 11.113 22.4973 10.205 22.4993 9.19995ZM5.53625 6.25C5.94525 5.022 7.08926 4.198 8.38226 4.198H16.6163C17.9093 4.198 19.0533 5.022 19.4623 6.25L20.4943 9.34497C20.4203 10.396 19.5743 11.199 18.5103 11.199C17.6133 11.199 16.7053 10.614 16.4443 9.86804C16.3033 9.46804 15.9252 9.19897 15.5002 9.19897H15.4963C15.0703 9.20097 14.6913 9.47198 14.5543 9.87598C14.3013 10.618 13.3982 11.199 12.5002 11.199C11.6022 11.199 10.7003 10.618 10.4463 9.87598C10.3083 9.47298 9.93027 9.20097 9.50427 9.19897H9.50024C9.07524 9.19897 8.69727 9.46804 8.55627 9.86804C8.29527 10.614 7.3873 11.199 6.4903 11.199C5.4253 11.199 4.57925 10.396 4.50525 9.34497L5.53625 6.25ZM17.4993 20.198H15.5262V18.198C15.5262 16.544 14.1802 15.198 12.5262 15.198C10.8722 15.198 9.52625 16.544 9.52625 18.198V20.198H7.49927C6.39627 20.198 5.49927 19.301 5.49927 18.198V13.058C5.81827 13.141 6.14526 13.198 6.48926 13.198C7.62026 13.198 8.71626 12.7281 9.49426 11.9771C10.2703 12.7281 11.3643 13.198 12.4983 13.198C13.6323 13.198 14.7273 12.7281 15.5023 11.9771C16.2813 12.7281 17.3772 13.198 18.5082 13.198C18.8522 13.198 19.1793 13.141 19.4983 13.058V18.198C19.4993 19.301 18.6023 20.198 17.4993 20.198Z" fill="#677A8E"/>
</svg>
