<svg width="24" height="25" viewBox="0 0 24 25" fill="none" xmlns="http://www.w3.org/2000/svg">
<path d="M17.0003 9.62195V7.198C17.0003 4.441 14.7573 2.198 12.0003 2.198C9.24331 2.198 7.00031 4.441 7.00031 7.198V9.62195C5.23731 10.3959 4.00031 12.153 4.00031 14.198V17.198C4.00031 19.955 6.24331 22.198 9.00031 22.198H15.0003C17.7573 22.198 20.0003 19.955 20.0003 17.198V14.198C20.0003 12.153 18.7633 10.3959 17.0003 9.62195ZM9.00031 7.198C9.00031 5.544 10.3463 4.198 12.0003 4.198C13.6543 4.198 15.0003 5.544 15.0003 7.198V9.198H9.00031V7.198ZM18.0003 17.198C18.0003 18.852 16.6543 20.198 15.0003 20.198H9.00031C7.34631 20.198 6.00031 18.852 6.00031 17.198V14.198C6.00031 12.544 7.34631 11.198 9.00031 11.198H15.0003C16.6543 11.198 18.0003 12.544 18.0003 14.198V17.198ZM13.0003 15.198V16.198C13.0003 16.751 12.5523 17.198 12.0003 17.198C11.4483 17.198 11.0003 16.751 11.0003 16.198V15.198C11.0003 14.645 11.4483 14.198 12.0003 14.198C12.5523 14.198 13.0003 14.645 13.0003 15.198Z" fill="#677A8E"/>
</svg>
