<svg width="25" height="25" viewBox="0 0 25 25" fill="none" xmlns="http://www.w3.org/2000/svg">
<path d="M22.5003 12.1982C22.5003 12.7512 22.0533 13.1982 21.5003 13.1982H5.91434L11.2073 18.4911C11.5983 18.8821 11.5983 19.5142 11.2073 19.9052C11.0123 20.1002 10.7563 20.1982 10.5003 20.1982C10.2443 20.1982 9.98837 20.1002 9.79337 19.9052L2.79337 12.9052C2.40237 12.5142 2.40237 11.8821 2.79337 11.4911L9.79337 4.49113C10.1844 4.10013 10.8163 4.10013 11.2073 4.49113C11.5983 4.88213 11.5983 5.51419 11.2073 5.90519L5.91434 11.1982H21.5003C22.0533 11.1982 22.5003 11.6452 22.5003 12.1982Z" fill="#677A8E"/>
</svg>
