<svg width="24" height="25" viewBox="0 0 24 25" fill="none" xmlns="http://www.w3.org/2000/svg">
<path d="M12.0003 2.198C6.48631 2.198 2.00031 6.684 2.00031 12.198C2.00031 17.712 6.48631 22.198 12.0003 22.198C17.5143 22.198 22.0003 17.712 22.0003 12.198C22.0003 6.684 17.5143 2.198 12.0003 2.198ZM12.0003 20.198C7.58931 20.198 4.00031 16.609 4.00031 12.198C4.00031 7.787 7.58931 4.198 12.0003 4.198C16.4113 4.198 20.0003 7.787 20.0003 12.198C20.0003 16.609 16.4113 20.198 12.0003 20.198ZM17.0003 8.198C17.0003 8.751 16.5523 9.198 16.0003 9.198H8.00031C7.44831 9.198 7.00031 8.751 7.00031 8.198C7.00031 7.645 7.44831 7.198 8.00031 7.198H16.0003C16.5523 7.198 17.0003 7.645 17.0003 8.198ZM15.5003 12.198C15.5003 12.751 15.0523 13.198 14.5003 13.198H9.50031C8.94831 13.198 8.50031 12.751 8.50031 12.198C8.50031 11.645 8.94831 11.198 9.50031 11.198H14.5003C15.0523 11.198 15.5003 11.645 15.5003 12.198ZM14.0003 16.198C14.0003 16.751 13.5523 17.198 13.0003 17.198H11.0003C10.4483 17.198 10.0003 16.751 10.0003 16.198C10.0003 15.645 10.4483 15.198 11.0003 15.198H13.0003C13.5523 15.198 14.0003 15.645 14.0003 16.198Z" fill="#677A8E"/>
</svg>
