<svg width="25" height="25" viewBox="0 0 25 25" fill="none" xmlns="http://www.w3.org/2000/svg">
<path d="M12.5002 2.198C6.98624 2.198 2.50024 6.684 2.50024 12.198C2.50024 17.712 6.98624 22.198 12.5002 22.198C18.0142 22.198 22.5002 17.712 22.5002 12.198C22.5002 6.684 18.0142 2.198 12.5002 2.198ZM12.5002 20.198C8.08924 20.198 4.50024 16.609 4.50024 12.198C4.50024 7.787 8.08924 4.198 12.5002 4.198C16.9112 4.198 20.5002 7.787 20.5002 12.198C20.5002 16.609 16.9112 20.198 12.5002 20.198ZM16.2072 12.491C16.5982 12.882 16.5982 13.514 16.2072 13.905C16.0122 14.1 15.7562 14.198 15.5002 14.198C15.2442 14.198 14.9883 14.1 14.7933 13.905L12.5002 11.6121L10.2072 13.905C9.81621 14.296 9.18427 14.296 8.79327 13.905C8.40227 13.514 8.40227 12.882 8.79327 12.491L11.7933 9.49097C12.1843 9.09997 12.8162 9.09997 13.2072 9.49097L16.2072 12.491Z" fill="#677A8E"/>
</svg>
