<svg width="25" height="25" viewBox="0 0 25 25" fill="none" xmlns="http://www.w3.org/2000/svg">
<path d="M4.22131 17.4781C3.90431 17.4781 3.59232 17.3282 3.39832 17.0472C2.81132 16.1982 2.50031 15.2131 2.50031 14.1971V10.1971C2.50031 7.44006 4.74331 5.19706 7.50031 5.19706H11.5003C12.5163 5.19706 13.5013 5.50803 14.3493 6.09403C14.8033 6.40803 14.9163 7.03212 14.6023 7.48612C14.2883 7.94112 13.6653 8.05305 13.2103 7.73905C12.6983 7.38505 12.1073 7.19706 11.5003 7.19706H7.50031C5.84631 7.19706 4.50031 8.54306 4.50031 10.1971V14.1971C4.50031 14.8031 4.6883 15.395 5.0423 15.908C5.3563 16.362 5.24331 16.9851 4.78931 17.3001C4.61631 17.4211 4.41731 17.4781 4.22131 17.4781ZM22.5003 9.43607V14.959C22.5003 15.771 22.0563 16.515 21.3403 16.897C21.0143 17.072 20.6563 17.159 20.3003 17.159C19.8743 17.159 19.4503 17.0361 19.0823 16.7911L16.4173 15.0201C16.0223 17.3851 13.9753 19.1971 11.5003 19.1971H7.50031C7.32031 19.1971 7.13633 19.1861 6.94733 19.1641L5.20728 20.9041C5.01228 21.0991 4.75631 21.1971 4.50031 21.1971C4.24431 21.1971 3.98833 21.0991 3.79333 20.9041C3.40233 20.5131 3.40233 19.881 3.79333 19.49L19.7933 3.49003C20.1843 3.09903 20.8163 3.09903 21.2073 3.49003C21.5983 3.88103 21.5983 4.51309 21.2073 4.90409L17.3703 8.741L19.0823 7.60306C19.7583 7.15306 20.6233 7.11211 21.3403 7.49711C22.0563 7.88111 22.5003 8.62407 22.5003 9.43607ZM14.5003 14.198V11.6121L8.91431 17.198H11.5003C13.1543 17.198 14.5003 15.852 14.5003 14.198ZM20.5003 9.43607C20.5003 9.35707 20.4653 9.29705 20.3953 9.26005C20.3243 9.22105 20.2543 9.22606 20.1893 9.27006L16.5003 11.722V12.6741L20.1893 15.126C20.2543 15.17 20.3243 15.175 20.3953 15.136C20.4653 15.099 20.5003 15.039 20.5003 14.96V9.43607Z" fill="#677A8E"/>
</svg>
