<svg width="25" height="25" viewBox="0 0 25 25" fill="none" xmlns="http://www.w3.org/2000/svg">
<path d="M17.8419 9.68168C17.7019 9.40109 17.7019 9.06637 17.8419 8.78478L20.3949 3.66906C20.5499 3.35841 20.533 2.98961 20.351 2.69399C20.169 2.39937 19.8469 2.21899 19.4999 2.21899H9.49994C6.74294 2.21899 4.49994 4.46671 4.49994 7.22951V21.2169C4.49994 21.7711 4.94794 22.219 5.49994 22.219C6.05194 22.219 6.49994 21.7711 6.49994 21.2169V16.2485H19.4999C19.8469 16.2485 20.168 16.0681 20.351 15.7725C20.534 15.4769 20.5499 15.1081 20.3949 14.7974L17.8419 9.68168ZM6.49994 14.2442V7.22951C6.49994 5.57203 7.84594 4.2232 9.49994 4.2232H17.8819L16.0529 7.88886C15.6329 8.73063 15.6329 9.73682 16.0529 10.5786L17.8819 14.2442H6.49994Z" fill="#677A8E"/>
</svg>
