<svg width="24" height="25" viewBox="0 0 24 25" fill="none" xmlns="http://www.w3.org/2000/svg">
<path d="M12.0003 16.198C14.7573 16.198 17.0003 13.955 17.0003 11.198V8.61206L20.7073 4.90503C21.0983 4.51403 21.0983 3.88197 20.7073 3.49097C20.3162 3.09997 19.6843 3.09997 19.2933 3.49097L15.2943 7.48999L15.2923 7.49194L3.29331 19.491C2.90231 19.882 2.90231 20.514 3.29331 20.905C3.48831 21.1 3.74428 21.198 4.00028 21.198C4.25628 21.198 4.51225 21.1 4.70725 20.905L7.68729 17.925C8.68429 18.567 9.81728 18.9779 11.0003 19.1279V20.198H8.00028C7.44828 20.198 7.00028 20.645 7.00028 21.198C7.00028 21.751 7.44828 22.198 8.00028 22.198H16.0003C16.5523 22.198 17.0003 21.751 17.0003 21.198C17.0003 20.645 16.5523 20.198 16.0003 20.198H13.0003V19.1289C16.9403 18.6339 20.0003 15.27 20.0003 11.198C20.0003 10.645 19.5523 10.198 19.0003 10.198C18.4483 10.198 18.0003 10.645 18.0003 11.198C18.0003 14.507 15.3093 17.198 12.0003 17.198C10.9953 17.198 10.0143 16.9381 9.14628 16.4661L9.89127 15.7209C10.5523 16.0309 11.2673 16.198 12.0003 16.198ZM15.0003 11.198C15.0003 12.852 13.6543 14.198 12.0003 14.198C11.8203 14.198 11.6433 14.177 11.4683 14.144L15.0003 10.6121V11.198ZM7.12125 12.302C7.04025 11.908 7.00028 11.548 7.00028 11.198V7.198C7.00028 5.875 7.51829 4.62002 8.45829 3.66602C9.42229 2.71602 10.6763 2.198 12.0003 2.198C13.6373 2.198 15.1703 3.0019 16.1023 4.3479C16.4163 4.8019 16.3033 5.42499 15.8493 5.73999C15.3953 6.05299 14.7723 5.94006 14.4583 5.48706C13.8993 4.67906 12.9813 4.198 12.0003 4.198C11.2053 4.198 10.4493 4.51108 9.87229 5.08008C9.31329 5.64708 9.00028 6.403 9.00028 7.198V11.198C9.00028 11.41 9.02626 11.637 9.07926 11.895C9.19126 12.436 8.84426 12.9649 8.30326 13.0779C8.23526 13.0919 8.16628 13.0989 8.09928 13.0989C7.63528 13.0979 7.21925 12.773 7.12125 12.302ZM4.89329 14.8799C4.30929 13.7589 4.00028 12.485 4.00028 11.198C4.00028 10.645 4.44828 10.198 5.00028 10.198C5.55228 10.198 6.00028 10.645 6.00028 11.198C6.00028 12.165 6.23027 13.1181 6.66727 13.9561C6.92227 14.4461 6.73229 15.0499 6.24229 15.3049C6.09529 15.3819 5.93629 15.418 5.78129 15.418C5.42029 15.418 5.07129 15.2219 4.89329 14.8799Z" fill="#677A8E"/>
</svg>
