<svg width="25" height="25" viewBox="0 0 25 25" fill="none" xmlns="http://www.w3.org/2000/svg">
<path d="M14.2072 9.90503L11.9142 12.198L14.2072 14.491C14.5982 14.882 14.5982 15.514 14.2072 15.905C14.0122 16.1 13.7562 16.198 13.5002 16.198C13.2442 16.198 12.9883 16.1 12.7933 15.905L9.79327 12.905C9.40227 12.514 9.40227 11.882 9.79327 11.491L12.7933 8.49097C13.1843 8.09997 13.8162 8.09997 14.2072 8.49097C14.5982 8.88197 14.5982 9.51403 14.2072 9.90503ZM22.5002 12.198C22.5002 17.712 18.0142 22.198 12.5002 22.198C6.98624 22.198 2.50024 17.712 2.50024 12.198C2.50024 6.684 6.98624 2.198 12.5002 2.198C18.0142 2.198 22.5002 6.684 22.5002 12.198ZM20.5002 12.198C20.5002 7.787 16.9112 4.198 12.5002 4.198C8.08924 4.198 4.50024 7.787 4.50024 12.198C4.50024 16.609 8.08924 20.198 12.5002 20.198C16.9112 20.198 20.5002 16.609 20.5002 12.198Z" fill="#677A8E"/>
</svg>
