<svg width="25" height="25" viewBox="0 0 25 25" fill="none" xmlns="http://www.w3.org/2000/svg">
<path d="M12.5003 2.198C6.98631 2.198 2.50031 6.684 2.50031 12.198C2.50031 17.712 6.98631 22.198 12.5003 22.198C18.0143 22.198 22.5003 17.712 22.5003 12.198C22.5003 6.684 18.0143 2.198 12.5003 2.198ZM12.5003 20.198C8.08931 20.198 4.50031 16.609 4.50031 12.198C4.50031 7.787 8.08931 4.198 12.5003 4.198C16.9113 4.198 20.5003 7.787 20.5003 12.198C20.5003 16.609 16.9113 20.198 12.5003 20.198ZM17.5003 16.198C17.5003 16.751 17.0523 17.198 16.5003 17.198H8.50031C7.94831 17.198 7.50031 16.751 7.50031 16.198C7.50031 15.645 7.94831 15.198 8.50031 15.198H16.5003C17.0523 15.198 17.5003 15.645 17.5003 16.198ZM9.00031 12.198C9.00031 11.645 9.44831 11.198 10.0003 11.198H15.0003C15.5523 11.198 16.0003 11.645 16.0003 12.198C16.0003 12.751 15.5523 13.198 15.0003 13.198H10.0003C9.44831 13.198 9.00031 12.751 9.00031 12.198ZM10.5003 8.198C10.5003 7.645 10.9483 7.198 11.5003 7.198H13.5003C14.0523 7.198 14.5003 7.645 14.5003 8.198C14.5003 8.751 14.0523 9.198 13.5003 9.198H11.5003C10.9483 9.198 10.5003 8.751 10.5003 8.198Z" fill="#677A8E"/>
</svg>
