<svg width="25" height="25" viewBox="0 0 25 25" fill="none" xmlns="http://www.w3.org/2000/svg">
<path d="M17.5003 2.198H7.50031C4.74331 2.198 2.50031 4.441 2.50031 7.198V20.198C2.50031 20.602 2.74431 20.9681 3.11731 21.1221C3.24131 21.1741 3.37131 21.198 3.50031 21.198C3.76031 21.198 4.01631 21.096 4.20731 20.905L6.62131 18.491C6.81031 18.303 7.06132 18.198 7.32932 18.198H17.5003C20.2573 18.198 22.5003 15.955 22.5003 13.198V7.198C22.5003 4.441 20.2573 2.198 17.5003 2.198ZM20.5003 13.198C20.5003 14.852 19.1543 16.198 17.5003 16.198H7.32932C6.52832 16.198 5.77431 16.5099 5.20731 17.0769L4.50031 17.7839V7.198C4.50031 5.544 5.84631 4.198 7.50031 4.198H17.5003C19.1543 4.198 20.5003 5.544 20.5003 7.198V13.198Z" fill="#677A8E"/>
</svg>
