<svg width="25" height="25" viewBox="0 0 25 25" fill="none" xmlns="http://www.w3.org/2000/svg">
<path d="M18.9433 8.16895L20.2073 6.90503C20.5983 6.51403 20.5983 5.88197 20.2073 5.49097C19.8163 5.09997 19.1843 5.09997 18.7933 5.49097L17.4683 6.81604C16.3243 5.98804 14.9713 5.43594 13.5003 5.26294V4.198H14.5003C15.0523 4.198 15.5003 3.751 15.5003 3.198C15.5003 2.645 15.0523 2.198 14.5003 2.198H10.5003C9.94831 2.198 9.50031 2.645 9.50031 3.198C9.50031 3.751 9.94831 4.198 10.5003 4.198H11.5003V5.26196C7.28331 5.75896 4.00031 9.35 4.00031 13.698C4.00031 18.385 7.81331 22.198 12.5003 22.198C17.1873 22.198 21.0003 18.385 21.0003 13.698C21.0003 11.587 20.2223 9.65695 18.9433 8.16895ZM12.5003 20.198C8.91631 20.198 6.00031 17.282 6.00031 13.698C6.00031 10.114 8.91631 7.198 12.5003 7.198C16.0843 7.198 19.0003 10.114 19.0003 13.698C19.0003 17.282 16.0843 20.198 12.5003 20.198ZM15.2813 15.573C15.6263 16.005 15.5563 16.634 15.1253 16.979C14.9413 17.126 14.7203 17.198 14.5013 17.198C14.2083 17.198 13.9173 17.07 13.7203 16.823L11.7203 14.323C11.5783 14.145 11.5013 13.926 11.5013 13.698V10.198C11.5013 9.645 11.9493 9.198 12.5013 9.198C13.0533 9.198 13.5013 9.645 13.5013 10.198V13.347L15.2813 15.573Z" fill="#677A8E"/>
</svg>
