<svg width="25" height="25" viewBox="0 0 25 25" fill="none" xmlns="http://www.w3.org/2000/svg">
<path d="M18.0873 9.37097L17.5003 8.78406L17.5013 6.56201C18.1853 5.63401 18.5003 4.224 18.5003 3.198C18.5003 2.646 18.0533 2.198 17.5003 2.198H7.50031C6.94731 2.198 6.50031 2.646 6.50031 3.198C6.50031 4.224 6.81531 5.63501 7.50031 6.56201V8.78406L6.91333 9.37097C5.35733 10.927 4.50031 12.996 4.50031 15.198C4.50031 15.464 4.60533 15.718 4.79333 15.905C4.98133 16.092 5.23531 16.198 5.50031 16.198H11.5003V21.198C11.5003 21.751 11.9473 22.198 12.5003 22.198C13.0533 22.198 13.5003 21.751 13.5003 21.198V16.198H19.5003C20.0533 16.198 20.5003 15.751 20.5003 15.198C20.5003 12.996 19.6433 10.927 18.0873 9.37097ZM6.57928 14.197C6.78528 12.91 7.38833 11.724 8.32733 10.785L9.20728 9.90503C9.39528 9.71703 9.50031 9.463 9.50031 9.198L9.49933 6.19702C9.49933 5.93102 9.3943 5.67699 9.2063 5.48999C8.9673 5.25099 8.75031 4.75 8.62231 4.198H16.3783C16.2493 4.75 16.0333 5.25097 15.7933 5.49097C15.6053 5.67897 15.5003 5.932 15.5003 6.198V9.198C15.5003 9.464 15.6053 9.71803 15.7933 9.90503L16.6733 10.785C17.6123 11.724 18.2153 12.911 18.4213 14.198L6.57928 14.197Z" fill="#677A8E"/>
</svg>
