<svg width="25" height="25" viewBox="0 0 25 25" fill="none" xmlns="http://www.w3.org/2000/svg">
<path d="M9.50031 4.198C8.39574 4.198 7.50031 5.09343 7.50031 6.198C7.50031 7.30257 8.39574 8.198 9.50031 8.198C10.6049 8.198 11.5003 7.30257 11.5003 6.198C11.5003 5.09343 10.6049 4.198 9.50031 4.198Z" fill="#677A8E"/>
<path d="M15.5003 4.198C14.3957 4.198 13.5003 5.09343 13.5003 6.198C13.5003 7.30257 14.3957 8.198 15.5003 8.198C16.6049 8.198 17.5003 7.30257 17.5003 6.198C17.5003 5.09343 16.6049 4.198 15.5003 4.198Z" fill="#677A8E"/>
<path d="M7.50031 12.198C7.50031 11.0934 8.39574 10.198 9.50031 10.198C10.6049 10.198 11.5003 11.0934 11.5003 12.198C11.5003 13.3026 10.6049 14.198 9.50031 14.198C8.39574 14.198 7.50031 13.3026 7.50031 12.198Z" fill="#677A8E"/>
<path d="M15.5003 10.198C14.3957 10.198 13.5003 11.0934 13.5003 12.198C13.5003 13.3026 14.3957 14.198 15.5003 14.198C16.6049 14.198 17.5003 13.3026 17.5003 12.198C17.5003 11.0934 16.6049 10.198 15.5003 10.198Z" fill="#677A8E"/>
<path d="M7.50031 18.198C7.50031 17.0934 8.39574 16.198 9.50031 16.198C10.6049 16.198 11.5003 17.0934 11.5003 18.198C11.5003 19.3026 10.6049 20.198 9.50031 20.198C8.39574 20.198 7.50031 19.3026 7.50031 18.198Z" fill="#677A8E"/>
<path d="M15.5003 16.198C14.3957 16.198 13.5003 17.0934 13.5003 18.198C13.5003 19.3026 14.3957 20.198 15.5003 20.198C16.6049 20.198 17.5003 19.3026 17.5003 18.198C17.5003 17.0934 16.6049 16.198 15.5003 16.198Z" fill="#677A8E"/>
</svg>
