<svg width="24" height="25" viewBox="0 0 24 25" fill="none" xmlns="http://www.w3.org/2000/svg">
<path d="M12.0003 13.198C15.0333 13.198 17.5003 10.73 17.5003 7.698C17.5003 4.666 15.0333 2.198 12.0003 2.198C8.96731 2.198 6.50031 4.666 6.50031 7.698C6.50031 10.73 8.96731 13.198 12.0003 13.198ZM12.0003 4.198C13.9303 4.198 15.5003 5.768 15.5003 7.698C15.5003 9.628 13.9303 11.198 12.0003 11.198C10.0703 11.198 8.50031 9.628 8.50031 7.698C8.50031 5.768 10.0703 4.198 12.0003 4.198ZM20.0003 18.165V19.176C20.0003 20.172 19.6363 21.127 18.9753 21.865C18.7773 22.086 18.5043 22.198 18.2293 22.198C17.9923 22.198 17.7533 22.114 17.5623 21.943C17.1503 21.575 17.1163 20.942 17.4843 20.531C17.8163 20.16 17.9993 19.678 17.9993 19.176V18.165C17.9993 16.766 17.0723 15.556 15.7463 15.223C15.5543 15.175 15.3493 15.199 15.1853 15.293C13.2043 16.395 10.7863 16.389 8.82428 15.299C8.65128 15.2 8.44731 15.175 8.25531 15.223C6.92631 15.556 6.00031 16.766 6.00031 18.165V19.176C6.00031 19.679 6.18332 20.16 6.51532 20.531C6.88332 20.942 6.84832 21.575 6.43732 21.943C6.02532 22.312 5.39333 22.276 5.02533 21.865C4.36433 21.127 4.00031 20.172 4.00031 19.176V18.165C4.00031 15.848 5.54933 13.84 7.76733 13.283C8.45433 13.108 9.19834 13.209 9.80634 13.556C11.1553 14.304 12.8363 14.31 14.2043 13.55C14.8033 13.207 15.5473 13.107 16.2353 13.282C18.4513 13.84 20.0003 15.847 20.0003 18.165Z" fill="#677A8E"/>
</svg>
