<svg width="25" height="25" viewBox="0 0 25 25" fill="none" xmlns="http://www.w3.org/2000/svg">
<path d="M23.0005 11.3253H21.5005C21.4983 9.33686 20.7074 7.43048 19.3014 6.02443C17.8953 4.61838 15.9889 3.8275 14.0005 3.82532V2.32532C16.3866 2.3281 18.6742 3.2772 20.3614 4.96443C22.0486 6.65165 22.9977 8.93922 23.0005 11.3253Z" fill="#677A8E"/>
<path d="M20.0005 11.3253H18.5005C18.4991 10.1323 18.0245 8.98848 17.1809 8.14487C16.3373 7.30126 15.1935 6.82671 14.0005 6.82532V5.32532C15.5912 5.3273 17.1161 5.96008 18.2409 7.08487C19.3657 8.20966 19.9985 9.73463 20.0005 11.3253ZM12.5005 21.8253V19.5453C13.4794 19.6463 14.4686 19.5519 15.4108 19.2677C16.353 18.9834 17.2293 18.5149 17.989 17.8893C18.1388 17.7672 18.2615 17.6151 18.349 17.4428C18.4366 17.2705 18.4872 17.0818 18.4975 16.8888C18.5067 16.7008 18.4765 16.5129 18.4088 16.3373C18.3412 16.1616 18.2375 16.002 18.1045 15.8688L14.311 12.0753L16.2505 10.1358L15.19 9.07532L13.2505 11.0148L9.45699 7.22057C9.3233 7.08826 9.16364 6.9851 8.98808 6.91759C8.81252 6.85008 8.62488 6.81968 8.43699 6.82832C8.2439 6.83858 8.0551 6.88921 7.88277 6.97692C7.71045 7.06463 7.55842 7.18749 7.43649 7.33757C6.41019 8.58819 5.81778 10.1383 5.74839 11.7546C5.67901 13.3709 6.13639 14.9661 7.05174 16.3001L5.21049 21.8253H2.00049V23.3253H23.0005V21.8253H12.5005ZM8.51049 8.39582L16.93 16.8153C15.7754 17.711 14.3336 18.1547 12.8752 18.063C11.4167 17.9713 10.0419 17.3505 9.00858 16.3172C7.97527 15.2839 7.35453 13.9091 7.26283 12.4506C7.17112 10.9922 7.61476 9.55042 8.51049 8.39582ZM11.0005 21.8253H6.79074L8.19774 17.6051C9.00206 18.3456 9.95869 18.901 11.0005 19.2326V21.8253Z" fill="#677A8E"/>
</svg>
