<svg width="25" height="25" viewBox="0 0 25 25" fill="none" xmlns="http://www.w3.org/2000/svg">
<path d="M12.5003 16.198C15.2573 16.198 17.5003 13.955 17.5003 11.198V7.198C17.5003 4.441 15.2573 2.198 12.5003 2.198C9.74331 2.198 7.50031 4.441 7.50031 7.198V11.198C7.50031 13.955 9.74331 16.198 12.5003 16.198ZM9.50031 7.198C9.50031 5.544 10.8463 4.198 12.5003 4.198C14.1543 4.198 15.5003 5.544 15.5003 7.198V11.198C15.5003 12.852 14.1543 14.198 12.5003 14.198C10.8463 14.198 9.50031 12.852 9.50031 11.198V7.198ZM13.5003 19.1289V20.198H16.5003C17.0523 20.198 17.5003 20.645 17.5003 21.198C17.5003 21.751 17.0523 22.198 16.5003 22.198H8.50031C7.94831 22.198 7.50031 21.751 7.50031 21.198C7.50031 20.645 7.94831 20.198 8.50031 20.198H11.5003V19.1289C7.56031 18.6339 4.50031 15.27 4.50031 11.198C4.50031 10.645 4.94831 10.198 5.50031 10.198C6.05231 10.198 6.50031 10.645 6.50031 11.198C6.50031 14.507 9.19131 17.198 12.5003 17.198C15.8093 17.198 18.5003 14.507 18.5003 11.198C18.5003 10.645 18.9483 10.198 19.5003 10.198C20.0523 10.198 20.5003 10.645 20.5003 11.198C20.5003 15.27 17.4403 18.6339 13.5003 19.1289Z" fill="#677A8E"/>
</svg>
