<svg width="25" height="25" viewBox="0 0 25 25" fill="none" xmlns="http://www.w3.org/2000/svg">
<path d="M21.0553 10.6655L19.2152 12.5055C18.824 12.8965 18.1916 12.8965 17.8004 12.5055C17.4092 12.1145 17.4092 11.4824 17.8004 11.0914L19.6405 9.25146C20.7941 8.09746 20.7941 6.22043 19.6405 5.06543C18.5218 3.94643 16.5718 3.94643 15.4541 5.06543L12.0932 8.42444C11.9751 8.54244 11.8851 8.65048 11.826 8.74048C10.9275 9.96448 11.0546 11.5715 12.0942 12.6105C12.4844 13.0015 12.4844 13.6345 12.0942 14.0245C11.8991 14.2195 11.6429 14.3174 11.3868 14.3174C11.1307 14.3174 10.8745 14.2195 10.6784 14.0245C8.9354 12.2815 8.7263 9.58149 10.1801 7.60449C10.2832 7.44349 10.4562 7.2325 10.6774 7.0105L14.0393 3.65051C14.9758 2.71351 16.2225 2.19751 17.5473 2.19751C18.872 2.19751 20.1188 2.71451 21.0563 3.65051C22.9894 5.58551 22.9894 8.73153 21.0553 10.6655ZM12.9187 10.3715C12.5275 10.7625 12.5275 11.3945 12.9187 11.7855C13.7361 12.6025 14.0033 13.7815 13.6071 14.8835C13.476 15.2765 13.2379 15.6534 12.9187 15.9724L9.55776 19.3315C8.44013 20.4505 6.49 20.4505 5.37136 19.3315C4.21771 18.1775 4.21771 16.3005 5.37136 15.1455L7.2114 13.3055C7.60262 12.9145 7.60262 12.2825 7.2114 11.8915C6.82017 11.5005 6.18781 11.5005 5.79659 11.8915L3.95656 13.7314C2.02246 15.6654 2.02246 18.8116 3.95656 20.7456C4.89409 21.6826 6.13982 22.1985 7.46557 22.1985C8.79132 22.1985 10.037 21.6816 10.9735 20.7456L14.3345 17.3865C14.8728 16.8475 15.278 16.2006 15.4981 15.5376C16.1415 13.7496 15.6853 11.7225 14.3335 10.3715C13.9433 9.98046 13.3089 9.98046 12.9187 10.3715Z" fill="#677A8E"/>
</svg>
