<svg width="25" height="25" viewBox="0 0 25 25" fill="none" xmlns="http://www.w3.org/2000/svg">
<path d="M17.2073 9.49097C17.5983 9.88197 17.5983 10.514 17.2073 10.905L12.2073 15.905C12.0123 16.1 11.7563 16.198 11.5003 16.198C11.2443 16.198 10.9883 16.1 10.7933 15.905L7.7933 12.905C7.4023 12.514 7.4023 11.882 7.7933 11.491C8.1843 11.1 8.81631 11.1 9.20731 11.491L11.5003 13.7841L15.7933 9.49097C16.1843 9.09997 16.8163 9.09997 17.2073 9.49097ZM22.5003 12.198C22.5003 17.712 18.0143 22.198 12.5003 22.198C6.98631 22.198 2.50031 17.712 2.50031 12.198C2.50031 6.684 6.98631 2.198 12.5003 2.198C18.0143 2.198 22.5003 6.684 22.5003 12.198ZM20.5003 12.198C20.5003 7.787 16.9113 4.198 12.5003 4.198C8.08931 4.198 4.50031 7.787 4.50031 12.198C4.50031 16.609 8.08931 20.198 12.5003 20.198C16.9113 20.198 20.5003 16.609 20.5003 12.198Z" fill="#677A8E"/>
</svg>
