<svg width="25" height="25" viewBox="0 0 25 25" fill="none" xmlns="http://www.w3.org/2000/svg">
<path d="M21.5003 5.198H17.9413C17.5103 5.198 17.1293 4.92401 16.9923 4.51501L16.6763 3.56494C16.4033 2.74794 15.6403 2.198 14.7793 2.198H10.2203C9.35828 2.198 8.5953 2.74804 8.3233 3.56604L8.00732 4.51404C7.87132 4.92304 7.48929 5.198 7.05829 5.198H3.50031C2.94831 5.198 2.50031 5.645 2.50031 6.198C2.50031 6.751 2.94831 7.198 3.50031 7.198H4.56531L5.31628 18.464C5.45528 20.558 7.20831 22.198 9.30731 22.198H15.6943C17.7933 22.198 19.5463 20.557 19.6853 18.464L20.4363 7.198H21.5003C22.0523 7.198 22.5003 6.751 22.5003 6.198C22.5003 5.645 22.0523 5.198 21.5003 5.198ZM10.2213 4.198L14.7803 4.19702L15.0963 5.14697C15.1023 5.16497 15.1113 5.18 15.1183 5.198H9.88428C9.89028 5.18 9.90031 5.164 9.90631 5.146L10.2213 4.198ZM17.6893 18.3311C17.6193 19.3781 16.7433 20.198 15.6933 20.198H9.30634C8.25734 20.198 7.3803 19.3781 7.3103 18.3311L6.56927 7.198H7.05933C7.16633 7.198 7.27128 7.18397 7.37628 7.17297C7.41928 7.17897 7.45628 7.198 7.50128 7.198H17.5013C17.5453 7.198 17.5833 7.17797 17.6263 7.17297C17.7313 7.18397 17.8353 7.198 17.9433 7.198H18.4333L17.6893 18.3311ZM15.5003 11.198V16.198C15.5003 16.751 15.0523 17.198 14.5003 17.198C13.9483 17.198 13.5003 16.751 13.5003 16.198V11.198C13.5003 10.645 13.9483 10.198 14.5003 10.198C15.0523 10.198 15.5003 10.645 15.5003 11.198ZM11.5003 11.198V16.198C11.5003 16.751 11.0523 17.198 10.5003 17.198C9.94831 17.198 9.50031 16.751 9.50031 16.198V11.198C9.50031 10.645 9.94831 10.198 10.5003 10.198C11.0523 10.198 11.5003 10.645 11.5003 11.198Z" fill="#677A8E"/>
</svg>
