<svg width="24" height="25" viewBox="0 0 24 25" fill="none" xmlns="http://www.w3.org/2000/svg">
<path d="M19.4251 5.27962C18.4518 4.29673 17.2939 3.51582 16.018 2.98177C14.742 2.44771 13.3731 2.17104 11.9898 2.16763C10.6066 2.16423 9.23634 2.43416 7.95775 2.96193C6.67917 3.4897 5.51746 4.26489 4.53937 5.24298C3.56128 6.22107 2.78608 7.38278 2.25832 8.66137C1.73055 9.93995 1.46062 11.3102 1.46402 12.6934C1.46743 14.0767 1.7441 15.4456 2.27815 16.7216C2.81221 17.9975 3.59311 19.1554 4.57601 20.1287C5.54927 21.1116 6.70715 21.8925 7.98312 22.4265C9.2591 22.9606 10.628 23.2373 12.0112 23.2407C13.3945 23.2441 14.7647 22.9741 16.0433 22.4464C17.3219 21.9186 18.4836 21.1434 19.4617 20.1653C20.4398 19.1872 21.215 18.0255 21.7428 16.7469C22.2705 15.4683 22.5405 14.0981 22.5371 12.7149C22.5336 11.3316 22.257 9.96271 21.7229 8.68674C21.1889 7.41076 20.408 6.25288 19.4251 5.27962ZM3.00054 12.7042C3.0002 11.9076 3.10581 11.1146 3.3146 10.3459C3.65866 11.0865 4.15835 11.7263 4.49819 12.4862C4.93741 13.4631 6.11679 13.1921 6.63757 14.0481C7.09976 14.8079 6.60616 15.7688 6.9521 16.5638C7.20335 17.1409 7.79585 17.267 8.2046 17.6888C8.62226 18.1145 8.61335 18.6976 8.6771 19.2526C8.74904 19.9047 8.86572 20.551 9.02632 21.1871C9.02632 21.1918 9.02632 21.197 9.03007 21.2017C5.52241 19.9698 3.00054 16.6262 3.00054 12.7042ZM12.0005 21.7042C11.4979 21.704 10.9962 21.662 10.5005 21.5785C10.5057 21.4515 10.508 21.3329 10.5207 21.2504C10.6346 20.5051 11.0077 19.7762 11.5112 19.2184C12.0085 18.6681 12.6901 18.2959 13.1101 17.6715C13.5216 17.0621 13.6449 16.2418 13.4752 15.5298C13.2254 14.4779 11.7962 14.1268 11.0255 13.5563C10.5826 13.2282 10.1883 12.721 9.60663 12.6798C9.33851 12.661 9.11397 12.7187 8.84819 12.6502C8.60444 12.587 8.41319 12.4557 8.15351 12.4899C7.66835 12.5537 7.36226 13.0721 6.84101 13.0018C6.34647 12.9357 5.83694 12.3568 5.72444 11.8857C5.58007 11.2801 6.05913 11.0837 6.57241 11.0298C6.78663 11.0073 7.0271 10.9829 7.23288 11.0616C7.50382 11.162 7.63179 11.4273 7.87507 11.5613C8.33116 11.8116 8.42351 11.4118 8.35366 11.0068C8.24913 10.4002 8.12726 10.1532 8.66819 9.73556C9.04319 9.44774 9.36382 9.23962 9.30382 8.72259C9.26819 8.41884 9.10179 8.28149 9.25694 7.97915C9.3746 7.74899 9.69757 7.54134 9.90804 7.40399C10.4513 7.04962 12.2354 7.07587 11.5065 6.08399C11.2923 5.7929 10.8971 5.27259 10.5221 5.20134C10.0533 5.11274 9.84522 5.63587 9.51851 5.86649C9.18101 6.10509 8.52382 6.37603 8.18585 6.00712C7.73116 5.51071 8.48726 5.34806 8.6546 5.00118C8.73194 4.83946 8.6546 4.61493 8.52429 4.40353C8.69335 4.33228 8.86522 4.26618 9.03991 4.20524C9.14939 4.2861 9.27926 4.3348 9.41491 4.34587C9.72851 4.36649 10.0243 4.19681 10.298 4.41056C10.6018 4.64493 10.8207 4.94118 11.2238 5.01431C11.6138 5.08509 12.0268 4.85774 12.1233 4.45837C12.1819 4.21556 12.1234 3.95915 12.0671 3.70837C13.8202 3.71846 15.5318 4.24349 16.989 5.21821C16.8952 5.18259 16.7832 5.18681 16.6449 5.25102C16.3604 5.38321 15.9573 5.71978 15.924 6.05352C15.886 6.43228 16.4448 6.48571 16.7101 6.48571C17.1085 6.48571 17.5121 6.30759 17.3837 5.84728C17.3279 5.64759 17.2519 5.43993 17.1296 5.31431C17.4237 5.51838 17.7054 5.73971 17.9734 5.97712C17.9691 5.98134 17.9649 5.98509 17.9607 5.98978C17.6907 6.27103 17.3771 6.49368 17.1924 6.83587C17.0621 7.07681 16.9154 7.19118 16.6515 7.25353C16.5062 7.28774 16.3402 7.3004 16.2184 7.3979C15.879 7.66509 16.0721 8.30727 16.3937 8.49993C16.8001 8.74321 17.4029 8.62884 17.7094 8.28149C17.949 8.00962 18.0901 7.53759 18.5209 7.53806C18.7105 7.53766 18.8927 7.61192 19.028 7.74478C19.2062 7.92946 19.171 8.10196 19.209 8.33259C19.276 8.74227 19.6374 8.52009 19.8573 8.31337C20.0175 8.59857 20.1621 8.89228 20.2904 9.19321C20.0485 9.54149 19.8563 9.92118 19.2746 9.51524C18.9263 9.27196 18.7121 8.91899 18.2748 8.80931C17.8927 8.71556 17.5013 8.81306 17.124 8.87821C16.6951 8.95274 16.1865 8.98556 15.8612 9.3104C15.5466 9.62352 15.3802 10.0426 15.0455 10.3571C14.3982 10.9665 14.1249 11.6316 14.544 12.4932C14.9471 13.3215 15.7904 13.771 16.7002 13.712C17.5941 13.6524 18.5227 13.134 18.4969 14.4329C18.4876 14.8927 18.5837 15.211 18.7248 15.6381C18.8555 16.0318 18.8466 16.4134 18.8766 16.8198C18.9052 17.2957 18.9796 17.7677 19.0988 18.2293C18.2586 19.3111 17.1823 20.1865 15.9521 20.7887C14.7219 21.391 13.3703 21.7041 12.0005 21.7042Z" fill="#677A8E"/>
</svg>
