<svg width="25" height="25" viewBox="0 0 25 25" fill="none" xmlns="http://www.w3.org/2000/svg">
<path d="M21.0437 3.65808C20.1557 3.11708 19.0737 3.076 18.1497 3.552L15.9387 4.68701C15.6607 4.83001 15.3407 4.83001 15.0627 4.68701L10.8517 2.52502C10.4347 2.31102 9.97771 2.20503 9.51971 2.20203C9.51271 2.20203 9.5077 2.198 9.5007 2.198C9.4937 2.198 9.48872 2.20203 9.48172 2.20203C9.02372 2.20503 8.56671 2.31102 8.14871 2.52502L4.70172 4.29602C3.34372 4.99302 2.49969 6.39004 2.49969 7.94104V18.1179C2.49969 19.2009 3.0447 20.18 3.9577 20.738C4.8457 21.279 5.92672 21.32 6.85172 20.844L9.06271 19.709C9.34071 19.566 9.66072 19.566 9.93872 19.709L14.1497 21.8711C14.5687 22.0861 15.0287 22.194 15.4887 22.196C15.4927 22.196 15.4967 22.198 15.5007 22.198C15.5047 22.198 15.5087 22.196 15.5127 22.196C15.9727 22.194 16.4327 22.0861 16.8517 21.8711L20.2987 20.1001C21.6567 19.4031 22.5007 18.0061 22.5007 16.4551V6.27808C22.5017 5.19508 21.9567 4.21608 21.0437 3.65808ZM5.9397 19.063C5.5067 19.285 5.13971 19.1131 5.00171 19.0291C4.68971 18.8381 4.50171 18.497 4.50171 18.116V7.93896C4.50171 7.14096 4.9287 6.42597 5.6167 6.07397L8.50171 4.59204V17.7981C8.38471 17.8401 8.2627 17.87 8.1507 17.928L5.9397 19.063ZM10.8527 17.928C10.7407 17.87 10.6187 17.8411 10.5017 17.7981V4.59106L14.1507 6.46497C14.2627 6.52297 14.3847 6.55197 14.5017 6.59497V19.802L10.8527 17.928ZM20.5017 16.4551C20.5017 17.2531 20.0747 17.9681 19.3867 18.3201L16.5017 19.802V6.59497C16.6187 6.55297 16.7407 6.52297 16.8527 6.46497L19.0637 5.33008C19.4957 5.10708 19.8637 5.28001 20.0017 5.36401C20.3137 5.55501 20.5017 5.89598 20.5017 6.27698V16.4551Z" fill="#677A8E"/>
</svg>
