<svg width="25" height="25" viewBox="0 0 25 25" fill="none" xmlns="http://www.w3.org/2000/svg">
<path d="M13.5002 8.81685C13.5002 6.05685 10.5002 4.58948 8.22311 4.58948C6.09202 4.58948 4.14624 5.23812 2.50024 8.81685H4.50024L5.50024 7.81685L6.50024 8.81685H10.5002M13.5002 7.95685C14.5129 7.2082 15.741 6.80818 17.0002 6.81685C20.0402 6.81685 22.5002 9.05685 22.5002 11.8168H19.5002L18.5002 10.8168L17.5002 11.8168H14.5002" stroke="#677A8E" stroke-width="1.5" stroke-linecap="round" stroke-linejoin="round"/>
<path d="M6.39021 10.5269C4.24021 12.6769 4.09021 15.9969 6.04021 17.9569C6.04021 17.9569 7.34775 14.2199 9.13715 12.5918C10.6566 11.2094 13.8102 10.1769 13.8102 10.1769C11.8602 8.21687 8.54021 8.37687 6.39021 10.5269Z" stroke="#677A8E" stroke-width="1.5" stroke-linecap="round" stroke-linejoin="round"/>
<path d="M12.5066 10.7146C13.0066 13.2146 12.9348 20.759 10.5002 22.8169H14.5002C16.5002 17.3169 14.0002 10.8169 13.5002 8.81689" stroke="#677A8E" stroke-width="1.5" stroke-linecap="round" stroke-linejoin="round"/>
</svg>
