<svg width="25" height="25" viewBox="0 0 25 25" fill="none" xmlns="http://www.w3.org/2000/svg">
<path fill-rule="evenodd" clip-rule="evenodd" d="M13.5003 18.198C14.0307 18.198 14.5394 18.4087 14.9145 18.7838C15.2896 19.1589 15.5003 19.6676 15.5003 20.198C15.5003 20.7284 15.2896 21.2371 14.9145 21.6122C14.5394 21.9873 14.0307 22.198 13.5003 22.198C12.9699 22.198 12.4612 21.9873 12.0861 21.6122C11.711 21.2371 11.5003 20.7284 11.5003 20.198C11.5003 19.6676 11.711 19.1589 12.0861 18.7838C12.4612 18.4087 12.9699 18.198 13.5003 18.198ZM7.24131 15.198C7.90435 15.198 8.54023 15.4614 9.00907 15.9302C9.47791 16.3991 9.74131 17.035 9.74131 17.698C9.74131 18.361 9.47791 18.9969 9.00907 19.4658C8.54023 19.9346 7.90435 20.198 7.24131 20.198C6.57826 20.198 5.94238 19.9346 5.47354 19.4658C5.0047 18.9969 4.74131 18.361 4.74131 17.698C4.74131 17.035 5.0047 16.3991 5.47354 15.9302C5.94238 15.4614 6.57826 15.198 7.24131 15.198ZM18.8193 15.698C19.3497 15.698 19.8584 15.9087 20.2335 16.2838C20.6086 16.6589 20.8193 17.1676 20.8193 17.698C20.8193 18.2284 20.6086 18.7371 20.2335 19.1122C19.8584 19.4873 19.3497 19.698 18.8193 19.698C18.2889 19.698 17.7802 19.4873 17.4051 19.1122C17.03 18.7371 16.8193 18.2284 16.8193 17.698C16.8193 17.1676 17.03 16.6589 17.4051 16.2838C17.7802 15.9087 18.2889 15.698 18.8193 15.698ZM21.0003 11.517C21.3981 11.517 21.7797 11.675 22.061 11.9563C22.3423 12.2376 22.5003 12.6192 22.5003 13.017C22.5003 13.4148 22.3423 13.7964 22.061 14.0777C21.7797 14.359 21.3981 14.517 21.0003 14.517C20.6025 14.517 20.221 14.359 19.9396 14.0777C19.6583 13.7964 19.5003 13.4148 19.5003 13.017C19.5003 12.6192 19.6583 12.2376 19.9396 11.9563C20.221 11.675 20.6025 11.517 21.0003 11.517ZM5.00031 8.198C5.66335 8.198 6.29923 8.46139 6.76807 8.93023C7.23691 9.39907 7.50031 10.035 7.50031 10.698C7.50031 11.361 7.23691 11.9969 6.76807 12.4658C6.29923 12.9346 5.66335 13.198 5.00031 13.198C4.33726 13.198 3.70138 12.9346 3.23254 12.4658C2.7637 11.9969 2.50031 11.361 2.50031 10.698C2.50031 10.035 2.7637 9.39907 3.23254 8.93023C3.70138 8.46139 4.33726 8.198 5.00031 8.198ZM20.2863 7.405C20.5515 7.405 20.8059 7.51035 20.9934 7.69789C21.1809 7.88543 21.2863 8.13978 21.2863 8.405C21.2863 8.67021 21.1809 8.92457 20.9934 9.1121C20.8059 9.29964 20.5515 9.405 20.2863 9.405C20.0211 9.405 19.7667 9.29964 19.5792 9.1121C19.3917 8.92457 19.2863 8.67021 19.2863 8.405C19.2863 8.13978 19.3917 7.88543 19.5792 7.69789C19.7667 7.51035 20.0211 7.405 20.2863 7.405ZM10.5003 2.198C11.296 2.198 12.059 2.51407 12.6216 3.07668C13.1842 3.63929 13.5003 4.40235 13.5003 5.198C13.5003 5.99365 13.1842 6.75671 12.6216 7.31932C12.059 7.88193 11.296 8.198 10.5003 8.198C9.70466 8.198 8.94159 7.88193 8.37898 7.31932C7.81638 6.75671 7.50031 5.99365 7.50031 5.198C7.50031 4.40235 7.81638 3.63929 8.37898 3.07668C8.94159 2.51407 9.70466 2.198 10.5003 2.198V2.198ZM18.0003 5.198C18.1329 5.198 18.2601 5.25068 18.3539 5.34444C18.4476 5.43821 18.5003 5.56539 18.5003 5.698C18.5003 5.83061 18.4476 5.95778 18.3539 6.05155C18.2601 6.14532 18.1329 6.198 18.0003 6.198C17.8677 6.198 17.7405 6.14532 17.6468 6.05155C17.553 5.95778 17.5003 5.83061 17.5003 5.698C17.5003 5.56539 17.553 5.43821 17.6468 5.34444C17.7405 5.25068 17.8677 5.198 18.0003 5.198Z" fill="#677A8E"/>
</svg>
