<svg width="25" height="25" viewBox="0 0 25 25" fill="none" xmlns="http://www.w3.org/2000/svg">
<path d="M20.3548 2.27075H4.64575C3.22757 2.27075 2.13666 3.41621 2.13666 4.77984V15.9617C2.13666 17.3253 3.22757 18.4708 4.64575 18.4708H20.4094C21.773 18.4708 22.9185 17.3798 22.9185 15.9617V4.77984C22.9185 3.41621 21.773 2.27075 20.3548 2.27075ZM21.5003 15.9617C21.5003 16.5617 21.0094 17.0526 20.4094 17.0526H4.70029C4.10029 17.0526 3.60938 16.5617 3.60938 15.9617V4.77984C3.60938 4.17984 4.10029 3.68893 4.70029 3.68893H20.4639C21.0639 3.68893 21.5548 4.17984 21.5548 4.77984V15.9617H21.5003ZM19.7003 20.7071H15.773V20.3253C15.773 19.9435 15.5003 19.7253 15.173 19.7253H9.44575C9.06393 19.7253 8.84575 19.998 8.84575 20.3253V20.7071H4.91848C4.53666 20.7071 4.20938 21.0344 4.20938 21.4162C4.20938 21.798 4.53666 22.1253 4.91848 22.1253H19.7003C20.0821 22.1253 20.4094 21.798 20.4094 21.4162C20.4094 20.9798 20.1367 20.7071 19.7003 20.7071Z" fill="#677A8E"/>
<path d="M13.5337 10.9679C13.2047 11.2935 13.2078 11.826 13.5406 12.1477L16.2465 14.7641C16.5691 15.076 17.0818 15.073 17.4007 14.7573C17.7297 14.4317 17.7266 13.8992 17.3938 13.5774L14.6879 10.9611C14.3653 10.6492 13.8526 10.6522 13.5337 10.9679ZM15.559 9.30294C15.3421 9.30294 15.1085 9.27606 14.925 9.20078L9.15812 14.7523C8.84156 15.057 8.34057 15.0565 8.02468 14.751C7.69271 14.4301 7.69289 13.8978 8.02507 13.5771L11.167 10.5432C11.3701 10.3471 11.3707 10.0219 11.1683 9.82507L10.7525 9.42083C10.6414 9.31277 10.4649 9.31128 10.352 9.41744C10.2404 9.52232 10.0665 9.52231 9.95499 9.41742L9.92044 9.38494C9.70326 9.18074 9.34712 9.33473 9.34712 9.63283V10.2193C9.34712 10.3244 9.30446 10.425 9.2289 10.4981C9.07798 10.644 8.83835 10.6433 8.68826 10.4965L7.27819 9.11763C7.12599 8.9688 7.12668 8.72369 7.27972 8.57572C7.35019 8.50758 7.44439 8.46949 7.54242 8.46949H8.18637C8.46572 8.46949 8.60369 8.13003 8.40356 7.93514C8.27775 7.81263 8.27811 7.61037 8.40435 7.48831L10.1535 5.79706C10.3073 5.64755 10.4901 5.52891 10.6915 5.44795C10.8929 5.36699 11.1088 5.32532 11.3269 5.32532C11.545 5.32532 11.7609 5.36699 11.9623 5.44795C12.0044 5.46487 12.0456 5.48343 12.086 5.50358C12.3365 5.62858 12.337 5.95873 12.138 6.15564L11.6914 6.59769C11.4916 6.79547 11.4941 7.11904 11.6969 7.31374L11.9128 7.52106C12.0211 7.62497 12.0214 7.79798 11.9135 7.90228C11.8057 8.00652 11.806 8.17941 11.9141 8.28335L12.3584 8.71061C12.5546 8.89927 12.8657 8.89632 13.0583 8.70396L13.7238 8.03932C13.6459 7.86187 13.6125 7.63604 13.6125 7.43708C13.6103 7.18883 13.6591 6.94263 13.756 6.71273C13.8529 6.48283 13.996 6.27381 14.177 6.09776C14.3581 5.92172 14.5734 5.78216 14.8106 5.68716C15.0478 5.59216 15.3022 5.54362 15.559 5.54434C15.6462 5.54434 15.7306 5.54965 15.8125 5.56029C16.1422 5.60309 16.1994 6.00047 15.9604 6.23157L15.3839 6.78901C15.1482 7.01693 15.1482 7.3948 15.3839 7.62272C15.6087 7.84004 15.9653 7.84004 16.19 7.62272L16.8247 7.00899C17.0544 6.78697 17.4377 6.84027 17.4853 7.15611C17.4987 7.24467 17.5054 7.33788 17.5054 7.43708C17.5054 8.46949 16.6434 9.30294 15.559 9.30294Z" fill="#677A8E"/>
</svg>
