<svg width="25" height="25" viewBox="0 0 25 25" fill="none" xmlns="http://www.w3.org/2000/svg">
<path d="M12.5003 2.198C6.98631 2.198 2.50031 6.684 2.50031 12.198C2.50031 17.712 6.98631 22.198 12.5003 22.198C18.0143 22.198 22.5003 17.712 22.5003 12.198C22.5003 6.684 18.0143 2.198 12.5003 2.198ZM12.5003 20.198C8.08931 20.198 4.50031 16.609 4.50031 12.198C4.50031 7.787 8.08931 4.198 12.5003 4.198C16.9113 4.198 20.5003 7.787 20.5003 12.198C20.5003 16.609 16.9113 20.198 12.5003 20.198ZM15.6413 6.63306L11.5863 7.64697C9.7913 8.09497 8.3983 9.49003 7.9483 11.285L6.9343 15.3401C6.7623 16.0281 6.9593 16.738 7.4613 17.24C7.8433 17.621 8.34631 17.8259 8.86731 17.8259C9.03131 17.8259 9.19629 17.8059 9.36029 17.7639L13.4153 16.75C15.2103 16.302 16.6033 14.9069 17.0533 13.1119L18.0673 9.05701C18.2393 8.36901 18.0423 7.65898 17.5403 7.15698C17.0383 6.65698 16.3283 6.46106 15.6413 6.63306ZM16.1253 8.573L15.1113 12.627C14.8413 13.704 14.0063 14.541 12.9283 14.811L8.87329 15.824L9.8873 11.77C10.1573 10.693 10.9923 9.85594 12.0703 9.58594L16.1253 8.573ZM12.5003 10.698C13.3283 10.698 14.0003 11.37 14.0003 12.198C14.0003 13.026 13.3283 13.698 12.5003 13.698C11.6723 13.698 11.0003 13.026 11.0003 12.198C11.0003 11.37 11.6723 10.698 12.5003 10.698Z" fill="#677A8E"/>
</svg>
