<svg width="25" height="25" viewBox="0 0 25 25" fill="none" xmlns="http://www.w3.org/2000/svg">
<path d="M17.5003 2.198H7.50031C4.74331 2.198 2.50031 4.441 2.50031 7.198V13.198C2.50031 15.955 4.74331 18.198 7.50031 18.198H11.5003V20.198H8.50031C7.94831 20.198 7.50031 20.645 7.50031 21.198C7.50031 21.751 7.94831 22.198 8.50031 22.198H16.5003C17.0523 22.198 17.5003 21.751 17.5003 21.198C17.5003 20.645 17.0523 20.198 16.5003 20.198H13.5003V18.198H17.5003C20.2573 18.198 22.5003 15.955 22.5003 13.198V7.198C22.5003 4.441 20.2573 2.198 17.5003 2.198ZM20.5003 13.198C20.5003 14.852 19.1543 16.198 17.5003 16.198H7.50031C5.84631 16.198 4.50031 14.852 4.50031 13.198V7.198C4.50031 5.544 5.84631 4.198 7.50031 4.198H17.5003C19.1543 4.198 20.5003 5.544 20.5003 7.198V13.198Z" fill="#677A8E"/>
</svg>
