<svg width="25" height="25" viewBox="0 0 25 25" fill="none" xmlns="http://www.w3.org/2000/svg">
<path d="M11.5003 13.1021V17.198C11.5003 17.751 11.9483 18.198 12.5003 18.198C13.0523 18.198 13.5003 17.751 13.5003 17.198V13.1021C16.0563 12.6301 18.0003 10.388 18.0003 7.698C18.0003 4.666 15.5333 2.198 12.5003 2.198C9.46731 2.198 7.00031 4.666 7.00031 7.698C7.00031 10.388 8.94431 12.6301 11.5003 13.1021ZM12.5003 4.198C14.4303 4.198 16.0003 5.768 16.0003 7.698C16.0003 9.628 14.4303 11.198 12.5003 11.198C10.5703 11.198 9.00031 9.628 9.00031 7.698C9.00031 5.768 10.5703 4.198 12.5003 4.198ZM20.5003 18.198C20.5003 20.824 16.4763 22.198 12.5003 22.198C8.52431 22.198 4.50031 20.824 4.50031 18.198C4.50031 16.496 6.29531 15.1161 9.30231 14.5081C9.84431 14.3961 10.3713 14.749 10.4803 15.29C10.5903 15.831 10.2403 16.359 9.6983 16.469C7.5163 16.91 6.50031 17.762 6.50031 18.198C6.50031 18.903 8.77831 20.198 12.5003 20.198C16.2223 20.198 18.5003 18.903 18.5003 18.198C18.5003 17.761 17.4833 16.91 15.3023 16.469C14.7603 16.36 14.4103 15.831 14.5203 15.29C14.6293 14.748 15.1603 14.3961 15.6983 14.5081C18.7053 15.1161 20.5003 16.496 20.5003 18.198Z" fill="#677A8E"/>
</svg>
