<svg width="25" height="25" viewBox="0 0 25 25" fill="none" xmlns="http://www.w3.org/2000/svg">
<path d="M14.5003 2.198H10.5003C7.74331 2.198 5.50031 4.441 5.50031 7.198V17.198C5.50031 19.955 7.74331 22.198 10.5003 22.198H14.5003C17.2573 22.198 19.5003 19.955 19.5003 17.198V7.198C19.5003 4.441 17.2573 2.198 14.5003 2.198ZM17.5003 17.198C17.5003 18.852 16.1543 20.198 14.5003 20.198H10.5003C8.84631 20.198 7.50031 18.852 7.50031 17.198V7.198C7.50031 5.544 8.84631 4.198 10.5003 4.198H14.5003C16.1543 4.198 17.5003 5.544 17.5003 7.198V17.198ZM14.0003 18.198C14.0003 18.751 13.5523 19.198 13.0003 19.198H12.0003C11.4483 19.198 11.0003 18.751 11.0003 18.198C11.0003 17.645 11.4483 17.198 12.0003 17.198H13.0003C13.5523 17.198 14.0003 17.645 14.0003 18.198Z" fill="#677A8E"/>
</svg>
