<svg width="25" height="25" viewBox="0 0 25 25" fill="none" xmlns="http://www.w3.org/2000/svg">
<path d="M2.50031 5.198C2.50031 4.645 2.94831 4.198 3.50031 4.198H16.5003C17.0523 4.198 17.5003 4.645 17.5003 5.198C17.5003 5.751 17.0523 6.198 16.5003 6.198H3.50031C2.94831 6.198 2.50031 5.751 2.50031 5.198ZM21.5003 11.198H3.50031C2.94831 11.198 2.50031 11.645 2.50031 12.198C2.50031 12.751 2.94831 13.198 3.50031 13.198H21.5003C22.0523 13.198 22.5003 12.751 22.5003 12.198C22.5003 11.645 22.0523 11.198 21.5003 11.198ZM12.5003 18.198H3.50031C2.94831 18.198 2.50031 18.645 2.50031 19.198C2.50031 19.751 2.94831 20.198 3.50031 20.198H12.5003C13.0523 20.198 13.5003 19.751 13.5003 19.198C13.5003 18.645 13.0523 18.198 12.5003 18.198Z" fill="#677A8E"/>
</svg>
