<svg width="25" height="25" viewBox="0 0 25 25" fill="none" xmlns="http://www.w3.org/2000/svg">
<path d="M12.5002 2.198C6.98624 2.198 2.50024 6.684 2.50024 12.198C2.50024 17.712 6.98624 22.198 12.5002 22.198C18.0142 22.198 22.5002 17.712 22.5002 12.198C22.5002 6.684 18.0142 2.198 12.5002 2.198ZM12.5002 20.198C8.08924 20.198 4.50024 16.609 4.50024 12.198C4.50024 7.787 8.08924 4.198 12.5002 4.198C16.9112 4.198 20.5002 7.787 20.5002 12.198C20.5002 16.609 16.9112 20.198 12.5002 20.198ZM16.2072 10.491C16.5982 10.882 16.5982 11.514 16.2072 11.905L13.2072 14.905C13.0122 15.1 12.7562 15.198 12.5002 15.198C12.2442 15.198 11.9883 15.1 11.7933 14.905L8.79327 11.905C8.40227 11.514 8.40227 10.882 8.79327 10.491C9.18427 10.1 9.81621 10.1 10.2072 10.491L12.5002 12.7839L14.7933 10.491C15.1843 10.1 15.8162 10.1 16.2072 10.491Z" fill="#677A8E"/>
</svg>
