<svg width="25" height="25" viewBox="0 0 25 25" fill="none" xmlns="http://www.w3.org/2000/svg">
<path d="M22.2071 12.9052L15.2071 19.9052C15.0121 20.1002 14.7561 20.1982 14.5001 20.1982C14.2441 20.1982 13.9882 20.1002 13.7932 19.9052C13.4022 19.5142 13.4022 18.8821 13.7932 18.4911L19.0861 13.1982H3.50012C2.94712 13.1982 2.50012 12.7512 2.50012 12.1982C2.50012 11.6452 2.94712 11.1982 3.50012 11.1982H19.0861L13.7932 5.90519C13.4022 5.51419 13.4022 4.88213 13.7932 4.49113C14.1842 4.10013 14.8161 4.10013 15.2071 4.49113L22.2071 11.4911C22.5981 11.8821 22.5981 12.5142 22.2071 12.9052Z" fill="#677A8E"/>
</svg>
