<svg width="24" height="25" viewBox="0 0 24 25" fill="none" xmlns="http://www.w3.org/2000/svg">
<path d="M12.9918 16.3843L12.9917 16.3843L12.9868 16.3882C12.4093 16.8454 11.5878 16.846 11.0092 16.3961C11.0092 16.3961 11.0091 16.3961 11.0091 16.396L3.03226 10.1892C3.03198 10.189 3.0317 10.1888 3.03142 10.1885C2.81335 10.0166 2.81342 9.67681 3.03163 9.50501C3.03184 9.50484 3.03205 9.50468 3.03226 9.50451L11.0073 3.28731C11.6013 2.83312 12.4153 2.83751 12.9918 3.28579C12.9918 3.28582 12.9918 3.28585 12.9919 3.28589L20.9687 9.49271C20.969 9.49296 20.9693 9.49321 20.9697 9.49345C21.1875 9.66532 21.1875 10.0049 20.9696 10.1767C20.9693 10.1769 20.969 10.1772 20.9687 10.1774L12.9918 16.3843Z" stroke="#677A8E" stroke-width="1.5"/>
<path d="M21.1453 14.7089C21.1453 14.7089 12.9632 21.5507 12.134 21.5507C11.3048 21.5507 2.85571 14.7089 2.85571 14.7089" stroke="#677A8E" stroke-width="1.5" stroke-linecap="round" stroke-linejoin="round"/>
</svg>
