<svg width="25" height="25" viewBox="0 0 25 25" fill="none" xmlns="http://www.w3.org/2000/svg">
<path d="M12.5008 6.19751C10.2948 6.19751 8.50079 7.99151 8.50079 10.1975C8.50079 12.4035 10.2948 14.1975 12.5008 14.1975C14.7068 14.1975 16.5008 12.4035 16.5008 10.1975C16.5008 7.99151 14.7068 6.19751 12.5008 6.19751ZM12.5008 12.1975C11.3978 12.1975 10.5008 11.3005 10.5008 10.1975C10.5008 9.09451 11.3978 8.19751 12.5008 8.19751C13.6038 8.19751 14.5008 9.09451 14.5008 10.1975C14.5008 11.3005 13.6038 12.1975 12.5008 12.1975ZM12.4968 2.19751C7.9378 2.19751 4.50079 5.63651 4.50079 10.1975C4.50079 16.5235 9.31279 20.4575 11.3818 21.8545C11.7198 22.0835 12.1088 22.1985 12.4968 22.1985C12.8838 22.1985 13.2708 22.0844 13.6088 21.8564C15.6808 20.4574 20.4998 16.5215 20.4998 10.1975C20.5008 5.63651 17.0598 2.19751 12.4968 2.19751ZM12.5018 20.1975C10.6978 18.9785 6.50079 15.5645 6.50079 10.1975C6.50079 6.72051 9.0218 4.19751 12.4968 4.19751C15.9198 4.19751 18.5008 6.77651 18.5008 10.1975C18.5008 15.5615 14.2978 18.9785 12.5018 20.1975Z" fill="#677A8E"/>
</svg>
