<svg width="24" height="25" viewBox="0 0 24 25" fill="none" xmlns="http://www.w3.org/2000/svg">
<g clip-path="url(#clip0_290_6050)">
<path d="M4.92949 5.75433C5.1181 5.57218 5.3707 5.47138 5.6329 5.47366C5.89509 5.47594 6.14591 5.58111 6.33131 5.76652C6.51672 5.95192 6.62189 6.20274 6.62417 6.46493C6.62645 6.72713 6.52565 6.97973 6.34349 7.16833C5.59939 7.91031 5.00932 8.79208 4.60722 9.76292C4.20512 10.7338 3.99893 11.7745 4.00049 12.8253C3.99882 13.8762 4.20496 14.917 4.60707 15.8878C5.00918 16.8587 5.5993 17.7404 6.34349 18.4823C6.44269 18.5736 6.52239 18.684 6.57783 18.8069C6.63326 18.9298 6.66328 19.0626 6.66607 19.1974C6.66886 19.3322 6.64437 19.4661 6.59408 19.5912C6.54378 19.7163 6.46871 19.8299 6.37339 19.9252C6.27807 20.0206 6.16445 20.0956 6.03938 20.1459C5.9143 20.1962 5.78035 20.2207 5.64557 20.2179C5.51079 20.2151 5.37796 20.1851 5.25508 20.1297C5.1322 20.0742 5.02179 19.9945 4.93049 19.8953C4.0006 18.9679 3.26307 17.8659 2.76026 16.6526C2.25744 15.4393 1.99925 14.1387 2.00049 12.8253C1.99898 11.5119 2.25696 10.2111 2.75961 8.99764C3.26225 7.78419 3.99966 6.68199 4.92949 5.75433ZM17.6575 5.75433C17.845 5.56686 18.0993 5.46155 18.3645 5.46155C18.6297 5.46155 18.884 5.56686 19.0715 5.75433C20.0013 6.68199 20.7387 7.78419 21.2414 8.99764C21.744 10.2111 22.002 11.5119 22.0005 12.8253C22.002 14.1388 21.744 15.4396 21.2414 16.653C20.7387 17.8665 20.0013 18.9687 19.0715 19.8963C18.8829 20.0785 18.6303 20.1793 18.3681 20.177C18.1059 20.1747 17.8551 20.0696 17.6697 19.8842C17.4843 19.6987 17.3791 19.4479 17.3768 19.1857C17.3745 18.9235 17.4753 18.6709 17.6575 18.4823C18.4016 17.7404 18.9917 16.8586 19.3938 15.8877C19.7959 14.9169 20.0021 13.8762 20.0005 12.8253C20.0022 11.7745 19.796 10.7337 19.3939 9.76286C18.9918 8.792 18.4017 7.91024 17.6575 7.16833C17.47 6.98081 17.3647 6.7265 17.3647 6.46133C17.3647 6.19617 17.47 5.94186 17.6575 5.75433ZM9.17249 8.58233C9.26547 8.67521 9.33923 8.7855 9.38955 8.90689C9.43988 9.02829 9.46578 9.15842 9.46578 9.28983C9.46578 9.42125 9.43988 9.55138 9.38955 9.67277C9.33923 9.79417 9.26547 9.90446 9.17249 9.99733C8.80032 10.3682 8.50517 10.8089 8.30403 11.2943C8.10289 11.7796 7.99973 12.3 8.00049 12.8253C8.00049 13.9553 8.46749 14.9733 9.2205 15.7023C9.319 15.7926 9.39842 15.9017 9.45407 16.0231C9.50972 16.1446 9.54047 16.276 9.5445 16.4095C9.54853 16.543 9.52575 16.676 9.47753 16.8006C9.4293 16.9252 9.3566 17.0389 9.26371 17.1349C9.17083 17.2309 9.05964 17.3074 8.93672 17.3597C8.8138 17.4121 8.68164 17.4392 8.54804 17.4396C8.41444 17.4401 8.28211 17.4137 8.15887 17.3621C8.03563 17.3105 7.92397 17.2348 7.83049 17.1393C7.25095 16.5803 6.79017 15.9101 6.47573 15.1689C6.16128 14.4276 5.99965 13.6305 6.00049 12.8253C6.00049 11.1683 6.67349 9.66733 7.75749 8.58233C7.85037 8.48936 7.96066 8.4156 8.08205 8.36527C8.20345 8.31495 8.33358 8.28905 8.465 8.28905C8.59641 8.28905 8.72654 8.31495 8.84794 8.36527C8.96933 8.4156 9.07962 8.48936 9.17249 8.58233ZM16.2825 8.62233C17.3851 9.74323 18.0022 11.253 18.0005 12.8253C18.0015 13.6134 17.8467 14.394 17.5452 15.1221C17.2437 15.8502 16.8013 16.5116 16.2435 17.0683C16.0559 17.256 15.8014 17.3614 15.536 17.3614C15.2706 17.3614 15.0161 17.256 14.8285 17.0683C14.6409 16.8807 14.5354 16.6262 14.5354 16.3608C14.5354 16.0955 14.6409 15.841 14.8285 15.6533C15.2007 15.2825 15.4958 14.8417 15.697 14.3564C15.8981 13.871 16.0013 13.3507 16.0005 12.8253C16.0005 11.7343 15.5645 10.7453 14.8555 10.0233C14.6743 9.83321 14.5751 9.57942 14.5795 9.31679C14.5838 9.05416 14.6913 8.80379 14.8788 8.61978C15.0662 8.43577 15.3185 8.33288 15.5811 8.33336C15.8438 8.33384 16.0957 8.43764 16.2825 8.62233ZM12.0005 11.3253C12.3983 11.3253 12.7799 11.4834 13.0612 11.7647C13.3425 12.046 13.5005 12.4275 13.5005 12.8253C13.5005 13.2232 13.3425 13.6047 13.0612 13.886C12.7799 14.1673 12.3983 14.3253 12.0005 14.3253C11.6027 14.3253 11.2211 14.1673 10.9398 13.886C10.6585 13.6047 10.5005 13.2232 10.5005 12.8253C10.5005 12.4275 10.6585 12.046 10.9398 11.7647C11.2211 11.4834 11.6027 11.3253 12.0005 11.3253Z" fill="#677A8E"/>
</g>
<defs>
<clipPath id="clip0_290_6050">
<rect width="24" height="24" fill="white" transform="translate(0.000488281 0.825317)"/>
</clipPath>
</defs>
</svg>
