<svg width="25" height="25" viewBox="0 0 25 25" fill="none" xmlns="http://www.w3.org/2000/svg">
<path d="M17.5003 4.198H7.50031C4.74331 4.198 2.50031 6.441 2.50031 9.198V15.198C2.50031 17.955 4.74331 20.198 7.50031 20.198H17.5003C20.2573 20.198 22.5003 17.955 22.5003 15.198V9.198C22.5003 6.441 20.2573 4.198 17.5003 4.198ZM7.50031 6.198H17.5003C18.6783 6.198 19.6893 6.88598 20.1803 7.87598L14.1643 11.886C13.1533 12.56 11.8473 12.56 10.8363 11.886L4.82031 7.87598C5.31131 6.88598 6.32231 6.198 7.50031 6.198ZM17.5003 18.198H7.50031C5.84631 18.198 4.50031 16.852 4.50031 15.198V10.066L9.72632 13.55C10.5693 14.112 11.5343 14.3931 12.5003 14.3931C13.4653 14.3931 14.4313 14.112 15.2733 13.55L20.5003 10.066V15.198C20.5003 16.852 19.1543 18.198 17.5003 18.198Z" fill="#677A8E"/>
</svg>
