<svg width="25" height="25" viewBox="0 0 25 25" fill="none" xmlns="http://www.w3.org/2000/svg">
<path d="M18.7953 7.313C19.1847 6.92364 19.1847 6.29236 18.7953 5.903C18.4059 5.51364 17.7747 5.51364 17.3853 5.903L12.5003 10.788L7.61531 5.903C7.22594 5.51364 6.59467 5.51364 6.20531 5.903C5.81594 6.29236 5.81594 6.92364 6.20531 7.313L11.0903 12.198L6.20531 17.083C5.81594 17.4724 5.81594 18.1036 6.20531 18.493C6.59467 18.8824 7.22594 18.8824 7.61531 18.493L12.5003 13.608L17.3853 18.493C17.7747 18.8824 18.4059 18.8824 18.7953 18.493C19.1847 18.1036 19.1847 17.4724 18.7953 17.083L13.9103 12.198L18.7953 7.313Z" fill="#677A8E"/>
</svg>
