<svg width="25" height="25" viewBox="0 0 25 25" fill="none" xmlns="http://www.w3.org/2000/svg">
<path d="M20.2072 10.9052C20.0122 11.1002 19.7562 11.1982 19.5002 11.1982C19.2442 11.1982 18.9882 11.1002 18.7933 10.9052L13.5002 5.6121V21.1982C13.5002 21.7512 13.0532 22.1982 12.5002 22.1982C11.9472 22.1982 11.5002 21.7512 11.5002 21.1982V5.6121L6.20719 10.9052C5.81619 11.2962 5.18425 11.2962 4.79325 10.9052C4.40225 10.5142 4.40225 9.88213 4.79325 9.49113L11.7933 2.49113C12.1842 2.10013 12.8162 2.10013 13.2072 2.49113L20.2072 9.49113C20.5982 9.88213 20.5982 10.5142 20.2072 10.9052Z" fill="#677A8E"/>
</svg>
