<svg width="25" height="25" viewBox="0 0 25 25" fill="none" xmlns="http://www.w3.org/2000/svg">
<path d="M8.79333 7.90519C8.40234 7.51419 8.40234 6.88213 8.79333 6.49113L11.7933 3.49113C12.1843 3.10013 12.8163 3.10013 13.2073 3.49113L16.2073 6.49113C16.5983 6.88213 16.5983 7.51419 16.2073 7.90519C16.0123 8.10019 15.7563 8.19816 15.5003 8.19816C15.2443 8.19816 14.9883 8.10019 14.7933 7.90519L13.5003 6.6121V11.1982C13.5003 11.7512 13.0523 12.1982 12.5003 12.1982C11.9483 12.1982 11.5003 11.7512 11.5003 11.1982V6.6121L10.2073 7.90519C9.81628 8.29619 9.18433 8.29619 8.79333 7.90519ZM17.5003 10.1982C16.9483 10.1982 16.5003 10.6452 16.5003 11.1982C16.5003 11.7512 16.9483 12.1982 17.5003 12.1982C19.1543 12.1982 20.5003 13.5442 20.5003 15.1982V16.1982C20.5003 17.8522 19.1543 19.1982 17.5003 19.1982H7.50031C5.84631 19.1982 4.50031 17.8522 4.50031 16.1982V15.1982C4.50031 13.5442 5.84631 12.1982 7.50031 12.1982C8.05231 12.1982 8.50031 11.7512 8.50031 11.1982C8.50031 10.6452 8.05231 10.1982 7.50031 10.1982C4.74331 10.1982 2.50031 12.4412 2.50031 15.1982V16.1982C2.50031 18.9552 4.74331 21.1982 7.50031 21.1982H17.5003C20.2573 21.1982 22.5003 18.9552 22.5003 16.1982V15.1982C22.5003 12.4412 20.2573 10.1982 17.5003 10.1982ZM18.5003 15.1982C18.5003 14.6462 18.0523 14.1982 17.5003 14.1982C16.9483 14.1982 16.5003 14.6462 16.5003 15.1982C16.5003 15.7502 16.9483 16.1982 17.5003 16.1982C18.0523 16.1982 18.5003 15.7502 18.5003 15.1982Z" fill="#677A8E"/>
</svg>
