<svg width="25" height="25" viewBox="0 0 25 25" fill="none" xmlns="http://www.w3.org/2000/svg">
<path d="M17.5003 6.198H13.3033C13.1363 6.198 12.9803 6.11498 12.8873 5.97498L11.7773 4.31104C11.3123 3.61404 10.5353 3.198 9.6973 3.198H7.50031C4.74331 3.198 2.50031 5.441 2.50031 8.198V15.198C2.50031 17.955 4.74331 20.198 7.50031 20.198H17.5003C20.2573 20.198 22.5003 17.955 22.5003 15.198V11.198C22.5003 8.441 20.2573 6.198 17.5003 6.198ZM20.5003 15.198C20.5003 16.852 19.1543 18.198 17.5003 18.198H7.50031C5.84631 18.198 4.50031 16.852 4.50031 15.198V8.198C4.50031 6.544 5.84631 5.198 7.50031 5.198H9.6973C9.8643 5.198 10.0203 5.28102 10.1133 5.42102L11.2233 7.08496C11.6883 7.78196 12.4653 8.198 13.3033 8.198H17.5003C19.1543 8.198 20.5003 9.544 20.5003 11.198V15.198Z" fill="#677A8E"/>
</svg>
