<svg width="25" height="25" viewBox="0 0 25 25" fill="none" xmlns="http://www.w3.org/2000/svg">
<path d="M17.0003 13.198C15.6223 13.198 14.5003 14.319 14.5003 15.698V19.698C14.5003 21.077 15.6223 22.198 17.0003 22.198C18.3783 22.198 19.5003 21.077 19.5003 19.698V15.698C19.5003 14.319 18.3783 13.198 17.0003 13.198ZM17.5003 19.698C17.5003 19.973 17.2763 20.198 17.0003 20.198C16.7243 20.198 16.5003 19.973 16.5003 19.698V15.698C16.5003 15.423 16.7243 15.198 17.0003 15.198C17.2763 15.198 17.5003 15.423 17.5003 15.698V19.698ZM8.00031 13.198C6.6223 13.198 5.50031 14.319 5.50031 15.698V19.698C5.50031 21.077 6.6223 22.198 8.00031 22.198C9.37831 22.198 10.5003 21.077 10.5003 19.698V15.698C10.5003 14.319 9.37831 13.198 8.00031 13.198ZM8.50031 19.698C8.50031 19.973 8.27631 20.198 8.00031 20.198C7.72431 20.198 7.50031 19.973 7.50031 19.698V15.698C7.50031 15.423 7.72431 15.198 8.00031 15.198C8.27631 15.198 8.50031 15.423 8.50031 15.698V19.698ZM22.5003 12.198V17.198C22.5003 17.751 22.0523 18.198 21.5003 18.198C20.9483 18.198 20.5003 17.751 20.5003 17.198V12.198C20.5003 7.787 16.9113 4.198 12.5003 4.198C8.08931 4.198 4.50031 7.787 4.50031 12.198V17.198C4.50031 17.751 4.05231 18.198 3.50031 18.198C2.94831 18.198 2.50031 17.751 2.50031 17.198V12.198C2.50031 6.684 6.98631 2.198 12.5003 2.198C18.0143 2.198 22.5003 6.684 22.5003 12.198Z" fill="#677A8E"/>
</svg>
