<svg width="25" height="25" viewBox="0 0 25 25" fill="none" xmlns="http://www.w3.org/2000/svg">
<path d="M21.5003 7.198V17.198C21.5003 19.955 19.2573 22.198 16.5003 22.198H12.5003C11.9483 22.198 11.5003 21.751 11.5003 21.198C11.5003 20.645 11.9483 20.198 12.5003 20.198H16.5003C18.1543 20.198 19.5003 18.852 19.5003 17.198V7.198C19.5003 5.544 18.1543 4.198 16.5003 4.198H12.5003C11.9483 4.198 11.5003 3.751 11.5003 3.198C11.5003 2.645 11.9483 2.198 12.5003 2.198H16.5003C19.2573 2.198 21.5003 4.441 21.5003 7.198ZM3.57606 12.58C3.47506 12.336 3.47506 12.06 3.57606 11.816C3.62705 11.693 3.70007 11.583 3.79307 11.49L7.79206 7.49097C8.18306 7.09997 8.81506 7.09997 9.20606 7.49097C9.59706 7.88197 9.59706 8.51403 9.20606 8.90503L6.91306 11.198H14.4991C15.0511 11.198 15.4991 11.645 15.4991 12.198C15.4991 12.751 15.0511 13.198 14.4991 13.198H6.91306L9.20606 15.491C9.59706 15.882 9.59706 16.514 9.20606 16.905C9.01106 17.1 8.75506 17.198 8.49906 17.198C8.24306 17.198 7.98706 17.1 7.79206 16.905L3.79307 12.906C3.70007 12.813 3.62705 12.703 3.57606 12.58Z" fill="#677A8E"/>
</svg>
