<svg width="25" height="25" viewBox="0 0 25 25" fill="none" xmlns="http://www.w3.org/2000/svg">
<path d="M12.5003 13.198C15.2573 13.198 17.5003 10.955 17.5003 8.198C17.5003 5.441 15.2573 3.198 12.5003 3.198C9.74331 3.198 7.50031 5.441 7.50031 8.198C7.50031 10.955 9.74331 13.198 12.5003 13.198ZM12.5003 5.198C14.1543 5.198 15.5003 6.544 15.5003 8.198C15.5003 9.852 14.1543 11.198 12.5003 11.198C10.8463 11.198 9.50031 9.852 9.50031 8.198C9.50031 6.544 10.8463 5.198 12.5003 5.198ZM19.5003 17.598V18.464C19.5003 19.353 19.1753 20.205 18.5853 20.864C18.3883 21.085 18.1143 21.197 17.8403 21.197C17.6023 21.197 17.3633 21.113 17.1733 20.942C16.7623 20.573 16.7273 19.941 17.0953 19.53C17.3573 19.238 17.5003 18.859 17.5003 18.464V17.598C17.5003 16.464 16.7503 15.484 15.6773 15.214C15.5463 15.183 15.4113 15.197 15.3033 15.259C13.5553 16.232 11.4343 16.225 9.70929 15.266C9.59029 15.198 9.45329 15.181 9.32629 15.214C8.25029 15.484 7.50031 16.464 7.50031 17.598V18.464C7.50031 18.86 7.64433 19.238 7.90533 19.53C8.27333 19.941 8.23833 20.573 7.82733 20.942C7.41733 21.31 6.78628 21.276 6.41528 20.864C5.82528 20.205 5.50031 19.352 5.50031 18.464V17.598C5.50031 15.545 6.87228 13.767 8.83728 13.275C9.46128 13.114 10.1383 13.207 10.6913 13.525C11.8003 14.14 13.1873 14.1469 14.3203 13.5179C14.8633 13.2059 15.5413 13.12 16.1663 13.275C18.1283 13.767 19.5003 15.546 19.5003 17.598ZM17.5583 4.03601C17.7413 3.51501 18.3153 3.243 18.8333 3.427C20.4293 3.99 21.5003 5.506 21.5003 7.198C21.5003 8.335 21.0143 9.42196 20.1673 10.179C19.9773 10.35 19.7373 10.434 19.5003 10.434C19.2263 10.434 18.9523 10.322 18.7553 10.101C18.3873 9.68995 18.4223 9.05696 18.8333 8.68896C19.2573 8.30996 19.5003 7.766 19.5003 7.198C19.5003 6.352 18.9643 5.59404 18.1673 5.31104C17.6463 5.12804 17.3733 4.55601 17.5583 4.03601ZM22.5003 15.032V15.754C22.5003 16.307 22.0533 16.754 21.5003 16.754C20.9473 16.754 20.5003 16.307 20.5003 15.754V15.032C20.5003 14.164 19.9273 13.413 19.1063 13.207C18.5703 13.072 18.2453 12.529 18.3793 11.994C18.5143 11.457 19.0623 11.131 19.5923 11.267C21.3053 11.697 22.5003 13.245 22.5003 15.032ZM4.83331 10.624C3.98631 9.86502 3.50031 8.77794 3.50031 7.64294C3.50031 5.95194 4.5723 4.43495 6.1673 3.87195C6.6853 3.68795 7.25932 3.95996 7.44232 4.48096C7.62732 5.00196 7.35431 5.57298 6.83331 5.75598C6.03631 6.03798 5.50031 6.79694 5.50031 7.64294C5.50031 8.21094 5.7433 8.75403 6.1673 9.13403C6.5783 9.50303 6.6133 10.135 6.2453 10.546C6.0473 10.767 5.77433 10.879 5.49933 10.879C5.26233 10.879 5.02331 10.795 4.83331 10.624ZM5.89532 13.651C5.07432 13.857 4.50031 14.608 4.50031 15.476V16.198C4.50031 16.751 4.05231 17.198 3.50031 17.198C2.94831 17.198 2.50031 16.751 2.50031 16.198V15.476C2.50031 13.69 3.69529 12.1409 5.40729 11.7109C5.94029 11.5779 6.4863 11.901 6.6203 12.437C6.7553 12.973 6.43032 13.516 5.89532 13.651Z" fill="#677A8E"/>
</svg>
