<svg width="24" height="25" viewBox="0 0 24 25" fill="none" xmlns="http://www.w3.org/2000/svg">
<path d="M10.7074 6.49089C11.0979 6.88142 11.0979 7.51458 10.7074 7.9051C10.3169 8.29563 9.68372 8.29563 9.2932 7.9051L8.00031 6.61221L8.0003 20.198C8.0003 20.7503 7.55259 21.198 7.0003 21.198C6.44802 21.198 6.0003 20.7503 6.0003 20.198L6.0003 6.61221L4.70741 7.9051C4.31689 8.29563 3.68372 8.29563 3.2932 7.9051C2.90267 7.51458 2.90267 6.88142 3.2932 6.49089L6.2932 3.49089C6.68372 3.10037 7.31689 3.10037 7.70741 3.49089L10.7074 6.49089Z" fill="#7F8F9F"/>
<path d="M16.0003 17.7838L14.7074 16.4909C14.3169 16.1004 13.6837 16.1004 13.2932 16.4909C12.9027 16.8814 12.9027 17.5146 13.2932 17.9051L16.2932 20.9051C16.6837 21.2956 17.3169 21.2956 17.7074 20.9051L20.7074 17.9051C21.0979 17.5146 21.0979 16.8814 20.7074 16.4909C20.3169 16.1004 19.6837 16.1004 19.2932 16.4909L18.0003 17.7838L18.0003 4.198C18.0003 3.64571 17.5526 3.198 17.0003 3.198C16.448 3.198 16.0003 3.64571 16.0003 4.198L16.0003 17.7838Z" fill="#7F8F9F"/>
</svg>
