<svg width="25" height="25" viewBox="0 0 25 25" fill="none" xmlns="http://www.w3.org/2000/svg">
<path d="M21.4723 9.71944L20.8933 9.14018C20.7033 8.95013 20.5983 8.69717 20.5983 8.4271V7.61279C20.5983 5.67628 19.0233 4.10184 17.0883 4.10184H16.2733C16.0043 4.10184 15.7513 3.99792 15.5603 3.80587L14.9813 3.22771C13.6133 1.85834 11.3853 1.85834 10.0173 3.22771L9.43829 3.80587C9.24829 3.99692 8.99532 4.10184 8.72632 4.10184H7.91229C5.97629 4.10184 4.40228 5.67628 4.40228 7.61279V8.4271C4.40228 8.69717 4.2973 8.94913 4.1073 9.14018L3.5293 9.71944C2.8653 10.3816 2.50031 11.2638 2.50031 12.2011C2.50031 13.1383 2.86532 14.0205 3.52832 14.6827L4.1073 15.2619C4.2973 15.452 4.40228 15.7049 4.40228 15.975V16.7893C4.40228 18.7258 5.97729 20.3003 7.91229 20.3003H8.72632C8.99532 20.3003 9.24833 20.4042 9.43933 20.5963L10.0183 21.1744C10.7023 21.8596 11.6013 22.2007 12.5003 22.2007C13.3993 22.2007 14.2983 21.8586 14.9823 21.1744L15.5613 20.5963C15.7513 20.4052 16.0043 20.3003 16.2733 20.3003H17.0883C19.0233 20.3003 20.5983 18.7258 20.5983 16.7893V15.975C20.5983 15.7049 20.7033 15.453 20.8933 15.2619L21.4723 14.6827C22.1353 14.0195 22.5003 13.1383 22.5003 12.2011C22.5003 11.2638 22.1353 10.3816 21.4723 9.71944ZM20.0583 13.2684L19.4783 13.8475C18.9103 14.4156 18.5983 15.1718 18.5983 15.975V16.7893C18.5983 17.6215 17.9213 18.2997 17.0883 18.2997H16.2733C15.4693 18.2997 14.7143 18.6128 14.1463 19.1819L13.5673 19.7601C12.9783 20.3482 12.0203 20.3482 11.4313 19.7601L10.8533 19.1819C10.2853 18.6138 9.52932 18.2997 8.72632 18.2997H7.91229C7.07929 18.2997 6.40228 17.6215 6.40228 16.7893V15.975C6.40228 15.1718 6.09028 14.4156 5.52228 13.8475L4.94232 13.2684C4.65732 12.9833 4.50031 12.6042 4.50031 12.2011C4.50031 11.7979 4.6573 11.4188 4.9433 11.1338L5.52228 10.5546C6.09028 9.98647 6.40228 9.23031 6.40228 8.4271V7.61279C6.40228 6.78057 7.08029 6.10238 7.91229 6.10238H8.72632C9.53032 6.10238 10.2853 5.78934 10.8533 5.22019L11.4323 4.64203C12.0213 4.05387 12.9793 4.05387 13.5683 4.64203L14.1463 5.22019C14.7143 5.78834 15.4703 6.10238 16.2733 6.10238H17.0883C17.9213 6.10238 18.5983 6.78057 18.5983 7.61279V8.4271C18.5983 9.23031 18.9103 9.98647 19.4783 10.5546L20.0583 11.1338C20.3433 11.4188 20.5003 11.7979 20.5003 12.2011C20.5003 12.6042 20.3433 12.9833 20.0583 13.2684ZM16.2073 8.49303C16.5983 8.88414 16.5983 9.51637 16.2073 9.90747L10.2073 15.9091C10.0123 16.1041 9.75631 16.2021 9.50031 16.2021C9.24431 16.2021 8.98834 16.1041 8.79333 15.9091C8.40234 15.518 8.40234 14.8857 8.79333 14.4946L14.7933 8.49303C15.1843 8.10193 15.8163 8.10193 16.2073 8.49303ZM16.5003 14.7017C16.5003 15.5299 15.8283 16.2021 15.0003 16.2021C14.1723 16.2021 13.5003 15.5299 13.5003 14.7017C13.5003 13.8735 14.1723 13.2013 15.0003 13.2013C15.8283 13.2013 16.5003 13.8735 16.5003 14.7017ZM8.50031 9.70039C8.50031 8.87217 9.17231 8.19999 10.0003 8.19999C10.8283 8.19999 11.5003 8.87217 11.5003 9.70039C11.5003 10.5286 10.8283 11.2008 10.0003 11.2008C9.17231 11.2008 8.50031 10.5286 8.50031 9.70039Z" fill="#677A8E"/>
</svg>
