<svg width="25" height="25" viewBox="0 0 25 25" fill="none" xmlns="http://www.w3.org/2000/svg">
<path d="M18.5003 7.198V6.198C18.5003 3.992 16.7063 2.198 14.5003 2.198H6.50031C4.29431 2.198 2.50031 3.992 2.50031 6.198V16.198C2.50031 16.604 2.74631 16.97 3.12231 17.124C3.24431 17.174 3.37231 17.198 3.50031 17.198C3.76431 17.198 4.02229 17.0939 4.21429 16.8979L5.88031 15.198H6.50031V16.198C6.50031 18.404 8.2943 20.198 10.5003 20.198H19.1203L20.7863 21.8979C20.9783 22.0929 21.2373 22.198 21.5003 22.198C21.6273 22.198 21.7563 22.174 21.8783 22.124C22.2543 21.971 22.5003 21.604 22.5003 21.198V11.198C22.5003 8.992 20.7063 7.198 18.5003 7.198ZM5.4603 13.198C5.1913 13.198 4.93431 13.306 4.74631 13.498L4.50031 13.749V6.198C4.50031 5.095 5.39731 4.198 6.50031 4.198H14.5003C15.6033 4.198 16.5003 5.095 16.5003 6.198V11.198C16.5003 12.301 15.6033 13.198 14.5003 13.198H5.4603ZM20.5003 18.749L20.2543 18.498C20.0663 18.307 19.8083 18.198 19.5403 18.198H10.5003C9.39731 18.198 8.50031 17.301 8.50031 16.198V15.198H14.5003C16.7063 15.198 18.5003 13.404 18.5003 11.198V9.198C19.6033 9.198 20.5003 10.095 20.5003 11.198V18.749Z" fill="#677A8E"/>
</svg>
