<svg width="24" height="25" viewBox="0 0 24 25" fill="none" xmlns="http://www.w3.org/2000/svg">
<path d="M4.89733 3.42748L4.10676 8.05349M19.1563 9.42199C19.2383 9.41849 19.3197 9.41225 19.4002 9.40335V16.2473C19.3288 16.2394 19.2568 16.2336 19.1841 16.2299C19.1563 16.2285 19.1283 16.2275 19.1002 16.2267V9.42395C19.119 9.42344 19.1376 9.42278 19.1563 9.42199ZM19.0002 8.22532C18.966 8.22532 18.9319 8.2246 18.8981 8.22319C17.6487 8.17086 16.6462 7.16341 16.6018 5.91204C16.6008 5.88328 16.6002 5.85437 16.6002 5.82532C16.6002 5.80778 16.6004 5.7903 16.6008 5.77287C16.6287 4.4716 17.6923 3.42532 19.0002 3.42532C20.3257 3.42532 21.4002 4.49983 21.4002 5.82532C21.4002 7.10872 20.3929 8.15685 19.1257 8.22211C19.0842 8.22424 19.0424 8.22532 19.0002 8.22532ZM15.4025 5.69728C15.4022 5.70662 15.4019 5.71596 15.4016 5.72532H8.59888C8.59613 5.62422 8.5892 5.52417 8.57827 5.42532H15.4222C15.4123 5.51502 15.4057 5.60572 15.4025 5.69728ZM5.00024 8.22532C4.98271 8.22532 4.96523 8.22513 4.94779 8.22476C4.65106 8.2184 4.36759 8.15818 4.10676 8.05349L4.89733 3.42748C4.93146 3.42604 4.96577 3.42532 5.00024 3.42532C6.30574 3.42532 7.36778 4.46767 7.39952 5.76552C7.4 5.78539 7.40024 5.80532 7.40024 5.82532C7.40024 5.84245 7.40007 5.85953 7.39971 5.87656C7.37286 7.15856 6.34076 8.19338 5.05984 8.2246C5.04005 8.22508 5.02018 8.22532 5.00024 8.22532ZM4.89733 3.42748L4.10672 8.05347C3.22374 7.69906 2.60024 6.835 2.60024 5.82532C2.60024 4.53431 3.61959 3.48139 4.89733 3.42748ZM4.60024 9.40335C4.69909 9.41427 4.79915 9.4212 4.90024 9.42396V16.2267C4.79915 16.2294 4.69909 16.2364 4.60024 16.2473V9.40335ZM5.00024 17.4253C5.01737 17.4253 5.03446 17.4255 5.05149 17.4259C6.31015 17.4522 7.33056 18.4476 7.39684 19.696C7.3991 19.7388 7.40024 19.7819 7.40024 19.8253C7.40024 19.8604 7.3995 19.8953 7.39802 19.9299C7.34326 21.2069 6.29068 22.2253 5.00024 22.2253C3.67476 22.2253 2.60024 21.1508 2.60024 19.8253C2.60024 18.5289 3.62813 17.4726 4.91337 17.4269C4.94219 17.4258 4.97115 17.4253 5.00024 17.4253ZM19.0002 22.2253C17.7161 22.2253 16.6675 21.2168 16.6033 19.9486C16.6013 19.9078 16.6002 19.8667 16.6002 19.8253C16.6002 19.7911 16.601 19.757 16.6024 19.7231C16.6541 18.4874 17.6403 17.4931 18.8728 17.4286C18.9149 17.4264 18.9574 17.4253 19.0002 17.4253C19.0353 17.4253 19.0702 17.4261 19.1048 17.4275C20.3818 17.4823 21.4002 18.5349 21.4002 19.8253C21.4002 21.1508 20.3257 22.2253 19.0002 22.2253ZM8.59561 20.0092C8.59702 19.9813 8.59811 19.9534 8.59888 19.9253H15.4016C15.4021 19.944 15.4028 19.9627 15.4036 19.9814C15.4071 20.0634 15.4133 20.1448 15.4222 20.2253H8.57827C8.58617 20.1539 8.59196 20.0818 8.59561 20.0092Z" stroke="#677A8E" stroke-width="1.2"/>
</svg>
