<svg width="25" height="25" viewBox="0 0 25 25" fill="none" xmlns="http://www.w3.org/2000/svg">
<path d="M20.6353 7.318L15.6353 3.29747C13.8193 1.83688 11.1823 1.83688 9.36531 3.29747L4.36531 7.318C3.18031 8.27138 2.50031 9.69104 2.50031 11.2117V17.206C2.50031 19.9611 4.74331 22.202 7.50031 22.202H10.5003V17.205C10.5003 16.1036 11.3973 15.2092 12.5003 15.2092C13.6033 15.2092 14.5003 16.1046 14.5003 17.205V22.202H17.5003C20.2573 22.202 22.5003 19.9611 22.5003 17.206V11.2117C22.5003 9.69104 21.8203 8.27138 20.6353 7.318ZM20.5003 17.206C20.5003 18.8577 19.1543 20.2012 17.5003 20.2012H16.5003V17.205C16.5003 15.0011 14.7063 13.2084 12.5003 13.2084C10.2943 13.2084 8.50031 15.0011 8.50031 17.205V20.2012H7.50031C5.84631 20.2012 4.50031 18.8577 4.50031 17.206V11.2117C4.50031 10.3003 4.9083 9.44894 5.6183 8.87771L10.6183 4.85705C11.7093 3.9807 13.2923 3.9807 14.3823 4.85705L19.3823 8.87771C20.0933 9.44894 20.5013 10.3003 20.5013 11.2117V17.206H20.5003Z" fill="#677A8E"/>
</svg>
