<svg width="25" height="25" viewBox="0 0 25 25" fill="none" xmlns="http://www.w3.org/2000/svg">
<path d="M12.5003 2.198C6.98631 2.198 2.50031 6.684 2.50031 12.198C2.50031 17.712 6.98631 22.198 12.5003 22.198C18.0143 22.198 22.5003 17.712 22.5003 12.198C22.5003 6.684 18.0143 2.198 12.5003 2.198ZM12.5003 20.198C8.08931 20.198 4.50031 16.609 4.50031 12.198C4.50031 7.787 8.08931 4.198 12.5003 4.198C16.9113 4.198 20.5003 7.787 20.5003 12.198C20.5003 16.609 16.9113 20.198 12.5003 20.198ZM13.5003 8.198C13.5003 8.75 13.0523 9.198 12.5003 9.198C11.9483 9.198 11.5003 8.75 11.5003 8.198C11.5003 7.646 11.9483 7.198 12.5003 7.198C13.0523 7.198 13.5003 7.646 13.5003 8.198ZM13.5003 12.198V16.198C13.5003 16.751 13.0523 17.198 12.5003 17.198C11.9483 17.198 11.5003 16.751 11.5003 16.198V12.198C11.5003 11.645 11.9483 11.198 12.5003 11.198C13.0523 11.198 13.5003 11.645 13.5003 12.198Z" fill="#677A8E"/>
</svg>
