<svg width="25" height="25" viewBox="0 0 25 25" fill="none" xmlns="http://www.w3.org/2000/svg">
<path d="M3.07172 5.98369C3.07172 5.13121 3.41036 4.31365 4.01316 3.71085C4.61595 3.10806 5.43352 2.76941 6.286 2.76941H18.7146C19.5671 2.76941 20.3846 3.10806 20.9874 3.71085C21.5902 4.31365 21.9289 5.13121 21.9289 5.98369V18.4123C21.9289 19.2647 21.5902 20.0823 20.9874 20.6851C20.3846 21.2879 19.5671 21.6265 18.7146 21.6265H6.286C5.43352 21.6265 4.61595 21.2879 4.01316 20.6851C3.41036 20.0823 3.07172 19.2647 3.07172 18.4123V5.98369ZM4.35743 16.0551V18.4123C4.35743 18.9238 4.56062 19.4143 4.9223 19.776C5.28397 20.1376 5.77451 20.3408 6.286 20.3408H8.64314V16.0551H4.35743ZM8.64314 14.7694V9.62655H4.35743V14.7694H8.64314ZM9.92886 16.0551V20.3408H15.0717V16.0551H9.92886ZM15.0717 14.7694V9.62655H9.92886V14.7694H15.0717ZM16.3574 16.0551V20.3408H18.7146C19.2261 20.3408 19.7166 20.1376 20.0783 19.776C20.44 19.4143 20.6431 18.9238 20.6431 18.4123V16.0551H16.3574ZM20.6431 14.7694V9.62655H16.3574V14.7694H20.6431ZM20.6431 5.98369C20.6431 5.47221 20.44 4.98167 20.0783 4.61999C19.7166 4.25831 19.2261 4.05512 18.7146 4.05512H16.3574V8.34084H20.6431V5.98369ZM15.0717 4.05512H9.92886V8.34084H15.0717V4.05512ZM8.64314 4.05512H6.286C5.77451 4.05512 5.28397 4.25831 4.9223 4.61999C4.56062 4.98167 4.35743 5.47221 4.35743 5.98369V8.34084H8.64314V4.05512Z" fill="#677A8E"/>
</svg>
