<svg width="25" height="25" viewBox="0 0 25 25" fill="none" xmlns="http://www.w3.org/2000/svg">
<path d="M21.9143 6.198L18.5003 2.78406C18.1223 2.40606 17.6203 2.198 17.0863 2.198H11.5003C9.2943 2.198 7.50031 3.992 7.50031 6.198H6.50031C4.29431 6.198 2.50031 7.992 2.50031 10.198V18.198C2.50031 20.404 4.29431 22.198 6.50031 22.198H13.5003C15.7063 22.198 17.5003 20.404 17.5003 18.198H18.5003C20.7063 18.198 22.5003 16.404 22.5003 14.198V7.61194C22.5003 7.08594 22.2873 6.57 21.9143 6.198ZM17.5003 4.61194L20.0863 7.198H18.7653C18.0673 7.198 17.5003 6.63098 17.5003 5.93298V4.61194ZM13.5003 20.198H6.50031C5.39731 20.198 4.50031 19.301 4.50031 18.198V10.198C4.50031 9.095 5.39731 8.198 6.50031 8.198H7.50031V14.198C7.50031 16.404 9.2943 18.198 11.5003 18.198H15.5003C15.5003 19.301 14.6033 20.198 13.5003 20.198ZM18.5003 16.198H11.5003C10.3973 16.198 9.50031 15.301 9.50031 14.198V6.198C9.50031 5.095 10.3973 4.198 11.5003 4.198H15.5003V5.93298C15.5003 7.73298 16.9653 9.198 18.7653 9.198H20.5003V14.198C20.5003 15.301 19.6033 16.198 18.5003 16.198Z" fill="#677A8E"/>
</svg>
