<svg width="25" height="25" viewBox="0 0 25 25" fill="none" xmlns="http://www.w3.org/2000/svg">
<path d="M20.8153 6.25C17.7493 5.228 14.0184 3.29997 13.2274 2.49597C13.0414 2.30797 12.7873 2.2 12.5223 2.198C12.2483 2.204 12.0014 2.29996 11.8134 2.48596C10.8584 3.42696 7.95433 5.31297 4.22833 6.36597C3.79733 6.48697 3.50031 6.881 3.50031 7.328C3.50031 15.687 4.80632 20.039 12.2263 22.16C12.3163 22.185 12.4093 22.198 12.5013 22.198C12.5933 22.198 12.6863 22.185 12.7763 22.16C20.1943 20.04 21.5003 15.646 21.5003 7.198C21.4993 6.767 21.2243 6.386 20.8153 6.25ZM12.5003 20.156C6.75631 18.433 5.57232 15.402 5.50232 8.07104C8.63732 7.07804 11.1634 5.582 12.5374 4.5C14.1054 5.604 17.1163 7.04098 19.4953 7.90698C19.4303 15.358 18.2543 18.429 12.5003 20.156Z" fill="#677A8E"/>
</svg>
