<svg width="25" height="25" viewBox="0 0 25 25" fill="none" xmlns="http://www.w3.org/2000/svg">
<path d="M7.50031 10.1985C7.50031 9.64549 7.94831 9.19849 8.50031 9.19849H16.5003C17.0523 9.19849 17.5003 9.64549 17.5003 10.1985C17.5003 10.7515 17.0523 11.1985 16.5003 11.1985H8.50031C7.94831 11.1985 7.50031 10.7515 7.50031 10.1985ZM9.50031 8.19849H15.5003C16.0523 8.19849 16.5003 7.75149 16.5003 7.19849C16.5003 6.64549 16.0523 6.19849 15.5003 6.19849H9.50031C8.94831 6.19849 8.50031 6.64549 8.50031 7.19849C8.50031 7.75149 8.94831 8.19849 9.50031 8.19849ZM22.5003 13.6855V16.1985C22.5003 18.9555 20.2573 21.1985 17.5003 21.1985H7.50031C4.74331 21.1985 2.50031 18.9555 2.50031 16.1985V13.6855C2.50031 13.2535 2.56932 12.8274 2.70532 12.4194L4.64032 6.61646C5.32232 4.57146 7.2283 3.19751 9.3833 3.19751H15.6173C17.7723 3.19751 19.6793 4.57146 20.3603 6.61646L22.2953 12.4194C22.4313 12.8274 22.5003 13.2545 22.5003 13.6855ZM4.88733 12.1985H9.50031C10.0523 12.1985 10.5003 12.6455 10.5003 13.1985C10.5003 14.3015 11.3973 15.1985 12.5003 15.1985C13.6033 15.1985 14.5003 14.3015 14.5003 13.1985C14.5003 12.6455 14.9483 12.1985 15.5003 12.1985H20.1133L18.4633 7.25049C18.0543 6.02249 16.9103 5.19849 15.6173 5.19849H9.3833C8.0903 5.19849 6.94629 6.02249 6.53729 7.25049L4.88733 12.1985ZM20.5003 16.1985V14.1985H16.3743C15.9293 15.9225 14.3613 17.1985 12.5003 17.1985C10.6393 17.1985 9.07228 15.9225 8.62628 14.1985H4.50031V16.1985C4.50031 17.8525 5.84631 19.1985 7.50031 19.1985H17.5003C19.1543 19.1985 20.5003 17.8525 20.5003 16.1985Z" fill="#677A8E"/>
</svg>
