<svg width="25" height="25" viewBox="0 0 25 25" fill="none" xmlns="http://www.w3.org/2000/svg">
<path d="M17.5008 3.198H7.50079C4.74379 3.198 2.50079 5.441 2.50079 8.198V16.198C2.50079 16.603 2.56179 16.9899 2.65279 17.3669C2.66679 17.4159 2.67579 17.463 2.69679 17.51C3.27779 19.628 5.19979 21.198 7.49979 21.198H17.4998C20.2568 21.198 22.4998 18.955 22.4998 16.198V8.198C22.5008 5.441 20.2578 3.198 17.5008 3.198ZM7.50079 5.198H17.5008C19.1548 5.198 20.5008 6.544 20.5008 8.198V12.7839L16.9178 9.19995C16.1368 8.42095 14.8658 8.41993 14.0848 9.20093L9.5018 13.7839L8.91879 13.2C8.13779 12.421 6.8668 12.4199 6.0858 13.2009L4.50279 14.7839V8.198C4.50079 6.544 5.84679 5.198 7.50079 5.198ZM17.5008 19.198H7.50079C6.26379 19.198 5.19979 18.445 4.74179 17.373L7.5038 14.615L8.44479 15.5559C9.02779 16.1369 9.9758 16.1379 10.5578 15.5549L15.5038 10.615L20.5008 15.6121V16.198C20.5008 17.852 19.1548 19.198 17.5008 19.198ZM7.00079 9.198C7.00079 8.37 7.67279 7.698 8.50079 7.698C9.32879 7.698 10.0008 8.37 10.0008 9.198C10.0008 10.026 9.32879 10.698 8.50079 10.698C7.67279 10.698 7.00079 10.026 7.00079 9.198Z" fill="#677A8E"/>
</svg>
