<svg width="25" height="25" viewBox="0 0 25 25" fill="none" xmlns="http://www.w3.org/2000/svg">
<path d="M17.5003 4.198H7.50031C4.74331 4.198 2.50031 6.441 2.50031 9.198V15.198C2.50031 17.955 4.74331 20.198 7.50031 20.198H17.5003C20.2573 20.198 22.5003 17.955 22.5003 15.198V9.198C22.5003 6.441 20.2573 4.198 17.5003 4.198ZM20.5003 15.198C20.5003 16.852 19.1543 18.198 17.5003 18.198H7.50031C5.84631 18.198 4.50031 16.852 4.50031 15.198V11.198H20.5003V15.198ZM4.50031 9.198C4.50031 7.544 5.84631 6.198 7.50031 6.198H17.5003C19.1543 6.198 20.5003 7.544 20.5003 9.198H4.50031ZM6.50031 15.198C6.50031 14.645 6.94831 14.198 7.50031 14.198H10.5003C11.0523 14.198 11.5003 14.645 11.5003 15.198C11.5003 15.751 11.0523 16.198 10.5003 16.198H7.50031C6.94831 16.198 6.50031 15.751 6.50031 15.198Z" fill="#677A8E"/>
</svg>
