<svg width="25" height="25" viewBox="0 0 25 25" fill="none" xmlns="http://www.w3.org/2000/svg">
<path d="M21.5003 7.198V17.198C21.5003 19.955 19.2573 22.198 16.5003 22.198H12.5003C11.9483 22.198 11.5003 21.751 11.5003 21.198C11.5003 20.645 11.9483 20.198 12.5003 20.198H16.5003C18.1543 20.198 19.5003 18.852 19.5003 17.198V7.198C19.5003 5.544 18.1543 4.198 16.5003 4.198H12.5003C11.9483 4.198 11.5003 3.751 11.5003 3.198C11.5003 2.645 11.9483 2.198 12.5003 2.198H16.5003C19.2573 2.198 21.5003 4.441 21.5003 7.198ZM15.4233 12.58C15.5243 12.336 15.5243 12.06 15.4233 11.816C15.3723 11.693 15.2993 11.583 15.2063 11.49L11.2073 7.49097C10.8163 7.09997 10.1843 7.09997 9.7933 7.49097C9.4023 7.88197 9.4023 8.51403 9.7933 8.90503L12.0863 11.198H4.50031C3.94831 11.198 3.50031 11.645 3.50031 12.198C3.50031 12.751 3.94831 13.198 4.50031 13.198H12.0863L9.7933 15.491C9.4023 15.882 9.4023 16.514 9.7933 16.905C9.9883 17.1 10.2443 17.198 10.5003 17.198C10.7563 17.198 11.0123 17.1 11.2073 16.905L15.2063 12.906C15.2993 12.813 15.3723 12.703 15.4233 12.58Z" fill="#677A8E"/>
</svg>
