<svg width="25" height="25" viewBox="0 0 25 25" fill="none" xmlns="http://www.w3.org/2000/svg">
<path d="M11.5003 15.1988V18.1988C11.5003 18.7518 11.0523 19.1988 10.5003 19.1988C9.94831 19.1988 9.50031 18.7518 9.50031 18.1988V15.1988C9.50031 14.6458 9.94831 14.1988 10.5003 14.1988C11.0523 14.1988 11.5003 14.6458 11.5003 15.1988ZM14.5003 14.1988C13.9483 14.1988 13.5003 14.6458 13.5003 15.1988V18.1988C13.5003 18.7518 13.9483 19.1988 14.5003 19.1988C15.0523 19.1988 15.5003 18.7518 15.5003 18.1988V15.1988C15.5003 14.6458 15.0523 14.1988 14.5003 14.1988ZM20.9293 12.8198L20.1783 18.7048C19.9243 20.6958 18.2183 22.1979 16.2103 22.1979H8.81232C6.81132 22.1979 5.10631 20.7019 4.84631 18.7179L4.0733 12.8208C3.1413 12.3108 2.50031 11.3338 2.50031 10.1988C2.50031 8.54484 3.84631 7.19884 5.50031 7.19884H6.9343L9.64331 2.68382C9.92731 2.20982 10.5403 2.0568 11.0153 2.3408C11.4893 2.6248 11.6423 3.23887 11.3583 3.71287L9.2673 7.19786H15.7353L13.6443 3.71287C13.3603 3.23887 13.5133 2.6248 13.9873 2.3408C14.4613 2.0568 15.0753 2.20982 15.3593 2.68382L18.0683 7.19884H19.5003C21.1543 7.19884 22.5003 8.54484 22.5003 10.1988C22.5003 11.3328 21.8603 12.3098 20.9293 12.8198ZM4.50031 10.1988C4.50031 10.7508 4.94931 11.1988 5.50031 11.1988H19.5003C20.0513 11.1988 20.5003 10.7508 20.5003 10.1988C20.5003 9.64684 20.0513 9.19884 19.5003 9.19884H5.50031C4.94931 9.19884 4.50031 9.64684 4.50031 10.1988ZM18.8643 13.1988H6.14032L6.83029 18.4588C6.95929 19.4508 7.81232 20.1988 8.81232 20.1988H16.2103C17.2143 20.1988 18.0673 19.4479 18.1933 18.4529L18.8643 13.1988Z" fill="#677A8E"/>
</svg>
