<svg width="25" height="25" viewBox="0 0 25 25" fill="none" xmlns="http://www.w3.org/2000/svg">
<path d="M21.3403 7.49805C20.6233 7.11305 19.7583 7.154 19.0823 7.604L16.4173 9.375C16.0223 7.01 13.9753 5.198 11.5003 5.198H7.50031C4.74331 5.198 2.50031 7.441 2.50031 10.198V14.198C2.50031 16.955 4.74331 19.198 7.50031 19.198H11.5003C13.9753 19.198 16.0213 17.385 16.4173 15.021L19.0823 16.792C19.4513 17.037 19.8743 17.1599 20.3003 17.1599C20.6563 17.1599 21.0133 17.0729 21.3403 16.8979C22.0563 16.5149 22.5003 15.772 22.5003 14.96V9.43701C22.5003 8.62401 22.0563 7.88105 21.3403 7.49805ZM14.5003 14.198C14.5003 15.852 13.1543 17.198 11.5003 17.198H7.50031C5.84631 17.198 4.50031 15.852 4.50031 14.198V10.198C4.50031 8.544 5.84631 7.198 7.50031 7.198H11.5003C13.1543 7.198 14.5003 8.544 14.5003 10.198V14.198ZM20.5003 14.96C20.5003 15.039 20.4653 15.099 20.3953 15.136C20.3243 15.175 20.2543 15.17 20.1893 15.126L16.5003 12.6741V11.7219L20.1893 9.27002C20.2543 9.22602 20.3243 9.22101 20.3953 9.26001C20.4653 9.29701 20.5003 9.35704 20.5003 9.43604V14.96Z" fill="#677A8E"/>
</svg>
