<svg width="24" height="25" viewBox="0 0 24 25" fill="none" xmlns="http://www.w3.org/2000/svg">
<path d="M22.5002 12.698C22.5009 12.9526 22.4356 13.2031 22.3107 13.425C22.1859 13.647 22.0057 13.8328 21.7877 13.9645L8.28024 22.2277C8.05251 22.3671 7.79168 22.4432 7.52469 22.4482C7.2577 22.4531 6.99423 22.3867 6.76149 22.2558C6.53097 22.1269 6.33894 21.9389 6.20515 21.7112C6.07135 21.4835 6.00063 21.2243 6.00024 20.9602V4.43579C6.00063 4.17168 6.07135 3.91244 6.20515 3.68473C6.33894 3.45702 6.53097 3.26905 6.76149 3.14017C6.99423 3.00924 7.2577 2.94282 7.52469 2.94777C7.79168 2.95271 8.05251 3.02884 8.28024 3.16829L21.7877 11.4314C22.0057 11.5631 22.1859 11.749 22.3107 11.9709C22.4356 12.1929 22.5009 12.4433 22.5002 12.698Z" fill="#677A8E"/>
</svg>
