<svg width="25" height="25" viewBox="0 0 25 25" fill="none" xmlns="http://www.w3.org/2000/svg">
<path d="M21.9389 10.1855C20.5973 7.94955 17.5861 4.19849 12.4975 4.19849C7.4099 4.19849 4.39872 7.94955 3.05609 10.1855C2.3113 11.4265 2.3113 12.9694 3.05609 14.2104C4.39872 16.4464 7.4099 20.1975 12.4975 20.1975C17.5861 20.1975 20.5973 16.4464 21.9389 14.2104C22.6837 12.9694 22.6837 11.4275 21.9389 10.1855ZM20.2244 13.1815C19.0997 15.0555 16.6014 18.1985 12.4975 18.1985C8.39463 18.1985 5.89531 15.0545 4.77062 13.1815C4.40672 12.5755 4.40672 11.8215 4.77062 11.2145C5.89531 9.34148 8.39463 6.19751 12.4975 6.19751C16.6014 6.19751 19.0997 9.34048 20.2244 11.2145C20.5883 11.8215 20.5883 12.5755 20.2244 13.1815ZM12.4975 7.69849C10.0172 7.69849 7.99873 9.71749 7.99873 12.1985C7.99873 14.6795 10.0172 16.6985 12.4975 16.6985C14.9778 16.6985 16.9963 14.6795 16.9963 12.1985C16.9963 9.71749 14.9778 7.69849 12.4975 7.69849ZM12.4975 14.6985C11.1199 14.6985 9.99819 13.5775 9.99819 12.1985C9.99819 10.8195 11.1199 9.69849 12.4975 9.69849C13.8751 9.69849 14.9968 10.8195 14.9968 12.1985C14.9968 13.5775 13.8751 14.6985 12.4975 14.6985Z" fill="#677A8E"/>
</svg>
