<svg width="25" height="25" viewBox="0 0 25 25" fill="none" xmlns="http://www.w3.org/2000/svg">
<path d="M21.0375 10.196L14.5035 3.66296C13.5595 2.71896 12.3035 2.198 10.9685 2.198H6.50153C4.29553 2.198 2.50153 3.992 2.50153 6.198V10.6639C2.50153 11.9989 3.02152 13.255 3.96552 14.2L10.4995 20.733C11.4435 21.677 12.6995 22.198 14.0345 22.198C15.3705 22.198 16.6255 21.677 17.5705 20.733L21.0365 17.267C22.9865 15.318 22.9865 12.145 21.0375 10.196ZM19.6235 15.853L16.1575 19.319C15.0245 20.451 13.0495 20.453 11.9145 19.319L5.38052 12.786C4.81352 12.219 4.50153 11.4649 4.50153 10.6639V6.198C4.50153 5.095 5.39853 4.198 6.50153 4.198H10.9675C11.7575 4.198 12.5295 4.51803 13.0885 5.07703L19.6225 11.61C20.7925 12.78 20.7925 14.683 19.6235 15.853ZM9.50153 7.698C9.50153 8.526 8.82953 9.198 8.00153 9.198C7.17353 9.198 6.50153 8.526 6.50153 7.698C6.50153 6.87 7.17353 6.198 8.00153 6.198C8.82953 6.198 9.50153 6.87 9.50153 7.698Z" fill="#677A8E"/>
</svg>
