<svg width="25" height="25" viewBox="0 0 25 25" fill="none" xmlns="http://www.w3.org/2000/svg">
<path d="M15.5003 9.198H9.50031V7.198C9.50031 5.544 10.8463 4.198 12.5003 4.198C13.8983 4.198 15.2023 5.16502 15.5323 6.44702C15.6693 6.98102 16.2123 7.30599 16.7493 7.16699C17.2843 7.02899 17.6063 6.48397 17.4683 5.94897C16.9093 3.77597 14.8203 2.198 12.5003 2.198C9.74331 2.198 7.50031 4.441 7.50031 7.198V9.62195C5.73731 10.3959 4.50031 12.153 4.50031 14.198V17.198C4.50031 19.955 6.74331 22.198 9.50031 22.198H15.5003C18.2573 22.198 20.5003 19.955 20.5003 17.198V14.198C20.5003 11.441 18.2573 9.198 15.5003 9.198ZM18.5003 17.198C18.5003 18.852 17.1543 20.198 15.5003 20.198H9.50031C7.84631 20.198 6.50031 18.852 6.50031 17.198V14.198C6.50031 12.544 7.84631 11.198 9.50031 11.198H15.5003C17.1543 11.198 18.5003 12.544 18.5003 14.198V17.198ZM13.5003 15.198V16.198C13.5003 16.751 13.0523 17.198 12.5003 17.198C11.9483 17.198 11.5003 16.751 11.5003 16.198V15.198C11.5003 14.645 11.9483 14.198 12.5003 14.198C13.0523 14.198 13.5003 14.645 13.5003 15.198Z" fill="#677A8E"/>
</svg>
