<svg width="25" height="25" viewBox="0 0 25 25" fill="none" xmlns="http://www.w3.org/2000/svg">
<path d="M18.0553 6.22803L16.9253 4.53394C16.3673 3.69694 15.4343 3.198 14.4293 3.198H10.5703C9.56531 3.198 8.63231 3.69694 8.07431 4.53394L6.94431 6.22803C4.44731 6.50503 2.50031 8.628 2.50031 11.198V16.198C2.50031 18.955 4.74331 21.198 7.50031 21.198H17.5003C20.2573 21.198 22.5003 18.955 22.5003 16.198V11.198C22.4993 8.629 20.5513 6.50603 18.0553 6.22803ZM20.4993 16.198C20.4993 17.852 19.1533 19.198 17.4993 19.198H7.4993C5.8453 19.198 4.4993 17.852 4.4993 16.198V11.198C4.4993 9.544 5.8453 8.198 7.4993 8.198C7.8333 8.198 8.1453 8.03093 8.3313 7.75293L9.7373 5.64404C9.9233 5.36504 10.2343 5.19897 10.5693 5.19897H14.4283C14.7633 5.19897 15.0743 5.36504 15.2603 5.64404L16.6663 7.75293C16.8523 8.03093 17.1643 8.198 17.4983 8.198C19.1523 8.198 20.4983 9.544 20.4983 11.198V16.198H20.4993ZM12.4993 9.198C10.2933 9.198 8.4993 10.992 8.4993 13.198C8.4993 15.404 10.2933 17.198 12.4993 17.198C14.7053 17.198 16.4993 15.404 16.4993 13.198C16.4993 10.992 14.7053 9.198 12.4993 9.198ZM12.4993 15.198C11.3963 15.198 10.4993 14.301 10.4993 13.198C10.4993 12.095 11.3963 11.198 12.4993 11.198C13.6023 11.198 14.4993 12.095 14.4993 13.198C14.4993 14.301 13.6023 15.198 12.4993 15.198ZM19.4993 10.198C19.4993 10.75 19.0513 11.198 18.4993 11.198C17.9473 11.198 17.4993 10.75 17.4993 10.198C17.4993 9.646 17.9473 9.198 18.4993 9.198C19.0513 9.198 19.4993 9.646 19.4993 10.198Z" fill="#677A8E"/>
</svg>
