<svg width="25" height="25" viewBox="0 0 25 25" fill="none" xmlns="http://www.w3.org/2000/svg">
<path d="M20.2072 14.905L13.2072 21.905C13.0122 22.1 12.7562 22.198 12.5002 22.198C12.2442 22.198 11.9883 22.1 11.7933 21.905L4.79325 14.905C4.40225 14.514 4.40225 13.882 4.79325 13.491C5.18425 13.1 5.81619 13.1 6.20719 13.491L11.5002 18.7841V3.198C11.5002 2.645 11.9472 2.198 12.5002 2.198C13.0532 2.198 13.5002 2.645 13.5002 3.198V18.7841L18.7933 13.491C19.1842 13.1 19.8162 13.1 20.2072 13.491C20.5982 13.882 20.5982 14.514 20.2072 14.905Z" fill="#677A8E"/>
</svg>
