<svg width="24" height="25" viewBox="0 0 24 25" fill="none" xmlns="http://www.w3.org/2000/svg">
<path d="M8.50031 3.698C6.92031 3.698 5.59733 4.757 5.16333 6.198H3.00031C2.44831 6.198 2.00031 6.645 2.00031 7.198C2.00031 7.751 2.44831 8.198 3.00031 8.198H5.16333C5.59733 9.639 6.92031 10.698 8.50031 10.698C10.4303 10.698 12.0003 9.128 12.0003 7.198C12.0003 5.268 10.4303 3.698 8.50031 3.698ZM8.50031 8.698C7.67331 8.698 7.00031 8.025 7.00031 7.198C7.00031 6.371 7.67331 5.698 8.50031 5.698C9.32731 5.698 10.0003 6.371 10.0003 7.198C10.0003 8.025 9.32731 8.698 8.50031 8.698ZM14.0003 7.198C14.0003 6.645 14.4483 6.198 15.0003 6.198H21.0003C21.5523 6.198 22.0003 6.645 22.0003 7.198C22.0003 7.751 21.5523 8.198 21.0003 8.198H15.0003C14.4483 8.198 14.0003 7.751 14.0003 7.198ZM21.0003 16.198H18.8373C18.4033 14.757 17.0803 13.698 15.5003 13.698C13.5703 13.698 12.0003 15.268 12.0003 17.198C12.0003 19.128 13.5703 20.698 15.5003 20.698C17.0803 20.698 18.4033 19.639 18.8373 18.198H21.0003C21.5523 18.198 22.0003 17.751 22.0003 17.198C22.0003 16.645 21.5523 16.198 21.0003 16.198ZM15.5003 18.698C14.6733 18.698 14.0003 18.025 14.0003 17.198C14.0003 16.371 14.6733 15.698 15.5003 15.698C16.3273 15.698 17.0003 16.371 17.0003 17.198C17.0003 18.025 16.3273 18.698 15.5003 18.698ZM10.0003 17.198C10.0003 17.751 9.55231 18.198 9.00031 18.198H3.00031C2.44831 18.198 2.00031 17.751 2.00031 17.198C2.00031 16.645 2.44831 16.198 3.00031 16.198H9.00031C9.55231 16.198 10.0003 16.645 10.0003 17.198Z" fill="#677A8E"/>
</svg>
