<svg width="25" height="25" viewBox="0 0 25 25" fill="none" xmlns="http://www.w3.org/2000/svg">
<path d="M21.6039 3.09512C20.8389 2.33012 19.7569 2.02914 18.7039 2.29214L5.59092 5.5701C3.72892 6.0351 2.48692 7.63718 2.49992 9.55618C2.51392 11.4752 3.77791 13.0602 5.64591 13.4992L10.1409 14.557L11.1989 19.0512C11.6379 20.9202 13.2229 22.1842 15.1419 22.1972C15.1519 22.1972 15.1629 22.1972 15.1729 22.1972C17.0779 22.1972 18.6659 20.9591 19.1299 19.1071L22.4079 5.99307C22.6699 4.94507 22.3699 3.86112 21.6039 3.09512ZM20.4669 5.51114L17.1889 18.6242C16.8959 19.7942 15.9449 20.2331 15.1559 20.1991C14.3649 20.1931 13.4219 19.7691 13.1459 18.5951L12.0739 14.0401L16.2079 9.90713C16.5989 9.51613 16.5989 8.88407 16.2079 8.49307C15.8169 8.10207 15.1849 8.10207 14.7939 8.49307L10.6599 12.6261L6.1049 11.5541C4.9309 11.2781 4.50589 10.3351 4.50089 9.5441C4.49589 8.7531 4.90694 7.80414 6.07694 7.51114L19.1899 4.23318C19.2849 4.21018 19.3739 4.2001 19.4569 4.2001C19.8329 4.2001 20.0869 4.40714 20.1909 4.51114C20.3159 4.63714 20.5979 4.98814 20.4669 5.51114Z" fill="#677A8E"/>
</svg>
