<svg width="28" height="29" viewBox="0 0 28 29" fill="none" xmlns="http://www.w3.org/2000/svg">
<path d="M10.7503 15.1981C11.347 15.1981 11.9193 15.4352 12.3413 15.8571C12.7633 16.2791 13.0003 16.8514 13.0003 17.4481V22.9481C13.0003 23.5449 12.7633 24.1172 12.3413 24.5391C11.9193 24.9611 11.347 25.1981 10.7503 25.1981H5.25031C4.65357 25.1981 4.08127 24.9611 3.65931 24.5391C3.23736 24.1172 3.00031 23.5449 3.00031 22.9481V17.4481C3.00031 16.8514 3.23736 16.2791 3.65931 15.8571C4.08127 15.4352 4.65357 15.1981 5.25031 15.1981H10.7503ZM18.3353 15.1981V18.5311H21.6673V21.8651H18.3353V25.1971H15.0003V21.8641H18.3333V18.5311H15.0003V15.1981H18.3343H18.3353ZM25.0003 21.8641V25.1981H21.6673V21.8651H25.0003V21.8641ZM10.7503 16.6981H5.25031C5.05139 16.6981 4.86063 16.7771 4.71997 16.9178C4.57932 17.0584 4.50031 17.2492 4.50031 17.4481V22.9481C4.50031 23.3621 4.83631 23.6981 5.25031 23.6981H10.7503C10.9492 23.6981 11.14 23.6191 11.2806 23.4785C11.4213 23.3378 11.5003 23.147 11.5003 22.9481V17.4481C11.5003 17.2492 11.4213 17.0584 11.2806 16.9178C11.14 16.7771 10.9492 16.6981 10.7503 16.6981ZM9.50031 18.6981V21.6981H6.50031V18.6981H9.50031ZM25.0003 15.1981V18.5311H21.6673V15.1981H25.0003ZM10.7503 3.19812C11.347 3.19812 11.9193 3.43517 12.3413 3.85713C12.7633 4.27909 13.0003 4.85138 13.0003 5.44812V10.9481C13.0003 11.5449 12.7633 12.1172 12.3413 12.5391C11.9193 12.9611 11.347 13.1981 10.7503 13.1981H5.25031C4.65357 13.1981 4.08127 12.9611 3.65931 12.5391C3.23736 12.1172 3.00031 11.5449 3.00031 10.9481V5.44812C3.00031 4.85138 3.23736 4.27909 3.65931 3.85713C4.08127 3.43517 4.65357 3.19812 5.25031 3.19812H10.7503ZM22.7503 3.19812C23.347 3.19812 23.9193 3.43517 24.3413 3.85713C24.7633 4.27909 25.0003 4.85138 25.0003 5.44812V10.9481C25.0003 11.5449 24.7633 12.1172 24.3413 12.5391C23.9193 12.9611 23.347 13.1981 22.7503 13.1981H17.2503C16.6536 13.1981 16.0813 12.9611 15.6593 12.5391C15.2374 12.1172 15.0003 11.5449 15.0003 10.9481V5.44812C15.0003 4.85138 15.2374 4.27909 15.6593 3.85713C16.0813 3.43517 16.6536 3.19812 17.2503 3.19812H22.7503ZM10.7503 4.69812H5.25031C5.05139 4.69812 4.86063 4.77714 4.71997 4.91779C4.57932 5.05844 4.50031 5.24921 4.50031 5.44812V10.9481C4.50031 11.3621 4.83631 11.6981 5.25031 11.6981H10.7503C10.9492 11.6981 11.14 11.6191 11.2806 11.4784C11.4213 11.3378 11.5003 11.147 11.5003 10.9481V5.44812C11.5003 5.24921 11.4213 5.05844 11.2806 4.91779C11.14 4.77714 10.9492 4.69812 10.7503 4.69812ZM22.7503 4.69812H17.2503C17.0514 4.69812 16.8606 4.77714 16.72 4.91779C16.5793 5.05844 16.5003 5.24921 16.5003 5.44812V10.9481C16.5003 11.3621 16.8363 11.6981 17.2503 11.6981H22.7503C22.9492 11.6981 23.14 11.6191 23.2806 11.4784C23.4213 11.3378 23.5003 11.147 23.5003 10.9481V5.44812C23.5003 5.24921 23.4213 5.05844 23.2806 4.91779C23.14 4.77714 22.9492 4.69812 22.7503 4.69812ZM9.50031 6.69812V9.69812H6.50031V6.69812H9.50031ZM21.5003 6.69812V9.69812H18.5003V6.69812H21.5003Z" fill="#677A8E"/>
</svg>
