<svg width="25" height="25" viewBox="0 0 25 25" fill="none" xmlns="http://www.w3.org/2000/svg">
<path fill-rule="evenodd" clip-rule="evenodd" d="M5.50031 2.198C3.84345 2.198 2.50031 3.54114 2.50031 5.198V12.198C2.50031 12.7503 2.94802 13.198 3.50031 13.198H10.5003C11.0526 13.198 11.5003 12.7503 11.5003 12.198V3.198C11.5003 2.64571 11.0526 2.198 10.5003 2.198H5.50031ZM4.50031 5.198C4.50031 4.64571 4.94802 4.198 5.50031 4.198H9.50031V11.198H4.50031V5.198Z" fill="#677A8E"/>
<path fill-rule="evenodd" clip-rule="evenodd" d="M3.50031 15.198C2.94802 15.198 2.50031 15.6457 2.50031 16.198V19.198C2.50031 20.8549 3.84345 22.198 5.50031 22.198H10.5003C11.0526 22.198 11.5003 21.7503 11.5003 21.198V16.198C11.5003 15.6457 11.0526 15.198 10.5003 15.198H3.50031ZM4.50031 19.198V17.198H9.50031V20.198H5.50031C4.94802 20.198 4.50031 19.7503 4.50031 19.198Z" fill="#677A8E"/>
<path fill-rule="evenodd" clip-rule="evenodd" d="M13.5003 12.198C13.5003 11.6457 13.948 11.198 14.5003 11.198H21.5003C22.0526 11.198 22.5003 11.6457 22.5003 12.198V19.198C22.5003 20.8549 21.1572 22.198 19.5003 22.198H14.5003C13.948 22.198 13.5003 21.7503 13.5003 21.198V12.198ZM15.5003 13.198V20.198H19.5003C20.0526 20.198 20.5003 19.7503 20.5003 19.198V13.198H15.5003Z" fill="#677A8E"/>
<path fill-rule="evenodd" clip-rule="evenodd" d="M14.5003 2.198C13.948 2.198 13.5003 2.64571 13.5003 3.198V8.198C13.5003 8.75028 13.948 9.198 14.5003 9.198H21.5003C22.0526 9.198 22.5003 8.75028 22.5003 8.198V5.198C22.5003 3.54114 21.1572 2.198 19.5003 2.198H14.5003ZM15.5003 7.198V4.198H19.5003C20.0526 4.198 20.5003 4.64571 20.5003 5.198V7.198H15.5003Z" fill="#677A8E"/>
</svg>
