<svg width="25" height="25" viewBox="0 0 25 25" fill="none" xmlns="http://www.w3.org/2000/svg">
<path d="M22.3873 9.79297C22.1093 8.93197 21.3763 8.31696 20.4743 8.18896L16.4243 7.60901L14.6152 3.99805C14.2132 3.19605 13.4033 2.698 12.5003 2.698C11.5973 2.698 10.7873 3.19605 10.3853 3.99805L8.57625 7.60901L4.52626 8.18896C3.62426 8.31797 2.89126 8.93197 2.61326 9.79297C2.33826 10.647 2.57125 11.564 3.21925 12.188L6.14125 14.996L5.45225 18.9551C5.29925 19.8331 5.65326 20.707 6.37526 21.236C6.79226 21.542 7.28327 21.698 7.77727 21.698C8.15027 21.698 8.52624 21.609 8.87324 21.428L12.4993 19.55L16.1253 21.428C16.9343 21.848 17.8913 21.772 18.6243 21.236C19.3463 20.707 19.7003 19.8331 19.5473 18.9551L18.8583 14.996L21.7803 12.188C22.4293 11.564 22.6623 10.646 22.3873 9.79297ZM20.3952 10.746L17.0892 13.922C16.8492 14.151 16.7403 14.4861 16.7973 14.8151L17.5773 19.298C17.6063 19.463 17.5202 19.5661 17.4422 19.6221C17.3852 19.6631 17.2332 19.748 17.0462 19.652L12.9602 17.536C12.6722 17.386 12.3283 17.386 12.0403 17.536L7.95427 19.652C7.76727 19.748 7.61527 19.6631 7.55827 19.6221C7.48027 19.5651 7.39426 19.463 7.42326 19.298L8.20326 14.8151C8.26026 14.4871 8.15027 14.152 7.91127 13.922L4.60527 10.746C4.48027 10.626 4.48826 10.495 4.51726 10.407C4.54226 10.33 4.61325 10.1961 4.80925 10.1691L9.37727 9.51501C9.70227 9.46801 9.98326 9.26602 10.1293 8.97302L12.1723 4.89404C12.2573 4.72304 12.4143 4.698 12.4993 4.698C12.5843 4.698 12.7412 4.72304 12.8262 4.89404L14.8692 8.97302C15.0152 9.26602 15.2973 9.46801 15.6213 9.51501L20.1903 10.1691C20.3863 10.1961 20.4573 10.33 20.4823 10.407C20.5123 10.495 20.5202 10.626 20.3952 10.746Z" fill="#677A8E"/>
</svg>
