<svg width="25" height="25" viewBox="0 0 25 25" fill="none" xmlns="http://www.w3.org/2000/svg">
<path d="M8.79333 8.90503C8.40234 8.51403 8.40234 7.88197 8.79333 7.49097C9.18433 7.09997 9.81628 7.09997 10.2073 7.49097L11.5003 8.78406V4.198C11.5003 3.645 11.9483 3.198 12.5003 3.198C13.0523 3.198 13.5003 3.645 13.5003 4.198V8.78406L14.7933 7.49097C15.1843 7.09997 15.8163 7.09997 16.2073 7.49097C16.5983 7.88197 16.5983 8.51403 16.2073 8.90503L13.2073 11.905C13.0123 12.1 12.7563 12.198 12.5003 12.198C12.2443 12.198 11.9883 12.1 11.7933 11.905L8.79333 8.90503ZM17.5003 10.198C16.9483 10.198 16.5003 10.645 16.5003 11.198C16.5003 11.751 16.9483 12.198 17.5003 12.198C19.1543 12.198 20.5003 13.544 20.5003 15.198V16.198C20.5003 17.852 19.1543 19.198 17.5003 19.198H7.50031C5.84631 19.198 4.50031 17.852 4.50031 16.198V15.198C4.50031 13.544 5.84631 12.198 7.50031 12.198C8.05231 12.198 8.50031 11.751 8.50031 11.198C8.50031 10.645 8.05231 10.198 7.50031 10.198C4.74331 10.198 2.50031 12.441 2.50031 15.198V16.198C2.50031 18.955 4.74331 21.198 7.50031 21.198H17.5003C20.2573 21.198 22.5003 18.955 22.5003 16.198V15.198C22.5003 12.441 20.2573 10.198 17.5003 10.198ZM18.5003 15.198C18.5003 14.646 18.0523 14.198 17.5003 14.198C16.9483 14.198 16.5003 14.646 16.5003 15.198C16.5003 15.75 16.9483 16.198 17.5003 16.198C18.0523 16.198 18.5003 15.75 18.5003 15.198Z" fill="#677A8E"/>
</svg>
