<svg width="25" height="25" viewBox="0 0 25 25" fill="none" xmlns="http://www.w3.org/2000/svg">
<path d="M14.0003 18.198C14.0003 18.751 13.5523 19.198 13.0003 19.198H12.0003C11.4483 19.198 11.0003 18.751 11.0003 18.198C11.0003 17.645 11.4483 17.198 12.0003 17.198H13.0003C13.5523 17.198 14.0003 17.645 14.0003 18.198ZM20.5003 7.198V17.198C20.5003 19.955 18.2573 22.198 15.5003 22.198H9.50031C6.74331 22.198 4.50031 19.955 4.50031 17.198V7.198C4.50031 4.441 6.74331 2.198 9.50031 2.198H15.5003C18.2573 2.198 20.5003 4.441 20.5003 7.198ZM18.5003 7.198C18.5003 5.544 17.1543 4.198 15.5003 4.198H9.50031C7.84631 4.198 6.50031 5.544 6.50031 7.198V17.198C6.50031 18.852 7.84631 20.198 9.50031 20.198H15.5003C17.1543 20.198 18.5003 18.852 18.5003 17.198V7.198Z" fill="#677A8E"/>
</svg>
