<svg width="25" height="25" viewBox="0 0 25 25" fill="none" xmlns="http://www.w3.org/2000/svg">
<path d="M12.5002 2.198C6.98624 2.198 2.50024 6.684 2.50024 12.198C2.50024 17.712 6.98624 22.198 12.5002 22.198C18.0142 22.198 22.5002 17.712 22.5002 12.198C22.5002 6.684 18.0142 2.198 12.5002 2.198ZM12.5002 20.198C8.08924 20.198 4.50024 16.609 4.50024 12.198C4.50024 7.787 8.08924 4.198 12.5002 4.198C16.9112 4.198 20.5002 7.787 20.5002 12.198C20.5002 16.609 16.9112 20.198 12.5002 20.198ZM15.2072 11.491C15.5982 11.882 15.5982 12.514 15.2072 12.905L12.2072 15.905C12.0122 16.1 11.7562 16.198 11.5002 16.198C11.2442 16.198 10.9883 16.1 10.7933 15.905C10.4023 15.514 10.4023 14.882 10.7933 14.491L13.0862 12.198L10.7933 9.90503C10.4023 9.51403 10.4023 8.88197 10.7933 8.49097C11.1843 8.09997 11.8162 8.09997 12.2072 8.49097L15.2072 11.491Z" fill="#677A8E"/>
</svg>
