<svg width="25" height="25" viewBox="0 0 25 25" fill="none" xmlns="http://www.w3.org/2000/svg">
<path d="M19.4178 4.67987L15.0188 2.72533C13.4418 2.02613 11.5578 2.02613 9.98083 2.72533L5.58282 4.67987C3.70982 5.51111 2.49982 7.27557 2.49982 9.17312V15.2239C2.49982 17.1215 3.70979 18.8859 5.58179 19.7172L9.98181 21.6727C10.7618 22.0188 11.6178 22.1929 12.4738 22.1959C12.4828 22.1959 12.4908 22.2009 12.4998 22.2009C12.5088 22.2009 12.5168 22.1959 12.5258 22.1959C13.3818 22.1919 14.2378 22.0188 15.0188 21.6727L19.4178 19.7172C21.2908 18.8859 22.5008 17.1215 22.5008 15.2239V9.17312C22.4998 7.27557 21.2898 5.51111 19.4178 4.67987ZM14.2068 4.55386L18.6058 6.50841C18.7438 6.56942 18.8748 6.6394 18.9998 6.71342L16.9978 7.60369L10.4638 4.6999L10.7928 4.55386C11.8618 4.07972 13.1388 4.07972 14.2068 4.55386ZM7.99982 5.79519L14.5348 8.69898L13.6008 9.11414C12.9438 9.40722 12.0558 9.40722 11.3988 9.11414L5.99982 6.7144C6.12482 6.63938 6.2558 6.5704 6.3938 6.50938L7.99982 5.79519ZM6.3938 17.8886C5.2258 17.3695 4.49982 16.3493 4.49982 15.2239V9.17312C4.49982 8.87303 4.55483 8.58202 4.65283 8.30494L10.5868 10.9427C10.8748 11.0707 11.1828 11.1678 11.5008 11.2338V20.0703C11.2598 20.0123 11.0208 19.9452 10.7948 19.8442L6.3938 17.8886ZM20.4998 15.2239C20.4998 16.3493 19.7738 17.3705 18.6048 17.8886L14.2068 19.8442C13.9798 19.9442 13.7408 20.0123 13.4998 20.0703V11.2338C13.8178 11.1667 14.1258 11.0707 14.4138 10.9427L20.3478 8.30494C20.4458 8.58202 20.5008 8.87403 20.5008 9.17312L20.4998 15.2239Z" fill="#677A8E"/>
</svg>
