<svg width="25" height="25" viewBox="0 0 25 25" fill="none" xmlns="http://www.w3.org/2000/svg">
<path d="M17.5003 2.198H7.50031C4.74331 2.198 2.50031 4.441 2.50031 7.198V17.198C2.50031 19.955 4.74331 22.198 7.50031 22.198H17.5003C20.2573 22.198 22.5003 19.955 22.5003 17.198V7.198C22.5003 4.441 20.2573 2.198 17.5003 2.198ZM18.5003 13.198H20.5003V15.198H18.5003V13.198ZM18.5003 9.198H20.5003V11.198H18.5003V9.198ZM20.5003 7.198H18.5003V4.38208C19.6613 4.79608 20.5003 5.896 20.5003 7.198ZM16.5003 4.198V11.198H8.50031V4.198H16.5003ZM6.50031 15.198H4.50031V13.198H6.50031V15.198ZM4.50031 11.198V9.198H6.50031V11.198H4.50031ZM6.50031 4.38208V7.198H4.50031C4.50031 5.896 5.33931 4.79608 6.50031 4.38208ZM4.50031 17.198H6.50031V20.0139C5.33931 19.5999 4.50031 18.5 4.50031 17.198ZM8.50031 20.198V13.198H16.5003V20.198H8.50031ZM18.5003 20.0139V17.198H20.5003C20.5003 18.5 19.6613 19.5999 18.5003 20.0139Z" fill="#677A8E"/>
</svg>
