<svg width="25" height="25" viewBox="0 0 25 25" fill="none" xmlns="http://www.w3.org/2000/svg">
<path fill-rule="evenodd" clip-rule="evenodd" d="M9.50031 5.448C9.50031 4.85126 9.73736 4.27896 10.1593 3.85701C10.5813 3.43505 11.1536 3.198 11.7503 3.198H13.2503C13.847 3.198 14.4193 3.43505 14.8413 3.85701C15.2633 4.27896 15.5003 4.85126 15.5003 5.448V6.948C15.5003 7.54473 15.2633 8.11703 14.8413 8.53899C14.4193 8.96095 13.847 9.198 13.2503 9.198V10.698H17.0003C17.1992 10.698 17.39 10.777 17.5306 10.9177C17.6713 11.0583 17.7503 11.2491 17.7503 11.448V12.948C17.7503 13.1469 17.6713 13.3377 17.5306 13.4783C17.39 13.619 17.1992 13.698 17.0003 13.698C16.8014 13.698 16.6106 13.619 16.47 13.4783C16.3293 13.3377 16.2503 13.1469 16.2503 12.948V12.198H8.75031V12.948C8.75031 13.1469 8.67129 13.3377 8.53064 13.4783C8.38998 13.619 8.19922 13.698 8.00031 13.698C7.80139 13.698 7.61063 13.619 7.46998 13.4783C7.32932 13.3377 7.25031 13.1469 7.25031 12.948V11.448C7.25031 11.2491 7.32932 11.0583 7.46998 10.9177C7.61063 10.777 7.80139 10.698 8.00031 10.698H11.7503V9.198C11.1536 9.198 10.5813 8.96095 10.1593 8.53899C9.73736 8.11703 9.50031 7.54473 9.50031 6.948V5.448ZM13.2503 7.698C13.4492 7.698 13.64 7.61898 13.7806 7.47833C13.9213 7.33768 14.0003 7.14691 14.0003 6.948V5.448C14.0003 5.24909 13.9213 5.05832 13.7806 4.91767C13.64 4.77702 13.4492 4.698 13.2503 4.698H11.7503C11.5514 4.698 11.3606 4.77702 11.22 4.91767C11.0793 5.05832 11.0003 5.24909 11.0003 5.448V6.948C11.0003 7.14691 11.0793 7.33768 11.22 7.47833C11.3606 7.61898 11.5514 7.698 11.7503 7.698H13.2503ZM5.00031 17.448C5.00031 16.8513 5.23736 16.279 5.65931 15.857C6.08127 15.4351 6.65357 15.198 7.25031 15.198H8.75031C9.34704 15.198 9.91934 15.4351 10.3413 15.857C10.7633 16.279 11.0003 16.8513 11.0003 17.448V18.948C11.0003 19.5447 10.7633 20.117 10.3413 20.539C9.91934 20.9609 9.34704 21.198 8.75031 21.198H7.25031C6.65357 21.198 6.08127 20.9609 5.65931 20.539C5.23736 20.117 5.00031 19.5447 5.00031 18.948V17.448ZM7.25031 16.698C7.05139 16.698 6.86063 16.777 6.71998 16.9177C6.57932 17.0583 6.50031 17.2491 6.50031 17.448V18.948C6.50031 19.1469 6.57932 19.3377 6.71998 19.4783C6.86063 19.619 7.05139 19.698 7.25031 19.698H8.75031C8.94922 19.698 9.13998 19.619 9.28063 19.4783C9.42129 19.3377 9.50031 19.1469 9.50031 18.948V17.448C9.50031 17.2491 9.42129 17.0583 9.28063 16.9177C9.13998 16.777 8.94922 16.698 8.75031 16.698H7.25031ZM14.0003 17.448C14.0003 16.8513 14.2374 16.279 14.6593 15.857C15.0813 15.4351 15.6536 15.198 16.2503 15.198H17.7503C18.347 15.198 18.9193 15.4351 19.3413 15.857C19.7633 16.279 20.0003 16.8513 20.0003 17.448V18.948C20.0003 19.5447 19.7633 20.117 19.3413 20.539C18.9193 20.9609 18.347 21.198 17.7503 21.198H16.2503C15.6536 21.198 15.0813 20.9609 14.6593 20.539C14.2374 20.117 14.0003 19.5447 14.0003 18.948V17.448ZM16.2503 16.698C16.0514 16.698 15.8606 16.777 15.72 16.9177C15.5793 17.0583 15.5003 17.2491 15.5003 17.448V18.948C15.5003 19.1469 15.5793 19.3377 15.72 19.4783C15.8606 19.619 16.0514 19.698 16.2503 19.698H17.7503C17.9492 19.698 18.14 19.619 18.2806 19.4783C18.4213 19.3377 18.5003 19.1469 18.5003 18.948V17.448C18.5003 17.2491 18.4213 17.0583 18.2806 16.9177C18.14 16.777 17.9492 16.698 17.7503 16.698H16.2503Z" fill="#677A8E"/>
</svg>
