<svg width="24" height="25" viewBox="0 0 24 25" fill="none" xmlns="http://www.w3.org/2000/svg">
<path d="M20.7013 14.9341L15.6774 19.9761C14.2706 21.3881 12.3132 22.198 10.3068 22.198C8.33144 22.198 6.49196 21.442 5.12608 20.071C2.24545 17.179 2.28744 12.432 5.22103 9.48901L10.9443 3.745C11.9385 2.747 13.2594 2.198 14.6663 2.198C16.0731 2.198 17.394 2.747 18.3882 3.745C20.4385 5.803 20.4385 9.15001 18.3882 11.208L12.6379 16.979C11.4559 18.167 9.3906 18.167 8.20857 16.979C6.98957 15.756 6.98957 13.765 8.20857 12.542L13.2594 7.47302C13.6481 7.08102 14.2806 7.08095 14.6722 7.47095C15.0629 7.86095 15.0639 8.49401 14.6743 8.88501L9.62336 13.954C9.18072 14.398 9.18072 15.1219 9.62336 15.5659C10.052 15.9959 10.7944 15.9959 11.2221 15.5659L16.9724 9.79504C18.2463 8.51604 18.2463 6.43601 16.9724 5.15601C15.7404 3.92001 13.5911 3.92001 12.3591 5.15601L6.63582 10.9C4.51457 13.028 4.47163 16.581 6.54093 18.658C7.52912 19.65 8.867 20.197 10.3068 20.197C11.7856 20.197 13.2274 19.601 14.2626 18.563L19.2864 13.521C19.6761 13.129 20.3076 13.129 20.6993 13.519C21.09 13.91 21.091 14.5441 20.7013 14.9341Z" fill="#677A8E"/>
</svg>
