<svg width="25" height="25" viewBox="0 0 25 25" fill="none" xmlns="http://www.w3.org/2000/svg">
<path d="M19.9143 7.198L15.5003 2.78406C15.1223 2.40606 14.6203 2.198 14.0863 2.198H9.50031C6.74331 2.198 4.50031 4.441 4.50031 7.198V17.198C4.50031 19.955 6.74331 22.198 9.50031 22.198H15.5003C18.2573 22.198 20.5003 19.955 20.5003 17.198V8.61194C20.5003 8.08594 20.2873 7.57 19.9143 7.198ZM15.5003 5.61194L17.0863 7.198H17.0003C16.1733 7.198 15.5003 6.525 15.5003 5.698V5.61194ZM15.5003 20.198H9.50031C7.84631 20.198 6.50031 18.852 6.50031 17.198V7.198C6.50031 5.544 7.84631 4.198 9.50031 4.198H13.5003V5.698C13.5003 7.628 15.0703 9.198 17.0003 9.198H18.5003V17.198C18.5003 18.852 17.1543 20.198 15.5003 20.198Z" fill="#677A8E"/>
</svg>
