<svg width="25" height="25" viewBox="0 0 25 25" fill="none" xmlns="http://www.w3.org/2000/svg">
<path d="M21.9243 8.86635C20.6903 5.34535 17.6283 2.82738 13.9313 2.29738C12.9973 2.16438 12.0053 2.16438 11.0683 2.29738C7.3733 2.82738 4.31132 5.34542 3.08032 8.85842C2.69532 9.92242 2.50031 11.0464 2.50031 12.1984C2.50031 13.3504 2.69529 14.4734 3.07629 15.5294C4.31029 19.0504 7.37227 21.5684 11.0693 22.0984C11.5363 22.1644 12.0173 22.1984 12.5003 22.1984C12.9833 22.1984 13.4643 22.1654 13.9323 22.0984C17.6273 21.5684 20.6893 19.0504 21.9203 15.5374C22.3053 14.4734 22.5003 13.3494 22.5003 12.1974C22.5003 11.0454 22.3053 9.92235 21.9243 8.86635ZM20.5003 12.1974C20.5003 12.8804 20.4143 13.5494 20.2433 14.1984H17.3653C17.4453 13.5344 17.5003 12.8674 17.5003 12.1974C17.5003 11.5274 17.4453 10.8604 17.3653 10.1984H20.2443C20.4143 10.8444 20.5003 11.5134 20.5003 12.1974ZM9.6543 14.1984C9.5633 13.5364 9.50031 12.8684 9.50031 12.1974C9.50031 11.5294 9.5623 10.8624 9.6543 10.1984H15.3473C15.4383 10.8604 15.5013 11.5274 15.5013 12.1974C15.5013 12.8664 15.4393 13.5334 15.3473 14.1984H9.6543ZM4.75629 14.1984C4.58629 13.5514 4.50031 12.8814 4.50031 12.1974C4.50031 11.5154 4.58629 10.8464 4.75629 10.1984H7.63531C7.55532 10.8614 7.50031 11.5284 7.50031 12.1974C7.50031 12.8684 7.55532 13.5364 7.63531 14.1984H4.75629ZM19.4093 8.19838H16.9983C16.7303 7.06738 16.3473 5.97739 15.8513 4.93239C17.3453 5.61839 18.5833 6.75738 19.4093 8.19838ZM13.2023 4.24636C13.9793 5.47936 14.5653 6.79938 14.9453 8.19838H10.0553C10.4343 6.80338 11.0203 5.48136 11.7983 4.24636C12.0323 4.22636 12.2633 4.19741 12.5003 4.19741C12.7383 4.19741 12.9693 4.22636 13.2023 4.24636ZM9.14929 4.93142C8.65229 5.97842 8.26928 7.06938 8.00128 8.19838H5.58929C6.41529 6.75838 7.65429 5.61842 9.14929 4.93142ZM5.59229 16.1984H8.00232C8.27032 17.3284 8.65329 18.4184 9.14929 19.4624C7.65629 18.7774 6.41929 17.6384 5.59229 16.1984ZM11.7973 20.1485C11.0213 18.9155 10.4353 17.5954 10.0553 16.1984H14.9443C14.5653 17.5934 13.9793 18.9145 13.2023 20.1485C12.7343 20.1875 12.2643 20.1875 11.7973 20.1485ZM15.8523 19.4634C16.3483 18.4174 16.7313 17.3274 16.9993 16.1984H19.4103C18.5843 17.6374 17.3463 18.7764 15.8523 19.4634Z" fill="#677A8E"/>
</svg>
