<svg width="25" height="25" viewBox="0 0 25 25" fill="none" xmlns="http://www.w3.org/2000/svg">
<path d="M22.4329 16.756C22.4079 16.612 22.3779 16.4849 22.3469 16.3749C22.1459 15.6569 21.5239 15.1108 20.7619 14.9828L16.4309 14.2619C15.7049 14.1449 14.9729 14.4229 14.5259 14.9909C14.4679 15.0639 14.4119 15.1398 14.2999 15.2638C12.1119 14.3128 10.3829 12.5829 9.46887 10.3439C9.57187 10.2749 9.67089 10.2009 9.76489 10.1239C10.3219 9.67493 10.5979 8.95498 10.4859 8.24698L9.81488 3.99185C9.69788 3.24685 9.18588 2.63796 8.47888 2.40396C8.32588 2.35296 8.14589 2.305 7.93689 2.267C6.59689 2.029 5.22585 2.40597 4.17285 3.30997C3.07185 4.25597 2.46387 5.62879 2.50287 7.07779C2.72487 15.3308 9.36489 21.972 17.6189 22.195C17.6619 22.196 17.7059 22.196 17.7489 22.196C19.1379 22.196 20.4509 21.5948 21.3669 20.5348C22.2789 19.4808 22.6669 18.103 22.4329 16.756ZM19.8539 19.2279C19.3029 19.8659 18.5249 20.2139 17.6719 20.1969C10.4809 20.0029 4.69485 14.2168 4.50085 7.02481C4.47885 6.18081 4.83389 5.38101 5.47589 4.82901C5.95789 4.41501 6.53487 4.19693 7.13287 4.19693C7.28087 4.19693 7.42989 4.21097 7.57989 4.23697C7.68289 4.25697 7.77186 4.27886 7.83886 4.30386L8.50488 8.57291C8.45488 8.61291 8.40286 8.65087 8.34686 8.68887C7.51186 9.25687 7.20286 10.287 7.59686 11.194C8.74986 13.848 10.8469 15.9448 13.4999 17.0988C14.4059 17.4928 15.4379 17.185 16.0069 16.35L16.0999 16.235L20.4199 16.9159C20.4349 16.9699 20.4489 17.03 20.4609 17.1C20.5929 17.853 20.3719 18.6299 19.8539 19.2279Z" fill="#677A8E"/>
</svg>
