<svg width="25" height="25" viewBox="0 0 25 25" fill="none" xmlns="http://www.w3.org/2000/svg">
<path d="M19.0003 2.198H6.00031C4.62231 2.198 3.50031 3.319 3.50031 4.698V6.78406C3.50031 7.31006 3.7133 7.826 4.0863 8.198L9.20731 13.319C9.39331 13.506 9.50031 13.763 9.50031 14.026V21.198C9.50031 21.577 9.71431 21.923 10.0533 22.093C10.1953 22.163 10.3483 22.198 10.5003 22.198C10.7123 22.198 10.9233 22.131 11.1003 21.998L15.1003 18.998C15.3523 18.81 15.5003 18.513 15.5003 18.198V14.026C15.5003 13.763 15.6073 13.505 15.7933 13.319L20.9143 8.198C21.2873 7.826 21.5003 7.31006 21.5003 6.78406V4.698C21.5003 3.319 20.3783 2.198 19.0003 2.198ZM6.00031 4.198H19.0003C19.2763 4.198 19.5003 4.423 19.5003 4.698V6.198H5.50031V4.698C5.50031 4.423 5.72431 4.198 6.00031 4.198ZM14.3793 11.905C13.8123 12.471 13.5003 13.225 13.5003 14.026V17.698L11.5003 19.198V14.026C11.5003 13.225 11.1883 12.471 10.6213 11.905L6.91431 8.198H18.0863L14.3793 11.905Z" fill="#677A8E"/>
</svg>
