<svg width="24" height="25" viewBox="0 0 24 25" fill="none" xmlns="http://www.w3.org/2000/svg">
<path fill-rule="evenodd" clip-rule="evenodd" d="M22.0005 5.82532C22.0005 7.13285 21.164 8.24502 19.997 8.65586C19.6852 8.76561 19.3498 8.82532 19.0005 8.82532C18.83 8.82532 18.6629 8.8111 18.5001 8.78378C18.1319 8.72195 17.7863 8.59301 17.4765 8.40997L7.58514 18.3014C7.76818 18.6111 7.89712 18.9567 7.95895 19.325C7.98627 19.4877 8.00049 19.6548 8.00049 19.8253C8.00049 20.1746 7.94079 20.51 7.83103 20.8218C7.42019 21.9888 6.30802 22.8253 5.00049 22.8253C3.34363 22.8253 2.00049 21.4822 2.00049 19.8253C2.00049 18.5178 2.83698 17.4056 4.00401 16.9948C4.3158 16.885 4.65117 16.8253 5.00049 16.8253C5.17096 16.8253 5.33812 16.8395 5.50083 16.8669C5.86915 16.9287 6.21471 17.0576 6.5245 17.2407L16.4159 7.34933C16.2328 7.03954 16.1039 6.69398 16.042 6.32566C16.0147 6.16295 16.0005 5.99579 16.0005 5.82532C16.0005 5.476 16.0602 5.14062 16.17 4.82884C16.5808 3.66181 17.693 2.82532 19.0005 2.82532C20.6573 2.82532 22.0005 4.16846 22.0005 5.82532ZM6.80049 19.8253C6.80049 20.8194 5.9946 21.6253 5.00049 21.6253C4.00638 21.6253 3.20049 20.8194 3.20049 19.8253C3.20049 18.8312 4.00638 18.0253 5.00049 18.0253C5.9946 18.0253 6.80049 18.8312 6.80049 19.8253ZM20.8005 5.82532C20.8005 6.81943 19.9946 7.62532 19.0005 7.62532C18.0064 7.62532 17.2005 6.81943 17.2005 5.82532C17.2005 4.8312 18.0064 4.02532 19.0005 4.02532C19.9946 4.02532 20.8005 4.8312 20.8005 5.82532Z" fill="#677A8E"/>
</svg>
