<svg width="25" height="25" viewBox="0 0 25 25" fill="none" xmlns="http://www.w3.org/2000/svg">
<ellipse cx="12.2485" cy="12.9067" rx="12" ry="12" fill="white"/>
<path fill-rule="evenodd" clip-rule="evenodd" d="M8.21222 13.1522C8.21222 13.0166 8.32211 12.9067 8.45767 12.9067H16.0395C16.175 12.9067 16.2849 13.0166 16.2849 13.1522C16.2849 13.2878 16.175 13.3976 16.0395 13.3976H8.45767C8.32211 13.3976 8.21222 13.2878 8.21222 13.1522ZM8.21222 15.1158C8.21222 14.9803 8.32211 14.8704 8.45767 14.8704H16.0395C16.175 14.8704 16.2849 14.9803 16.2849 15.1158C16.2849 15.2514 16.175 15.3613 16.0395 15.3613H8.45767C8.32211 15.3613 8.21222 15.2514 8.21222 15.1158ZM8.45767 16.834C8.32211 16.834 8.21222 16.9439 8.21222 17.0795C8.21222 17.215 8.32211 17.3249 8.45767 17.3249H16.0395C16.175 17.3249 16.2849 17.215 16.2849 17.0795C16.2849 16.9439 16.175 16.834 16.0395 16.834H8.45767Z" fill="black"/>
<path fill-rule="evenodd" clip-rule="evenodd" d="M9.9031 9.08842C10.0537 9.08842 10.1758 8.96632 10.1758 8.8157C10.1758 8.66507 10.0537 8.54297 9.9031 8.54297C9.75248 8.54297 9.63037 8.66507 9.63037 8.8157C9.63037 8.96632 9.75248 9.08842 9.9031 9.08842ZM14.7031 9.08842C14.8537 9.08842 14.9758 8.96632 14.9758 8.8157C14.9758 8.66507 14.8537 8.54297 14.7031 8.54297C14.5525 8.54297 14.4304 8.66507 14.4304 8.8157C14.4304 8.96632 14.5525 9.08842 14.7031 9.08842ZM12.5758 9.90661C12.5758 10.0572 12.4537 10.1793 12.3031 10.1793C12.1525 10.1793 12.0304 10.0572 12.0304 9.90661C12.0304 9.75598 12.1525 9.63388 12.3031 9.63388C12.4537 9.63388 12.5758 9.75598 12.5758 9.90661ZM9.9031 10.943C10.0537 10.943 10.1758 10.8209 10.1758 10.6702C10.1758 10.5196 10.0537 10.3975 9.9031 10.3975C9.75247 10.3975 9.63037 10.5196 9.63037 10.6702C9.63037 10.8209 9.75247 10.943 9.9031 10.943ZM14.9758 10.6702C14.9758 10.8209 14.8537 10.943 14.7031 10.943C14.5525 10.943 14.4304 10.8209 14.4304 10.6702C14.4304 10.5196 14.5525 10.3975 14.7031 10.3975C14.8537 10.3975 14.9758 10.5196 14.9758 10.6702ZM12.3031 12.0339C12.4537 12.0339 12.5758 11.9118 12.5758 11.7612C12.5758 11.6105 12.4537 11.4884 12.3031 11.4884C12.1525 11.4884 12.0304 11.6105 12.0304 11.7612C12.0304 11.9118 12.1525 12.0339 12.3031 12.0339Z" fill="#B6C4DA"/>
</svg>
