<svg width="25" height="25" viewBox="0 0 25 25" fill="none" xmlns="http://www.w3.org/2000/svg">
<ellipse cx="12.7153" cy="12.9067" rx="12" ry="12" fill="white"/>
<path fill-rule="evenodd" clip-rule="evenodd" d="M10.1575 7.68246C10.4402 8.94993 9.67522 10.2264 8.40892 10.5657C8.01649 10.6708 7.62076 10.674 7.24988 10.5913C7.25748 10.6254 7.26582 10.6594 7.27494 10.6934C7.62336 11.9938 8.95993 12.7654 10.2602 12.417C11.5606 12.0686 12.3322 10.732 11.9838 9.43169C11.7405 8.5238 11.0156 7.87362 10.1575 7.68246Z" fill="url(#paint0_linear_19_3548)"/>
<path fill-rule="evenodd" clip-rule="evenodd" d="M8.69923 12.1905C9.14473 11.745 9.7082 11.4893 10.2891 11.4236C10.3535 10.0026 11.526 8.87036 12.9629 8.87036C14.3537 8.87036 15.4967 9.93112 15.6271 11.2877C16.9612 11.0791 18.2653 11.9064 18.6227 13.2401C19.005 14.667 18.1591 16.1337 16.733 16.5175L16.7301 16.5183C16.5972 16.5539 16.4607 16.475 16.4251 16.3422C16.3895 16.2094 16.4683 16.0729 16.6011 16.0373L16.6011 16.0373C17.7634 15.7259 18.4531 14.5312 18.1417 13.369C17.8302 12.2068 16.6356 11.5171 15.4734 11.8285L15.4734 11.8285C15.3464 11.8626 15.216 11.7919 15.1737 11.6695C15.1532 11.6333 15.1415 11.5915 15.1415 11.547V11.547H15.1414V11.5469C15.1414 10.3437 14.166 9.36831 12.9628 9.36831C11.8044 9.36831 10.8571 10.2725 10.7882 11.4137C11.4046 11.4588 12.0084 11.7164 12.4805 12.1865L12.4846 12.1905C12.5818 12.2877 12.5818 12.4454 12.4846 12.5426C12.3874 12.6398 12.2297 12.6398 12.1325 12.5426L12.1324 12.5425L12.1324 12.5426C11.2816 11.6918 9.90217 11.6918 9.05137 12.5426C8.20198 13.392 8.20058 14.7682 9.04716 15.6194L9.05148 15.6236C9.14872 15.7208 9.14872 15.8785 9.05148 15.9757C8.95425 16.073 8.7966 16.073 8.69937 15.9757L8.6993 15.9757L8.69924 15.9757C7.65397 14.9305 7.65397 13.2357 8.69923 12.1905Z" fill="black"/>
<g filter="url(#filter0_f_19_3548)">
<path d="M12.988 10.1794L13.0737 10.4433L13.3511 10.4433L13.1267 10.6063L13.2124 10.8702L12.988 10.7071L12.7636 10.8702L12.8493 10.6063L12.6249 10.4433L12.9023 10.4433L12.988 10.1794Z" fill="#FFD600"/>
</g>
<g filter="url(#filter1_f_19_3548)">
<path d="M7.47894 12.252L7.56734 12.5705L7.80622 12.6883L7.56734 12.8062L7.47894 13.1247L7.39055 12.8062L7.15167 12.6883L7.39055 12.5705L7.47894 12.252Z" fill="#FFD600"/>
</g>
<path d="M8.67894 8.87036L8.73786 9.06943L8.89712 9.14309L8.73786 9.21675L8.67894 9.41582L8.62001 9.21675L8.46075 9.14309L8.62001 9.06943L8.67894 8.87036Z" fill="#FFD600"/>
<g filter="url(#filter2_f_19_3548)">
<path d="M10.8607 13.0156L10.9491 13.3341L11.188 13.452L10.9491 13.5698L10.8607 13.8884L10.7723 13.5698L10.5334 13.452L10.7723 13.3341L10.8607 13.0156Z" fill="url(#paint1_linear_19_3548)"/>
</g>
<defs>
<filter id="filter0_f_19_3548" x="12.5158" y="10.0704" width="0.944439" height="0.908856" filterUnits="userSpaceOnUse" color-interpolation-filters="sRGB">
<feFlood flood-opacity="0" result="BackgroundImageFix"/>
<feBlend mode="normal" in="SourceGraphic" in2="BackgroundImageFix" result="shape"/>
<feGaussianBlur stdDeviation="0.0545454" result="effect1_foregroundBlur_19_3548"/>
</filter>
<filter id="filter1_f_19_3548" x="7.04258" y="12.1429" width="0.872723" height="1.09098" filterUnits="userSpaceOnUse" color-interpolation-filters="sRGB">
<feFlood flood-opacity="0" result="BackgroundImageFix"/>
<feBlend mode="normal" in="SourceGraphic" in2="BackgroundImageFix" result="shape"/>
<feGaussianBlur stdDeviation="0.0545454" result="effect1_foregroundBlur_19_3548"/>
</filter>
<filter id="filter2_f_19_3548" x="10.4244" y="12.9065" width="0.872723" height="1.09098" filterUnits="userSpaceOnUse" color-interpolation-filters="sRGB">
<feFlood flood-opacity="0" result="BackgroundImageFix"/>
<feBlend mode="normal" in="SourceGraphic" in2="BackgroundImageFix" result="shape"/>
<feGaussianBlur stdDeviation="0.0545454" result="effect1_foregroundBlur_19_3548"/>
</filter>
<linearGradient id="paint0_linear_19_3548" x1="12.1207" y1="9.94256" x2="7.41192" y2="11.2043" gradientUnits="userSpaceOnUse">
<stop stop-color="#B486FF"/>
<stop offset="1" stop-color="#4C20FF"/>
</linearGradient>
<linearGradient id="paint1_linear_19_3548" x1="10.8607" y1="13.0156" x2="10.8607" y2="13.8884" gradientUnits="userSpaceOnUse">
<stop stop-color="#FFD600"/>
<stop offset="1" stop-color="#FFD600" stop-opacity="0"/>
</linearGradient>
</defs>
</svg>
