<svg width="25" height="24" viewBox="0 0 25 24" fill="none" xmlns="http://www.w3.org/2000/svg">
<rect x="0.284912" width="24" height="24" rx="12" fill="white"/>
<path fill-rule="evenodd" clip-rule="evenodd" d="M14.7828 7.59253C14.9552 7.59253 15.095 7.73231 15.095 7.90475C15.095 8.07718 14.9552 8.21697 14.7828 8.21697C14.6103 8.21697 14.4706 8.07718 14.4706 7.90475C14.4706 7.73231 14.6103 7.59253 14.7828 7.59253ZM14.7828 12.8557C15.9405 12.8557 16.8791 11.9171 16.8791 10.7594C16.8791 9.60159 15.9405 8.66303 14.7828 8.66303C13.625 8.66303 12.6864 9.60159 12.6864 10.7594C12.6864 11.9171 13.625 12.8557 14.7828 12.8557ZM17.6374 11.0716C17.8098 11.0716 17.9496 10.9318 17.9496 10.7594C17.9496 10.587 17.8098 10.4472 17.6374 10.4472C17.4649 10.4472 17.3251 10.587 17.3251 10.7594C17.3251 10.9318 17.4649 11.0716 17.6374 11.0716ZM17.022 12.9987C16.9 13.1206 16.7024 13.1206 16.5804 12.9987C16.4585 12.8767 16.4585 12.679 16.5804 12.5571C16.7024 12.4352 16.9 12.4352 17.022 12.5571C17.1439 12.679 17.1439 12.8767 17.022 12.9987ZM12.5435 8.96164C12.6655 9.08357 12.8632 9.08357 12.9851 8.96164C13.107 8.83971 13.107 8.64202 12.9851 8.52009C12.8632 8.39816 12.6655 8.39816 12.5435 8.52009C12.4216 8.64202 12.4216 8.83971 12.5435 8.96164ZM16.5805 8.96168C16.4585 8.83975 16.4585 8.64206 16.5805 8.52013C16.7024 8.3982 16.9001 8.3982 17.022 8.52013C17.144 8.64206 17.144 8.83975 17.022 8.96168C16.9001 9.0836 16.7024 9.0836 16.5805 8.96168Z" fill="#FFD600"/>
<path fill-rule="evenodd" clip-rule="evenodd" d="M11.667 9.25015C10.5088 9.25015 9.56168 10.1542 9.49279 11.2951C10.11 11.3402 10.7145 11.5985 11.1868 12.0698L11.1889 12.0718C11.2861 12.1691 11.2861 12.3267 11.1889 12.4239C11.0916 12.5211 10.934 12.5211 10.8368 12.4239L10.8357 12.4228C9.98493 11.5732 8.6065 11.5735 7.75617 12.4238C6.90654 13.2734 6.9055 14.6503 7.75304 15.5012L7.75628 15.5044C7.8535 15.6016 7.8535 15.7593 7.75628 15.8565C7.65906 15.9537 7.50144 15.9537 7.40422 15.8565L7.40415 15.8564L7.40411 15.8565L7.40407 15.8564C6.35896 14.8113 6.35896 13.1169 7.40407 12.0718C7.84953 11.6263 8.41295 11.3707 8.99378 11.305C9.05825 9.88425 10.2305 8.7522 11.6672 8.7522C13.0577 8.7522 14.2005 9.81274 14.3309 11.1691C15.6648 10.9606 16.9687 11.7877 17.326 13.1212C17.708 14.5467 16.864 16.0118 15.4403 16.3971L15.4337 16.399C15.3009 16.4345 15.1644 16.3557 15.1288 16.2229C15.0932 16.0901 15.172 15.9536 15.3048 15.918L15.3048 15.918C16.4668 15.6066 17.1564 14.4122 16.845 13.2502C16.5339 12.0888 15.3407 11.3994 14.1793 11.7094L14.1772 11.7099C14.0501 11.744 13.9197 11.6733 13.8775 11.5508C13.857 11.5147 13.8454 11.4729 13.8454 11.4285H13.8453V11.4284C13.8453 10.2254 12.8701 9.25015 11.667 9.25015Z" fill="black"/>
</svg>
