<svg width="24" height="24" viewBox="0 0 24 24" fill="none" xmlns="http://www.w3.org/2000/svg">
<circle cx="11.7819" cy="11.8117" r="11.7333" fill="white"/>
<path fill-rule="evenodd" clip-rule="evenodd" d="M10.1892 8.67293L10.1913 8.66972C10.8364 7.68795 12.1549 7.4136 13.1382 8.05725C14.1225 8.70158 14.3982 10.0219 13.7538 11.0062L13.7538 11.0062L13.7539 11.0063C13.7539 11.0063 13.7538 11.0063 13.7538 11.0063C13.6802 11.1188 13.7117 11.2697 13.8242 11.3433C13.9367 11.417 14.0876 11.3855 14.1612 11.273C14.1619 11.272 14.1625 11.271 14.1631 11.2701C14.9523 10.0611 14.6133 8.44089 13.4049 7.6499C12.1962 6.85872 10.5752 7.19655 9.78314 8.40428L9.78182 8.40627C9.70819 8.51876 9.73969 8.66965 9.85218 8.74329C9.96468 8.81693 10.1156 8.78543 10.1892 8.67293Z" fill="#FFD600"/>
<path fill-rule="evenodd" clip-rule="evenodd" d="M13.9757 11.4268L13.9786 11.4246C14.9188 10.7202 16.2523 10.9102 16.9584 11.8496C17.6653 12.7901 17.4759 14.1255 16.5355 14.8324L16.5355 14.8324L16.5355 14.8324C16.5355 14.8324 16.5355 14.8324 16.5355 14.8324C16.428 14.9132 16.4064 15.0658 16.4872 15.1733C16.568 15.2808 16.7206 15.3024 16.8281 15.2216C16.829 15.221 16.8299 15.2203 16.8308 15.2196C17.9838 14.3506 18.2154 12.7116 17.3476 11.5571C16.4797 10.4024 14.8404 10.1694 13.6851 11.0361L13.6831 11.0376C13.5756 11.1183 13.554 11.271 13.6348 11.3784C13.7156 11.4859 13.8682 11.5076 13.9757 11.4268Z" fill="#FFD600"/>
<path fill-rule="evenodd" clip-rule="evenodd" d="M5.40172 11.5569C5.83733 11.1213 6.38829 10.8713 6.95627 10.807C7.01929 9.41764 8.16568 8.31055 9.57064 8.31055C10.9305 8.31055 12.0481 9.34773 12.1756 10.6742C13.4801 10.4702 14.7552 11.2791 15.1047 12.5832C15.4785 13.9784 14.6513 15.4125 13.2568 15.7878L13.2541 15.7885C13.1242 15.8233 12.9907 15.7462 12.9559 15.6164C12.9212 15.4865 12.9982 15.353 13.1281 15.3182L13.1281 15.3182L13.1281 15.3182C14.2645 15.0137 14.9388 13.8456 14.6343 12.7092C14.3298 11.5729 13.1618 10.8985 12.0254 11.203L12.0254 11.203C11.9012 11.2363 11.7736 11.1672 11.7323 11.0475C11.7123 11.0121 11.7009 10.9712 11.7009 10.9277V10.9277H11.7008V10.9276C11.7008 9.75115 10.7471 8.79743 9.5706 8.79743C8.43787 8.79743 7.51164 9.68155 7.44432 10.7974C8.04695 10.8414 8.63724 11.0932 9.09879 11.5528L9.10297 11.5569C9.19804 11.652 9.19804 11.8061 9.10297 11.9012C9.0079 11.9963 8.85375 11.9963 8.75868 11.9012L8.75861 11.9011L8.75858 11.9012C7.92669 11.0693 6.57793 11.0693 5.74604 11.9012C4.91553 12.7317 4.91415 14.0773 5.7419 14.9096L5.74615 14.9137C5.84122 15.0088 5.84122 15.1629 5.74615 15.258C5.65108 15.3531 5.49693 15.3531 5.40186 15.258L5.40179 15.2579L5.40173 15.258C4.37968 14.236 4.37968 12.5789 5.40172 11.5569Z" fill="black"/>
</svg>
