<svg width="13" height="15" viewBox="0 0 13 15" fill="none" xmlns="http://www.w3.org/2000/svg">
<path fill-rule="evenodd" clip-rule="evenodd" d="M7.04242 2.16339C7.04242 1.88074 6.81328 1.65161 6.53063 1.65161C6.24799 1.65161 6.01885 1.88074 6.01885 2.16339C6.01885 2.44604 6.24799 2.67517 6.53063 2.67517C6.81328 2.67517 7.04242 2.44604 7.04242 2.16339ZM9.96693 6.84243C9.96693 8.74022 8.42847 10.2787 6.53068 10.2787C4.6329 10.2787 3.09444 8.74022 3.09444 6.84243C3.09444 4.94465 4.6329 3.40619 6.53068 3.40619C8.42847 3.40619 9.96693 4.94465 9.96693 6.84243ZM6.53063 10.9487C6.81328 10.9487 7.04242 11.1779 7.04242 11.4605C7.04242 11.7432 6.81328 11.9723 6.53063 11.9723C6.24799 11.9723 6.01885 11.7432 6.01885 11.4605C6.01885 11.1779 6.24799 10.9487 6.53063 10.9487ZM11.2099 7.35423C11.4925 7.35423 11.7217 7.1251 11.7217 6.84245C11.7217 6.5598 11.4925 6.33067 11.2099 6.33067C10.9272 6.33067 10.6981 6.5598 10.6981 6.84245C10.6981 7.1251 10.9272 7.35423 11.2099 7.35423ZM2.30359 6.84245C2.30359 7.1251 2.07446 7.35423 1.79181 7.35423C1.50916 7.35423 1.28003 7.1251 1.28003 6.84245C1.28003 6.5598 1.50916 6.33067 1.79181 6.33067C2.07446 6.33067 2.30359 6.5598 2.30359 6.84245ZM9.47746 10.5129C9.67732 10.7128 10.0014 10.7128 10.2012 10.5129C10.4011 10.3131 10.4011 9.98903 10.2012 9.78917C10.0014 9.5893 9.67732 9.5893 9.47746 9.78917C9.27759 9.98903 9.27759 10.3131 9.47746 10.5129ZM3.58402 3.89567C3.38416 4.09554 3.06012 4.09554 2.86026 3.89567C2.66039 3.69581 2.66039 3.37177 2.86026 3.17191C3.06012 2.97204 3.38416 2.97204 3.58402 3.17191C3.78389 3.37177 3.78389 3.69581 3.58402 3.89567ZM10.2012 3.89572C10.401 3.69585 10.401 3.37181 10.2012 3.17195C10.0013 2.97209 9.67728 2.97209 9.47742 3.17195C9.27755 3.37181 9.27755 3.69585 9.47742 3.89572C9.67728 4.09558 10.0013 4.09558 10.2012 3.89572ZM3.5841 9.78915C3.78396 9.98901 3.78396 10.3131 3.5841 10.5129C3.38424 10.7128 3.06019 10.7128 2.86033 10.5129C2.66047 10.3131 2.66047 9.98901 2.86033 9.78915C3.06019 9.58929 3.38424 9.58929 3.5841 9.78915Z" fill="url(#paint0_linear_143_9905)"/>
<g filter="url(#filter0_f_143_9905)">
<ellipse cx="6.50073" cy="12.3774" rx="2.33911" ry="0.405273" fill="#C29911" fill-opacity="0.5"/>
</g>
<defs>
<filter id="filter0_f_143_9905" x="2.16162" y="9.97217" width="8.67822" height="4.81055" filterUnits="userSpaceOnUse" color-interpolation-filters="sRGB">
<feFlood flood-opacity="0" result="BackgroundImageFix"/>
<feBlend mode="normal" in="SourceGraphic" in2="BackgroundImageFix" result="shape"/>
<feGaussianBlur stdDeviation="1" result="effect1_foregroundBlur_143_9905"/>
</filter>
<linearGradient id="paint0_linear_143_9905" x1="6.50085" y1="1.65161" x2="6.50085" y2="11.9723" gradientUnits="userSpaceOnUse">
<stop stop-color="#FFD600"/>
<stop offset="1" stop-color="#FFB800"/>
</linearGradient>
</defs>
</svg>
