<svg width="17" height="17" viewBox="0 0 17 17" fill="none" xmlns="http://www.w3.org/2000/svg">
<path fill-rule="evenodd" clip-rule="evenodd" d="M9.04242 0.825745C9.04242 0.543097 8.81328 0.313965 8.53063 0.313965C8.24799 0.313965 8.01885 0.543097 8.01885 0.825745C8.01885 1.10839 8.24799 1.33753 8.53063 1.33753C8.81328 1.33753 9.04242 1.10839 9.04242 0.825745ZM11.9669 5.50478C11.9669 7.40257 10.4285 8.94103 8.53068 8.94103C6.6329 8.94103 5.09444 7.40257 5.09444 5.50478C5.09444 3.607 6.6329 2.06854 8.53068 2.06854C10.4285 2.06854 11.9669 3.607 11.9669 5.50478ZM8.53063 9.61108C8.81328 9.61108 9.04242 9.84021 9.04242 10.1229C9.04242 10.4055 8.81328 10.6346 8.53063 10.6346C8.24799 10.6346 8.01885 10.4055 8.01885 10.1229C8.01885 9.84021 8.24799 9.61108 8.53063 9.61108ZM13.2099 6.01658C13.4925 6.01658 13.7217 5.78745 13.7217 5.5048C13.7217 5.22215 13.4925 4.99302 13.2099 4.99302C12.9272 4.99302 12.6981 5.22215 12.6981 5.5048C12.6981 5.78745 12.9272 6.01658 13.2099 6.01658ZM4.30359 5.5048C4.30359 5.78745 4.07446 6.01658 3.79181 6.01658C3.50916 6.01658 3.28003 5.78745 3.28003 5.5048C3.28003 5.22215 3.50916 4.99302 3.79181 4.99302C4.07446 4.99302 4.30359 5.22215 4.30359 5.5048ZM11.4775 9.17529C11.6773 9.37515 12.0014 9.37515 12.2012 9.17529C12.4011 8.97543 12.4011 8.65138 12.2012 8.45152C12.0014 8.25166 11.6773 8.25166 11.4775 8.45152C11.2776 8.65138 11.2776 8.97543 11.4775 9.17529ZM5.58402 2.55803C5.38416 2.75789 5.06012 2.75789 4.86026 2.55803C4.66039 2.35817 4.66039 2.03412 4.86026 1.83426C5.06012 1.6344 5.38416 1.6344 5.58402 1.83426C5.78389 2.03412 5.78389 2.35817 5.58402 2.55803ZM12.2012 2.55807C12.401 2.35821 12.401 2.03416 12.2012 1.8343C12.0013 1.63444 11.6773 1.63444 11.4774 1.8343C11.2776 2.03416 11.2776 2.35821 11.4774 2.55807C11.6773 2.75793 12.0013 2.75793 12.2012 2.55807ZM5.5841 8.4515C5.78396 8.65137 5.78396 8.97541 5.5841 9.17527C5.38424 9.37513 5.06019 9.37513 4.86033 9.17527C4.66047 8.97541 4.66047 8.65137 4.86033 8.4515C5.06019 8.25164 5.38424 8.25164 5.5841 8.4515Z" fill="url(#paint0_linear_143_9903)"/>
<g filter="url(#filter0_f_143_9903)">
<ellipse cx="8.50079" cy="13.9861" rx="5.65216" ry="0.494141" fill="#C29911" fill-opacity="0.5"/>
</g>
<defs>
<filter id="filter0_f_143_9903" x="0.848633" y="11.4919" width="15.3043" height="4.98828" filterUnits="userSpaceOnUse" color-interpolation-filters="sRGB">
<feFlood flood-opacity="0" result="BackgroundImageFix"/>
<feBlend mode="normal" in="SourceGraphic" in2="BackgroundImageFix" result="shape"/>
<feGaussianBlur stdDeviation="1" result="effect1_foregroundBlur_143_9903"/>
</filter>
<linearGradient id="paint0_linear_143_9903" x1="8.50085" y1="0.313965" x2="8.50085" y2="10.6346" gradientUnits="userSpaceOnUse">
<stop stop-color="#FFD600"/>
<stop offset="1" stop-color="#FFB800"/>
</linearGradient>
</defs>
</svg>
