<svg width="25" height="24" viewBox="0 0 25 24" fill="none" xmlns="http://www.w3.org/2000/svg">
<circle cx="12.7819" cy="12" r="12" fill="white"/>
<path fill-rule="evenodd" clip-rule="evenodd" d="M15.273 7.63647C15.4454 7.63647 15.5852 7.77628 15.5852 7.94874C15.5852 8.1212 15.4454 8.26101 15.273 8.26101C15.1005 8.26101 14.9607 8.1212 14.9607 7.94874C14.9607 7.77628 15.1005 7.63647 15.273 7.63647ZM15.273 12.9004C16.4309 12.9004 17.3696 11.9617 17.3696 10.8038C17.3696 9.64581 16.4309 8.70711 15.273 8.70711C14.115 8.70711 13.1763 9.64581 13.1763 10.8038C13.1763 11.9617 14.115 12.9004 15.273 12.9004ZM18.128 11.116C18.3004 11.116 18.4402 10.9762 18.4402 10.8038C18.4402 10.6313 18.3004 10.4915 18.128 10.4915C17.9555 10.4915 17.8157 10.6313 17.8157 10.8038C17.8157 10.9762 17.9555 11.116 18.128 11.116ZM17.5125 13.0434C17.3906 13.1653 17.1929 13.1653 17.0709 13.0434C16.949 12.9214 16.949 12.7237 17.0709 12.6018C17.1929 12.4798 17.3906 12.4798 17.5125 12.6018C17.6345 12.7237 17.6345 12.9214 17.5125 13.0434ZM13.0334 9.00577C13.1553 9.12771 13.3531 9.12771 13.475 9.00577C13.5969 8.88382 13.5969 8.6861 13.475 8.56415C13.3531 8.44221 13.1553 8.44221 13.0334 8.56415C12.9114 8.6861 12.9114 8.88382 13.0334 9.00577ZM17.0709 9.0058C16.949 8.88386 16.949 8.68614 17.0709 8.56419C17.1929 8.44224 17.3906 8.44224 17.5126 8.56419C17.6345 8.68614 17.6345 8.88386 17.5126 9.0058C17.3906 9.12775 17.1929 9.12775 17.0709 9.0058Z" fill="#FFD600"/>
<path fill-rule="evenodd" clip-rule="evenodd" d="M7.89314 12.1163C8.33865 11.6708 8.90213 11.4151 9.48302 11.3494C9.54747 9.9284 10.7199 8.79614 12.1568 8.79614C13.5476 8.79614 14.6906 9.85691 14.821 11.2135C16.1551 11.0049 17.4592 11.8322 17.8166 13.166C18.199 14.5929 17.353 16.0596 15.9268 16.4433L15.924 16.4441C15.7912 16.4797 15.6546 16.4009 15.619 16.268C15.5835 16.1352 15.6623 15.9987 15.7951 15.9631L15.7951 15.9631C16.9573 15.6517 17.647 14.4571 17.3356 13.2948C17.0242 12.1326 15.8296 11.4429 14.6674 11.7543L14.6674 11.7543L14.6673 11.7543C14.5402 11.7884 14.4097 11.7177 14.3675 11.5951C14.3471 11.5589 14.3354 11.5172 14.3354 11.4727V11.4727H14.3354V11.4727C14.3354 10.2695 13.36 9.29406 12.1568 9.29406C10.9983 9.29406 10.051 10.1983 9.98217 11.3395C10.598 11.3845 11.2012 11.6417 11.6731 12.111L11.6785 12.1162C11.7758 12.2135 11.7758 12.3711 11.6785 12.4684C11.5813 12.5656 11.4236 12.5656 11.3264 12.4684L11.3263 12.4683L11.3263 12.4683C10.4755 11.6175 9.09609 11.6175 8.2453 12.4683C7.39588 13.3177 7.3945 14.6941 8.24117 15.5452L8.24541 15.5493C8.34264 15.6466 8.34264 15.8042 8.24541 15.9015C8.14818 15.9987 7.99053 15.9987 7.89329 15.9015L7.89323 15.9014L7.89313 15.9015C6.84787 14.8562 6.84788 13.1615 7.89314 12.1163Z" fill="black"/>
<g filter="url(#filter0_d_19_3104)">
<path d="M14.091 16.6363C14.091 17.3593 13.5049 17.9454 12.7819 17.9454C12.0589 17.9454 11.4728 17.3593 11.4728 16.6363C11.4728 15.9133 12.7819 14.509 12.7819 14.509C12.7819 14.509 14.091 15.9133 14.091 16.6363Z" fill="url(#paint0_linear_19_3104)"/>
</g>
<defs>
<filter id="filter0_d_19_3104" x="10.3819" y="13.8545" width="4.80001" height="5.6181" filterUnits="userSpaceOnUse" color-interpolation-filters="sRGB">
<feFlood flood-opacity="0" result="BackgroundImageFix"/>
<feColorMatrix in="SourceAlpha" type="matrix" values="0 0 0 0 0 0 0 0 0 0 0 0 0 0 0 0 0 0 127 0" result="hardAlpha"/>
<feOffset dy="0.436364"/>
<feGaussianBlur stdDeviation="0.545455"/>
<feComposite in2="hardAlpha" operator="out"/>
<feColorMatrix type="matrix" values="0 0 0 0 0.627451 0 0 0 0 0.776471 0 0 0 0 1 0 0 0 1 0"/>
<feBlend mode="normal" in2="BackgroundImageFix" result="effect1_dropShadow_19_3104"/>
<feBlend mode="normal" in="SourceGraphic" in2="effect1_dropShadow_19_3104" result="shape"/>
</filter>
<linearGradient id="paint0_linear_19_3104" x1="12.7819" y1="14.509" x2="12.7819" y2="17.9454" gradientUnits="userSpaceOnUse">
<stop stop-color="#9AC2FF"/>
<stop offset="1" stop-color="#458FFF"/>
</linearGradient>
</defs>
</svg>
