<svg width="25" height="25" viewBox="0 0 25 25" fill="none" xmlns="http://www.w3.org/2000/svg">
<circle cx="12.0485" cy="12.6304" r="12" fill="white"/>
<path fill-rule="evenodd" clip-rule="evenodd" d="M9.49081 7.18783C9.77344 8.4553 9.00849 9.73173 7.74219 10.071C7.34976 10.1762 6.95403 10.1793 6.58316 10.0967C6.59075 10.1307 6.5991 10.1648 6.60822 10.1988C6.95664 11.4991 8.29321 12.2708 9.59353 11.9224C10.8938 11.574 11.6655 10.2374 11.3171 8.93706C11.0738 8.02917 10.3488 7.37899 9.49081 7.18783Z" fill="url(#paint0_linear_19_3582)"/>
<path fill-rule="evenodd" clip-rule="evenodd" d="M8.03249 11.6958C8.47799 11.2503 9.04147 10.9947 9.62237 10.929C9.68682 9.50799 10.8593 8.37573 12.2962 8.37573C13.6869 8.37573 14.83 9.43649 14.9603 10.7931C16.2944 10.5845 17.5986 11.4117 17.956 12.7455C18.3383 14.1724 17.4923 15.6391 16.0661 16.0229L16.0633 16.0237C15.9305 16.0592 15.794 15.9804 15.7584 15.8476C15.7228 15.7148 15.8016 15.5783 15.9344 15.5427L15.9344 15.5426C17.0966 15.2312 17.7864 14.0366 17.4749 12.8744C17.1635 11.7122 15.9689 11.0225 14.8067 11.3339L14.8067 11.3339C14.6796 11.3679 14.5492 11.2973 14.507 11.1748C14.4865 11.1387 14.4748 11.0969 14.4748 11.0523V11.0523H14.4747V11.0523C14.4747 9.84908 13.4993 8.87368 12.2961 8.87368C11.1376 8.87368 10.1904 9.77789 10.1215 10.9191C10.7379 10.9641 11.3417 11.2217 11.8138 11.6919L11.8178 11.6959C11.9151 11.7931 11.9151 11.9507 11.8178 12.048C11.7206 12.1452 11.563 12.1452 11.4657 12.048L11.4657 12.0479L11.4656 12.0479C10.6148 11.1972 9.23542 11.1972 8.38462 12.048C7.53524 12.8973 7.53383 14.2736 8.38039 15.1247L8.38474 15.129C8.48197 15.2262 8.48197 15.3839 8.38474 15.4811C8.2875 15.5783 8.12985 15.5783 8.03262 15.4811L8.03255 15.481L8.03249 15.4811C6.98722 14.4358 6.98722 12.7411 8.03249 11.6958Z" fill="black"/>
<g filter="url(#filter0_d_19_3582)">
<path d="M13.9031 15.7396C13.9031 16.4626 13.317 17.0487 12.594 17.0487C11.871 17.0487 11.2849 16.4626 11.2849 15.7396C11.2849 15.0166 12.594 13.6123 12.594 13.6123C12.594 13.6123 13.9031 15.0166 13.9031 15.7396Z" fill="url(#paint1_linear_19_3582)"/>
</g>
<g filter="url(#filter1_d_19_3582)">
<path d="M10.194 17.2435C10.194 17.5877 9.92536 17.8668 9.59399 17.8668C9.26262 17.8668 8.99399 17.5877 8.99399 17.2435C8.99399 16.8992 9.59399 16.2305 9.59399 16.2305C9.59399 16.2305 10.194 16.8992 10.194 17.2435Z" fill="url(#paint2_linear_19_3582)"/>
</g>
<g filter="url(#filter2_d_19_3582)">
<path d="M15.3213 17.8459C15.3213 18.0984 15.1259 18.303 14.8849 18.303C14.6439 18.303 14.4485 18.0984 14.4485 17.8459C14.4485 17.5934 14.8849 17.103 14.8849 17.103C14.8849 17.103 15.3213 17.5934 15.3213 17.8459Z" fill="url(#paint3_linear_19_3582)"/>
</g>
<defs>
<filter id="filter0_d_19_3582" x="10.194" y="12.9578" width="4.80001" height="5.6181" filterUnits="userSpaceOnUse" color-interpolation-filters="sRGB">
<feFlood flood-opacity="0" result="BackgroundImageFix"/>
<feColorMatrix in="SourceAlpha" type="matrix" values="0 0 0 0 0 0 0 0 0 0 0 0 0 0 0 0 0 0 127 0" result="hardAlpha"/>
<feOffset dy="0.436364"/>
<feGaussianBlur stdDeviation="0.545455"/>
<feComposite in2="hardAlpha" operator="out"/>
<feColorMatrix type="matrix" values="0 0 0 0 0.627451 0 0 0 0 0.776471 0 0 0 0 1 0 0 0 1 0"/>
<feBlend mode="normal" in2="BackgroundImageFix" result="effect1_dropShadow_19_3582"/>
<feBlend mode="normal" in="SourceGraphic" in2="effect1_dropShadow_19_3582" result="shape"/>
</filter>
<filter id="filter1_d_19_3582" x="7.90308" y="15.5759" width="3.38183" height="3.81829" filterUnits="userSpaceOnUse" color-interpolation-filters="sRGB">
<feFlood flood-opacity="0" result="BackgroundImageFix"/>
<feColorMatrix in="SourceAlpha" type="matrix" values="0 0 0 0 0 0 0 0 0 0 0 0 0 0 0 0 0 0 127 0" result="hardAlpha"/>
<feOffset dy="0.436364"/>
<feGaussianBlur stdDeviation="0.545455"/>
<feComposite in2="hardAlpha" operator="out"/>
<feColorMatrix type="matrix" values="0 0 0 0 0.627451 0 0 0 0 0.776471 0 0 0 0 1 0 0 0 1 0"/>
<feBlend mode="normal" in2="BackgroundImageFix" result="effect1_dropShadow_19_3582"/>
<feBlend mode="normal" in="SourceGraphic" in2="effect1_dropShadow_19_3582" result="shape"/>
</filter>
<filter id="filter2_d_19_3582" x="13.3576" y="16.4485" width="3.05456" height="3.38177" filterUnits="userSpaceOnUse" color-interpolation-filters="sRGB">
<feFlood flood-opacity="0" result="BackgroundImageFix"/>
<feColorMatrix in="SourceAlpha" type="matrix" values="0 0 0 0 0 0 0 0 0 0 0 0 0 0 0 0 0 0 127 0" result="hardAlpha"/>
<feOffset dy="0.436364"/>
<feGaussianBlur stdDeviation="0.545455"/>
<feComposite in2="hardAlpha" operator="out"/>
<feColorMatrix type="matrix" values="0 0 0 0 0.627451 0 0 0 0 0.776471 0 0 0 0 1 0 0 0 1 0"/>
<feBlend mode="normal" in2="BackgroundImageFix" result="effect1_dropShadow_19_3582"/>
<feBlend mode="normal" in="SourceGraphic" in2="effect1_dropShadow_19_3582" result="shape"/>
</filter>
<linearGradient id="paint0_linear_19_3582" x1="11.454" y1="9.44793" x2="6.7452" y2="10.7096" gradientUnits="userSpaceOnUse">
<stop stop-color="#B486FF"/>
<stop offset="1" stop-color="#4C20FF"/>
</linearGradient>
<linearGradient id="paint1_linear_19_3582" x1="12.594" y1="13.6123" x2="12.594" y2="17.0487" gradientUnits="userSpaceOnUse">
<stop stop-color="#9AC2FF"/>
<stop offset="1" stop-color="#458FFF"/>
</linearGradient>
<linearGradient id="paint2_linear_19_3582" x1="9.59399" y1="16.2305" x2="9.59399" y2="17.8668" gradientUnits="userSpaceOnUse">
<stop stop-color="#9AC2FF"/>
<stop offset="1" stop-color="#458FFF"/>
</linearGradient>
<linearGradient id="paint3_linear_19_3582" x1="14.8849" y1="17.103" x2="14.8849" y2="18.303" gradientUnits="userSpaceOnUse">
<stop stop-color="#9AC2FF"/>
<stop offset="1" stop-color="#458FFF"/>
</linearGradient>
</defs>
</svg>
