<svg width="16" height="16" viewBox="0 0 16 16" fill="none" xmlns="http://www.w3.org/2000/svg">
<path fill-rule="evenodd" clip-rule="evenodd" d="M13.8047 6.86194C14.065 7.12229 14.065 7.5444 13.8047 7.80475L7.80466 13.8047C7.54431 14.0651 7.1222 14.0651 6.86185 13.8047C6.6015 13.5444 6.6015 13.1223 6.86185 12.8619L12.8618 6.86194C13.1222 6.60159 13.5443 6.60159 13.8047 6.86194Z" fill="#677A8E"/>
<path fill-rule="evenodd" clip-rule="evenodd" d="M13.8047 10.8619C14.065 11.1223 14.065 11.5444 13.8047 11.8047L11.8047 13.8047C11.5443 14.0651 11.1222 14.0651 10.8618 13.8047C10.6015 13.5444 10.6015 13.1223 10.8618 12.8619L12.8618 10.8619C13.1222 10.6016 13.5443 10.6016 13.8047 10.8619Z" fill="#677A8E"/>
</svg>
