<svg width="25" height="24" viewBox="0 0 25 24" fill="none" xmlns="http://www.w3.org/2000/svg">
<circle cx="12.5152" cy="12" r="12" fill="white"/>
<path fill-rule="evenodd" clip-rule="evenodd" d="M15.0062 7.30908C15.1787 7.30908 15.3185 7.44889 15.3185 7.62135C15.3185 7.79381 15.1787 7.93362 15.0062 7.93362C14.8338 7.93362 14.694 7.79381 14.694 7.62135C14.694 7.44889 14.8338 7.30908 15.0062 7.30908ZM15.0062 12.573C16.1642 12.573 17.1029 11.6343 17.1029 10.4764C17.1029 9.31842 16.1642 8.37971 15.0062 8.37971C13.8483 8.37971 12.9096 9.31842 12.9096 10.4764C12.9096 11.6343 13.8483 12.573 15.0062 12.573ZM17.8612 10.7886C18.0337 10.7886 18.1735 10.6488 18.1735 10.4764C18.1735 10.3039 18.0337 10.1641 17.8612 10.1641C17.6888 10.1641 17.549 10.3039 17.549 10.4764C17.549 10.6488 17.6888 10.7886 17.8612 10.7886ZM17.2458 12.716C17.1238 12.8379 16.9261 12.8379 16.8042 12.716C16.6822 12.594 16.6822 12.3963 16.8042 12.2744C16.9261 12.1524 17.1238 12.1524 17.2458 12.2744C17.3677 12.3963 17.3677 12.594 17.2458 12.716ZM12.7667 8.67837C12.8886 8.80032 13.0863 8.80032 13.2083 8.67837C13.3302 8.55643 13.3302 8.35871 13.2083 8.23676C13.0863 8.11481 12.8886 8.11481 12.7667 8.23676C12.6447 8.35871 12.6447 8.55643 12.7667 8.67837ZM16.8042 8.67841C16.6823 8.55646 16.6823 8.35875 16.8042 8.2368C16.9262 8.11485 17.1239 8.11485 17.2458 8.2368C17.3678 8.35875 17.3678 8.55646 17.2458 8.67841C17.1239 8.80036 16.9262 8.80036 16.8042 8.67841Z" fill="#FFD600"/>
<path fill-rule="evenodd" clip-rule="evenodd" d="M7.62642 11.7891C8.07193 11.3436 8.63542 11.088 9.21633 11.0222C9.28078 9.60125 10.4532 8.46899 11.8901 8.46899C13.3501 8.46899 14.5371 9.63801 14.5661 11.0911C14.5703 11.1011 14.5738 11.1115 14.5767 11.1222C14.6123 11.255 14.5335 11.3915 14.4006 11.4271C14.2736 11.4612 14.1431 11.3905 14.1009 11.268C14.0804 11.2319 14.0687 11.1901 14.0687 11.1455V11.1455H14.0687V11.1455C14.0687 9.9423 13.0933 8.9669 11.89 8.9669C10.7316 8.9669 9.78426 9.87114 9.71544 11.0123C10.3319 11.0574 10.9358 11.3151 11.4079 11.7853L11.4118 11.7891C11.509 11.8864 11.509 12.044 11.4118 12.1412C11.3145 12.2385 11.1569 12.2385 11.0596 12.1412L11.0596 12.1412L11.0595 12.1412C10.2087 11.2904 8.82933 11.2904 7.97854 12.1412C7.12912 12.9906 7.12774 14.367 7.9744 15.2181L7.97865 15.2222C8.07588 15.3195 8.07588 15.4771 7.97865 15.5743C7.88142 15.6716 7.72377 15.6716 7.62653 15.5743L7.62647 15.5743L7.6264 15.5743C6.58115 14.5291 6.58116 12.8344 7.62642 11.7891ZM15.6601 16.1161C15.7912 16.0794 15.8687 15.9438 15.8333 15.8119C15.7977 15.6791 15.6612 15.6003 15.5284 15.6359C15.3956 15.6715 15.3167 15.808 15.3523 15.9408C15.3879 16.0736 15.5245 16.1525 15.6573 16.1169L15.6601 16.1161Z" fill="black"/>
<rect x="11.8607" y="13.5273" width="0.545455" height="1.41818" rx="0.272727" fill="url(#paint0_linear_19_3139)"/>
<rect x="10.2243" y="14.291" width="0.545455" height="1.41818" rx="0.272727" fill="url(#paint1_linear_19_3139)"/>
<rect x="9.13339" y="15.3818" width="0.545455" height="1.41818" rx="0.272727" fill="url(#paint2_linear_19_3139)"/>
<rect x="11.2061" y="15.8181" width="0.545455" height="1.41818" rx="0.272727" fill="url(#paint3_linear_19_3139)"/>
<rect x="12.7334" y="16.5818" width="0.545455" height="1.41818" rx="0.272727" fill="url(#paint4_linear_19_3139)"/>
<rect x="13.0606" y="14.3999" width="0.545455" height="1.41818" rx="0.272727" fill="url(#paint5_linear_19_3139)"/>
<rect x="14.2607" y="15.3818" width="0.545455" height="1.41818" rx="0.272727" fill="url(#paint6_linear_19_3139)"/>
<defs>
<linearGradient id="paint0_linear_19_3139" x1="12.1334" y1="13.5273" x2="12.1334" y2="14.9455" gradientUnits="userSpaceOnUse">
<stop stop-color="#89B9FF"/>
<stop offset="1" stop-color="#4B94FF"/>
</linearGradient>
<linearGradient id="paint1_linear_19_3139" x1="10.497" y1="14.291" x2="10.497" y2="15.7092" gradientUnits="userSpaceOnUse">
<stop stop-color="#89B9FF"/>
<stop offset="1" stop-color="#4B94FF"/>
</linearGradient>
<linearGradient id="paint2_linear_19_3139" x1="9.40612" y1="15.3818" x2="9.40612" y2="16.8" gradientUnits="userSpaceOnUse">
<stop stop-color="#89B9FF"/>
<stop offset="1" stop-color="#4B94FF"/>
</linearGradient>
<linearGradient id="paint3_linear_19_3139" x1="11.4788" y1="15.8181" x2="11.4788" y2="17.2363" gradientUnits="userSpaceOnUse">
<stop stop-color="#89B9FF"/>
<stop offset="1" stop-color="#4B94FF"/>
</linearGradient>
<linearGradient id="paint4_linear_19_3139" x1="13.0061" y1="16.5818" x2="13.0061" y2="18" gradientUnits="userSpaceOnUse">
<stop stop-color="#89B9FF"/>
<stop offset="1" stop-color="#4B94FF"/>
</linearGradient>
<linearGradient id="paint5_linear_19_3139" x1="13.3334" y1="14.3999" x2="13.3334" y2="15.8181" gradientUnits="userSpaceOnUse">
<stop stop-color="#89B9FF"/>
<stop offset="1" stop-color="#4B94FF"/>
</linearGradient>
<linearGradient id="paint6_linear_19_3139" x1="14.5334" y1="15.3818" x2="14.5334" y2="16.8" gradientUnits="userSpaceOnUse">
<stop stop-color="#89B9FF"/>
<stop offset="1" stop-color="#4B94FF"/>
</linearGradient>
</defs>
</svg>
