<svg width="25" height="25" viewBox="0 0 25 25" fill="none" xmlns="http://www.w3.org/2000/svg">
<circle cx="12.0485" cy="12.3542" r="12" fill="url(#paint0_linear_19_3889)"/>
<path d="M16.3824 13.2854C16.3728 13.2481 16.356 13.213 16.3329 13.1822C16.3097 13.1514 16.2807 13.1254 16.2475 13.1059C16.2143 13.0863 16.1776 13.0734 16.1395 13.0681C16.1013 13.0627 16.0624 13.0649 16.0251 13.0746L14.8539 13.3674L13.4512 12.5739H14.6225C14.6808 12.5739 14.7366 12.5507 14.7778 12.5096C14.819 12.4684 14.8421 12.4125 14.8421 12.3543C14.8421 12.296 14.819 12.2402 14.7778 12.199C14.7366 12.1578 14.6808 12.1346 14.6225 12.1346H13.4512L14.848 11.3265L16.0193 11.6193C16.0436 11.6223 16.0682 11.6223 16.0925 11.6193C16.1702 11.629 16.2485 11.6074 16.3103 11.5594C16.372 11.5113 16.4122 11.4407 16.4219 11.3631C16.4316 11.2854 16.4101 11.2071 16.362 11.1453C16.314 11.0835 16.2434 11.0433 16.1657 11.0336L15.5801 10.8784L16.1979 10.5212C16.2329 10.5029 16.2638 10.4777 16.2888 10.4471C16.3138 10.4165 16.3324 10.3812 16.3434 10.3433C16.3544 10.3054 16.3576 10.2656 16.3529 10.2264C16.3481 10.1872 16.3355 10.1494 16.3157 10.1152C16.2959 10.081 16.2695 10.0511 16.2379 10.0275C16.2063 10.0038 16.1702 9.9867 16.1318 9.97731C16.0935 9.96791 16.0536 9.96637 16.0147 9.97278C15.9757 9.97919 15.9384 9.99342 15.9051 10.0146L15.2872 10.3718L15.4512 9.7862C15.4718 9.71126 15.4618 9.63121 15.4233 9.56366C15.4043 9.53022 15.3788 9.50085 15.3485 9.47723C15.3181 9.45362 15.2833 9.43622 15.2462 9.42603C15.1713 9.40545 15.0912 9.41548 15.0237 9.45392C14.9561 9.49236 14.9066 9.55606 14.8861 9.63101L14.564 10.8023L13.1584 11.6281L13.7441 10.6149C13.7585 10.5899 13.7678 10.5623 13.7716 10.5337C13.7753 10.5051 13.7734 10.476 13.766 10.4481C13.7585 10.4203 13.7456 10.3941 13.728 10.3713C13.7104 10.3484 13.6885 10.3292 13.6635 10.3147C13.613 10.2856 13.5531 10.2777 13.4968 10.2928C13.4405 10.3079 13.3925 10.3448 13.3634 10.3953L12.7777 11.4084V9.79499L13.6299 8.91652C13.6842 8.86099 13.7143 8.78614 13.7135 8.70844C13.7126 8.63073 13.681 8.55654 13.6255 8.50217C13.5699 8.44781 13.4951 8.41773 13.4174 8.41856C13.3397 8.41938 13.2655 8.45104 13.2111 8.50656L12.7777 8.96044V8.25474C12.7777 8.17708 12.7469 8.10259 12.692 8.04768C12.6371 7.99276 12.5626 7.96191 12.4849 7.96191C12.4073 7.96191 12.3328 7.99276 12.2779 8.04768C12.2229 8.10259 12.1921 8.17708 12.1921 8.25474V8.96044L11.7587 8.51828C11.7043 8.46275 11.6302 8.43109 11.5524 8.43027C11.4747 8.42944 11.3999 8.45952 11.3444 8.51389C11.2888 8.56825 11.2572 8.64244 11.2564 8.72015C11.2555 8.79785 11.2856 8.8727 11.34 8.92823L12.1921 9.8067V11.4202L11.6064 10.407C11.5773 10.3565 11.5293 10.3197 11.473 10.3046C11.4168 10.2895 11.3568 10.2973 11.3063 10.3265C11.2558 10.3556 11.219 10.4036 11.2039 10.4599C11.1888 10.5161 11.1967 10.5761 11.2258 10.6266L11.8114 11.6398L10.4147 10.8316L10.0925 9.66029C10.072 9.58534 10.0225 9.52165 9.95491 9.48321C9.88737 9.44476 9.80732 9.43473 9.73238 9.45531C9.65743 9.47589 9.59374 9.5254 9.55529 9.59295C9.51685 9.66049 9.50682 9.74054 9.5274 9.81548L9.69138 10.4011L9.07353 10.0468C9.0066 10.0118 8.92874 10.004 8.85621 10.0251C8.78367 10.0461 8.72207 10.0944 8.68428 10.1597C8.64648 10.2251 8.63541 10.3026 8.65338 10.3759C8.67135 10.4493 8.71697 10.5129 8.7807 10.5534L9.39856 10.9106L8.81291 11.0658C8.73525 11.0755 8.66463 11.1157 8.61658 11.1775C8.56853 11.2393 8.54699 11.3176 8.55669 11.3953C8.5664 11.4729 8.60656 11.5435 8.66834 11.5916C8.73012 11.6397 8.80846 11.6612 8.88612 11.6515C8.91042 11.6545 8.93502 11.6545 8.95932 11.6515L10.1306 11.3587L11.5274 12.1669H10.3561C10.2978 12.1669 10.242 12.19 10.2008 12.2312C10.1596 12.2724 10.1365 12.3282 10.1365 12.3865C10.1365 12.4447 10.1596 12.5006 10.2008 12.5418C10.242 12.5829 10.2978 12.6061 10.3561 12.6061H11.5274L10.1306 13.4143L8.95932 13.1215C8.92202 13.1118 8.8832 13.1097 8.84506 13.1151C8.80692 13.1205 8.77021 13.1333 8.73704 13.1529C8.67004 13.1924 8.6215 13.257 8.60208 13.3323C8.59247 13.3696 8.59029 13.4084 8.59569 13.4466C8.60108 13.4847 8.61393 13.5214 8.63351 13.5546C8.65309 13.5877 8.67901 13.6167 8.70979 13.6399C8.74057 13.6631 8.77561 13.6799 8.81291 13.6895L9.39856 13.8447L8.7807 14.1551C8.71697 14.1956 8.67135 14.2592 8.65338 14.3326C8.63541 14.4059 8.64648 14.4834 8.68428 14.5488C8.72207 14.6142 8.78367 14.6624 8.85621 14.6835C8.92874 14.7045 9.0066 14.6967 9.07353 14.6617L9.69138 14.3045L9.5274 14.8901C9.51718 14.9272 9.51438 14.966 9.51915 15.0042C9.52392 15.0424 9.53618 15.0792 9.55522 15.1127C9.57426 15.1461 9.5997 15.1755 9.6301 15.1991C9.6605 15.2227 9.69525 15.2401 9.73238 15.2503C9.75861 15.2539 9.78521 15.2539 9.81144 15.2503C9.87716 15.2527 9.94179 15.2329 9.99491 15.1942C10.048 15.1554 10.0865 15.0999 10.1043 15.0365L10.4264 13.8652L11.8231 13.057L11.2375 14.0702C11.2231 14.0952 11.2137 14.1228 11.21 14.1514C11.2062 14.18 11.2081 14.2091 11.2156 14.237C11.2231 14.2648 11.236 14.2909 11.2535 14.3138C11.2711 14.3367 11.293 14.3559 11.318 14.3703C11.343 14.3848 11.3706 14.3941 11.3992 14.3979C11.4278 14.4016 11.4569 14.3997 11.4848 14.3922C11.5126 14.3848 11.5388 14.3719 11.5616 14.3543C11.5845 14.3367 11.6037 14.3148 11.6182 14.2898L12.2038 13.2767V14.8901L11.3517 15.7686C11.3248 15.7961 11.3035 15.8286 11.2892 15.8643C11.2748 15.9 11.2677 15.9382 11.2681 15.9767C11.2685 16.0151 11.2765 16.0532 11.2916 16.0885C11.3067 16.1239 11.3286 16.156 11.3561 16.1829C11.4116 16.2373 11.4865 16.2674 11.5642 16.2665C11.6026 16.2661 11.6407 16.2581 11.676 16.243C11.7114 16.2279 11.7435 16.206 11.7704 16.1785L12.1921 15.7481V16.4538C12.1921 16.5314 12.2229 16.6059 12.2779 16.6608C12.3328 16.7158 12.4073 16.7466 12.4849 16.7466C12.5626 16.7466 12.6371 16.7158 12.692 16.6608C12.7469 16.6059 12.7777 16.5314 12.7777 16.4538V15.7481L13.2111 16.1902C13.238 16.2177 13.2701 16.2397 13.3055 16.2548C13.3409 16.2699 13.3789 16.2778 13.4174 16.2782C13.4559 16.2787 13.494 16.2715 13.5297 16.2571C13.5654 16.2428 13.598 16.2215 13.6255 16.1946C13.653 16.1677 13.6749 16.1356 13.69 16.1003C13.7051 16.0649 13.7131 16.0268 13.7135 15.9884C13.7139 15.9499 13.7067 15.9117 13.6924 15.876C13.678 15.8403 13.6568 15.8078 13.6299 15.7803L12.7777 14.9018V13.3001L13.3634 14.3132C13.3778 14.3382 13.397 14.3601 13.4199 14.3777C13.4428 14.3953 13.4689 14.4082 13.4968 14.4157C13.5246 14.4231 13.5537 14.4251 13.5823 14.4213C13.6109 14.4175 13.6385 14.4082 13.6635 14.3938C13.6885 14.3794 13.7104 14.3601 13.728 14.3373C13.7456 14.3144 13.7585 14.2882 13.766 14.2604C13.7734 14.2325 13.7753 14.2034 13.7716 14.1748C13.7678 14.1462 13.7585 14.1186 13.7441 14.0936L13.1584 13.0805L14.5552 13.8887L14.8773 15.0599C14.895 15.1233 14.9335 15.1788 14.9866 15.2176C15.0397 15.2564 15.1044 15.2761 15.1701 15.2737C15.1963 15.2773 15.2229 15.2773 15.2492 15.2737C15.2863 15.2635 15.321 15.2462 15.3514 15.2225C15.3818 15.1989 15.4073 15.1696 15.4263 15.1361C15.4454 15.1027 15.4576 15.0658 15.4624 15.0276C15.4672 14.9894 15.4644 14.9506 15.4541 14.9135L15.2902 14.3279L15.908 14.6851C15.9413 14.7063 15.9786 14.7205 16.0176 14.727C16.0565 14.7334 16.0964 14.7318 16.1348 14.7224C16.1731 14.713 16.2092 14.696 16.2408 14.6723C16.2724 14.6486 16.2989 14.6187 16.3186 14.5846C16.3384 14.5504 16.351 14.5125 16.3558 14.4733C16.3606 14.4341 16.3573 14.3944 16.3463 14.3564C16.3353 14.3185 16.3168 14.2832 16.2918 14.2526C16.2668 14.222 16.2358 14.1969 16.2008 14.1785L15.583 13.8213L16.1686 13.6661C16.2089 13.6572 16.2468 13.6399 16.2798 13.6153C16.3129 13.5908 16.3405 13.5595 16.3606 13.5236C16.3808 13.4876 16.3932 13.4479 16.3969 13.4068C16.4007 13.3658 16.3957 13.3244 16.3824 13.2854Z" fill="white"/>
<circle cx="17.7758" cy="13.4998" r="0.272727" fill="white"/>
<circle cx="6.43034" cy="11.5361" r="0.381818" fill="white"/>
<circle cx="8.93944" cy="16.8816" r="0.381818" fill="white"/>
<circle cx="13.8485" cy="6.1907" r="0.272727" fill="white"/>
<circle cx="14.6121" cy="18.4087" r="0.272727" fill="white"/>
<defs>
<linearGradient id="paint0_linear_19_3889" x1="12.0485" y1="0.354248" x2="12.0485" y2="24.3542" gradientUnits="userSpaceOnUse">
<stop stop-color="#BE9FFF"/>
<stop offset="1" stop-color="#715AFF"/>
</linearGradient>
</defs>
</svg>
