<svg width="25" height="24" viewBox="0 0 25 24" fill="none" xmlns="http://www.w3.org/2000/svg">
<ellipse cx="12.7152" cy="12" rx="12" ry="12" fill="white"/>
<path fill-rule="evenodd" clip-rule="evenodd" d="M8.1537 10.4112C8.59921 9.96567 9.16269 9.71005 9.74358 9.6443C9.80803 8.22332 10.9805 7.09106 12.4174 7.09106C13.8081 7.09106 14.9511 8.15178 15.0816 9.50835C16.4157 9.29976 17.7198 10.127 18.0772 11.4608C18.4592 12.8864 17.6151 14.3516 16.1914 14.7371L16.1846 14.739C16.0518 14.7746 15.9152 14.6958 15.8796 14.5629C15.844 14.4301 15.9229 14.2936 16.0557 14.258L16.0556 14.258L16.0557 14.258C17.2179 13.9466 17.9076 12.752 17.5962 11.5897C17.2848 10.4275 16.0901 9.73781 14.9279 10.0492L14.9279 10.0492C14.8008 10.0833 14.6704 10.0126 14.6282 9.89012C14.6077 9.85396 14.596 9.81217 14.596 9.76766V9.76764H14.5959V9.76762C14.5959 8.56441 13.6205 7.58901 12.4173 7.58901C11.2589 7.58901 10.3116 8.49322 10.2427 9.6344C10.8592 9.67948 11.4631 9.93715 11.9352 10.4074L11.9391 10.4112C12.0363 10.5084 12.0363 10.6661 11.9391 10.7633C11.8418 10.8606 11.6842 10.8606 11.587 10.7633L11.5869 10.7633L11.5868 10.7633C10.736 9.91251 9.35664 9.91251 8.50584 10.7633C7.6564 11.6127 7.65504 12.9891 8.50176 13.8402L8.50595 13.8443C8.60318 13.9416 8.60318 14.0992 8.50595 14.1964C8.40871 14.2937 8.25106 14.2937 8.15383 14.1964L8.15376 14.1964L8.1537 14.1964C7.10843 13.1512 7.10843 11.4564 8.1537 10.4112Z" fill="black"/>
<path fill-rule="evenodd" clip-rule="evenodd" d="M12.8073 12.9113C12.7559 12.9627 12.7559 13.0461 12.8073 13.0975L13.1091 13.3993V13.7675L12.7902 13.5834L12.6798 13.1712C12.661 13.101 12.5888 13.0593 12.5186 13.0781C12.4484 13.0969 12.4067 13.1691 12.4255 13.2393L12.5233 13.6042L12.1582 13.702C12.088 13.7208 12.0464 13.793 12.0652 13.8632C12.084 13.9334 12.1562 13.9751 12.2264 13.9563L12.6713 13.8371C12.6782 13.8352 12.6847 13.8329 12.691 13.8301L12.9975 14.007L12.6386 14.2142L12.2264 14.1038C12.1562 14.085 12.084 14.1266 12.0652 14.1968C12.0464 14.267 12.0881 14.3392 12.1583 14.358L12.5233 14.4558L12.4255 14.8208C12.4067 14.891 12.4483 14.9632 12.5185 14.982C12.5887 15.0008 12.6609 14.9591 12.6797 14.8889L12.7989 14.444C12.8008 14.4371 12.802 14.4303 12.8027 14.4234L13.1091 14.2465V14.6608L12.8073 14.9626C12.7559 15.014 12.7559 15.0973 12.8073 15.1487C12.8587 15.2001 12.942 15.2001 12.9934 15.1487L13.2606 14.8815L13.5279 15.1487C13.5793 15.2001 13.6626 15.2001 13.714 15.1487C13.7654 15.0973 13.7654 15.014 13.714 14.9626L13.3883 14.6369C13.3833 14.6318 13.3779 14.6273 13.3723 14.6232V14.2236L13.7183 14.4233C13.7191 14.4302 13.7203 14.4371 13.7222 14.4439L13.8414 14.8889C13.8602 14.9591 13.9324 15.0007 14.0026 14.9819C14.0728 14.9631 14.1144 14.8909 14.0956 14.8207L13.9978 14.4558L14.3629 14.358C14.4331 14.3392 14.4748 14.267 14.456 14.1968C14.4371 14.1266 14.365 14.0849 14.2948 14.1038L13.8826 14.2142L13.5237 14.0071L13.8303 13.8301C13.8366 13.8329 13.8432 13.8352 13.85 13.8371L14.295 13.9563C14.3652 13.9751 14.4373 13.9334 14.4562 13.8632C14.475 13.793 14.4333 13.7209 14.3631 13.702L13.998 13.6042L14.0958 13.2393C14.1146 13.1691 14.0729 13.0969 14.0027 13.0781C13.9325 13.0593 13.8604 13.101 13.8416 13.1712L13.7311 13.5834L13.3723 13.7906V13.4368C13.3779 13.4328 13.3833 13.4282 13.3883 13.4232L13.714 13.0975C13.7654 13.0461 13.7654 12.9627 13.714 12.9113C13.6626 12.86 13.5793 12.86 13.5279 12.9113L13.2606 13.1786L12.9934 12.9113C12.942 12.86 12.8587 12.86 12.8073 12.9113Z" fill="#77AEFF"/>
<path fill-rule="evenodd" clip-rule="evenodd" d="M14.6085 15.0792C14.5758 15.1119 14.5758 15.1649 14.6085 15.1977L14.8006 15.3897V15.6241L14.5976 15.5069L14.5273 15.2445C14.5153 15.1999 14.4694 15.1733 14.4247 15.1853C14.3801 15.1973 14.3536 15.2432 14.3655 15.2879L14.4278 15.5201L14.1955 15.5824C14.1508 15.5943 14.1243 15.6403 14.1362 15.6849C14.1482 15.7296 14.1941 15.7561 14.2388 15.7442L14.5219 15.6683C14.5263 15.6671 14.5305 15.6656 14.5345 15.6638L14.7296 15.7765L14.5012 15.9083L14.2388 15.838C14.1941 15.826 14.1482 15.8526 14.1363 15.8972C14.1243 15.9419 14.1508 15.9878 14.1955 15.9998L14.4278 16.062L14.3655 16.2943C14.3536 16.339 14.3801 16.3849 14.4248 16.3969C14.4694 16.4088 14.5154 16.3823 14.5273 16.3376L14.6032 16.0545C14.6044 16.0502 14.6052 16.0458 14.6056 16.0414L14.8006 15.9288V16.1925L14.6085 16.3845C14.5758 16.4172 14.5758 16.4703 14.6085 16.503C14.6413 16.5357 14.6943 16.5357 14.727 16.503L14.897 16.3329L15.0671 16.503C15.0998 16.5357 15.1528 16.5357 15.1855 16.503C15.2183 16.4703 15.2183 16.4172 15.1855 16.3845L14.9783 16.1773C14.9751 16.1741 14.9717 16.1712 14.9681 16.1686V15.9143L15.1884 16.0414C15.1888 16.0458 15.1896 16.0502 15.1908 16.0545L15.2666 16.3376C15.2786 16.3823 15.3245 16.4088 15.3692 16.3969C15.4139 16.3849 15.4404 16.339 15.4284 16.2943L15.3662 16.062L15.5985 15.9998C15.6432 15.9878 15.6697 15.9419 15.6577 15.8972C15.6457 15.8526 15.5998 15.826 15.5551 15.838L15.2928 15.9083L15.0644 15.7765L15.2595 15.6638C15.2635 15.6656 15.2677 15.6671 15.2721 15.6683L15.5552 15.7442C15.5999 15.7561 15.6458 15.7296 15.6578 15.6849C15.6697 15.6403 15.6432 15.5943 15.5985 15.5824L15.3662 15.5201L15.4285 15.2879C15.4404 15.2432 15.4139 15.1973 15.3692 15.1853C15.3246 15.1733 15.2786 15.1999 15.2667 15.2445L15.1964 15.5069L14.9681 15.6386V15.4136C14.9717 15.411 14.9751 15.4081 14.9783 15.4049L15.1855 15.1977C15.2183 15.1649 15.2183 15.1119 15.1855 15.0792C15.1528 15.0465 15.0998 15.0465 15.0671 15.0792L14.897 15.2493L14.727 15.0792C14.6943 15.0465 14.6413 15.0465 14.6085 15.0792Z" fill="#77AEFF"/>
<path fill-rule="evenodd" clip-rule="evenodd" d="M9.92482 14.2012C9.89913 14.2269 9.89913 14.2685 9.92482 14.2942L10.0758 14.4452V14.6293L9.91636 14.5372L9.86111 14.3311C9.85171 14.296 9.81563 14.2751 9.78052 14.2845C9.74542 14.2939 9.72459 14.33 9.73399 14.3651L9.78289 14.5476L9.60036 14.5965C9.56526 14.6059 9.54443 14.642 9.55383 14.6771C9.56324 14.7122 9.59932 14.7331 9.63442 14.7237L9.85689 14.664C9.86032 14.6631 9.86361 14.662 9.86675 14.6605L10.02 14.749L9.84059 14.8526L9.63449 14.7974C9.59939 14.7879 9.56331 14.8088 9.5539 14.8439C9.5445 14.879 9.56533 14.9151 9.60043 14.9245L9.78295 14.9734L9.73406 15.1558C9.72465 15.1909 9.74549 15.227 9.78059 15.2364C9.81569 15.2458 9.85177 15.225 9.86118 15.1899L9.92079 14.9674C9.92171 14.964 9.92234 14.9606 9.9227 14.9571L10.0758 14.8688V15.0759L9.92482 15.2268C9.89913 15.2525 9.89913 15.2942 9.92482 15.3199C9.95052 15.3456 9.99219 15.3456 10.0179 15.3199L10.1515 15.1862L10.2851 15.3199C10.3108 15.3456 10.3525 15.3456 10.3782 15.3199C10.4039 15.2942 10.4039 15.2525 10.3782 15.2268L10.2153 15.064C10.2128 15.0614 10.2102 15.0592 10.2074 15.0571V14.8572L10.3804 14.9571C10.3807 14.9606 10.3814 14.964 10.3823 14.9674L10.4419 15.1899C10.4513 15.225 10.4874 15.2458 10.5225 15.2364C10.5576 15.227 10.5784 15.1909 10.569 15.1558L10.5201 14.9734L10.7027 14.9245C10.7378 14.9151 10.7586 14.879 10.7492 14.8439C10.7398 14.8088 10.7037 14.7879 10.6686 14.7974L10.4625 14.8526L10.2831 14.749L10.4363 14.6605C10.4395 14.6619 10.4428 14.6631 10.4462 14.664L10.6687 14.7237C10.7038 14.7331 10.7399 14.7122 10.7493 14.6771C10.7587 14.642 10.7378 14.6059 10.7027 14.5965L10.5202 14.5476L10.5691 14.3651C10.5785 14.33 10.5577 14.2939 10.5226 14.2845C10.4875 14.2751 10.4514 14.296 10.442 14.3311L10.3867 14.5372L10.2074 14.6408V14.4639C10.2102 14.4619 10.2128 14.4596 10.2153 14.4571L10.3782 14.2942C10.4039 14.2685 10.4039 14.2269 10.3782 14.2012C10.3525 14.1755 10.3108 14.1755 10.2851 14.2012L10.1515 14.3348L10.0179 14.2012C9.99219 14.1755 9.95052 14.1755 9.92482 14.2012Z" fill="#77AEFF"/>
<path fill-rule="evenodd" clip-rule="evenodd" d="M11.8884 15.7285C11.8628 15.7542 11.8628 15.7959 11.8884 15.8216L12.0394 15.9725V16.1566L11.88 16.0646L11.8247 15.8584C11.8153 15.8233 11.7793 15.8025 11.7442 15.8119C11.709 15.8213 11.6882 15.8574 11.6976 15.8925L11.7465 16.075L11.564 16.1239C11.5289 16.1333 11.5081 16.1694 11.5175 16.2045C11.5269 16.2396 11.5629 16.2604 11.598 16.251L11.8205 16.1914C11.8239 16.1905 11.8272 16.1893 11.8304 16.1879L11.9836 16.2764L11.8042 16.3799L11.5981 16.3247C11.563 16.3153 11.5269 16.3361 11.5175 16.3712C11.5081 16.4063 11.529 16.4424 11.5641 16.4518L11.7466 16.5007L11.6977 16.6832C11.6883 16.7183 11.7091 16.7544 11.7442 16.7638C11.7793 16.7732 11.8154 16.7524 11.8248 16.7173L11.8844 16.4948C11.8853 16.4914 11.886 16.4879 11.8863 16.4845L12.0394 16.3961V16.6032L11.8884 16.7541C11.8628 16.7798 11.8628 16.8215 11.8884 16.8472C11.9141 16.8729 11.9558 16.8729 11.9815 16.8472L12.1151 16.7136L12.2488 16.8472C12.2744 16.8729 12.3161 16.8729 12.3418 16.8472C12.3675 16.8215 12.3675 16.7798 12.3418 16.7541L12.179 16.5913C12.1764 16.5888 12.1738 16.5865 12.171 16.5845V16.3846L12.344 16.4845C12.3444 16.4879 12.345 16.4914 12.3459 16.4948L12.4055 16.7173C12.4149 16.7524 12.451 16.7732 12.4861 16.7638C12.5212 16.7544 12.5421 16.7183 12.5327 16.6832L12.4838 16.5007L12.6663 16.4518C12.7014 16.4424 12.7222 16.4063 12.7128 16.3712C12.7034 16.3361 12.6673 16.3153 12.6322 16.3247L12.4261 16.3799L12.2467 16.2764L12.4 16.1879C12.4031 16.1893 12.4064 16.1905 12.4098 16.1914L12.6323 16.251C12.6674 16.2604 12.7035 16.2396 12.7129 16.2045C12.7223 16.1694 12.7015 16.1333 12.6664 16.1239L12.4838 16.075L12.5327 15.8925C12.5421 15.8574 12.5213 15.8213 12.4862 15.8119C12.4511 15.8025 12.415 15.8233 12.4056 15.8584L12.3504 16.0646L12.171 16.1681V15.9912C12.1738 15.9892 12.1764 15.9869 12.179 15.9844L12.3418 15.8216C12.3675 15.7959 12.3675 15.7542 12.3418 15.7285C12.3161 15.7028 12.2744 15.7028 12.2488 15.7285L12.1151 15.8621L11.9815 15.7285C11.9558 15.7028 11.9141 15.7028 11.8884 15.7285Z" fill="#77AEFF"/>
</svg>
