<svg width="25" height="24" viewBox="0 0 25 24" fill="none" xmlns="http://www.w3.org/2000/svg">
<circle cx="12.7152" cy="11.8117" r="11.7333" fill="white"/>
<path d="M18.6307 10.772L18.4457 10.6387C18.4264 10.6227 18.4031 10.61 18.3772 10.6014C18.3513 10.5927 18.3233 10.5882 18.2951 10.5882C18.2669 10.5882 18.239 10.5927 18.2131 10.6014C18.1872 10.61 18.1638 10.6227 18.1445 10.6387L18.1015 10.672C17.7615 10.9329 17.3022 11.0792 16.8236 11.0792C16.3449 11.0792 15.8857 10.9329 15.5457 10.672C15.3142 10.4923 15.0393 10.3497 14.7366 10.2524C14.4338 10.1551 14.1093 10.105 13.7815 10.105C13.4538 10.105 13.1292 10.1551 12.8265 10.2524C12.5238 10.3497 12.2489 10.4923 12.0174 10.672L11.9271 10.742C11.9065 10.7569 11.8901 10.775 11.8789 10.7951C11.8677 10.8151 11.8619 10.8367 11.8619 10.8586C11.8619 10.8804 11.8677 10.9021 11.8789 10.9221C11.8901 10.9422 11.9065 10.9603 11.9271 10.9752L12.1078 11.1052C12.1487 11.1359 12.2035 11.1531 12.2605 11.1531C12.3176 11.1531 12.3723 11.1359 12.4133 11.1052L12.5036 11.0352C12.6714 10.9052 12.8707 10.8021 13.0899 10.7318C13.3092 10.6615 13.5442 10.6252 13.7815 10.6252C14.0189 10.6252 14.2539 10.6615 14.4732 10.7318C14.6924 10.8021 14.8916 10.9052 15.0595 11.0352C15.2912 11.2144 15.5663 11.3563 15.869 11.453C16.1717 11.5496 16.4961 11.599 16.8236 11.5983C17.151 11.5992 17.4755 11.5499 17.7783 11.4532C18.081 11.3566 18.3561 11.2145 18.5877 11.0352L18.6307 11.0019C18.6679 10.9705 18.6885 10.9295 18.6885 10.8869C18.6885 10.8443 18.6679 10.8033 18.6307 10.772Z" fill="#121212"/>
<path d="M19.5907 12.7986L19.4057 12.6653C19.3863 12.6494 19.363 12.6366 19.3371 12.628C19.3112 12.6193 19.2833 12.6148 19.2551 12.6148C19.2268 12.6148 19.1989 12.6193 19.173 12.628C19.1471 12.6366 19.1238 12.6494 19.1045 12.6653L19.0614 12.6986C18.7214 12.9595 18.2622 13.1058 17.7835 13.1058C17.3049 13.1058 16.8456 12.9595 16.5056 12.6986C16.2742 12.5189 15.9992 12.3763 15.6965 12.279C15.3938 12.1817 15.0693 12.1316 14.7415 12.1316C14.4137 12.1316 14.0892 12.1817 13.7865 12.279C13.4838 12.3763 13.2088 12.5189 12.9774 12.6986L12.887 12.7686C12.8665 12.7835 12.85 12.8016 12.8388 12.8217C12.8276 12.8417 12.8218 12.8633 12.8218 12.8852C12.8218 12.9071 12.8276 12.9287 12.8388 12.9487C12.85 12.9688 12.8665 12.9869 12.887 13.0018L13.0677 13.1318C13.1087 13.1625 13.1635 13.1797 13.2205 13.1797C13.2775 13.1797 13.3323 13.1625 13.3732 13.1318L13.4636 13.0618C13.6314 12.9318 13.8306 12.8287 14.0499 12.7584C14.2692 12.6881 14.5042 12.6519 14.7415 12.6519C14.9788 12.6519 15.2138 12.6881 15.4331 12.7584C15.6524 12.8287 15.8516 12.9318 16.0194 13.0618C16.2511 13.241 16.5262 13.383 16.829 13.4796C17.1317 13.5762 17.4561 13.6256 17.7835 13.6249C18.111 13.6258 18.4355 13.5765 18.7382 13.4798C19.041 13.3832 19.3161 13.2411 19.5476 13.0618L19.5907 13.0285C19.6279 12.9971 19.6485 12.9561 19.6485 12.9135C19.6485 12.8709 19.6279 12.8299 19.5907 12.7986Z" fill="#121212"/>
<path d="M15.2174 14.612L15.0324 14.4788C15.0131 14.4628 14.9897 14.4501 14.9638 14.4414C14.9379 14.4328 14.91 14.4283 14.8818 14.4283C14.8535 14.4283 14.8256 14.4328 14.7997 14.4414C14.7738 14.4501 14.7505 14.4628 14.7312 14.4788L14.6881 14.5121C14.3481 14.7729 13.8889 14.9193 13.4102 14.9193C12.9316 14.9193 12.4723 14.7729 12.1323 14.5121C11.9009 14.3324 11.626 14.1898 11.3232 14.0925C11.0205 13.9952 10.696 13.9451 10.3682 13.9451C10.0405 13.9451 9.71592 13.9952 9.4132 14.0925C9.11048 14.1898 8.83553 14.3324 8.6041 14.5121L8.51374 14.5821C8.49316 14.597 8.47676 14.6151 8.46555 14.6351C8.45433 14.6552 8.44855 14.6768 8.44855 14.6987C8.44855 14.7205 8.45433 14.7422 8.46555 14.7622C8.47676 14.7823 8.49316 14.8003 8.51374 14.8153L8.69446 14.9452C8.7354 14.976 8.79018 14.9932 8.8472 14.9932C8.90423 14.9932 8.95901 14.976 8.99995 14.9452L9.09031 14.8753C9.25812 14.7453 9.45734 14.6422 9.67661 14.5719C9.89587 14.5015 10.1309 14.4653 10.3682 14.4653C10.6055 14.4653 10.8406 14.5015 11.0598 14.5719C11.2791 14.6422 11.4783 14.7453 11.6461 14.8753C11.8778 15.0545 12.1529 15.1964 12.4557 15.2931C12.7584 15.3897 13.0828 15.4391 13.4102 15.4384C13.7377 15.4393 14.0622 15.39 14.3649 15.2933C14.6677 15.1967 14.9428 15.0546 15.1744 14.8753L15.2174 14.842C15.2546 14.8106 15.2752 14.7696 15.2752 14.727C15.2752 14.6844 15.2546 14.6434 15.2174 14.612Z" fill="#121212"/>
<path d="M11.5186 11.4786C11.5133 11.4577 11.504 11.4381 11.4911 11.4209C11.4782 11.4037 11.4621 11.3892 11.4437 11.3783C11.4252 11.3673 11.4048 11.3601 11.3836 11.3572C11.3624 11.3542 11.3408 11.3554 11.3201 11.3608L10.6692 11.5244L9.88974 11.0811H10.5406C10.573 11.0811 10.604 11.0682 10.6269 11.0452C10.6498 11.0222 10.6627 10.991 10.6627 10.9585C10.6627 10.9259 10.6498 10.8947 10.6269 10.8717C10.604 10.8487 10.573 10.8358 10.5406 10.8358H9.88974L10.6659 10.3844L11.3168 10.5479C11.3303 10.5496 11.344 10.5496 11.3575 10.5479C11.4007 10.5534 11.4442 10.5413 11.4785 10.5145C11.5129 10.4876 11.5352 10.4482 11.5406 10.4048C11.546 10.3614 11.534 10.3177 11.5073 10.2832C11.4806 10.2487 11.4414 10.2262 11.3982 10.2208L11.0727 10.1341L11.4161 9.9346C11.4355 9.92438 11.4527 9.91031 11.4666 9.89323C11.4805 9.87616 11.4908 9.85643 11.497 9.83525C11.5031 9.81406 11.5049 9.79185 11.5022 9.76996C11.4996 9.74806 11.4925 9.72693 11.4816 9.70783C11.4706 9.68873 11.4559 9.67206 11.4383 9.65883C11.4207 9.64559 11.4007 9.63607 11.3794 9.63082C11.3581 9.62557 11.3359 9.62471 11.3143 9.62829C11.2926 9.63187 11.2719 9.63982 11.2534 9.65165L10.91 9.85119L11.0012 9.52408C11.0126 9.48222 11.007 9.43751 10.9856 9.39978C10.9751 9.3811 10.9609 9.3647 10.9441 9.35151C10.9272 9.33831 10.9079 9.3286 10.8872 9.3229C10.8456 9.31141 10.8011 9.31701 10.7636 9.33848C10.726 9.35996 10.6985 9.39553 10.6871 9.43739L10.5081 10.0916L9.72701 10.5528L10.0525 9.98694C10.0605 9.97298 10.0657 9.95757 10.0678 9.94159C10.0699 9.92561 10.0688 9.90937 10.0646 9.8938C10.0605 9.87824 10.0533 9.86364 10.0435 9.85086C10.0338 9.83808 10.0216 9.82735 10.0077 9.8193C9.97966 9.80303 9.94633 9.79863 9.91505 9.80706C9.88377 9.8155 9.8571 9.83608 9.84092 9.86427L9.51547 10.4302V9.52898L9.989 9.03832C10.0192 9.0073 10.0359 8.9655 10.0355 8.92209C10.035 8.87869 10.0174 8.83725 9.98656 8.80689C9.9557 8.77652 9.91411 8.75972 9.87093 8.76018C9.82774 8.76064 9.78651 8.77833 9.7563 8.80934L9.51547 9.06285V8.66868C9.51547 8.6253 9.49833 8.5837 9.46781 8.55303C9.43729 8.52236 9.3959 8.50513 9.35274 8.50513C9.30959 8.50513 9.2682 8.52236 9.23768 8.55303C9.20716 8.5837 9.19002 8.6253 9.19002 8.66868V9.06285L8.94919 8.81588C8.91898 8.78487 8.87774 8.76718 8.83456 8.76672C8.79138 8.76626 8.74979 8.78306 8.71893 8.81343C8.68807 8.84379 8.67048 8.88523 8.67002 8.92864C8.66956 8.97204 8.68628 9.01385 8.71649 9.04486L9.19002 9.53553V10.4367L8.86457 9.87082C8.84838 9.84262 8.82172 9.82204 8.79044 9.81361C8.75916 9.80517 8.72583 9.80957 8.69777 9.82584C8.66972 9.8421 8.64925 9.86891 8.64086 9.90035C8.63246 9.93178 8.63684 9.96529 8.65303 9.99348L8.97848 10.5594L8.20228 10.108L8.02328 9.45375C8.01184 9.41189 7.98433 9.37631 7.94679 9.35484C7.90926 9.33337 7.86477 9.32777 7.82313 9.33926C7.78148 9.35076 7.74608 9.37841 7.72472 9.41614C7.70336 9.45386 7.69778 9.49857 7.70922 9.54043L7.80035 9.86754L7.457 9.66964C7.41981 9.65009 7.37654 9.64573 7.33623 9.65749C7.29592 9.66924 7.26169 9.69619 7.24069 9.73272C7.21968 9.76924 7.21353 9.8125 7.22352 9.85348C7.2335 9.89445 7.25885 9.92996 7.29427 9.95259L7.63762 10.1521L7.31217 10.2388C7.26901 10.2442 7.22977 10.2667 7.20306 10.3012C7.17636 10.3357 7.16439 10.3794 7.16979 10.4228C7.17518 10.4662 7.1975 10.5056 7.23183 10.5325C7.26616 10.5593 7.30969 10.5713 7.35285 10.5659C7.36636 10.5676 7.38003 10.5676 7.39353 10.5659L8.04443 10.4024L8.82063 10.8538H8.16973C8.13736 10.8538 8.10632 10.8667 8.08343 10.8897C8.06055 10.9127 8.04769 10.9439 8.04769 10.9765C8.04769 11.009 8.06055 11.0402 8.08343 11.0632C8.10632 11.0862 8.13736 11.0991 8.16973 11.0991H8.82063L8.04443 11.5505L7.39353 11.387C7.3728 11.3816 7.35123 11.3804 7.33003 11.3834C7.30884 11.3864 7.28844 11.3936 7.27 11.4045C7.23277 11.4266 7.2058 11.4627 7.19501 11.5047C7.18967 11.5256 7.18846 11.5473 7.19145 11.5686C7.19445 11.5899 7.20159 11.6104 7.21247 11.6289C7.22335 11.6474 7.23776 11.6636 7.25486 11.6765C7.27197 11.6895 7.29144 11.6989 7.31217 11.7043L7.63762 11.791L7.29427 11.9643C7.25885 11.987 7.2335 12.0225 7.22352 12.0634C7.21353 12.1044 7.21968 12.1477 7.24069 12.1842C7.26169 12.2207 7.29592 12.2477 7.33623 12.2594C7.37654 12.2712 7.41981 12.2668 7.457 12.2473L7.80035 12.0477L7.70922 12.3749C7.70354 12.3956 7.70198 12.4172 7.70463 12.4386C7.70729 12.4599 7.7141 12.4805 7.72468 12.4992C7.73526 12.5179 7.7494 12.5343 7.76629 12.5475C7.78318 12.5606 7.8025 12.5703 7.82313 12.576C7.8377 12.578 7.85248 12.578 7.86706 12.576C7.90359 12.5774 7.9395 12.5663 7.96902 12.5447C7.99854 12.523 8.01994 12.492 8.02979 12.4566L8.20879 11.8024L8.98498 11.351L8.65953 11.9169C8.65152 11.9309 8.64632 11.9463 8.64423 11.9622C8.64215 11.9782 8.64321 11.9945 8.64737 12.01C8.65152 12.0256 8.65869 12.0402 8.66845 12.053C8.67822 12.0658 8.69039 12.0765 8.70428 12.0845C8.71817 12.0926 8.73351 12.0978 8.74941 12.0999C8.76531 12.102 8.78146 12.1009 8.79695 12.0968C8.81244 12.0926 8.82695 12.0854 8.83967 12.0756C8.85239 12.0658 8.86306 12.0535 8.87108 12.0396L9.19653 11.4737V12.3749L8.723 12.8655C8.70804 12.8809 8.69624 12.899 8.68826 12.919C8.68029 12.9389 8.6763 12.9603 8.67653 12.9817C8.67676 13.0032 8.68119 13.0245 8.68958 13.0442C8.69798 13.064 8.71016 13.0819 8.72544 13.0969C8.7563 13.1273 8.79789 13.1441 8.84107 13.1437C8.86245 13.1434 8.88358 13.139 8.90325 13.1305C8.92291 13.1221 8.94074 13.1099 8.95569 13.0945L9.19002 12.8541V13.2482C9.19002 13.2916 9.20716 13.3332 9.23768 13.3639C9.2682 13.3946 9.30959 13.4118 9.35274 13.4118C9.3959 13.4118 9.43729 13.3946 9.46781 13.3639C9.49833 13.3332 9.51547 13.2916 9.51547 13.2482V12.8541L9.7563 13.101C9.77126 13.1164 9.78908 13.1286 9.80875 13.1371C9.82842 13.1455 9.84954 13.15 9.87093 13.1502C9.89231 13.1504 9.91352 13.1464 9.93336 13.1384C9.9532 13.1304 9.97128 13.1185 9.98656 13.1035C10.0018 13.0885 10.014 13.0705 10.0224 13.0508C10.0308 13.031 10.0352 13.0098 10.0355 12.9883C10.0357 12.9668 10.0317 12.9455 10.0237 12.9255C10.0158 12.9056 10.004 12.8874 9.989 12.8721L9.51547 12.3814V11.4867L9.84092 12.0526C9.84893 12.0666 9.8596 12.0788 9.87232 12.0887C9.88504 12.0985 9.89956 12.1057 9.91505 12.1099C9.93054 12.114 9.94669 12.1151 9.96259 12.113C9.97849 12.1109 9.99382 12.1057 10.0077 12.0976C10.0216 12.0896 10.0338 12.0788 10.0435 12.0661C10.0533 12.0533 10.0605 12.0387 10.0646 12.0231C10.0688 12.0076 10.0699 11.9913 10.0678 11.9753C10.0657 11.9594 10.0605 11.9439 10.0525 11.93L9.72701 11.3641L10.5032 11.8155L10.6822 12.4697C10.6921 12.5051 10.7135 12.5361 10.743 12.5578C10.7725 12.5794 10.8084 12.5905 10.8449 12.5891C10.8595 12.5911 10.8743 12.5911 10.8889 12.5891C10.9095 12.5834 10.9288 12.5737 10.9457 12.5605C10.9626 12.5473 10.9767 12.5309 10.9873 12.5123C10.9979 12.4936 11.0047 12.473 11.0074 12.4516C11.01 12.4303 11.0085 12.4087 11.0028 12.3879L10.9117 12.0608L11.255 12.2604C11.2735 12.2722 11.2942 12.2801 11.3159 12.2837C11.3375 12.2873 11.3597 12.2864 11.381 12.2812C11.4023 12.2759 11.4224 12.2664 11.4399 12.2532C11.4575 12.24 11.4722 12.2233 11.4832 12.2042C11.4942 12.1851 11.5012 12.164 11.5038 12.1421C11.5065 12.1202 11.5047 12.098 11.4986 12.0768C11.4925 12.0556 11.4822 12.0359 11.4683 12.0188C11.4544 12.0017 11.4372 11.9876 11.4177 11.9774L11.0744 11.7779L11.3998 11.6912C11.4222 11.6862 11.4432 11.6766 11.4616 11.6628C11.48 11.6491 11.4953 11.6317 11.5065 11.6116C11.5177 11.5915 11.5246 11.5693 11.5267 11.5464C11.5288 11.5234 11.526 11.5003 11.5186 11.4786Z" fill="#4EA6FF"/>
<circle cx="7.80853" cy="15.5451" r="0.32" fill="#4EA6FF"/>
<circle cx="5.94184" cy="11.9717" r="0.266667" fill="#4E75FF"/>
<circle cx="15.4885" cy="14.0517" r="0.213333" fill="#4EA6FF"/>
<circle cx="12.6619" cy="7.9183" r="0.16" fill="#4E75FF"/>
</svg>
