<svg width="25" height="25" viewBox="0 0 25 25" fill="none" xmlns="http://www.w3.org/2000/svg">
<circle cx="12.2486" cy="12.6304" r="12" fill="white"/>
<path fill-rule="evenodd" clip-rule="evenodd" d="M9.69086 7.07895C9.97349 8.34642 9.20854 9.62285 7.94224 9.96215C7.54981 10.0673 7.15408 10.0704 6.7832 9.98781C6.7908 10.0219 6.79914 10.0559 6.80826 10.0899C7.15668 11.3902 8.49325 12.1619 9.79357 11.8135C11.0939 11.4651 11.8656 10.1285 11.5171 8.82818C11.2739 7.92028 10.5489 7.2701 9.69086 7.07895Z" fill="url(#paint0_linear_19_3749)"/>
<path fill-rule="evenodd" clip-rule="evenodd" d="M8.23256 11.587C8.67807 11.1414 9.24155 10.8858 9.82244 10.8201C9.8869 9.3991 11.0593 8.26685 12.4962 8.26685C13.887 8.26685 15.03 9.3276 15.1604 10.6842C16.4945 10.4756 17.7987 11.3029 18.156 12.6366C18.5384 14.0635 17.6924 15.5302 16.2663 15.914L16.2634 15.9148C16.1306 15.9504 15.9941 15.8715 15.9585 15.7387C15.9229 15.6059 16.0017 15.4694 16.1345 15.4338L16.1345 15.4338L16.1345 15.4338C17.2967 15.1223 17.9864 13.9277 17.675 12.7655C17.3636 11.6033 16.169 10.9136 15.0068 11.225L15.0068 11.225C14.8797 11.2591 14.7493 11.1884 14.707 11.066C14.6865 11.0298 14.6749 10.988 14.6749 10.9435V10.9434H14.6748V10.9434C14.6748 9.74019 13.6994 8.7648 12.4962 8.7648C11.3377 8.7648 10.3904 9.66901 10.3216 10.8102C10.9379 10.8552 11.5417 11.1128 12.0137 11.5829L12.0179 11.587C12.1152 11.6842 12.1152 11.8419 12.0179 11.9391C11.9207 12.0363 11.763 12.0363 11.6658 11.9391L11.6657 11.939L11.6657 11.9391C10.8149 11.0883 9.4355 11.0883 8.5847 11.9391C7.73531 12.7885 7.7339 14.1647 8.58048 15.0159L8.58481 15.0201C8.68205 15.1173 8.68205 15.275 8.58481 15.3722C8.48758 15.4694 8.32993 15.4694 8.23269 15.3722L8.23263 15.3721L8.23256 15.3722C7.18729 14.3269 7.18729 12.6322 8.23256 11.587Z" fill="black"/>
<path fill-rule="evenodd" clip-rule="evenodd" d="M12.777 13.6509C12.7256 13.7022 12.7256 13.7856 12.777 13.837L13.0788 14.1388V14.507L12.76 14.3229L12.6495 13.9107C12.6307 13.8405 12.5585 13.7988 12.4883 13.8176C12.4181 13.8364 12.3764 13.9086 12.3953 13.9788L12.493 14.3437L12.128 14.4415C12.0578 14.4604 12.0161 14.5325 12.0349 14.6027C12.0537 14.6729 12.1259 14.7146 12.1961 14.6958L12.641 14.5766C12.6479 14.5747 12.6545 14.5724 12.6608 14.5696L12.9673 14.7465L12.6084 14.9537L12.1962 14.8433C12.1259 14.8245 12.0538 14.8661 12.035 14.9363C12.0162 15.0065 12.0578 15.0787 12.128 15.0975L12.493 15.1953L12.3952 15.5603C12.3764 15.6305 12.4181 15.7027 12.4883 15.7215C12.5585 15.7403 12.6307 15.6986 12.6495 15.6284L12.7687 15.1835C12.7705 15.1767 12.7718 15.1698 12.7725 15.1629L13.0788 14.9861V15.4003L12.777 15.7021C12.7256 15.7535 12.7256 15.8368 12.777 15.8882C12.8284 15.9396 12.9117 15.9396 12.9631 15.8882L13.2304 15.621L13.4976 15.8882C13.549 15.9396 13.6323 15.9396 13.6837 15.8882C13.7351 15.8368 13.7351 15.7535 13.6837 15.7021L13.358 15.3764C13.353 15.3713 13.3476 15.3668 13.342 15.3627V14.9631L13.6881 15.1629C13.6888 15.1697 13.69 15.1766 13.6919 15.1835L13.8111 15.6284C13.8299 15.6986 13.9021 15.7402 13.9723 15.7214C14.0425 15.7026 14.0842 15.6305 14.0653 15.5603L13.9676 15.1953L14.3326 15.0975C14.4028 15.0787 14.4445 15.0065 14.4257 14.9363C14.4069 14.8661 14.3347 14.8244 14.2645 14.8433L13.8523 14.9537L13.4935 14.7466L13.8 14.5696C13.8063 14.5724 13.8129 14.5747 13.8198 14.5766L14.2647 14.6958C14.3349 14.7146 14.4071 14.6729 14.4259 14.6027C14.4447 14.5325 14.403 14.4604 14.3328 14.4415L13.9678 14.3437L14.0655 13.9788C14.0843 13.9086 14.0427 13.8364 13.9725 13.8176C13.9023 13.7988 13.8301 13.8405 13.8113 13.9107L13.7008 14.3229L13.342 14.5301V14.1763C13.3476 14.1723 13.353 14.1677 13.358 14.1627L13.6837 13.837C13.7351 13.7856 13.7351 13.7022 13.6837 13.6509C13.6323 13.5995 13.549 13.5995 13.4976 13.6509L13.2304 13.9181L12.9631 13.6509C12.9117 13.5995 12.8284 13.5995 12.777 13.6509Z" fill="#77AEFF"/>
<path fill-rule="evenodd" clip-rule="evenodd" d="M11.5311 16.7952C11.5054 16.8208 11.5054 16.8625 11.5311 16.8882L11.682 17.0391V17.2232L11.5226 17.1312L11.4673 16.925C11.4579 16.8899 11.4219 16.8691 11.3868 16.8785C11.3517 16.8879 11.3308 16.924 11.3402 16.9591L11.3891 17.1415L11.2066 17.1905C11.1715 17.1999 11.1506 17.2359 11.16 17.2711C11.1694 17.3062 11.2055 17.327 11.2406 17.3176L11.4631 17.258C11.4665 17.2571 11.4698 17.2559 11.473 17.2545L11.6262 17.3429L11.4467 17.4465L11.2406 17.3913C11.2055 17.3819 11.1694 17.4027 11.16 17.4378C11.1506 17.473 11.1714 17.509 11.2065 17.5184L11.389 17.5673L11.3401 17.7498C11.3307 17.7849 11.3515 17.821 11.3866 17.8304C11.4218 17.8398 11.4578 17.819 11.4672 17.7839L11.5268 17.5614C11.5278 17.558 11.5284 17.5546 11.5288 17.5511L11.682 17.4626V17.6698L11.5311 17.8208C11.5054 17.8465 11.5054 17.8881 11.5311 17.9138C11.5568 17.9395 11.5985 17.9395 11.6242 17.9138L11.7578 17.7802L11.8914 17.9138C11.9171 17.9395 11.9587 17.9395 11.9844 17.9138C12.0101 17.8881 12.0101 17.8465 11.9844 17.8208L11.8216 17.6579C11.8191 17.6554 11.8164 17.6531 11.8136 17.6511V17.4512L11.9866 17.5511C11.9869 17.5545 11.9875 17.5579 11.9885 17.5614L12.0481 17.7838C12.0575 17.8189 12.0936 17.8398 12.1287 17.8304C12.1638 17.821 12.1846 17.7849 12.1752 17.7498L12.1263 17.5673L12.3088 17.5184C12.3439 17.509 12.3647 17.4729 12.3553 17.4378C12.3459 17.4027 12.3098 17.3819 12.2747 17.3913L12.0686 17.4465L11.8893 17.343L12.0426 17.2545C12.0457 17.2559 12.049 17.2571 12.0525 17.258L12.2749 17.3176C12.31 17.327 12.3461 17.3062 12.3555 17.2711C12.3649 17.2359 12.3441 17.1999 12.309 17.1905L12.1265 17.1416L12.1754 16.9591C12.1848 16.924 12.1639 16.8879 12.1288 16.8785C12.0937 16.8691 12.0576 16.8899 12.0482 16.925L11.993 17.1312L11.8136 17.2347V17.0579C11.8164 17.0558 11.8191 17.0536 11.8216 17.0511L11.9844 16.8882C12.0101 16.8625 12.0101 16.8208 11.9844 16.7952C11.9587 16.7695 11.9171 16.7695 11.8914 16.7952L11.7578 16.9288L11.6242 16.7952C11.5985 16.7695 11.5568 16.7695 11.5311 16.7952Z" fill="#77AEFF"/>
<path fill-rule="evenodd" clip-rule="evenodd" d="M14.593 15.9171C14.5743 15.9358 14.5743 15.9661 14.593 15.9848L14.7028 16.0946V16.2285L14.5867 16.1615L14.5465 16.0116C14.5397 15.9861 14.5134 15.9709 14.4879 15.9777C14.4624 15.9846 14.4472 16.0108 14.4541 16.0364L14.4896 16.1691L14.3569 16.2046C14.3313 16.2115 14.3162 16.2377 14.323 16.2632C14.3299 16.2888 14.3561 16.3039 14.3816 16.2971L14.5434 16.2537C14.5459 16.2531 14.5483 16.2522 14.5506 16.2512L14.662 16.3155L14.5315 16.3908L14.3816 16.3507C14.3561 16.3438 14.3298 16.359 14.323 16.3845C14.3162 16.41 14.3313 16.4363 14.3568 16.4431L14.4895 16.4787L14.454 16.6114C14.4471 16.6369 14.4623 16.6632 14.4878 16.67C14.5133 16.6769 14.5396 16.6617 14.5464 16.6362L14.5898 16.4744C14.5904 16.4719 14.5909 16.4694 14.5911 16.4669L14.7027 16.4025V16.5532L14.5929 16.663C14.5743 16.6817 14.5743 16.712 14.5929 16.7307C14.6116 16.7494 14.6419 16.7494 14.6606 16.7307L14.7578 16.6335L14.855 16.7307C14.8737 16.7494 14.904 16.7494 14.9226 16.7307C14.9413 16.712 14.9413 16.6817 14.9226 16.663L14.8042 16.5446C14.8024 16.5428 14.8005 16.5411 14.7985 16.5396V16.3943L14.9242 16.4669C14.9244 16.4693 14.9249 16.4718 14.9256 16.4743L14.9689 16.6361C14.9757 16.6616 15.002 16.6768 15.0275 16.67C15.053 16.6631 15.0682 16.6369 15.0613 16.6113L15.0258 16.4787L15.1586 16.4431C15.1841 16.4363 15.1992 16.41 15.1924 16.3845C15.1856 16.359 15.1593 16.3438 15.1338 16.3507L14.9839 16.3908L14.8534 16.3155L14.9649 16.2512C14.9671 16.2522 14.9695 16.253 14.972 16.2537L15.1338 16.297C15.1593 16.3039 15.1856 16.2887 15.1924 16.2632C15.1992 16.2377 15.1841 16.2114 15.1586 16.2046L15.0259 16.169L15.0614 16.0364C15.0683 16.0108 15.0531 15.9846 15.0276 15.9777C15.0021 15.9709 14.9758 15.9861 14.969 16.0116L14.9288 16.1615L14.7985 16.2367V16.1081C14.8005 16.1067 14.8024 16.105 14.8042 16.1032L14.9227 15.9848C14.9414 15.9661 14.9414 15.9358 14.9227 15.9171C14.904 15.8984 14.8737 15.8984 14.855 15.9171L14.7578 16.0143L14.6606 15.9171C14.642 15.8984 14.6117 15.8984 14.593 15.9171Z" fill="#77AEFF"/>
<g filter="url(#filter0_d_19_3749)">
<path d="M10.6122 15.7161C10.6122 16.0604 10.3436 16.3395 10.0122 16.3395C9.68086 16.3395 9.41223 16.0604 9.41223 15.7161C9.41223 15.3718 10.0122 14.7031 10.0122 14.7031C10.0122 14.7031 10.6122 15.3718 10.6122 15.7161Z" fill="url(#paint1_linear_19_3749)"/>
</g>
<g filter="url(#filter1_d_19_3749)">
<path d="M14.1031 17.955C14.1031 18.2075 13.9078 18.4122 13.6668 18.4122C13.4258 18.4122 13.2304 18.2075 13.2304 17.955C13.2304 17.7025 13.6668 17.2122 13.6668 17.2122C13.6668 17.2122 14.1031 17.7025 14.1031 17.955Z" fill="url(#paint2_linear_19_3749)"/>
</g>
<defs>
<filter id="filter0_d_19_3749" x="8.32132" y="14.0486" width="3.38183" height="3.81829" filterUnits="userSpaceOnUse" color-interpolation-filters="sRGB">
<feFlood flood-opacity="0" result="BackgroundImageFix"/>
<feColorMatrix in="SourceAlpha" type="matrix" values="0 0 0 0 0 0 0 0 0 0 0 0 0 0 0 0 0 0 127 0" result="hardAlpha"/>
<feOffset dy="0.436364"/>
<feGaussianBlur stdDeviation="0.545455"/>
<feComposite in2="hardAlpha" operator="out"/>
<feColorMatrix type="matrix" values="0 0 0 0 0.627451 0 0 0 0 0.776471 0 0 0 0 1 0 0 0 1 0"/>
<feBlend mode="normal" in2="BackgroundImageFix" result="effect1_dropShadow_19_3749"/>
<feBlend mode="normal" in="SourceGraphic" in2="effect1_dropShadow_19_3749" result="shape"/>
</filter>
<filter id="filter1_d_19_3749" x="12.1395" y="16.5576" width="3.05456" height="3.38177" filterUnits="userSpaceOnUse" color-interpolation-filters="sRGB">
<feFlood flood-opacity="0" result="BackgroundImageFix"/>
<feColorMatrix in="SourceAlpha" type="matrix" values="0 0 0 0 0 0 0 0 0 0 0 0 0 0 0 0 0 0 127 0" result="hardAlpha"/>
<feOffset dy="0.436364"/>
<feGaussianBlur stdDeviation="0.545455"/>
<feComposite in2="hardAlpha" operator="out"/>
<feColorMatrix type="matrix" values="0 0 0 0 0.627451 0 0 0 0 0.776471 0 0 0 0 1 0 0 0 1 0"/>
<feBlend mode="normal" in2="BackgroundImageFix" result="effect1_dropShadow_19_3749"/>
<feBlend mode="normal" in="SourceGraphic" in2="effect1_dropShadow_19_3749" result="shape"/>
</filter>
<linearGradient id="paint0_linear_19_3749" x1="11.654" y1="9.33904" x2="6.94524" y2="10.6008" gradientUnits="userSpaceOnUse">
<stop stop-color="#B486FF"/>
<stop offset="1" stop-color="#4C20FF"/>
</linearGradient>
<linearGradient id="paint1_linear_19_3749" x1="10.0122" y1="14.7031" x2="10.0122" y2="16.3395" gradientUnits="userSpaceOnUse">
<stop stop-color="#9AC2FF"/>
<stop offset="1" stop-color="#458FFF"/>
</linearGradient>
<linearGradient id="paint2_linear_19_3749" x1="13.6668" y1="17.2122" x2="13.6668" y2="18.4122" gradientUnits="userSpaceOnUse">
<stop stop-color="#9AC2FF"/>
<stop offset="1" stop-color="#458FFF"/>
</linearGradient>
</defs>
</svg>
