<svg width="25" height="25" viewBox="0 0 25 25" fill="none" xmlns="http://www.w3.org/2000/svg">
<circle cx="12.7819" cy="12.3542" r="12" fill="white"/>
<circle cx="17.9092" cy="10.3905" r="0.218182" fill="black"/>
<circle cx="8.85465" cy="9.19055" r="0.327273" fill="url(#paint0_linear_19_3878)"/>
<circle cx="7.32738" cy="14.9725" r="0.545455" fill="url(#paint1_linear_19_3878)"/>
<circle cx="17.9092" cy="16.0633" r="0.436364" fill="url(#paint2_linear_19_3878)"/>
<mask id="path-6-inside-1_19_3878" fill="white">
<path fill-rule="evenodd" clip-rule="evenodd" d="M15.7871 14.5514C14.3705 14.0781 13.3494 12.7407 13.3494 11.1648C13.3494 10.581 13.4895 10.0299 13.738 9.54329C13.3823 9.42442 13.0016 9.36004 12.6059 9.36004C10.6344 9.36004 9.03607 10.9583 9.03607 12.9299C9.03607 14.9015 10.6344 16.4998 12.6059 16.4998C13.9937 16.4998 15.1965 15.7079 15.7871 14.5514Z"/>
</mask>
<path d="M15.7871 14.5514L15.9427 14.0858L16.4838 14.2666L16.2243 14.7747L15.7871 14.5514ZM13.738 9.54329L13.8936 9.07768L14.4347 9.25849L14.1752 9.76658L13.738 9.54329ZM13.8403 11.1648C13.8403 12.5232 14.7203 13.6774 15.9427 14.0858L15.6315 15.017C14.0206 14.4787 12.8585 12.9581 12.8585 11.1648H13.8403ZM14.1752 9.76658C13.9612 10.1856 13.8403 10.6604 13.8403 11.1648H12.8585C12.8585 10.5016 13.0179 9.87409 13.3009 9.32L14.1752 9.76658ZM13.5825 10.0089C13.2763 9.90657 12.9481 9.85095 12.6059 9.85095V8.86913C13.0552 8.86913 13.4884 8.94227 13.8936 9.07768L13.5825 10.0089ZM12.6059 9.85095C10.9055 9.85095 9.52698 11.2294 9.52698 12.9299H8.54516C8.54516 10.6872 10.3632 8.86913 12.6059 8.86913V9.85095ZM9.52698 12.9299C9.52698 14.6304 10.9055 16.0088 12.6059 16.0088V16.9907C10.3632 16.9907 8.54516 15.1726 8.54516 12.9299H9.52698ZM12.6059 16.0088C13.8021 16.0088 14.8399 15.3268 15.3499 14.3281L16.2243 14.7747C15.553 16.089 14.1852 16.9907 12.6059 16.9907V16.0088Z" fill="url(#paint3_linear_19_3878)" mask="url(#path-6-inside-1_19_3878)"/>
<path d="M15.4069 6.73987C15.442 6.64489 15.5764 6.64489 15.6115 6.73987L15.9927 7.76998C16.0037 7.79984 16.0273 7.82339 16.0571 7.83444L17.0873 8.21561C17.1822 8.25076 17.1822 8.38509 17.0873 8.42024L16.0571 8.80141C16.0273 8.81246 16.0037 8.836 15.9927 8.86586L15.6115 9.89598C15.5764 9.99095 15.442 9.99095 15.4069 9.89598L15.0257 8.86586C15.0147 8.836 14.9911 8.81246 14.9613 8.80141L13.9312 8.42024C13.8362 8.38509 13.8362 8.25076 13.9312 8.21561L14.9613 7.83444C14.9911 7.82339 15.0147 7.79984 15.0257 7.76998L15.4069 6.73987Z" fill="#FFD600"/>
<path d="M16.4399 11.7769C16.4575 11.7294 16.5246 11.7294 16.5422 11.7769L16.6877 12.17C16.7042 12.2148 16.7395 12.2501 16.7843 12.2666L17.1774 12.4121C17.2249 12.4297 17.2249 12.4968 17.1774 12.5144L16.7843 12.6599C16.7395 12.6765 16.7042 12.7118 16.6877 12.7566L16.5422 13.1497C16.5246 13.1971 16.4575 13.1971 16.4399 13.1497L16.2944 12.7566C16.2778 12.7118 16.2425 12.6765 16.1977 12.6599L15.8046 12.5144C15.7571 12.4968 15.7571 12.4297 15.8046 12.4121L16.1977 12.2666C16.2425 12.2501 16.2778 12.2148 16.2944 12.17L16.4399 11.7769Z" stroke="#FFD600" stroke-width="0.109091"/>
<defs>
<linearGradient id="paint0_linear_19_3878" x1="8.85465" y1="8.86328" x2="8.85465" y2="9.51783" gradientUnits="userSpaceOnUse">
<stop stop-color="#C3B1FF"/>
<stop offset="1" stop-color="#6134FF"/>
</linearGradient>
<linearGradient id="paint1_linear_19_3878" x1="7.32738" y1="14.427" x2="7.32738" y2="15.5179" gradientUnits="userSpaceOnUse">
<stop stop-color="#C3B1FF"/>
<stop offset="1" stop-color="#6134FF"/>
</linearGradient>
<linearGradient id="paint2_linear_19_3878" x1="17.9092" y1="15.627" x2="17.9092" y2="16.4997" gradientUnits="userSpaceOnUse">
<stop stop-color="#663AFF"/>
<stop offset="1" stop-color="#6134FF"/>
</linearGradient>
<linearGradient id="paint3_linear_19_3878" x1="12.4044" y1="16.4998" x2="12.4044" y2="9.36004" gradientUnits="userSpaceOnUse">
<stop stop-color="#5327FF"/>
<stop offset="1" stop-color="#8E72FF"/>
</linearGradient>
</defs>
</svg>
