<svg width="24" height="24" viewBox="0 0 24 24" fill="none" xmlns="http://www.w3.org/2000/svg">
<circle cx="11.9818" cy="11.8117" r="11.7333" fill="white"/>
<path d="M16.5684 12.0412C16.5684 10.9721 15.064 10.105 13.2085 10.105C11.3529 10.105 9.84845 10.971 9.84845 12.0401C9.84845 12.8747 10.7676 13.584 12.054 13.8556C11.5801 14.0587 11.2725 14.3826 11.2725 14.7494C11.2725 15.3658 12.1401 15.865 13.2096 15.865C14.2791 15.865 15.1466 15.3658 15.1466 14.7494C15.1466 14.3826 14.8391 14.0587 14.3652 13.8556C14.4421 13.8393 14.5189 13.8231 14.5935 13.8045C15.7583 13.5015 16.5684 12.8259 16.5684 12.0412Z" fill="#D5DEEC"/>
<path d="M11.8218 12.7376C14.3451 12.7376 16.2485 11.8053 16.2485 10.5675C16.2485 9.32966 14.3451 8.39844 11.8218 8.39844C9.29847 8.39844 7.39514 9.3308 7.39514 10.5686C7.39514 11.4518 8.36732 12.1771 9.83984 12.5214C9.07053 12.8132 8.58957 13.2788 8.58957 13.8233C8.58957 14.4777 9.28252 15.0176 10.3368 15.2796C10.0427 15.4535 9.85465 15.6915 9.85465 15.9935C9.85465 16.6227 10.6741 16.9785 11.5585 17.038C11.701 17.0471 11.8218 16.9236 11.8218 16.7668C11.8218 16.625 11.7215 16.5049 11.5927 16.4968C10.7687 16.4465 10.3949 16.1468 10.3459 15.9935C10.2513 15.6995 11.0947 15.3643 11.8218 15.4512C12.1751 15.4512 12.5193 15.4249 12.8487 15.3723C12.9855 15.3506 13.0755 15.2041 13.0504 15.0543V15.0531C13.0265 14.909 12.9023 14.8152 12.7712 14.8369C12.468 14.8849 12.15 14.909 11.8229 14.909C10.2547 14.909 9.08306 14.3358 9.08306 13.8245C9.08193 13.3108 10.2536 12.7376 11.8218 12.7376ZM7.8875 10.5686C7.8875 9.7987 9.50362 8.9407 11.8218 8.9407C14.14 8.9407 15.7561 9.7987 15.7561 10.5686C15.7561 11.3385 14.14 12.1954 11.8218 12.1954C9.50362 12.1954 7.8875 11.3385 7.8875 10.5686Z" fill="black"/>
<path d="M6.6485 13.1451C6.6485 13.1941 6.65816 13.2426 6.67692 13.2879C6.69568 13.3332 6.72318 13.3744 6.75785 13.409C6.79251 13.4437 6.83367 13.4712 6.87896 13.49C6.92426 13.5087 6.97281 13.5184 7.02183 13.5184C7.07086 13.5184 7.11941 13.5087 7.1647 13.49C7.21 13.4712 7.25115 13.4437 7.28582 13.409C7.32049 13.3744 7.34799 13.3332 7.36675 13.2879C7.38551 13.2426 7.39517 13.1941 7.39517 13.1451C7.39517 13.046 7.35583 12.9511 7.28582 12.8811C7.2158 12.8111 7.12085 12.7717 7.02183 12.7717C6.92282 12.7717 6.82786 12.8111 6.75785 12.8811C6.68783 12.9511 6.6485 13.046 6.6485 13.1451Z" fill="#FFD600"/>
<path d="M15.2885 8.02494C15.2885 8.07397 15.2981 8.12252 15.3169 8.16781C15.3356 8.21311 15.3631 8.25426 15.3978 8.28893C15.4325 8.3236 15.4736 8.3511 15.5189 8.36986C15.5642 8.38862 15.6128 8.39828 15.6618 8.39828C15.7108 8.39828 15.7594 8.38862 15.8047 8.36986C15.8499 8.3511 15.8911 8.3236 15.9258 8.28893C15.9604 8.25426 15.9879 8.21311 16.0067 8.16781C16.0255 8.12252 16.0351 8.07397 16.0351 8.02494C16.0351 7.97592 16.0255 7.92737 16.0067 7.88208C15.9879 7.83678 15.9604 7.79563 15.9258 7.76096C15.8911 7.72629 15.8499 7.69879 15.8047 7.68003C15.7594 7.66127 15.7108 7.65161 15.6618 7.65161C15.6128 7.65161 15.5642 7.66127 15.5189 7.68003C15.4736 7.69879 15.4325 7.72629 15.3978 7.76096C15.3631 7.79563 15.3356 7.83678 15.3169 7.88208C15.2981 7.92737 15.2885 7.97592 15.2885 8.02494Z" fill="#FFD600"/>
<path d="M14.5418 14.4251C14.5418 14.4741 14.5515 14.5227 14.5702 14.568C14.589 14.6133 14.6165 14.6544 14.6512 14.6891C14.6858 14.7237 14.727 14.7512 14.7723 14.77C14.8176 14.7888 14.8661 14.7984 14.9151 14.7984C14.9642 14.7984 15.0127 14.7888 15.058 14.77C15.1033 14.7512 15.1445 14.7237 15.1791 14.6891C15.2138 14.6544 15.2413 14.6133 15.2601 14.568C15.2788 14.5227 15.2885 14.4741 15.2885 14.4251C15.2885 14.3761 15.2788 14.3275 15.2601 14.2822C15.2413 14.2369 15.2138 14.1958 15.1791 14.1611C15.1445 14.1264 15.1033 14.0989 15.058 14.0802C15.0127 14.0614 14.9642 14.0518 14.9151 14.0518C14.8661 14.0518 14.8176 14.0614 14.7723 14.0802C14.727 14.0989 14.6858 14.1264 14.6512 14.1611C14.6165 14.1958 14.589 14.2369 14.5702 14.2822C14.5515 14.3275 14.5418 14.3761 14.5418 14.4251Z" fill="#FFD600"/>
</svg>
