<svg width="20" height="21" viewBox="0 0 20 21" fill="none" xmlns="http://www.w3.org/2000/svg">
<path fill-rule="evenodd" clip-rule="evenodd" d="M15.3265 5.63988C14.834 5.63988 14.4347 6.03916 14.4347 6.53169C14.4347 7.02422 14.834 7.4235 15.3265 7.4235C15.819 7.4235 16.2183 7.02422 16.2183 6.53169C16.2183 6.03916 15.819 5.63988 15.3265 5.63988ZM13.2456 6.53169C13.2456 5.38245 14.1772 4.45081 15.3265 4.45081C16.4757 4.45081 17.4074 5.38245 17.4074 6.53169C17.4074 7.68093 16.4757 8.61257 15.3265 8.61257C14.1772 8.61257 13.2456 7.68093 13.2456 6.53169Z" fill="#1B51B3"/>
<path fill-rule="evenodd" clip-rule="evenodd" d="M8.4898 2.36998C8.01676 2.36998 7.56309 2.5579 7.22859 2.89239C6.8941 3.22689 6.70618 3.68056 6.70618 4.1536V11.511L6.47752 11.9796C5.94081 12.3987 5.5483 12.9748 5.35474 13.6276C5.16118 14.2804 5.17624 14.9773 5.3978 15.6212C5.61937 16.265 6.03639 16.8236 6.59069 17.2191C7.14499 17.6145 7.8089 17.8271 8.4898 17.8271C9.1707 17.8271 9.83461 17.6145 10.3889 17.2191C10.9432 16.8236 11.3602 16.265 11.5818 15.6212C11.8034 14.9773 11.8184 14.2804 11.6249 13.6276C11.4313 12.9748 11.0388 12.3987 10.5021 11.9796C10.3578 11.867 10.2734 11.6941 10.2734 11.511V4.1536C10.2734 3.68056 10.0855 3.22689 9.75101 2.89239C9.41651 2.5579 8.96284 2.36998 8.4898 2.36998ZM5.51711 11.2335V4.1536C5.51711 3.36519 5.8303 2.60908 6.38779 2.05159C6.94528 1.4941 7.70139 1.18091 8.4898 1.18091C9.27821 1.18091 10.0343 1.4941 10.5918 2.05159C11.1493 2.60908 11.4625 3.36519 11.4625 4.1536V11.2335C12.0774 11.7835 12.5293 12.4949 12.7649 13.2896C13.0288 14.1797 13.0083 15.1301 12.7062 16.0081C12.404 16.8861 11.8354 17.6478 11.0795 18.1871C10.3236 18.7263 9.4183 19.0162 8.4898 19.0162C7.5613 19.0162 6.65596 18.7263 5.9001 18.1871C5.14425 17.6478 4.57558 16.8861 4.27344 16.0081C3.97131 15.1301 3.95078 14.1797 4.21472 13.2896C4.45035 12.4949 4.90219 11.7835 5.51711 11.2335Z" fill="#1B51B3"/>
<path fill-rule="evenodd" clip-rule="evenodd" d="M8.48958 13.6662C7.99704 13.6662 7.59777 14.0655 7.59777 14.5581C7.59777 15.0506 7.99704 15.4499 8.48958 15.4499C8.98211 15.4499 9.38138 15.0506 9.38138 14.5581C9.38138 14.0655 8.98211 13.6662 8.48958 13.6662ZM6.40869 14.5581C6.40869 13.4088 7.34034 12.4772 8.48958 12.4772C9.63882 12.4772 10.5705 13.4088 10.5705 14.5581C10.5705 15.7073 9.63882 16.6389 8.48958 16.6389C7.34034 16.6389 6.40869 15.7073 6.40869 14.5581Z" fill="#1B51B3"/>
<path fill-rule="evenodd" clip-rule="evenodd" d="M8.48956 6.53174C8.81791 6.53174 9.0841 6.79792 9.0841 7.12628V13.0717C9.0841 13.4 8.81791 13.6662 8.48956 13.6662C8.1612 13.6662 7.89502 13.4 7.89502 13.0717V7.12628C7.89502 6.79792 8.1612 6.53174 8.48956 6.53174Z" fill="#1B51B3"/>
</svg>
