<svg width="25" height="25" viewBox="0 0 25 25" fill="none" xmlns="http://www.w3.org/2000/svg">
<rect x="0.981873" y="0.354248" width="24" height="24" rx="12" fill="white"/>
<path d="M11.7336 13.5534H10.0504C9.83062 13.5534 9.67903 13.3334 9.75723 13.1282L11.4297 8.73811C11.4524 8.67872 11.4925 8.6276 11.5448 8.59153C11.5972 8.55546 11.6592 8.53614 11.7228 8.53613H14.5451C14.7678 8.53613 14.9196 8.76174 14.8355 8.96801L13.8617 11.3583H15.695C15.9646 11.3583 16.1085 11.6762 15.9306 11.8788L11.4358 17.0004C11.2173 17.2495 10.8122 17.0337 10.897 16.7135L11.7336 13.5534Z" fill="url(#paint0_linear_19_3961)"/>
<path d="M7.87468 15.8554H7.58195C7.54373 15.8554 7.51737 15.7799 7.53097 15.7094L7.82184 14.201C7.82577 14.1806 7.83275 14.163 7.84186 14.1506C7.85096 14.1382 7.86175 14.1316 7.8728 14.1316H8.36364C8.40237 14.1316 8.42876 14.2091 8.41415 14.28L8.24478 15.1013H8.56362C8.61051 15.1013 8.63553 15.2105 8.6046 15.2801L7.82289 17.0398C7.78489 17.1254 7.71444 17.0512 7.72919 16.9412L7.87468 15.8554Z" fill="url(#paint1_linear_19_3961)"/>
<path d="M17.5094 10.4011H17.1874C17.1453 10.4011 17.1163 10.3255 17.1313 10.255L17.4513 8.74664C17.4556 8.72624 17.4633 8.70867 17.4733 8.69628C17.4833 8.68389 17.4952 8.67725 17.5073 8.67725H18.0472C18.0898 8.67725 18.1189 8.75476 18.1028 8.82563L17.9165 9.64692H18.2672C18.3188 9.64692 18.3463 9.75611 18.3123 9.82573L17.4524 11.5855C17.4106 11.671 17.3331 11.5969 17.3493 11.4869L17.5094 10.4011Z" fill="url(#paint2_linear_19_3961)"/>
<circle cx="8.29096" cy="10.4225" r="0.327273" fill="black"/>
<circle cx="14.4001" cy="17.0771" r="0.218182" fill="#739BFF"/>
<circle cx="16.5273" cy="15.0589" r="0.272727" fill="#FF9900"/>
<defs>
<linearGradient id="paint0_linear_19_3961" x1="12.8728" y1="8.53613" x2="12.8728" y2="17.1088" gradientUnits="userSpaceOnUse">
<stop stop-color="#A4BDFF"/>
<stop offset="1" stop-color="#5A88FF"/>
</linearGradient>
<linearGradient id="paint1_linear_19_3961" x1="8.0728" y1="14.1316" x2="8.0728" y2="17.077" gradientUnits="userSpaceOnUse">
<stop stop-color="#A4BDFF"/>
<stop offset="1" stop-color="#5A88FF"/>
</linearGradient>
<linearGradient id="paint2_linear_19_3961" x1="17.7273" y1="8.67725" x2="17.7273" y2="11.6227" gradientUnits="userSpaceOnUse">
<stop stop-color="#A4BDFF"/>
<stop offset="1" stop-color="#5A88FF"/>
</linearGradient>
</defs>
</svg>
