<svg width="25" height="24" viewBox="0 0 25 24" fill="none" xmlns="http://www.w3.org/2000/svg">
<ellipse cx="12.2485" cy="12" rx="12" ry="12" fill="white"/>
<path fill-rule="evenodd" clip-rule="evenodd" d="M14.7395 6.98193C14.912 6.98193 15.0518 7.12174 15.0518 7.2942C15.0518 7.46666 14.912 7.60647 14.7395 7.60647C14.5671 7.60647 14.4273 7.46666 14.4273 7.2942C14.4273 7.12174 14.5671 6.98193 14.7395 6.98193ZM14.7395 12.2459C15.8975 12.2459 16.8362 11.3072 16.8362 10.1492C16.8362 8.99127 15.8975 8.05257 14.7395 8.05257C13.5816 8.05257 12.6429 8.99127 12.6429 10.1492C12.6429 11.3072 13.5816 12.2459 14.7395 12.2459ZM17.5946 10.4615C17.767 10.4615 17.9068 10.3217 17.9068 10.1492C17.9068 9.97677 17.767 9.83696 17.5946 9.83696C17.4221 9.83696 17.2823 9.97677 17.2823 10.1492C17.2823 10.3217 17.4221 10.4615 17.5946 10.4615ZM16.9791 12.3888C16.8572 12.5108 16.6594 12.5108 16.5375 12.3888C16.4156 12.2669 16.4156 12.0692 16.5375 11.9472C16.6594 11.8253 16.8572 11.8253 16.9791 11.9472C17.1011 12.0692 17.1011 12.2669 16.9791 12.3888ZM12.5 8.35122C12.6219 8.47317 12.8196 8.47317 12.9416 8.35122C13.0635 8.22928 13.0635 8.03156 12.9416 7.90961C12.8196 7.78766 12.6219 7.78766 12.5 7.90961C12.378 8.03156 12.378 8.22928 12.5 8.35122ZM16.5375 8.35126C16.4156 8.22931 16.4156 8.0316 16.5375 7.90965C16.6595 7.7877 16.8572 7.7877 16.9791 7.90965C17.1011 8.0316 17.1011 8.22931 16.9791 8.35126C16.8572 8.47321 16.6595 8.47321 16.5375 8.35126Z" fill="#FFD600"/>
<path fill-rule="evenodd" clip-rule="evenodd" d="M7.3597 11.462C7.8052 11.0165 8.36868 10.7608 8.94958 10.6951C9.01403 9.2741 10.1865 8.14185 11.6234 8.14185C13.014 8.14185 14.157 9.20244 14.2875 10.5589C15.6216 10.3503 16.9257 11.1776 17.2831 12.5113C17.6646 13.9349 16.8235 15.3979 15.4035 15.7859C15.3992 15.7873 15.3949 15.7886 15.3906 15.7898C15.2577 15.8254 15.1212 15.7465 15.0856 15.6137C15.05 15.4809 15.1288 15.3444 15.2616 15.3088L15.2616 15.3088L15.2617 15.3088C16.4239 14.9973 17.1136 13.8027 16.8022 12.6405C16.4907 11.4783 15.2961 10.7886 14.1339 11.1L14.1339 11.1L14.1339 11.1C14.0069 11.1341 13.8764 11.0634 13.8342 10.941C13.8137 10.9048 13.802 10.863 13.802 10.8184V10.8184H13.8019V10.8184C13.8019 9.61519 12.8265 8.63979 11.6233 8.63979C10.4648 8.63979 9.51755 9.54401 9.44871 10.6852C10.0649 10.7302 10.6685 10.9877 11.1405 11.4575L11.1451 11.462C11.2423 11.5592 11.2423 11.7169 11.1451 11.8141C11.0478 11.9113 10.8902 11.9113 10.793 11.8141L10.7929 11.814L10.7929 11.8141C9.94205 10.9633 8.56264 10.9633 7.71184 11.8141C6.86241 12.6635 6.86104 14.0398 7.70773 14.891L7.71195 14.8951C7.80919 14.9923 7.80919 15.15 7.71195 15.2472C7.61472 15.3444 7.45707 15.3444 7.35984 15.2472L7.35977 15.2471L7.35969 15.2472C6.31443 14.2019 6.31443 12.5072 7.3597 11.462Z" fill="black"/>
<rect width="0.545455" height="1.85455" rx="0.272727" transform="matrix(0.707107 0.707106 -0.707107 0.707106 13.2325 13.7456)" fill="url(#paint0_linear_19_3180)"/>
<rect width="0.545455" height="2.49286" rx="0.272727" transform="matrix(0.707107 0.707106 -0.707107 0.707106 11.7203 13.3093)" fill="url(#paint1_linear_19_3180)"/>
<rect width="0.545455" height="1.47099" rx="0.272727" transform="matrix(0.707107 0.707106 -0.707107 0.707106 13.8871 15.2729)" fill="url(#paint2_linear_19_3180)"/>
<rect width="0.545455" height="1.47099" rx="0.272727" transform="matrix(0.707107 0.707106 -0.707107 0.707106 9.57959 15.491)" fill="url(#paint3_linear_19_3180)"/>
<rect width="0.545455" height="1.95654" rx="0.272727" transform="matrix(0.707107 0.707106 -0.707107 0.707106 11.4341 15.9275)" fill="url(#paint4_linear_19_3180)"/>
<defs>
<linearGradient id="paint0_linear_19_3180" x1="0.272727" y1="0" x2="0.272727" y2="1.85455" gradientUnits="userSpaceOnUse">
<stop stop-color="#89B9FF"/>
<stop offset="1" stop-color="#4B94FF"/>
</linearGradient>
<linearGradient id="paint1_linear_19_3180" x1="0.272727" y1="0" x2="0.272727" y2="2.49286" gradientUnits="userSpaceOnUse">
<stop stop-color="#89B9FF"/>
<stop offset="1" stop-color="#4B94FF"/>
</linearGradient>
<linearGradient id="paint2_linear_19_3180" x1="0.272727" y1="0" x2="0.272727" y2="1.47099" gradientUnits="userSpaceOnUse">
<stop stop-color="#89B9FF"/>
<stop offset="1" stop-color="#4B94FF"/>
</linearGradient>
<linearGradient id="paint3_linear_19_3180" x1="0.272727" y1="0" x2="0.272727" y2="1.47099" gradientUnits="userSpaceOnUse">
<stop stop-color="#89B9FF"/>
<stop offset="1" stop-color="#4B94FF"/>
</linearGradient>
<linearGradient id="paint4_linear_19_3180" x1="0.272727" y1="0" x2="0.272727" y2="1.95654" gradientUnits="userSpaceOnUse">
<stop stop-color="#89B9FF"/>
<stop offset="1" stop-color="#4B94FF"/>
</linearGradient>
</defs>
</svg>
