<svg width="25" height="25" viewBox="0 0 25 25" fill="none" xmlns="http://www.w3.org/2000/svg">
<circle cx="12.7819" cy="12.6304" r="12" fill="white"/>
<path fill-rule="evenodd" clip-rule="evenodd" d="M8.76588 11.805C9.21139 11.3595 9.77487 11.1038 10.3558 11.0381C10.4202 9.61712 11.5927 8.48486 13.0295 8.48486C14.4203 8.48486 15.5634 9.54562 15.6937 10.9022C17.0278 10.6936 18.332 11.5209 18.6894 12.8546C19.0717 14.2816 18.2257 15.7483 16.7995 16.132L16.7967 16.1328C16.6639 16.1684 16.5274 16.0896 16.4918 15.9567C16.4562 15.8239 16.535 15.6874 16.6678 15.6518L16.6678 15.6518L16.6678 15.6518C17.83 15.3404 18.5198 14.1457 18.2083 12.9835C17.8969 11.8213 16.7023 11.1316 15.5401 11.443L15.5401 11.443C15.413 11.4771 15.2826 11.4064 15.2404 11.284C15.2199 11.2478 15.2082 11.206 15.2082 11.1615V11.1615H15.2081V11.1614C15.2081 9.95821 14.2327 8.98281 13.0295 8.98281C11.871 8.98281 10.9238 9.88702 10.8549 11.0282C11.4713 11.0733 12.075 11.3308 12.5471 11.8009L12.5512 11.805C12.6485 11.9022 12.6485 12.0599 12.5512 12.1571C12.454 12.2543 12.2964 12.2543 12.1991 12.1571L12.1991 12.157L12.199 12.1571C11.3482 11.3063 9.96882 11.3063 9.11802 12.1571C8.26864 13.0065 8.26723 14.3827 9.11379 15.2339L9.11814 15.2381C9.21537 15.3353 9.21537 15.493 9.11814 15.5902C9.0209 15.6875 8.86325 15.6875 8.76602 15.5902L8.76595 15.5902L8.76588 15.5902C7.72062 14.545 7.72062 12.8502 8.76588 11.805Z" fill="black"/>
<path fill-rule="evenodd" clip-rule="evenodd" d="M19.0365 10.0883C19.1066 9.93849 19.1606 9.78083 19.1969 9.61802C19.0411 9.65277 18.8851 9.67051 18.7311 9.67243C17.7179 9.68502 16.7861 9.01317 16.5118 7.98954C16.4568 7.78437 16.4318 7.57822 16.4341 7.37575C16.4349 7.29728 16.4399 7.21937 16.4488 7.14227C16.4578 7.06396 16.4709 6.98649 16.4879 6.91016C16.4562 6.91723 16.4245 6.925 16.3928 6.93349C16.2619 6.96858 16.1367 7.01443 16.018 7.06982C15.0386 7.52676 14.4983 8.63364 14.7877 9.71368C14.901 10.1365 15.1264 10.4993 15.4235 10.7786C15.4083 10.7258 15.4001 10.67 15.4001 10.6123C15.4001 10.4735 15.4472 10.3458 15.5263 10.2441C15.3832 10.0582 15.2737 9.8415 15.2092 9.60074C14.9959 8.80487 15.3405 7.99095 16.0031 7.57402C16.0145 7.74955 16.0432 7.92642 16.0903 8.10248C16.3988 9.25374 17.4048 10.0317 18.5319 10.1036C18.2942 10.4811 17.9192 10.7729 17.4549 10.8973C17.1393 10.9819 16.8207 10.9787 16.5253 10.9028C16.4343 11.0668 16.2688 11.1837 16.0745 11.2077C16.5292 11.4059 17.0516 11.4572 17.5679 11.3188C18.2411 11.1384 18.7622 10.6736 19.0365 10.0883Z" fill="#6538FF"/>
<path fill-rule="evenodd" clip-rule="evenodd" d="M8.76588 11.805C9.21139 11.3595 9.77487 11.1038 10.3558 11.0381C10.4202 9.61712 11.5927 8.48486 13.0295 8.48486C14.4203 8.48486 15.5634 9.54562 15.6937 10.9022C17.0278 10.6936 18.332 11.5209 18.6894 12.8546C19.0717 14.2816 18.2257 15.7482 16.7996 16.132L16.7967 16.1328C16.6639 16.1684 16.5274 16.0896 16.4918 15.9567C16.4562 15.8239 16.535 15.6874 16.6678 15.6518L16.6678 15.6517L16.6678 15.6517C17.83 15.3403 18.5197 14.1457 18.2083 12.9835C17.8973 11.8226 16.7049 11.1331 15.5439 11.442L15.5401 11.443C15.413 11.4771 15.2826 11.4064 15.2404 11.284C15.2199 11.2478 15.2082 11.206 15.2082 11.1615V11.1615H15.2081V11.1614C15.2081 9.95821 14.2327 8.98281 13.0295 8.98281C11.871 8.98281 10.9238 9.88702 10.8549 11.0282C11.4713 11.0733 12.075 11.3308 12.5471 11.8009L12.5512 11.805C12.6485 11.9022 12.6485 12.0599 12.5512 12.1571C12.454 12.2543 12.2964 12.2543 12.1991 12.1571L12.1991 12.157L12.199 12.1571C11.3482 11.3063 9.96882 11.3063 9.11802 12.1571C8.26864 13.0065 8.26723 14.3827 9.11379 15.2339L9.11814 15.2381C9.21537 15.3353 9.21537 15.493 9.11814 15.5902C9.0209 15.6875 8.86325 15.6875 8.76602 15.5902L8.76595 15.5902L8.76588 15.5902C7.72062 14.545 7.72062 12.8502 8.76588 11.805Z" fill="black"/>
<rect x="12.891" y="13.7212" width="0.545455" height="1.41818" rx="0.272727" fill="url(#paint0_linear_19_3615)"/>
<rect x="11.2546" y="14.4849" width="0.545455" height="1.41818" rx="0.272727" fill="url(#paint1_linear_19_3615)"/>
<rect x="10.1637" y="15.5757" width="0.545455" height="1.41818" rx="0.272727" fill="url(#paint2_linear_19_3615)"/>
<rect x="12.2365" y="16.0122" width="0.545455" height="1.41818" rx="0.272727" fill="url(#paint3_linear_19_3615)"/>
<rect x="13.7637" y="16.7756" width="0.545455" height="1.41818" rx="0.272727" fill="url(#paint4_linear_19_3615)"/>
<rect x="14.091" y="14.594" width="0.545455" height="1.41818" rx="0.272727" fill="url(#paint5_linear_19_3615)"/>
<rect x="15.291" y="15.5757" width="0.545455" height="1.41818" rx="0.272727" fill="url(#paint6_linear_19_3615)"/>
<defs>
<linearGradient id="paint0_linear_19_3615" x1="13.1637" y1="13.7212" x2="13.1637" y2="15.1394" gradientUnits="userSpaceOnUse">
<stop stop-color="#89B9FF"/>
<stop offset="1" stop-color="#4B94FF"/>
</linearGradient>
<linearGradient id="paint1_linear_19_3615" x1="11.5274" y1="14.4849" x2="11.5274" y2="15.903" gradientUnits="userSpaceOnUse">
<stop stop-color="#89B9FF"/>
<stop offset="1" stop-color="#4B94FF"/>
</linearGradient>
<linearGradient id="paint2_linear_19_3615" x1="10.4365" y1="15.5757" x2="10.4365" y2="16.9939" gradientUnits="userSpaceOnUse">
<stop stop-color="#89B9FF"/>
<stop offset="1" stop-color="#4B94FF"/>
</linearGradient>
<linearGradient id="paint3_linear_19_3615" x1="12.5092" y1="16.0122" x2="12.5092" y2="17.4304" gradientUnits="userSpaceOnUse">
<stop stop-color="#89B9FF"/>
<stop offset="1" stop-color="#4B94FF"/>
</linearGradient>
<linearGradient id="paint4_linear_19_3615" x1="14.0365" y1="16.7756" x2="14.0365" y2="18.1938" gradientUnits="userSpaceOnUse">
<stop stop-color="#89B9FF"/>
<stop offset="1" stop-color="#4B94FF"/>
</linearGradient>
<linearGradient id="paint5_linear_19_3615" x1="14.3637" y1="14.594" x2="14.3637" y2="16.0122" gradientUnits="userSpaceOnUse">
<stop stop-color="#89B9FF"/>
<stop offset="1" stop-color="#4B94FF"/>
</linearGradient>
<linearGradient id="paint6_linear_19_3615" x1="15.5637" y1="15.5757" x2="15.5637" y2="16.9939" gradientUnits="userSpaceOnUse">
<stop stop-color="#89B9FF"/>
<stop offset="1" stop-color="#4B94FF"/>
</linearGradient>
</defs>
</svg>
