<svg width="25" height="24" viewBox="0 0 25 24" fill="none" xmlns="http://www.w3.org/2000/svg">
<circle cx="12.5153" cy="11.8117" r="11.7333" fill="url(#paint0_linear_19_4090)"/>
<g clip-path="url(#clip0_19_4090)">
<path d="M12.5152 10.6829C10.8224 10.6829 7.61972 10.4214 7.61972 9.4296C7.61972 8.4378 10.8224 8.17627 12.5152 8.17627C14.2081 8.17627 17.4108 8.4378 17.4108 9.4296C17.4108 10.4214 14.2081 10.6829 12.5152 10.6829ZM12.5152 8.6258C11.2828 8.6258 10.1264 8.73108 9.25657 8.92159C8.27814 9.13799 8.06507 9.38281 8.06507 9.43127C8.06507 9.47974 8.27814 9.72288 9.25657 9.9418C10.1239 10.1323 11.2803 10.2376 12.5152 10.2376C13.7502 10.2376 14.9041 10.1323 15.7739 9.9418C16.7548 9.72539 16.9679 9.48057 16.9679 9.43127C16.9679 9.38198 16.7523 9.13799 15.7739 8.92159C14.9041 8.73108 13.7477 8.6258 12.5152 8.6258Z" fill="white"/>
<path d="M12.4267 12.74C10.4706 12.74 8.18539 12.4125 8.18539 11.4867C8.18539 10.5609 10.4706 10.2333 12.4267 10.2333C12.4571 10.2315 12.4875 10.2358 12.5161 10.2462C12.5448 10.2565 12.571 10.2726 12.5932 10.2935C12.6153 10.3144 12.633 10.3395 12.6451 10.3675C12.6572 10.3954 12.6634 10.4256 12.6634 10.456C12.6634 10.4864 12.6572 10.5166 12.6451 10.5445C12.633 10.5725 12.6153 10.5976 12.5932 10.6185C12.571 10.6394 12.5448 10.6555 12.5161 10.6658C12.4875 10.6762 12.4571 10.6805 12.4267 10.6787C9.77713 10.6787 8.63075 11.2126 8.63075 11.485C8.63075 11.7574 9.77713 12.2905 12.4267 12.2905C12.4571 12.2886 12.4875 12.293 12.5161 12.3033C12.5448 12.3137 12.571 12.3298 12.5932 12.3506C12.6153 12.3715 12.633 12.3967 12.6451 12.4246C12.6572 12.4526 12.6634 12.4827 12.6634 12.5131C12.6634 12.5436 12.6572 12.5737 12.6451 12.6017C12.633 12.6296 12.6153 12.6548 12.5932 12.6756C12.571 12.6965 12.5448 12.7126 12.5161 12.723C12.4875 12.7333 12.4571 12.7377 12.4267 12.7358V12.74ZM11.7933 15.443C11.7797 15.4442 11.766 15.4442 11.7524 15.443C11.043 15.3118 10.6369 15.0336 10.6369 14.6793C10.6369 14.1053 11.6538 13.8438 12.5988 13.8438C12.6555 13.8472 12.7087 13.8722 12.7477 13.9136C12.7866 13.955 12.8082 14.0096 12.8082 14.0664C12.8082 14.1232 12.7866 14.1779 12.7477 14.2193C12.7087 14.2607 12.6555 14.2856 12.5988 14.2891C11.6387 14.2891 11.0948 14.5674 11.0823 14.681C11.0873 14.7295 11.282 14.9041 11.8343 15.006C11.8892 15.0156 11.9385 15.0456 11.9724 15.0898C12.0063 15.1341 12.0223 15.1895 12.0173 15.2451C12.0122 15.3006 11.9865 15.3522 11.9451 15.3897C11.9038 15.4271 11.8499 15.4476 11.7942 15.4472L11.7933 15.443Z" fill="white"/>
<path d="M12.552 14.285C11.1115 14.285 9.57327 14.0234 9.57327 13.2898C9.57327 12.5562 11.1115 12.2947 12.552 12.2947C12.6087 12.2982 12.662 12.3231 12.7009 12.3645C12.7398 12.4059 12.7615 12.4605 12.7615 12.5174C12.7615 12.5742 12.7398 12.6288 12.7009 12.6702C12.662 12.7116 12.6087 12.7366 12.552 12.74C10.7472 12.74 10.0186 13.1286 10.0186 13.2898C10.0186 13.4511 10.7472 13.8396 12.552 13.8396C12.6087 13.8431 12.662 13.8681 12.7009 13.9094C12.7398 13.9508 12.7615 14.0055 12.7615 14.0623C12.7615 14.1191 12.7398 14.1738 12.7009 14.2151C12.662 14.2565 12.6087 14.2815 12.552 14.285Z" fill="white"/>
<path d="M14.6727 14.7636C14.6727 14.847 14.7058 14.9269 14.7647 14.9858C14.8236 15.0447 14.9035 15.0778 14.9868 15.0778C15.0702 15.0778 15.1501 15.0447 15.209 14.9858C15.2679 14.9269 15.301 14.847 15.301 14.7636C15.301 14.6803 15.2679 14.6004 15.209 14.5415C15.1501 14.4826 15.0702 14.4495 14.9868 14.4495C14.9035 14.4495 14.8236 14.4826 14.7647 14.5415C14.7058 14.6004 14.6727 14.6803 14.6727 14.7636Z" fill="white"/>
<path d="M13.3525 12.7968C13.3525 12.8174 13.3565 12.8378 13.3644 12.8569C13.3723 12.876 13.3839 12.8933 13.3985 12.9079C13.4131 12.9225 13.4304 12.934 13.4494 12.9419C13.4685 12.9498 13.4889 12.9539 13.5096 12.9539C13.5302 12.9539 13.5506 12.9498 13.5697 12.9419C13.5887 12.934 13.6061 12.9225 13.6207 12.9079C13.6352 12.8933 13.6468 12.876 13.6547 12.8569C13.6626 12.8378 13.6667 12.8174 13.6666 12.7968C13.6667 12.7761 13.6626 12.7557 13.6547 12.7366C13.6468 12.7176 13.6352 12.7003 13.6207 12.6857C13.6061 12.6711 13.5887 12.6595 13.5697 12.6516C13.5506 12.6437 13.5302 12.6396 13.5096 12.6396C13.4889 12.6396 13.4685 12.6437 13.4494 12.6516C13.4304 12.6595 13.4131 12.6711 13.3985 12.6857C13.3839 12.7003 13.3723 12.7176 13.3644 12.7366C13.3565 12.7557 13.3525 12.7761 13.3525 12.7968Z" fill="white"/>
<path d="M13.3525 14.6066C13.3525 14.6272 13.3565 14.6476 13.3644 14.6667C13.3723 14.6858 13.3839 14.7031 13.3985 14.7177C13.4131 14.7323 13.4304 14.7439 13.4494 14.7517C13.4685 14.7596 13.4889 14.7637 13.5096 14.7637C13.5302 14.7637 13.5506 14.7596 13.5697 14.7517C13.5887 14.7439 13.6061 14.7323 13.6207 14.7177C13.6352 14.7031 13.6468 14.6858 13.6547 14.6667C13.6626 14.6476 13.6667 14.6272 13.6666 14.6066C13.6667 14.586 13.6626 14.5655 13.6547 14.5465C13.6468 14.5274 13.6352 14.5101 13.6207 14.4955C13.6061 14.4809 13.5887 14.4693 13.5697 14.4614C13.5506 14.4535 13.5302 14.4495 13.5096 14.4495C13.4889 14.4495 13.4685 14.4535 13.4494 14.4614C13.4304 14.4693 13.4131 14.4809 13.3985 14.4955C13.3839 14.5101 13.3723 14.5274 13.3644 14.5465C13.3565 14.5655 13.3525 14.586 13.3525 14.6066Z" fill="white"/>
<path d="M15.1907 12.9538C15.1907 13.0371 15.2238 13.1171 15.2827 13.176C15.3416 13.2349 15.4216 13.268 15.5049 13.268C15.5882 13.268 15.6681 13.2349 15.727 13.176C15.7859 13.1171 15.819 13.0371 15.819 12.9538C15.819 12.8705 15.7859 12.7906 15.727 12.7317C15.6681 12.6727 15.5882 12.6396 15.5049 12.6396C15.4216 12.6396 15.3416 12.6727 15.2827 12.7317C15.2238 12.7906 15.1907 12.8705 15.1907 12.9538Z" fill="white"/>
<path d="M16.8242 14.6066C16.8242 14.6272 16.8283 14.6476 16.8362 14.6667C16.8441 14.6858 16.8556 14.7031 16.8702 14.7177C16.8848 14.7323 16.9021 14.7439 16.9212 14.7517C16.9402 14.7596 16.9607 14.7637 16.9813 14.7637C17.0019 14.7637 17.0224 14.7596 17.0414 14.7517C17.0605 14.7439 17.0778 14.7323 17.0924 14.7177C17.107 14.7031 17.1185 14.6858 17.1264 14.6667C17.1343 14.6476 17.1384 14.6272 17.1384 14.6066C17.1384 14.586 17.1343 14.5655 17.1264 14.5465C17.1185 14.5274 17.107 14.5101 17.0924 14.4955C17.0778 14.4809 17.0605 14.4693 17.0414 14.4614C17.0224 14.4535 17.0019 14.4495 16.9813 14.4495C16.9607 14.4495 16.9402 14.4535 16.9212 14.4614C16.9021 14.4693 16.8848 14.4809 16.8702 14.4955C16.8556 14.5101 16.8441 14.5274 16.8362 14.5465C16.8283 14.5655 16.8242 14.586 16.8242 14.6066Z" fill="white"/>
<path d="M14.2541 11.571C14.2541 11.6123 14.2622 11.6531 14.278 11.6912C14.2938 11.7293 14.3169 11.764 14.3461 11.7932C14.3753 11.8223 14.4099 11.8455 14.448 11.8613C14.4861 11.877 14.527 11.8852 14.5682 11.8852C14.6095 11.8852 14.6503 11.877 14.6885 11.8613C14.7266 11.8455 14.7612 11.8223 14.7904 11.7932C14.8196 11.764 14.8427 11.7293 14.8585 11.6912C14.8743 11.6531 14.8824 11.6123 14.8824 11.571C14.8824 11.5297 14.8743 11.4889 14.8585 11.4508C14.8427 11.4127 14.8196 11.378 14.7904 11.3489C14.7612 11.3197 14.7266 11.2965 14.6885 11.2808C14.6503 11.265 14.6095 11.2568 14.5682 11.2568C14.527 11.2568 14.4861 11.265 14.448 11.2808C14.4099 11.2965 14.3753 11.3197 14.3461 11.3489C14.3169 11.378 14.2938 11.4127 14.278 11.4508C14.2622 11.4889 14.2541 11.5297 14.2541 11.571Z" fill="white"/>
<path d="M16.4056 11.414C16.4056 11.4346 16.4097 11.455 16.4176 11.4741C16.4254 11.4931 16.437 11.5105 16.4516 11.5251C16.4662 11.5397 16.4835 11.5512 16.5026 11.5591C16.5216 11.567 16.5421 11.5711 16.5627 11.5711C16.5833 11.5711 16.6038 11.567 16.6228 11.5591C16.6419 11.5512 16.6592 11.5397 16.6738 11.5251C16.6884 11.5105 16.6999 11.4931 16.7078 11.4741C16.7157 11.455 16.7198 11.4346 16.7198 11.414C16.7198 11.3933 16.7157 11.3729 16.7078 11.3538C16.6999 11.3348 16.6884 11.3174 16.6738 11.3029C16.6592 11.2883 16.6419 11.2767 16.6228 11.2688C16.6038 11.2609 16.5833 11.2568 16.5627 11.2568C16.5421 11.2568 16.5216 11.2609 16.5026 11.2688C16.4835 11.2767 16.4662 11.2883 16.4516 11.3029C16.437 11.3174 16.4254 11.3348 16.4176 11.3538C16.4097 11.3729 16.4056 11.3933 16.4056 11.414Z" fill="white"/>
</g>
<defs>
<linearGradient id="paint0_linear_19_4090" x1="0.781921" y1="11.8117" x2="24.2486" y2="11.8117" gradientUnits="userSpaceOnUse">
<stop stop-color="#FFAEAD"/>
<stop offset="1" stop-color="#FF6D6C"/>
</linearGradient>
<clipPath id="clip0_19_4090">
<rect width="10.0267" height="10.0267" fill="white" transform="translate(7.50192 6.79834)"/>
</clipPath>
</defs>
</svg>
