<svg width="25" height="24" viewBox="0 0 25 24" fill="none" xmlns="http://www.w3.org/2000/svg">
<path d="M22.4714 17.8418C22.5817 18.3218 22.3639 18.8268 21.9856 18.9671C21.7588 19.0519 21.542 19.1698 21.3407 19.3179C20.1674 20.2429 18.639 20.1859 17.4579 19.3169C17.0173 18.9953 16.5073 18.8246 15.9868 18.8245C15.4662 18.8243 14.9562 18.9947 14.5154 19.3161C13.9287 19.7489 13.2477 19.9789 12.5523 19.979C11.857 19.9792 11.1759 19.7495 10.589 19.3169C10.148 18.9965 9.63822 18.8266 9.11787 18.8264C8.59752 18.8263 8.08763 18.996 7.64649 19.3161C7.06857 19.7613 6.39039 19.9992 5.69663 20C5.00288 20.0008 4.32428 19.7646 3.74558 19.3207C3.54335 19.1715 3.32558 19.0526 3.09751 18.9671C2.71715 18.8257 2.49958 18.3209 2.61026 17.8407C2.71585 17.3737 3.11421 17.0811 3.49495 17.2239C3.83252 17.357 4.15362 17.5407 4.45013 17.7703C4.81869 18.0487 5.24883 18.1973 5.68861 18.1982C6.12839 18.1992 6.55901 18.0524 6.92845 17.7757C7.58288 17.3057 8.33735 17.0568 9.10704 17.0568C9.87673 17.0569 10.6312 17.3059 11.2855 17.7759C11.6572 18.0525 12.0895 18.1995 12.531 18.1995C12.9726 18.1995 13.4049 18.0525 13.7765 17.7759C14.431 17.3059 15.1854 17.0569 15.9552 17.0569C16.7249 17.0568 17.4794 17.3058 18.1339 17.7757C18.5025 18.0517 18.9321 18.1984 19.3708 18.1981C19.8096 18.1977 20.239 18.0505 20.6073 17.7739C20.893 17.5524 21.2014 17.3733 21.5255 17.2409L21.5855 17.225C21.9666 17.0808 22.3659 17.3739 22.4714 17.8418Z" fill="#677A8E"/>
<path d="M3.01519 12.4389C2.63626 12.2985 2.41827 11.7937 2.52881 11.3135C2.62081 10.8133 3.07466 10.4864 3.47417 10.6867C3.81903 10.8214 4.14716 11.0081 4.45014 11.2419C4.81866 11.5202 5.24874 11.6688 5.68847 11.6698C6.1282 11.6708 6.55878 11.5242 6.92824 11.2476C7.5827 10.7774 8.33724 10.5284 9.10702 10.5284C9.87681 10.5285 10.6313 10.7776 11.2857 11.2478C11.6574 11.5242 12.0896 11.6711 12.531 11.6711C12.9725 11.6711 13.4047 11.5242 13.7763 11.2478C14.4307 10.7776 15.1853 10.5285 15.9551 10.5285C16.7249 10.5284 17.4794 10.7775 18.1339 11.2476C18.5026 11.5235 18.9321 11.67 19.3709 11.6696C19.8096 11.6693 20.239 11.522 20.6073 11.2455C20.9059 11.0139 21.2294 10.8287 21.5696 10.6948C21.6107 10.6691 21.6571 10.6571 21.7037 10.6599C22.2624 10.6614 22.5852 11.4381 22.3298 12.0037C22.2876 12.1057 22.228 12.1968 22.1547 12.2715C22.0815 12.3462 21.996 12.4031 21.9033 12.4386C21.6764 12.5236 21.4597 12.6414 21.2583 12.7894C20.085 13.7144 18.5567 13.6574 17.3755 12.7886C16.9349 12.4669 16.425 12.2962 15.9044 12.296C15.3838 12.2958 14.8737 12.4663 14.433 12.7876C13.8462 13.2205 13.1653 13.4506 12.4699 13.4507C11.7746 13.4509 11.0935 13.2212 10.5066 12.7886C10.0657 12.4682 9.55585 12.2982 9.03551 12.298C8.51516 12.2978 8.00525 12.4675 7.56413 12.7876C6.98624 13.2329 6.30809 13.4708 5.61434 13.4716C4.9206 13.4724 4.242 13.2361 3.66334 12.7922C3.46104 12.6431 3.24325 12.5244 3.01519 12.4389Z" fill="#677A8E"/>
<path d="M3.07548 5.91753C2.69798 5.7701 2.48 5.26543 2.59054 4.78522C2.69576 4.31788 3.09377 4.0249 3.47459 4.16738C3.81208 4.30041 4.13312 4.48405 4.42957 4.71362C4.79809 4.99194 5.22819 5.14055 5.66793 5.1415C6.10767 5.14246 6.53824 4.99571 6.90765 4.71899C7.56214 4.24894 8.31668 3.99995 9.08646 4C9.85624 4.00005 10.6107 4.24914 11.2652 4.71928C11.6368 4.99569 12.069 5.14261 12.5105 5.14261C12.952 5.14261 13.3842 4.99569 13.7558 4.71928C14.4102 4.24915 15.1647 4.00007 15.9345 4.00002C16.7043 3.99998 17.4588 4.24897 18.1133 4.71902C18.4819 4.99506 18.9115 5.14172 19.3503 5.14135C19.7891 5.14099 20.2184 4.99362 20.5867 4.71697C20.8847 4.48595 21.2073 4.30115 21.5466 4.16729C21.927 4.0255 22.3248 4.31808 22.4302 4.78488C22.5408 5.2652 22.3228 5.77016 21.9445 5.91025C21.7175 5.99511 21.5008 6.11304 21.2994 6.26123C20.1262 7.18602 18.5977 7.12927 17.4166 6.26021C16.976 5.93869 16.4661 5.76801 15.9455 5.76783C15.4249 5.76764 14.9149 5.93795 14.4741 6.25915C13.8874 6.69213 13.2065 6.92219 12.5111 6.92238C11.8157 6.92257 11.1347 6.69289 10.5478 6.26024C10.1068 5.93995 9.59698 5.77001 9.07666 5.76982C8.55634 5.76963 8.04647 5.9392 7.60528 6.25915C7.02737 6.70438 6.34919 6.94229 5.65543 6.94316C4.96166 6.94404 4.28303 6.70785 3.70428 6.26408C3.50776 6.119 3.29658 6.0026 3.07548 5.91753Z" fill="#677A8E"/>
</svg>
