<svg width="25" height="24" viewBox="0 0 25 24" fill="none" xmlns="http://www.w3.org/2000/svg">
<path d="M6.44094 18.0611C6.87476 18.4843 6.59995 19.2809 5.93559 19.2863C5.83928 19.2858 5.74417 19.2667 5.65651 19.2303C5.56884 19.1938 5.4906 19.1409 5.42692 19.0749C5.14985 18.8074 5.15084 18.3272 5.42995 18.0611C5.49347 17.996 5.57133 17.9439 5.65845 17.9082C5.74557 17.8725 5.83997 17.8541 5.93545 17.8541C6.03092 17.8541 6.12531 17.8725 6.21243 17.9082C6.29955 17.9439 6.37743 17.996 6.44094 18.0611Z" fill="#677A8E"/>
<path d="M5.42993 5.93869C4.99586 5.51581 5.27114 4.71877 5.9354 4.7136C6.60064 4.71828 6.87537 5.51977 6.44094 5.93892C6.37742 6.00404 6.29955 6.05615 6.21241 6.09183C6.12528 6.12751 6.03086 6.14594 5.93537 6.14592C5.83988 6.1459 5.74548 6.12742 5.65837 6.09171C5.57125 6.05599 5.4934 6.00385 5.42993 5.93869Z" fill="#677A8E"/>
<path d="M19.574 18.0611C20.0085 18.48 19.7338 19.2817 19.0685 19.2863C18.9722 19.2858 18.8771 19.2667 18.7895 19.2303C18.7018 19.1938 18.6236 19.1409 18.5599 19.0749C18.2827 18.8076 18.2841 18.3272 18.5629 18.0611C18.6264 17.996 18.7043 17.9439 18.7914 17.9082C18.8786 17.8725 18.973 17.8541 19.0684 17.8541C19.1639 17.8541 19.2583 17.8725 19.3455 17.9082C19.4326 17.9438 19.5105 17.996 19.574 18.0611Z" fill="#677A8E"/>
<path d="M18.563 5.93869C18.2823 5.66817 18.2833 5.19029 18.563 4.9221C18.6266 4.85696 18.7044 4.80474 18.7915 4.76882C18.8786 4.73291 18.973 4.71409 19.0685 4.7136C19.7337 4.7183 20.0085 5.51983 19.574 5.93892C19.5105 6.00406 19.4326 6.05618 19.3455 6.09187C19.2583 6.12756 19.1639 6.146 19.0684 6.14597C18.9729 6.14595 18.8785 6.12747 18.7914 6.09175C18.7043 6.05602 18.6264 6.00386 18.563 5.93869Z" fill="#677A8E"/>
<path d="M21.7869 11.2831C22.738 11.3221 22.7376 12.6781 21.7869 12.7168H19.3826L21.2704 14.5896C21.547 14.8571 21.5454 15.3378 21.266 15.6032C21.1248 15.7432 20.9457 15.8171 20.7553 15.8171C20.6588 15.8166 20.5636 15.7975 20.4759 15.7609C20.3881 15.7244 20.3099 15.6713 20.2462 15.6051L17.3679 12.7169H14.2261L17.1438 15.621C17.2801 15.7606 17.3542 15.9418 17.3515 16.1288C17.3614 16.4953 17.0284 16.8552 16.6286 16.8487C16.5322 16.8482 16.437 16.829 16.3492 16.7924C16.2615 16.7558 16.1832 16.7027 16.1196 16.6365L13.2189 13.7237V16.865L16.1122 19.7469C16.5458 20.1734 16.2592 20.9671 15.597 20.9742C15.5006 20.9738 15.4053 20.9546 15.3175 20.9181C15.2297 20.8816 15.1514 20.8284 15.0877 20.7623L13.2189 18.8794V21.2831C13.2189 21.6783 12.8974 22 12.5019 22C12.1064 22 11.785 21.6783 11.785 21.2831V18.8794L9.91611 20.7622C9.85216 20.828 9.77366 20.8807 9.68578 20.9167C9.59791 20.9527 9.50267 20.9713 9.40635 20.9712C9.31003 20.9711 9.21483 20.9524 9.12703 20.9163C9.03922 20.8801 8.96081 20.8273 8.89698 20.7614C8.76087 20.6207 8.68575 20.4394 8.68575 20.2517C8.68575 20.0639 8.76087 19.8826 8.89698 19.7419L11.785 16.8651V13.7237L8.87983 16.6409C8.81629 16.7058 8.73856 16.7578 8.65166 16.7936C8.56475 16.8294 8.47059 16.8481 8.37526 16.8486C7.96719 16.8556 7.64029 16.4857 7.65239 16.1229C7.65129 15.9359 7.72693 15.7553 7.86439 15.6168L10.7778 12.7168H7.63603L4.754 15.6087C4.6904 15.6737 4.61258 15.7259 4.52553 15.7618C4.43849 15.7977 4.34417 15.8165 4.24866 15.8171C3.58066 15.8124 3.30248 15.0007 3.73787 14.5855L5.62112 12.7168H3.21683C2.82154 12.7168 2.50006 12.3953 2.50006 11.9999C2.50006 11.6045 2.82154 11.2829 3.21683 11.2829H5.62112L3.73787 9.41443C3.30356 8.99337 3.58101 8.18865 4.24866 8.18435C4.34512 8.18486 4.44037 8.20394 4.52821 8.24034C4.61606 8.27674 4.69451 8.32965 4.75846 8.39562L7.63601 11.2829H10.7778L7.86483 8.38352C7.72732 8.24383 7.6521 8.06214 7.65404 7.8743C7.64457 7.50571 7.96738 7.1478 8.37529 7.15322C8.47177 7.15374 8.56706 7.17282 8.65494 7.20922C8.74281 7.24562 8.8213 7.29852 8.88529 7.36448L11.785 10.2761V7.13497L8.89663 4.25789C8.76068 4.11714 8.68569 3.93589 8.68575 3.74819C8.68582 3.5605 8.76093 3.37929 8.89698 3.23862C8.96086 3.17265 9.03935 3.11982 9.12727 3.08364C9.21518 3.04746 9.31051 3.02876 9.40694 3.02876C9.50337 3.02876 9.59869 3.04746 9.6866 3.08364C9.77452 3.11982 9.85302 3.17265 9.9169 3.23862L11.785 5.12069V2.71694C11.785 2.32172 12.1065 2 12.5019 2C12.8973 2 13.2189 2.32163 13.2189 2.71694V5.12071L15.0878 3.23763C15.1517 3.17191 15.2301 3.11923 15.3178 3.08302C15.4055 3.0468 15.5006 3.02787 15.5968 3.02745C16.2648 3.03174 16.5422 3.83611 16.1069 4.25822L13.2189 7.13497V10.2761L16.1192 7.36394C16.1831 7.2981 16.2615 7.24531 16.3493 7.209C16.437 7.17269 16.5322 7.15369 16.6285 7.15322C17.0365 7.14794 17.3591 7.50564 17.3495 7.8743C17.3515 8.06236 17.2761 8.24426 17.1383 8.38397L14.226 11.2832H17.3678L20.2457 8.39544C20.3096 8.3296 20.388 8.2768 20.4758 8.24048C20.5635 8.20415 20.6587 8.18511 20.755 8.1846C21.4229 8.18928 21.7004 8.99346 21.265 9.41547L19.3823 11.2831L21.7869 11.2831Z" fill="#677A8E"/>
</svg>
