<svg width="25" height="24" viewBox="0 0 25 24" fill="none" xmlns="http://www.w3.org/2000/svg">
<path d="M19.5724 6.51006C19.8562 7.11761 20.0001 7.74138 20.0001 8.36422C20.0001 10.0452 18.5581 11.4128 16.7857 11.4128C15.0132 11.4128 13.5711 10.0452 13.5711 8.36422C13.5711 7.75801 13.7108 7.14834 13.9864 6.55197C14.2113 6.06474 14.5278 5.58374 14.9265 5.12219C15.5742 4.37275 16.2517 3.89349 16.4439 3.76451C16.5414 3.69979 16.6607 3.66453 16.7836 3.66412C16.9064 3.66371 17.026 3.69817 17.1241 3.76223C17.7597 4.13748 19.0945 5.38403 19.5724 6.51006ZM18.791 8.36422C18.6736 7.03495 17.9566 5.80045 16.785 4.9719C15.6297 5.79125 14.9032 7.03946 14.7814 8.34042C14.8754 10.89 18.6808 10.8911 18.791 8.36422Z" fill="#677A8E"/>
<path d="M14.2611 13.3193C15.1156 14.2866 15.6531 15.4266 15.6502 16.6153C15.6502 18.2963 14.208 19.6641 12.4356 19.6641C10.6631 19.6641 9.22099 18.2963 9.22099 16.6153C9.22099 16.0091 9.36073 15.3995 9.63625 14.803C9.86141 14.316 10.1778 13.8349 10.5766 13.3732C11.224 12.624 11.9016 12.1446 12.0938 12.0156C12.1914 11.9509 12.3107 11.9156 12.4336 11.9152C12.5565 11.9149 12.6761 11.9494 12.7742 12.0135C12.7865 12.0211 13.5244 12.4819 14.2611 13.3193ZM14.441 16.6153C14.3238 15.2858 13.6066 14.0518 12.4349 13.2229C11.2799 14.0425 10.553 15.2905 10.4314 16.5915C10.5256 19.1412 14.3307 19.142 14.441 16.6153Z" fill="#677A8E"/>
<path d="M10.4303 8.36422C10.2529 12.4086 4.17792 12.4078 4.00103 8.36422C3.95627 6.52748 5.47808 4.69631 6.87396 3.76448C6.97151 3.69974 7.09084 3.66448 7.21371 3.66407C7.33658 3.66365 7.45622 3.69812 7.55434 3.76219C7.56663 3.7698 8.30451 4.23066 9.04113 5.06814C9.89575 6.03583 10.4333 7.17529 10.4303 8.36422ZM9.22099 8.36422C9.10388 7.0348 8.38666 5.80065 7.21499 4.9719C6.05976 5.79123 5.33328 7.03937 5.21158 8.34042C5.30552 10.89 9.11083 10.891 9.22099 8.36422Z" fill="#677A8E"/>
</svg>
