<svg width="25" height="24" viewBox="0 0 25 24" fill="none" xmlns="http://www.w3.org/2000/svg">
<path d="M12.057 16H6.61399C4.3355 15.9372 2.50006 14.0538 2.50006 11.7937C2.50006 9.47085 4.39879 7.58744 6.74057 7.58744C6.93044 7.58744 7.1836 7.58744 7.37348 7.65022C7.2469 7.21076 7.12031 6.70852 7.12031 6.20628C7.12031 3.88341 9.01905 2 11.3608 2C13.576 2 15.3482 3.75785 15.538 5.89238C16.1077 5.70404 16.6773 5.57848 17.3102 5.57848C18.7879 5.57848 20.1293 6.18689 21.0781 7.17573M18.8559 10.3497C19.0269 10.0421 19.2728 9.78662 19.5688 9.6087C19.8649 9.43079 20.2007 9.33673 20.5428 9.33594C20.8849 9.33516 21.2211 9.42767 21.5179 9.60422C21.8147 9.78077 22.0617 10.0352 22.234 10.342C22.4064 10.6487 22.4981 10.9971 22.5 11.3523C22.5019 11.7075 22.414 12.0569 22.2449 12.3657C22.0759 12.6745 21.8317 12.9317 21.5369 13.1117C21.242 13.2917 20.9067 13.3881 20.5647 13.3913H11.1767M16.3987 19.0094C16.5658 19.3169 16.806 19.5725 17.0952 19.7504C17.3844 19.9283 17.7126 20.0224 18.0468 20.0232C18.381 20.0239 18.7095 19.9314 18.9995 19.7549C19.2895 19.5783 19.5307 19.3239 19.6991 19.0171C19.8675 18.7104 19.9571 18.3619 19.959 18.0068C19.9609 17.6516 19.875 17.3022 19.7098 16.9934C19.5447 16.6846 19.3061 16.4274 19.018 16.2474C18.7299 16.0674 18.4024 15.971 18.0682 15.9678H9.95905" stroke="#677A8E" stroke-width="1.5" stroke-linecap="round"/>
<path d="M8.8118 18.3269L7.88676 21.1492M11.5001 18.2771L10.9239 20.0351M5.77475 19.3912L5.19855 21.1492" stroke="#677A8E" stroke-width="1.5" stroke-linecap="round" stroke-linejoin="round"/>
</svg>
