<svg width="25" height="25" viewBox="0 0 25 25" fill="none" xmlns="http://www.w3.org/2000/svg">
<path d="M14.8528 13.9282C15.5063 13.93 15.8626 14.7153 15.5594 15.2678L12.9835 21.6531C12.7714 22.0716 12.252 22.2369 11.8636 21.9848C11.4716 21.7384 11.3358 21.1886 11.5612 20.7595L13.4387 15.7145H10.1468C9.85632 15.7145 9.5857 15.5434 9.44039 15.2678C9.36875 15.1299 9.33134 14.9768 9.3313 14.8214C9.33126 14.666 9.3686 14.5129 9.44017 14.375L11.425 10.1801C11.6371 9.76188 12.1564 9.59677 12.5449 9.84841C12.9402 10.0873 13.0702 10.6714 12.8473 11.074L11.5612 13.9282H14.8528Z" fill="#677A8E"/>
<path d="M6.61399 16.6958C4.3355 16.633 2.50006 14.7496 2.50006 12.4895C2.50006 10.1667 4.3988 8.28325 6.74057 8.28325C6.93044 8.28325 7.18361 8.28325 7.37348 8.34602C7.2469 7.90656 7.12031 7.40432 7.12031 6.90208C7.12031 4.57921 9.01905 2.6958 11.3608 2.6958C13.576 2.6958 15.3482 4.45365 15.538 6.58818C16.1077 6.39984 16.6773 6.27428 17.3102 6.27428C20.1583 6.27428 22.5001 8.53437 22.5001 11.4223C22.5001 14.1846 20.2849 16.3819 17.5001 16.6958" stroke="#677A8E" stroke-width="1.5" stroke-linecap="round" stroke-linejoin="round"/>
</svg>
