<svg width="25" height="24" viewBox="0 0 25 24" fill="none" xmlns="http://www.w3.org/2000/svg">
<path d="M16.5853 13.0441C19.7514 16.2527 17.6111 21.9297 12.5178 22C7.40811 21.8574 5.25265 16.2936 8.39304 13.0429V5.92244C8.39304 3.75964 10.2306 2 12.489 2C14.7475 2 16.5853 3.75964 16.5853 5.92244V13.0441ZM15.5132 19.497C17.1136 17.9761 17.0706 15.2789 15.4113 13.8059C15.2807 13.6797 15.2085 13.5155 15.2085 13.3453V5.92254C15.2079 4.47744 13.9797 3.30135 12.4709 3.3008C10.9601 3.3008 9.73134 4.47687 9.73076 5.92235V13.3465C9.73056 13.5167 9.65794 13.6807 9.52705 13.8066C7.97849 15.2251 7.84672 17.6615 9.20479 19.2205C10.4593 20.7487 12.8732 21.1713 14.6324 20.1305C14.6324 20.1305 15.1375 19.8716 15.5132 19.497Z" fill="#677A8E"/>
<path d="M13.3166 15.314C14.7468 16.1094 14.2042 18.2364 12.489 18.2599C10.6768 18.2065 10.2215 15.9768 11.8107 15.2318V5.92254C11.8107 5.56421 12.115 5.27263 12.4891 5.27263C12.8632 5.27263 13.1677 5.56417 13.1677 5.92254V15.2317L13.3166 15.314Z" fill="#677A8E"/>
</svg>
