<svg width="25" height="24" viewBox="0 0 25 24" fill="none" xmlns="http://www.w3.org/2000/svg">
<path d="M6.61399 16.3911C4.3355 16.3283 2.50006 14.4449 2.50006 12.1848C2.50006 9.86197 4.39879 7.97856 6.74057 7.97856C6.93044 7.97856 7.1836 7.97856 7.37348 8.04134C7.2469 7.60188 7.12031 7.09963 7.12031 6.59739C7.12031 4.27452 9.01905 2.39111 11.3608 2.39111C13.576 2.39111 15.3482 4.14896 15.538 6.28349C16.1077 6.09515 16.6773 5.96959 17.3102 5.96959C20.1583 5.96959 22.5001 8.22968 22.5001 11.1176C22.5001 13.8799 20.2849 16.0772 17.5001 16.3911" stroke="#677A8E" stroke-width="1.5" stroke-linecap="round" stroke-linejoin="round"/>
<path d="M9.50006 16.3911H15.5001M19.0917 18.6033H3.50006M22.5001 21H4.90845" stroke="#677A8E" stroke-width="1.5" stroke-linecap="round" stroke-dasharray="4 2"/>
</svg>
