<svg width="25" height="24" viewBox="0 0 25 24" fill="none" xmlns="http://www.w3.org/2000/svg">
<path d="M9.07275 18.2915L9.07275 22M15.0728 20.583V22M15.0728 11.7739V16.3945M12.0728 12.8596L12.0728 19.2891" stroke="#677A8E" stroke-width="1.5" stroke-linecap="round" stroke-linejoin="round"/>
<path d="M15.8228 18.5391C15.8228 18.9533 15.487 19.2891 15.0728 19.2891C14.6585 19.2891 14.3228 18.9533 14.3228 18.5391C14.3228 18.1248 14.6585 17.7891 15.0728 17.7891C15.487 17.7891 15.8228 18.1248 15.8228 18.5391Z" fill="#677A8E"/>
<path d="M12.8228 21.25C12.8228 21.6642 12.487 22 12.0728 22C11.6585 22 11.3228 21.6642 11.3228 21.25C11.3228 20.8358 11.6585 20.5 12.0728 20.5C12.487 20.5 12.8228 20.8358 12.8228 21.25Z" fill="#677A8E"/>
<path d="M9.82275 16C9.82275 16.4142 9.48697 16.75 9.07275 16.75C8.65854 16.75 8.32275 16.4142 8.32275 16C8.32275 15.5858 8.65854 15.25 9.07275 15.25C9.48697 15.25 9.82275 15.5858 9.82275 16Z" fill="#677A8E"/>
<path d="M6.61399 16C4.3355 15.9372 2.50006 14.0538 2.50006 11.7937C2.50006 9.47085 4.39879 7.58744 6.74057 7.58744C6.93044 7.58744 7.1836 7.58744 7.37348 7.65022C7.2469 7.21076 7.12031 6.70852 7.12031 6.20628C7.12031 3.88341 9.01905 2 11.3608 2C13.576 2 15.3482 3.75785 15.538 5.89238C16.1077 5.70404 16.6773 5.57848 17.3102 5.57848C20.1583 5.57848 22.5001 7.83857 22.5001 10.7265C22.5001 13.4888 20.2849 15.6861 17.5001 16" stroke="#677A8E" stroke-width="1.5" stroke-linecap="round" stroke-linejoin="round"/>
</svg>
