<svg width="25" height="25" viewBox="0 0 25 25" fill="none" xmlns="http://www.w3.org/2000/svg">
<path d="M6.61399 16.8645C4.3355 16.8017 2.50006 14.9183 2.50006 12.6582C2.50006 10.3354 4.3988 8.45195 6.74057 8.45195C6.93044 8.45195 7.18361 8.45195 7.37348 8.51473C7.2469 8.07526 7.12031 7.57302 7.12031 7.07078C7.12031 4.74791 9.01905 2.8645 11.3608 2.8645C13.576 2.8645 15.3482 4.62235 15.538 6.75688C16.1077 6.56854 16.6773 6.44298 17.3102 6.44298C20.1583 6.44298 22.5001 8.70307 22.5001 11.591C22.5001 14.3533 20.2849 16.5506 17.5001 16.8645" stroke="#677A8E" stroke-width="1.5" stroke-linecap="round" stroke-linejoin="round"/>
<path d="M9.50006 14.8994L9.50006 21.8645M14.5596 11.8149L14.5596 22.8645M12.0391 14.0149L12.0391 19.8645" stroke="#677A8E" stroke-width="1.5" stroke-linecap="round" stroke-linejoin="round"/>
</svg>
