<svg width="25" height="24" viewBox="0 0 25 24" fill="none" xmlns="http://www.w3.org/2000/svg">
<path d="M6.11399 16.281C3.8355 16.2182 2.00006 14.3348 2.00006 12.0747C2.00006 9.75186 3.89879 7.86845 6.24057 7.86845C6.43044 7.86845 6.6836 7.86845 6.87348 7.93123C6.7469 7.49177 6.62031 6.98953 6.62031 6.48728C6.62031 4.16441 8.51905 2.28101 10.8608 2.28101C13.076 2.28101 14.8482 4.03885 15.038 6.17338C15.6077 5.98504 16.1773 5.85948 16.8102 5.85948C19.6583 5.85948 22.0001 8.11957 22.0001 11.0075C22.0001 13.7698 19.7849 15.9671 17.0001 16.281" stroke="#677A8E" stroke-width="1.5" stroke-linecap="round" stroke-linejoin="round"/>
<path d="M8.62689 16.4377L8.50006 21.512M11.5429 13L11.5429 17.998M14.6269 14.9768L14.5001 20.2986" stroke="#677A8E" stroke-width="1.5" stroke-linecap="round" stroke-dasharray="0.1 7"/>
</svg>
