<svg width="25" height="25" viewBox="0 0 25 25" fill="none" xmlns="http://www.w3.org/2000/svg">
<path d="M5.15022 10.3653C5.15022 5.84014 8.97493 2.17212 13.6934 2.17212C15.3889 2.17212 16.9661 2.61959 18.2936 3.43261M14.6337 10.1315C14.6337 14.6566 11.1097 18.1722 6.75023 18.1722C5.18374 18.1722 3.72654 17.7248 2.50006 16.9118M14.6434 10.4724C14.6434 13.0939 12.5183 15.219 9.8968 15.219C7.27534 15.219 5.15022 13.0939 5.15022 10.4724C5.15022 7.85095 7.27534 5.72583 9.8968 5.72583C12.5183 5.72583 14.6434 7.85095 14.6434 10.4724Z" stroke="#677A8E" stroke-width="1.5" stroke-linecap="round" stroke-linejoin="round"/>
<path d="M17.6388 14.7281L14.6399 20.4612C14.3582 20.9998 14.5155 21.695 14.9912 22.014C15.1457 22.1175 15.3218 22.1721 15.5013 22.1721H21.499C22.0519 22.1721 22.5001 21.6647 22.5001 21.0388C22.5001 20.8356 22.4518 20.6361 22.3604 20.4613L19.3614 14.7282C19.0797 14.1896 18.4656 14.0115 17.9899 14.3305C17.8452 14.4275 17.7246 14.5643 17.6388 14.7281Z" fill="#A83B3B"/>
<path d="M18.5001 18.8838L18.5001 16.8838L18.5001 18.8838Z" fill="black"/>
<path d="M18.5001 18.8838L18.5001 16.8838" stroke="white" stroke-linecap="round"/>
<mask id="path-6-inside-1_142_3333" fill="white">
<path d="M18.5001 20.8562C18.7762 20.8562 19.0001 20.6323 19.0001 20.3562C19.0001 20.0801 18.7762 19.8562 18.5001 19.8562C18.2239 19.8562 18.0001 20.0801 18.0001 20.3562C18.0001 20.6323 18.2239 20.8562 18.5001 20.8562Z"/>
</mask>
<path d="M18.5001 20.8562C18.7762 20.8562 19.0001 20.6323 19.0001 20.3562C19.0001 20.0801 18.7762 19.8562 18.5001 19.8562C18.2239 19.8562 18.0001 20.0801 18.0001 20.3562C18.0001 20.6323 18.2239 20.8562 18.5001 20.8562Z" fill="white"/>
<path d="M18.0001 20.3562C18.0001 20.0801 18.2239 19.8562 18.5001 19.8562V21.8562C19.3285 21.8562 20.0001 21.1846 20.0001 20.3562H18.0001ZM18.5001 19.8562C18.7762 19.8562 19.0001 20.0801 19.0001 20.3562H17.0001C17.0001 21.1846 17.6716 21.8562 18.5001 21.8562V19.8562ZM19.0001 20.3562C19.0001 20.6323 18.7762 20.8562 18.5001 20.8562V18.8562C17.6716 18.8562 17.0001 19.5278 17.0001 20.3562H19.0001ZM18.5001 20.8562C18.2239 20.8562 18.0001 20.6323 18.0001 20.3562H20.0001C20.0001 19.5278 19.3285 18.8562 18.5001 18.8562V20.8562Z" fill="white" mask="url(#path-6-inside-1_142_3333)"/>
</svg>
