<svg width="25" height="24" viewBox="0 0 25 24" fill="none" xmlns="http://www.w3.org/2000/svg">
<path d="M10.8127 5.25248L4.93712 16.485C4.38515 17.5402 4.6933 18.9022 5.62538 19.5271C5.92795 19.73 6.27314 19.837 6.62481 19.837H18.3756C19.4589 19.837 20.337 18.8428 20.337 17.6165C20.337 17.2184 20.2424 16.8276 20.0633 16.485L14.1877 5.25249C13.6357 4.19727 12.4326 3.84845 11.5006 4.47331C11.217 4.66344 10.9806 4.93141 10.8127 5.25248Z" stroke="#677A8E" stroke-width="1.5"/>
<path d="M12.5 13.3411L12.5 9.34106" stroke="#677A8E" stroke-width="1.5" stroke-linecap="round"/>
<path d="M12.7296 15.9044C12.7296 16.0312 12.6268 16.134 12.5 16.134C12.3732 16.134 12.2704 16.0312 12.2704 15.9044C12.2704 15.7776 12.3732 15.6748 12.5 15.6748C12.6268 15.6748 12.7296 15.7776 12.7296 15.9044Z" fill="#677A8E" stroke="#677A8E" stroke-width="1.5"/>
</svg>
