<svg width="25" height="25" viewBox="0 0 25 25" fill="none" xmlns="http://www.w3.org/2000/svg">
<path d="M19.5231 15.968C21.6099 15.1964 23.1133 13.3042 23.1133 11.0285C23.1133 8.14057 20.7716 5.88048 17.9235 5.88048C17.2906 5.88048 16.7209 6.00604 16.1513 6.19438C15.9614 4.05985 14.1893 2.302 11.9741 2.302C9.63233 2.302 7.73359 4.18541 7.73359 6.50828C7.73359 7.01052 7.86018 7.51276 7.98676 7.95223C7.79689 7.88945 7.54373 7.88945 7.35385 7.88945C5.01208 7.88945 3.11334 9.77285 3.11334 12.0957C3.11334 13.8185 4.17985 15.3225 5.69612 15.968" stroke="#677A8E" stroke-width="1.5" stroke-linecap="round" stroke-linejoin="round"/>
<path d="M9.50006 15.8547V22.8198M15.5001 12.1721V23.2217M12.5001 13.9727V19.8223" stroke="#677A8E" stroke-width="1.5" stroke-linecap="round" stroke-linejoin="round"/>
</svg>
