<svg width="25" height="24" viewBox="0 0 25 24" fill="none" xmlns="http://www.w3.org/2000/svg">
<path d="M19.8253 3.40254C20.7252 3.43795 20.7248 4.66701 19.8253 4.7022H19.0391V5.45487C19.0391 5.8132 18.7348 6.10478 18.3606 6.10478C17.9864 6.10478 17.682 5.81324 17.682 5.45487V4.70222H16.8959C16.5218 4.70222 16.2173 4.41066 16.2173 4.05243C16.2173 3.69421 16.5218 3.40252 16.8959 3.40252H17.682V2.64989C17.682 2.29165 17.9864 2.0001 18.3606 2.0001C18.7348 2.0001 19.0391 2.29165 19.0391 2.64989V3.40254H19.8253Z" fill="#677A8E"/>
<path d="M14.1569 13.0441C17.323 16.2527 15.1827 21.9297 10.0895 22C4.97976 21.8574 2.8243 16.2936 5.9647 13.0429V5.92244C5.9647 3.75964 7.80223 2 10.0607 2C12.3192 2 14.1569 3.75964 14.1569 5.92244V13.0441ZM13.0848 19.497C14.6853 17.9761 14.6423 15.2789 12.9829 13.8059C12.8524 13.6797 12.7801 13.5155 12.7802 13.3453V5.92254C12.7796 4.47744 11.5514 3.30135 10.0426 3.3008C8.5318 3.3008 7.303 4.47687 7.30242 5.92235V13.3465C7.30222 13.5167 7.22959 13.6807 7.0987 13.8066C5.55014 15.2251 5.41837 17.6615 6.77645 19.2205C8.03091 20.7487 10.4449 21.1713 12.204 20.1305C12.204 20.1305 12.7091 19.8716 13.0848 19.497Z" fill="#677A8E"/>
<path d="M10.8883 15.314C12.3184 16.1094 11.7758 18.2364 10.0607 18.2599C8.24842 18.2065 7.7932 15.9768 9.38233 15.2318V5.92254C9.38233 5.56421 9.68661 5.27263 10.0607 5.27263C10.4348 5.27263 10.7394 5.56417 10.7394 5.92254V15.2317L10.8883 15.314Z" fill="#677A8E"/>
</svg>
