<svg width="25" height="24" viewBox="0 0 25 24" fill="none" xmlns="http://www.w3.org/2000/svg">
<path d="M12.4237 12.9396C15.0216 15.8275 13.2654 20.9367 9.08628 21C4.89366 20.8716 3.12507 15.8642 5.70182 12.9386V6.53019C5.70182 4.58368 7.20956 3 9.06268 3C10.9158 3 12.4237 4.58368 12.4237 6.53019V12.9396ZM11.544 18.7473C12.8572 17.3785 12.822 14.951 11.4604 13.6253C11.3533 13.5117 11.294 13.364 11.2941 13.2108V6.53028C11.2936 5.22969 10.2858 4.17121 9.04782 4.17072C7.80819 4.17072 6.79993 5.22918 6.79945 6.53012V13.2119C6.79929 13.365 6.7397 13.5127 6.6323 13.626C5.36167 14.9026 5.25355 17.0954 6.36788 18.4984C7.3972 19.8738 9.37793 20.2542 10.8213 19.3174C10.8213 19.3174 11.2358 19.0845 11.544 18.7473Z" fill="#677A8E"/>
<path d="M9.74174 14.9826C10.9152 15.6984 10.47 17.6127 9.06267 17.634C7.57566 17.5859 7.20215 15.5791 8.50607 14.9086V6.53028C8.50607 6.20779 8.75573 5.94537 9.06269 5.94537C9.36964 5.94537 9.61954 6.20775 9.61954 6.53028V14.9085L9.74174 14.9826Z" fill="#677A8E"/>
<path d="M20.1434 6.92064C20.1434 7.96039 19.2648 8.83333 18.1434 8.83333C17.0219 8.83333 16.1434 7.96039 16.1434 6.92064C16.1434 6.77245 16.2004 6.54954 16.3364 6.2553C16.4686 5.96957 16.6566 5.65584 16.8736 5.33783C17.2976 4.71631 17.8053 4.11749 18.1434 3.7384C18.4815 4.11749 18.9891 4.71631 19.4132 5.33783C19.6301 5.65584 19.8182 5.96957 19.9503 6.2553C20.0864 6.54954 20.1434 6.77245 20.1434 6.92064Z" stroke="#677A8E"/>
</svg>
