<svg width="25" height="24" viewBox="0 0 25 24" fill="none" xmlns="http://www.w3.org/2000/svg">
<path d="M17.9264 4.67313C18.2495 4.7019 18.5011 5.00604 18.5001 5.36565V11.3444C18.5011 11.7049 18.2495 12.0089 17.9272 12.0378C15.8817 12.226 9.69548 12.7961 7.7458 12.9776V20.3111C7.71344 21.224 6.53715 21.2353 6.50006 20.3111V3.68883C6.53274 2.77518 7.70891 2.76515 7.7458 3.68883V3.7332C9.67535 3.91275 15.8991 4.48627 17.9264 4.67313ZM10.0849 11.3757V5.3351L7.74576 5.127V11.5838L10.0849 11.3757ZM13.6696 11.0356V5.675L11.3305 5.45406V11.2568L13.6696 11.0356ZM17.2544 10.7068V6.0039L14.9154 5.78286V10.928L17.2544 10.7068Z" fill="#677A8E"/>
</svg>
