<svg width="25" height="24" viewBox="0 0 25 24" fill="none" xmlns="http://www.w3.org/2000/svg">
<path d="M12.5001 21.843C12.5001 21.9298 12.4297 22.0002 12.3429 22.0002H11.7858H11.2288C11.1419 22.0002 11.0715 21.9298 11.0715 21.843C11.0702 21.422 10.9366 21.0113 10.6883 20.6652C10.4399 20.3192 10.0886 20.0541 9.68081 19.905L7.15795 18.9919C6.63 18.7989 6.17517 18.4557 5.85363 18.0077C5.6739 17.7573 5.54055 17.4807 5.45758 17.1903C5.34896 16.8101 5.67847 16.483 6.07389 16.483C6.46746 16.483 6.77304 16.8245 6.98273 17.1575C6.99674 17.1798 7.01146 17.2017 7.02689 17.2231C7.183 17.4406 7.4038 17.6072 7.6601 17.7009L10.1822 18.614C10.8618 18.8623 11.4472 19.304 11.8611 19.8806C12.275 20.4571 12.4978 21.1415 12.5001 21.843ZM22.5001 21.843C22.5001 21.9298 22.4297 22.0002 22.3429 22.0002H21.2288C21.1419 22.0002 21.0715 21.9298 21.0715 21.843C21.0703 21.422 20.9366 21.0113 20.6883 20.6652C20.4399 20.3192 20.0886 20.0541 19.6808 19.905L17.158 18.9919C16.63 18.7989 16.1752 18.4557 15.8536 18.0077C15.6739 17.7573 15.5405 17.4807 15.4576 17.1903C15.349 16.8101 15.6785 16.483 16.0739 16.483C16.4675 16.483 16.773 16.8245 16.9827 17.1575C16.9967 17.1798 17.0115 17.2017 17.0269 17.2231C17.183 17.4406 17.4038 17.6072 17.6601 17.7009L20.1822 18.614C20.8618 18.8623 21.4472 19.304 21.8611 19.8806C22.275 20.4571 22.4978 21.1415 22.5001 21.843ZM8.92867 10.2761C8.92867 9.89519 9.23744 9.58643 9.61832 9.58643H12.5247C12.9056 9.58643 13.2144 9.89519 13.2144 10.2761C13.2144 10.657 12.9056 10.9657 12.5247 10.9657H9.61832C9.23744 10.9657 8.92867 10.657 8.92867 10.2761Z" fill="#677A8E"/>
<path d="M18.5572 6.13793C18.1172 6.13793 17.7302 5.847 17.6081 5.42433L16.9072 3C16.8209 2.71228 16.6403 2.45932 16.3925 2.27903C16.1448 2.09875 15.8432 2.00084 15.5329 2H6.61006C6.29994 2.00099 5.99849 2.09896 5.75087 2.27924C5.50325 2.45951 5.32278 2.71239 5.23649 3L4.51732 5.4303C4.39313 5.84998 4.00762 6.13793 3.56995 6.13793H3.18972C2.80883 6.13793 2.50006 6.4467 2.50006 6.82759C2.50006 7.20847 2.80883 7.51724 3.18972 7.51724H3.21435C3.60884 7.51724 3.92863 7.83704 3.92863 8.23153V12.3448C3.92901 12.7105 4.07964 13.0612 4.34747 13.3197C4.4501 13.4188 4.56673 13.5013 4.69286 13.5654C5.03239 13.7378 5.3572 14.0326 5.3572 14.4135C5.3572 14.7945 5.66612 15.1034 6.04719 15.1034H6.09612C6.47701 15.1034 6.78578 14.7947 6.78578 14.4138C6.78578 14.0329 7.09454 13.7241 7.47543 13.7241H14.6676C15.0484 13.7241 15.3572 14.0329 15.3572 14.4138C15.3572 14.7947 15.666 15.1034 16.0469 15.1034H16.0958C16.4769 15.1034 16.7858 14.7945 16.7858 14.4135C16.7858 14.0326 17.1106 13.7378 17.4501 13.5654C17.5763 13.5013 17.6929 13.4188 17.7955 13.3197C18.0633 13.0612 18.214 12.7105 18.2143 12.3448V8.23153C18.2143 7.83704 18.5341 7.51724 18.9286 7.51724H18.9533C19.3342 7.51724 19.6429 7.20847 19.6429 6.82759C19.6429 6.4467 19.3342 6.13793 18.9533 6.13793H18.5572ZM6.40133 4.08687C6.52555 3.66723 6.91104 3.37931 7.34868 3.37931H14.7956C15.2333 3.37931 15.6188 3.66732 15.743 4.08705L16.1785 5.55937C16.3658 6.19247 15.8913 6.82759 15.2311 6.82759H6.91287C6.25257 6.82759 5.7781 6.19233 5.96552 5.55919L6.40133 4.08687ZM16.7858 8.89655C16.7858 9.27744 16.477 9.58621 16.0961 9.58621H16.0469C15.666 9.58621 15.3572 9.89498 15.3572 10.2759C15.3572 10.6567 15.666 10.9655 16.0469 10.9655H16.0961C16.477 10.9655 16.7858 11.2743 16.7858 11.6552C16.7858 12.0361 16.477 12.3448 16.0961 12.3448H6.04686C5.66597 12.3448 5.3572 12.0361 5.3572 11.6552C5.3572 11.2743 5.66597 10.9655 6.04686 10.9655H6.09612C6.47701 10.9655 6.78578 10.6567 6.78578 10.2759C6.78578 9.89498 6.47701 9.58621 6.09612 9.58621H6.04686C5.66597 9.58621 5.3572 9.27744 5.3572 8.89655C5.3572 8.51567 5.66597 8.2069 6.04686 8.2069H16.0961C16.477 8.2069 16.7858 8.51567 16.7858 8.89655Z" fill="#677A8E"/>
</svg>
