<svg width="25" height="25" viewBox="0 0 25 25" fill="none" xmlns="http://www.w3.org/2000/svg">
<path d="M7.2964 14.8645C5.24577 14.8107 3.59387 13.1963 3.59387 11.2591C3.59387 9.26809 5.30273 7.65374 7.41033 7.65374C7.58121 7.65374 7.80906 7.65374 7.97995 7.70755C7.86602 7.33087 7.7521 6.90038 7.7521 6.46988C7.7521 4.47885 9.46096 2.8645 11.5686 2.8645C13.5622 2.8645 15.1572 4.37123 15.328 6.20083C15.8407 6.03939 16.3534 5.93177 16.923 5.93177C19.4863 5.93177 21.5939 7.86899 21.5939 10.3443C21.5939 11.8431 20.795 13.1479 19.5728 13.9719" stroke="#677A8E" stroke-width="1.5" stroke-linecap="round" stroke-linejoin="round"/>
<path d="M17.8127 13.7239C18.3631 13.7256 18.6632 14.4474 18.4078 14.9553L16.2384 20.8246C16.0597 21.2092 15.6223 21.3612 15.2952 21.1295C14.965 20.9029 14.8507 20.3976 15.0405 20.0031L16.6217 15.3659H13.8493C13.6047 15.3659 13.3767 15.2086 13.2544 14.9553C13.194 14.8285 13.1625 14.6878 13.1625 14.5449C13.1624 14.4021 13.1939 14.2614 13.2542 14.1346L14.9258 10.2787C15.1045 9.89427 15.5418 9.7425 15.869 9.97381C16.2019 10.1934 16.3114 10.7303 16.1237 11.1003L15.0405 13.7239H17.8127Z" fill="#677A8E"/>
<path d="M9.8118 16.4734L7.95237 22.1464M12.5001 16.4236L11.6124 19.1318M6.75754 18.0898L5.86987 20.7981" stroke="#677A8E" stroke-width="1.5" stroke-linecap="round" stroke-linejoin="round"/>
</svg>
