<svg width="25" height="24" viewBox="0 0 25 24" fill="none" xmlns="http://www.w3.org/2000/svg">
<path d="M11.6388 12.556L8.63993 18.2891C8.3582 18.8277 8.51548 19.5229 8.99122 19.8418C9.14565 19.9454 9.32184 20 9.50133 20H15.499C16.0519 20 16.5001 19.4926 16.5001 18.8666C16.5001 18.6634 16.4518 18.464 16.3604 18.2891L13.3614 12.556C13.0797 12.0174 12.4656 11.8394 11.9899 12.1583C11.8452 12.2554 11.7246 12.3922 11.6388 12.556Z" fill="#A83B3B"/>
<path d="M12.5001 16.7117L12.5001 14.7117L12.5001 16.7117Z" fill="black"/>
<path d="M12.5001 16.7117L12.5001 14.7117" stroke="white" stroke-linecap="round"/>
<mask id="path-5-inside-1_142_3320" fill="white">
<path d="M12.5001 18.6841C12.7762 18.6841 13.0001 18.4602 13.0001 18.1841C13.0001 17.9079 12.7762 17.6841 12.5001 17.6841C12.2239 17.6841 12.0001 17.9079 12.0001 18.1841C12.0001 18.4602 12.2239 18.6841 12.5001 18.6841Z"/>
</mask>
<path d="M12.5001 18.6841C12.7762 18.6841 13.0001 18.4602 13.0001 18.1841C13.0001 17.9079 12.7762 17.6841 12.5001 17.6841C12.2239 17.6841 12.0001 17.9079 12.0001 18.1841C12.0001 18.4602 12.2239 18.6841 12.5001 18.6841Z" fill="white"/>
<path d="M12.0001 18.1841C12.0001 17.9079 12.2239 17.6841 12.5001 17.6841V19.6841C13.3285 19.6841 14.0001 19.0125 14.0001 18.1841H12.0001ZM12.5001 17.6841C12.7762 17.6841 13.0001 17.9079 13.0001 18.1841H11.0001C11.0001 19.0125 11.6716 19.6841 12.5001 19.6841V17.6841ZM13.0001 18.1841C13.0001 18.4602 12.7762 18.6841 12.5001 18.6841V16.6841C11.6716 16.6841 11.0001 17.3557 11.0001 18.1841H13.0001ZM12.5001 18.6841C12.2239 18.6841 12.0001 18.4602 12.0001 18.1841H14.0001C14.0001 17.3557 13.3285 16.6841 12.5001 16.6841V18.6841Z" fill="white" mask="url(#path-5-inside-1_142_3320)"/>
<path d="M6.61399 16C4.3355 15.9372 2.50006 14.0538 2.50006 11.7937C2.50006 9.47085 4.39879 7.58744 6.74057 7.58744C6.93044 7.58744 7.1836 7.58744 7.37348 7.65022C7.2469 7.21076 7.12031 6.70852 7.12031 6.20628C7.12031 3.88341 9.01905 2 11.3608 2C13.576 2 15.3482 3.75785 15.538 5.89238C16.1077 5.70404 16.6773 5.57848 17.3102 5.57848C20.1583 5.57848 22.5001 7.83857 22.5001 10.7265C22.5001 13.4888 20.2849 15.6861 17.5001 16" stroke="#677A8E" stroke-width="1.5" stroke-linecap="round" stroke-linejoin="round"/>
</svg>
