<svg width="25" height="24" viewBox="0 0 25 24" fill="none" xmlns="http://www.w3.org/2000/svg">
<path d="M17.3288 3.00122L13.5325 10.4999" stroke="#677A8E" stroke-width="1.5" stroke-linecap="round" stroke-linejoin="round"/>
<path d="M12.7219 2C7.19892 2 2.72192 6.477 2.72192 12C2.72192 17.523 7.19892 22 12.7219 22C18.2449 22 22.7219 17.523 22.7219 12C22.7219 9.687 21.9369 7.5575 20.6184 5.8635M12.7219 6.50012C9.68443 6.50012 7.22193 8.96262 7.22193 12.0001C7.22193 15.0376 9.68443 17.5001 12.7219 17.5001C15.7594 17.5001 18.2219 15.0376 18.2219 12.0001C18.2219 10.7281 17.7899 9.55662 17.0649 8.62512M14.2219 11.9998C14.2219 12.8282 13.5503 13.4998 12.7219 13.4998C11.8935 13.4998 11.2219 12.8282 11.2219 11.9998C11.2219 11.1713 11.8935 10.4998 12.7219 10.4998C13.5503 10.4998 14.2219 11.1713 14.2219 11.9998Z" stroke="#677A8E" stroke-width="1.5" stroke-linecap="round"/>
</svg>
