<svg width="25" height="24" viewBox="0 0 25 24" fill="none" xmlns="http://www.w3.org/2000/svg">
<rect x="6.90448" y="17.8008" width="11.1588" height="0.756532" rx="0.378266" fill="#677A8E" stroke="#677A8E" stroke-width="0.2"/>
<rect x="9.74139" y="19.8811" width="5.86312" height="0.756532" rx="0.378266" fill="#677A8E" stroke="#677A8E" stroke-width="0.2"/>
<path fill-rule="evenodd" clip-rule="evenodd" d="M3.87833 15.5312C3.66942 15.5312 3.50006 15.7006 3.50006 15.9095C3.50006 16.1184 3.66942 16.2878 3.87833 16.2878H14.2806C14.4895 16.2878 14.6589 16.1184 14.6589 15.9095C14.6589 15.7006 14.4895 15.5312 14.2806 15.5312H3.87833ZM15.6045 15.5313C15.3956 15.5313 15.2263 15.7006 15.2263 15.9095C15.2263 16.1185 15.3956 16.2878 15.6045 16.2878H20.9002C21.1092 16.2878 21.2785 16.1185 21.2785 15.9095C21.2785 15.7006 21.1092 15.5313 20.9002 15.5313H15.6045Z" fill="#677A8E"/>
<path d="M3.60006 15.9095C3.60006 15.7558 3.72464 15.6313 3.87833 15.6313V15.4312C3.61419 15.4312 3.40006 15.6454 3.40006 15.9095H3.60006ZM3.87833 16.1878C3.72464 16.1878 3.60006 16.0632 3.60006 15.9095H3.40006C3.40006 16.1737 3.61419 16.3878 3.87833 16.3878V16.1878ZM14.2806 16.1878H3.87833V16.3878H14.2806V16.1878ZM14.5589 15.9095C14.5589 16.0632 14.4343 16.1878 14.2806 16.1878V16.3878C14.5448 16.3878 14.7589 16.1737 14.7589 15.9095H14.5589ZM14.2806 15.6313C14.4343 15.6313 14.5589 15.7558 14.5589 15.9095H14.7589C14.7589 15.6454 14.5448 15.4312 14.2806 15.4312V15.6313ZM3.87833 15.6313H14.2806V15.4312H3.87833V15.6313ZM15.3263 15.9095C15.3263 15.7559 15.4508 15.6313 15.6045 15.6313V15.4313C15.3404 15.4313 15.1263 15.6454 15.1263 15.9095H15.3263ZM15.6045 16.1878C15.4508 16.1878 15.3263 16.0632 15.3263 15.9095H15.1263C15.1263 16.1737 15.3404 16.3878 15.6045 16.3878V16.1878ZM20.9002 16.1878H15.6045V16.3878H20.9002V16.1878ZM21.1785 15.9095C21.1785 16.0632 21.0539 16.1878 20.9002 16.1878V16.3878C21.1644 16.3878 21.3785 16.1737 21.3785 15.9095H21.1785ZM20.9002 15.6313C21.0539 15.6313 21.1785 15.7559 21.1785 15.9095H21.3785C21.3785 15.6454 21.1644 15.4313 20.9002 15.4313V15.6313ZM15.6045 15.6313H20.9002V15.4313H15.6045V15.6313Z" fill="#677A8E"/>
<mask id="path-6-inside-1_143_3653" fill="white">
<path fill-rule="evenodd" clip-rule="evenodd" d="M7.66565 11.8658C7.66565 9.25695 9.78051 7.14209 12.3893 7.14209C14.9981 7.14209 17.113 9.25695 17.113 11.8658C17.113 12.7178 16.8874 13.5172 16.4927 14.2074H17.6136C17.9345 13.4926 18.113 12.7 18.113 11.8658C18.113 8.70466 15.5504 6.14209 12.3893 6.14209C9.22822 6.14209 6.66565 8.70466 6.66565 11.8658C6.66565 12.7 6.84413 13.4926 7.165 14.2074H8.28596C7.89124 13.5172 7.66565 12.7178 7.66565 11.8658Z"/>
</mask>
<path d="M16.4927 14.2074L15.885 13.8599L15.286 14.9074H16.4927V14.2074ZM17.6136 14.2074V14.9074H18.0667L18.2522 14.494L17.6136 14.2074ZM7.165 14.2074L6.5264 14.494L6.71194 14.9074H7.165V14.2074ZM8.28596 14.2074V14.9074H9.49267L8.89361 13.8599L8.28596 14.2074ZM12.3893 6.44209C9.39391 6.44209 6.96565 8.87035 6.96565 11.8658H8.36565C8.36565 9.64355 10.1671 7.84209 12.3893 7.84209V6.44209ZM17.813 11.8658C17.813 8.87035 15.3847 6.44209 12.3893 6.44209V7.84209C14.6115 7.84209 16.413 9.64355 16.413 11.8658H17.813ZM17.1003 14.5549C17.554 13.7617 17.813 12.8429 17.813 11.8658H16.413C16.413 12.5927 16.2208 13.2727 15.885 13.8599L17.1003 14.5549ZM16.4927 14.9074H17.6136V13.5074H16.4927V14.9074ZM17.413 11.8658C17.413 12.5993 17.2562 13.2943 16.975 13.9207L18.2522 14.494C18.6128 13.6909 18.813 12.8008 18.813 11.8658H17.413ZM12.3893 6.84209C15.1638 6.84209 17.413 9.09126 17.413 11.8658H18.813C18.813 8.31807 15.937 5.44209 12.3893 5.44209V6.84209ZM7.36565 11.8658C7.36565 9.09126 9.61482 6.84209 12.3893 6.84209V5.44209C8.84162 5.44209 5.96565 8.31807 5.96565 11.8658H7.36565ZM7.80361 13.9207C7.52242 13.2943 7.36565 12.5993 7.36565 11.8658H5.96565C5.96565 12.8008 6.16585 13.6909 6.5264 14.494L7.80361 13.9207ZM7.165 14.9074H8.28596V13.5074H7.165V14.9074ZM6.96565 11.8658C6.96565 12.8429 7.22468 13.7617 7.67831 14.5549L8.89361 13.8599C8.55781 13.2727 8.36565 12.5927 8.36565 11.8658H6.96565Z" fill="#677A8E" mask="url(#path-6-inside-1_143_3653)"/>
<rect x="6.20243" y="13.5057" width="12.1845" height="0.647441" rx="0.32372" fill="#677A8E" stroke="#677A8E" stroke-width="0.109091"/>
<rect x="6.90448" y="5.20605" width="2.08046" height="0.756531" rx="0.378266" transform="rotate(45 6.90448 5.20605)" fill="#677A8E" stroke="#677A8E" stroke-width="0.2"/>
<rect x="16.4025" y="6.61035" width="2.08046" height="0.756531" rx="0.378266" transform="rotate(-45 16.4025 6.61035)" fill="#677A8E" stroke="#677A8E" stroke-width="0.2"/>
<rect x="4.06744" y="9.85767" width="2.08046" height="0.756531" rx="0.378266" fill="#677A8E" stroke="#677A8E" stroke-width="0.2"/>
<rect x="18.6769" y="9.85767" width="2.08046" height="0.756531" rx="0.378266" fill="#677A8E" stroke="#677A8E" stroke-width="0.2"/>
<path d="M12.5763 1.4532C12.4396 1.31651 12.218 1.31651 12.0813 1.4532L9.85392 3.68058C9.71724 3.81727 9.71724 4.03887 9.85392 4.17556C9.99061 4.31224 10.2122 4.31224 10.3489 4.17556L12.3288 2.19566L14.3087 4.17556C14.4454 4.31224 14.667 4.31224 14.8037 4.17556C14.9404 4.03887 14.9404 3.81727 14.8037 3.68058L12.5763 1.4532ZM11.9788 5.5072C11.9788 5.7005 12.1355 5.8572 12.3288 5.8572C12.5221 5.8572 12.6788 5.7005 12.6788 5.5072L11.9788 5.5072ZM11.9788 1.70068L11.9788 5.5072L12.6788 5.5072L12.6788 1.70068L11.9788 1.70068Z" fill="#677A8E"/>
</svg>
