<svg width="25" height="24" viewBox="0 0 25 24" fill="none" xmlns="http://www.w3.org/2000/svg">
<path d="M12.5 5.3335C11.6246 5.3335 10.7577 5.50593 9.94882 5.84097C9.13998 6.176 8.40505 6.66706 7.786 7.28612C6.53575 8.53636 5.83337 10.2321 5.83337 12.0002C5.83337 13.7683 6.53575 15.464 7.786 16.7142C8.40505 17.3333 9.13998 17.8243 9.94882 18.1594C10.7577 18.4944 11.6246 18.6668 12.5 18.6668C14.2682 18.6668 15.9638 17.9645 17.2141 16.7142C18.4643 15.464 19.1667 13.7683 19.1667 12.0002C19.1667 11.1247 18.9943 10.2578 18.6592 9.44894C18.3242 8.6401 17.8331 7.90517 17.2141 7.28612C16.595 6.66706 15.8601 6.176 15.0513 5.84097C14.2424 5.50593 13.3755 5.3335 12.5 5.3335ZM12.5 6.66683C13.9145 6.66683 15.2711 7.22873 16.2713 8.22893C17.2715 9.22912 17.8334 10.5857 17.8334 12.0002C17.8334 13.6002 17.1667 15.0002 16.0334 16.0002C15.1 15.1335 13.8334 14.6668 12.5 14.6668C11.1667 14.6668 9.96671 15.1335 8.96671 16.0002C7.83337 15.0002 7.16671 13.6002 7.16671 12.0002C7.16671 10.5857 7.72861 9.22912 8.7288 8.22893C9.729 7.22873 11.0856 6.66683 12.5 6.66683ZM13.8334 7.92683C13.58 7.9335 13.34 8.10016 13.2334 8.36016L12.3734 10.5135L12.3067 10.6668C11.8334 10.7535 11.44 11.0668 11.26 11.5068C10.9867 12.1935 11.32 12.9668 12.0067 13.2402C12.6934 13.5135 13.4667 13.1802 13.74 12.4935C13.9134 12.0535 13.8334 11.5468 13.5467 11.1735L13.6134 11.0002L14.4734 8.86016L14.48 8.84016C14.6134 8.50016 14.4467 8.1135 14.1067 7.9735C14.02 7.94016 13.9334 7.92683 13.8334 7.92683ZM11.1667 8.00016C10.9899 8.00016 10.8203 8.0704 10.6953 8.19543C10.5703 8.32045 10.5 8.49002 10.5 8.66683C10.5 8.84364 10.5703 9.01321 10.6953 9.13823C10.8203 9.26326 10.9899 9.3335 11.1667 9.3335C11.3435 9.3335 11.5131 9.26326 11.6381 9.13823C11.7631 9.01321 11.8334 8.84364 11.8334 8.66683C11.8334 8.49002 11.7631 8.32045 11.6381 8.19543C11.5131 8.0704 11.3435 8.00016 11.1667 8.00016ZM9.16671 10.0002C8.9899 10.0002 8.82033 10.0704 8.6953 10.1954C8.57028 10.3204 8.50004 10.49 8.50004 10.6668C8.50004 10.8436 8.57028 11.0132 8.6953 11.1382C8.82033 11.2633 8.9899 11.3335 9.16671 11.3335C9.34352 11.3335 9.51309 11.2633 9.63811 11.1382C9.76314 11.0132 9.83337 10.8436 9.83337 10.6668C9.83337 10.49 9.76314 10.3204 9.63811 10.1954C9.51309 10.0704 9.34352 10.0002 9.16671 10.0002ZM15.8334 10.0002C15.6566 10.0002 15.487 10.0704 15.362 10.1954C15.2369 10.3204 15.1667 10.49 15.1667 10.6668C15.1667 10.8436 15.2369 11.0132 15.362 11.1382C15.487 11.2633 15.6566 11.3335 15.8334 11.3335C16.0102 11.3335 16.1798 11.2633 16.3048 11.1382C16.4298 11.0132 16.5 10.8436 16.5 10.6668C16.5 10.49 16.4298 10.3204 16.3048 10.1954C16.1798 10.0704 16.0102 10.0002 15.8334 10.0002Z" fill="#5A6672"/>
</svg>
