<svg width="25" height="24" viewBox="0 0 25 24" fill="none" xmlns="http://www.w3.org/2000/svg">
<path d="M19.8218 3.40254C20.1958 3.40254 20.5001 3.69408 20.5001 4.05245C20.5001 4.41082 20.1958 4.70224 19.8218 4.70224H16.8931C15.9938 4.66715 15.9928 3.43811 16.8931 3.40258L19.8218 3.40254Z" fill="#677A8E"/>
<path d="M10.8869 15.314C12.3164 16.1093 11.7742 18.2364 10.0595 18.2599C8.24761 18.2066 7.79259 15.9771 9.38101 15.2318V12.4559C9.38101 12.0976 9.6854 11.806 10.0595 11.806C10.4336 11.806 10.7379 12.0975 10.7379 12.4559V15.2317L10.8869 15.314Z" fill="#677A8E"/>
<path d="M14.1548 13.0441C17.3198 16.2531 15.1805 21.9295 10.0882 22C4.97964 21.8572 2.8247 16.2936 5.96435 13.0429V5.92244C5.96435 3.75964 7.80146 2 10.0595 2C12.3175 2 14.1548 3.75964 14.1548 5.92244V13.0441ZM13.083 19.497C14.6831 17.976 14.64 15.279 12.9811 13.8059C12.8506 13.6797 12.7783 13.5155 12.7784 13.3453V5.92254C12.7778 4.47744 11.55 3.30135 10.0412 3.3008C8.53097 3.3008 7.30246 4.47687 7.3017 5.92235V13.3092C7.30154 13.4773 7.23081 13.6394 7.10296 13.7648C5.37482 15.1793 5.22506 17.8749 6.75194 19.4543C8.06819 20.923 10.5014 21.2546 12.2024 20.1584C12.5326 19.9783 12.8295 19.7553 13.083 19.497Z" fill="#677A8E"/>
</svg>
