<svg width="25" height="24" viewBox="0 0 25 24" fill="none" xmlns="http://www.w3.org/2000/svg">
<path d="M17.6388 14.556L14.6399 20.2891C14.3582 20.8277 14.5155 21.5229 14.9912 21.8418C15.1457 21.9454 15.3218 22 15.5013 22H21.499C22.0519 22 22.5001 21.4926 22.5001 20.8666C22.5001 20.6634 22.4518 20.464 22.3604 20.2891L19.3614 14.556C19.0797 14.0174 18.4656 13.8394 17.9899 14.1583C17.8452 14.2554 17.7246 14.3922 17.6388 14.556Z" fill="#A83B3B"/>
<path d="M18.5001 18.7117L18.5001 16.7117L18.5001 18.7117Z" fill="black"/>
<path d="M18.5001 18.7117L18.5001 16.7117" stroke="white" stroke-linecap="round"/>
<mask id="path-5-inside-1_142_3293" fill="white">
<path d="M18.5001 20.6841C18.7762 20.6841 19.0001 20.4602 19.0001 20.1841C19.0001 19.9079 18.7762 19.6841 18.5001 19.6841C18.2239 19.6841 18.0001 19.9079 18.0001 20.1841C18.0001 20.4602 18.2239 20.6841 18.5001 20.6841Z"/>
</mask>
<path d="M18.5001 20.6841C18.7762 20.6841 19.0001 20.4602 19.0001 20.1841C19.0001 19.9079 18.7762 19.6841 18.5001 19.6841C18.2239 19.6841 18.0001 19.9079 18.0001 20.1841C18.0001 20.4602 18.2239 20.6841 18.5001 20.6841Z" fill="white"/>
<path d="M18.0001 20.1841C18.0001 19.9079 18.2239 19.6841 18.5001 19.6841V21.6841C19.3285 21.6841 20.0001 21.0125 20.0001 20.1841H18.0001ZM18.5001 19.6841C18.7762 19.6841 19.0001 19.9079 19.0001 20.1841H17.0001C17.0001 21.0125 17.6716 21.6841 18.5001 21.6841V19.6841ZM19.0001 20.1841C19.0001 20.4602 18.7762 20.6841 18.5001 20.6841V18.6841C17.6716 18.6841 17.0001 19.3557 17.0001 20.1841H19.0001ZM18.5001 20.6841C18.2239 20.6841 18.0001 20.4602 18.0001 20.1841H20.0001C20.0001 19.3557 19.3285 18.6841 18.5001 18.6841V20.6841Z" fill="white" mask="url(#path-5-inside-1_142_3293)"/>
<path d="M7.83776 2L8.3465 1.44892C8.09945 1.22086 7.73083 1.18507 7.44453 1.36135C7.15823 1.53763 7.02423 1.8829 7.11665 2.20616L7.83776 2ZM3.34168 11.0526L3.94535 11.4977L3.34168 11.0526ZM6.86937 18L6.6816 18.7261C6.9758 18.8022 7.28683 18.6932 7.46923 18.4502C7.65164 18.2071 7.66936 17.8781 7.51411 17.6168L6.86937 18ZM8.25278 10.1404L8.99169 10.2689C9.04411 9.96758 8.90826 9.66458 8.6484 9.50323C8.38853 9.34188 8.05672 9.35452 7.80987 9.53516L8.25278 10.1404ZM9.8172 14.1704L9.42508 14.8097L9.8172 14.1704ZM10.1204 18L9.56137 17.5C9.34488 17.742 9.30875 18.0959 9.47186 18.3767C9.63496 18.6575 9.96025 18.8014 10.2778 18.7333L10.1204 18ZM13.3022 9.22814L13.958 8.86416C13.8245 8.62372 13.5702 8.47559 13.2952 8.47817C13.0202 8.48075 12.7687 8.63362 12.6398 8.87652L13.3022 9.22814ZM7.11665 2.20616C7.40414 3.21171 7.47918 3.87133 7.42362 4.37569C7.37076 4.85553 7.19295 5.25574 6.84463 5.73425C6.47484 6.24224 5.96314 6.77547 5.24684 7.5648C4.54629 8.33676 3.70109 9.30127 2.73801 10.6076L3.94535 11.4977C4.86682 10.2478 5.67521 9.32483 6.35763 8.57283C7.02431 7.83819 7.62497 7.21101 8.05735 6.61704C8.51119 5.99358 8.82533 5.35027 8.9146 4.53993C9.00117 3.75411 8.86851 2.8769 8.55887 1.79384L7.11665 2.20616ZM2.73801 10.6076C1.50696 12.2773 1.48977 14.103 2.33619 15.6224C3.16053 17.1022 4.76223 18.2298 6.6816 18.7261L7.05715 17.2739C5.44883 16.858 4.23167 15.9428 3.64659 14.8925C3.08359 13.8818 3.06639 12.6899 3.94535 11.4977L2.73801 10.6076ZM7.51411 17.6168C7.09903 16.9184 6.65325 15.71 6.69045 14.4217C6.7266 13.1697 7.21494 11.8293 8.6957 10.7457L7.80987 9.53516C5.9151 10.9217 5.23908 12.7158 5.19107 14.3784C5.14411 16.0047 5.69439 17.491 6.22464 18.3832L7.51411 17.6168ZM7.51388 10.0119C7.38481 10.7539 7.20848 11.619 7.42079 12.4558C7.65021 13.36 8.28295 14.1092 9.42508 14.8097L10.2093 13.531C9.26217 12.9501 8.97437 12.4796 8.87473 12.0869C8.75798 11.6267 8.84408 11.1175 8.99169 10.2689L7.51388 10.0119ZM9.42508 14.8097C10.2164 15.295 10.4464 16.5105 9.56137 17.5L10.6794 18.5C12.054 16.9632 11.9611 14.6055 10.2093 13.531L9.42508 14.8097ZM10.2778 18.7333C11.5935 18.451 13.4047 17.6257 14.4464 15.9929C15.5315 14.2921 15.6557 11.923 13.958 8.86416L12.6465 9.59211C14.1582 12.3158 13.8905 14.0753 13.1818 15.1862C12.4297 16.3651 11.0452 17.0345 9.96303 17.2667L10.2778 18.7333ZM12.6398 8.87652C12.5075 9.12579 12.2469 9.51596 11.9235 9.83235C11.5814 10.1671 11.2901 10.3026 11.0888 10.3026V11.8026C11.8835 11.8026 12.5376 11.33 12.9725 10.9045C13.4261 10.4607 13.7742 9.93865 13.9647 9.57975L12.6398 8.87652ZM11.0888 10.3026C11.0553 10.3026 11.1753 10.2925 11.3214 10.3849C11.531 10.5175 11.6077 10.7319 11.6148 10.8809C11.6196 10.9802 11.5939 11.0326 11.61 10.9847C11.6217 10.9499 11.6433 10.8965 11.6834 10.8039C11.8373 10.4488 12.143 9.79933 12.247 8.92861C12.463 7.11942 11.7972 4.63445 8.3465 1.44892L7.32902 2.55108C10.5608 5.53451 10.8979 7.57586 10.7576 8.75074C10.6834 9.37207 10.4711 9.82904 10.3071 10.2075C10.2678 10.2982 10.2224 10.4048 10.1881 10.507C10.1582 10.596 10.1075 10.7622 10.1165 10.9524C10.128 11.1924 10.2384 11.4748 10.5196 11.6526C10.7373 11.7903 10.9666 11.8026 11.0888 11.8026V10.3026Z" fill="#677A8E"/>
</svg>
