<svg width="25" height="25" viewBox="0 0 25 25" fill="none" xmlns="http://www.w3.org/2000/svg">
<path d="M6.37981 14.1721C4.78487 14.1273 3.50006 12.782 3.50006 11.1676C3.50006 9.50844 4.82917 8.16315 6.46842 8.16315C6.60133 8.16315 6.77854 8.16315 6.91145 8.20799C6.82285 7.89409 6.73424 7.53535 6.73424 7.1766C6.73424 5.51741 8.06335 4.17212 9.70259 4.17212C11.2532 4.17212 12.4937 5.42772 12.6266 6.95239C13.0254 6.81786 13.4241 6.72817 13.8671 6.72817C15.8608 6.72817 17.5001 8.34252 17.5001 10.4053C17.5001 11.3215 17.1545 11.7539 16.6011 12.4018" stroke="#677A8E" stroke-width="1.2" stroke-linejoin="round"/>
<path d="M21.5001 16.6519C21.5001 14.1766 19.3925 12.2394 16.8292 12.2394C16.2596 12.2394 15.7469 12.347 15.2342 12.5084C15.0634 10.6788 13.4684 9.17212 11.4747 9.17212C9.36715 9.17212 7.65829 10.7865 7.65829 12.7775C7.65829 13.208 7.77221 13.6385 7.88614 14.0152C7.71525 13.9614 7.4874 13.9614 7.31652 13.9614C5.20892 13.9614 3.50006 15.5757 3.50006 17.5667C3.50006 19.504 5.15196 21.1183 7.20259 21.1721H17.0001C19.5064 20.9031 21.5001 19.0197 21.5001 16.6519Z" stroke="#677A8E" stroke-width="1.5" stroke-linejoin="round"/>
</svg>
