<svg width="25" height="24" viewBox="0 0 25 24" fill="none" xmlns="http://www.w3.org/2000/svg">
<path d="M9.24975 5.01378C9.40231 4.70621 9.62159 4.45068 9.88564 4.27276C10.1497 4.09485 10.4493 4.00079 10.7543 4C11.0594 3.99922 11.3594 4.09173 11.6241 4.26828C11.8888 4.44484 12.1091 4.69923 12.2628 5.00602C12.4165 5.3128 12.4983 5.66121 12.5 6.01636C12.5017 6.37152 12.4233 6.72098 12.2725 7.02975C12.1218 7.33852 11.904 7.59577 11.641 7.77577C11.378 7.95577 11.079 8.05219 10.7739 8.05538H2.50006M18.8559 8.84764C19.0269 8.54006 19.2728 8.28453 19.5688 8.10662C19.8649 7.9287 20.2007 7.83464 20.5428 7.83386C20.8849 7.83307 21.2211 7.92558 21.5179 8.10213C21.8147 8.27869 22.0617 8.53309 22.234 8.83987C22.4064 9.14665 22.4981 9.49506 22.5 9.85022C22.5019 10.2054 22.414 10.5548 22.245 10.8636C22.0759 11.1724 21.8318 11.4296 21.5369 11.6096C21.242 11.7896 20.9068 11.886 20.5647 11.8892H2.50006M15.4008 18.9862C15.5679 19.2938 15.8081 19.5493 16.0973 19.7272C16.3866 19.9052 16.7147 19.9992 17.0489 20C17.3831 20.0008 17.7116 19.9083 18.0016 19.7317C18.2916 19.5552 18.5329 19.3008 18.7013 18.994C18.8696 18.6872 18.9593 18.3388 18.9611 17.9836C18.963 17.6285 18.8771 17.279 18.7119 16.9703C18.5468 16.6615 18.3082 16.4042 18.0201 16.2242C17.732 16.0442 17.4045 15.9478 17.0703 15.9446H8.96117" stroke="#677A8E" stroke-width="1.5" stroke-linecap="round"/>
</svg>
