<svg width="25" height="24" viewBox="0 0 25 24" fill="none" xmlns="http://www.w3.org/2000/svg">
<path d="M11.7428 5.30163L10.5001 4.05898M15.4707 3.75738V2M19.1986 5.30163L20.4412 4.05898M20.7428 9.02936H22.5001M19.1986 12.7573L20.4412 14" stroke="#677A8E" stroke-width="0.995397" stroke-linecap="round"/>
<path d="M15.7804 12.0392C17.398 12.0392 18.3995 10.6474 18.3995 9.02979C18.3995 7.41217 17.0882 6.10083 15.4706 6.10083C13.853 6.10083 12.5417 7.41217 12.5417 9.02979C12.5417 9.9438 13.6051 10.7145 14.2893 12.0392H15.7804Z" stroke="#677A8E" stroke-width="0.995397"/>
<path d="M20.5001 16.4798C20.5001 14.0045 18.3925 12.0673 15.8292 12.0673C15.2596 12.0673 14.7469 12.1749 14.2342 12.3363C14.0634 10.5067 12.4684 9 10.4747 9C8.36715 9 6.65829 10.6144 6.65829 12.6054C6.65829 13.0359 6.77221 13.4664 6.88614 13.843C6.71525 13.7892 6.4874 13.7892 6.31652 13.7892C4.20892 13.7892 2.50006 15.4036 2.50006 17.3946C2.50006 19.3318 4.15196 20.9462 6.20259 21H16.0001C18.5064 20.7309 20.5001 18.8475 20.5001 16.4798Z" stroke="#677A8E" stroke-width="1.5" stroke-linejoin="round"/>
</svg>
