<svg width="25" height="24" viewBox="0 0 25 24" fill="none" xmlns="http://www.w3.org/2000/svg">
<path d="M10.4752 5.25248L4.59959 16.485C4.04763 17.5402 4.35577 18.9022 5.28785 19.5271C5.59043 19.73 5.93561 19.837 6.28728 19.837H18.0381C19.1213 19.837 19.9995 18.8428 19.9995 17.6165C19.9995 17.2184 19.9049 16.8276 19.7257 16.485L13.8502 5.25249C13.2982 4.19727 12.0951 3.84845 11.163 4.47331C10.8794 4.66344 10.6431 4.93141 10.4752 5.25248Z" stroke="#677A8E" stroke-width="1.5"/>
<path d="M14.0687 11.2978C14.5749 11.2992 14.8508 11.9073 14.616 12.3352L12.3869 17.7132C12.2227 18.0373 11.8204 18.1653 11.5197 17.9701C11.2161 17.7792 11.1109 17.3535 11.2855 17.0212L12.9736 12.6811H10.4244C10.1994 12.6811 9.98986 12.5486 9.87733 12.3352C9.82185 12.2284 9.79288 12.1098 9.79285 11.9895C9.79282 11.8691 9.82174 11.7505 9.87716 11.6437L11.2855 8.32283C11.4498 7.99896 11.8519 7.87109 12.1527 8.06597C12.4589 8.25096 12.5595 8.7033 12.3869 9.01506L11.5197 11.2978H14.0687Z" fill="#677A8E"/>
</svg>
