<svg width="25" height="24" viewBox="0 0 25 24" fill="none" xmlns="http://www.w3.org/2000/svg">
<path d="M17.6388 14.8883L14.6399 20.6214C14.3582 21.16 14.5155 21.8552 14.9912 22.1741C15.1457 22.2776 15.3218 22.3323 15.5013 22.3323H21.499C22.0519 22.3323 22.5001 21.8249 22.5001 21.1989C22.5001 20.9957 22.4518 20.7963 22.3604 20.6214L19.3614 14.8883C19.0797 14.3497 18.4656 14.1717 17.9899 14.4906C17.8452 14.5877 17.7246 14.7244 17.6388 14.8883Z" fill="#A83B3B"/>
<path d="M18.5001 18.9187V16.9187V18.9187Z" fill="black"/>
<path d="M18.5001 18.9187V16.9187" stroke="white" stroke-linecap="round"/>
<mask id="path-5-inside-1_142_3204" fill="white">
<path d="M18.5001 21.0164C18.7762 21.0164 19.0001 20.7925 19.0001 20.5164C19.0001 20.2402 18.7762 20.0164 18.5001 20.0164C18.2239 20.0164 18.0001 20.2402 18.0001 20.5164C18.0001 20.7925 18.2239 21.0164 18.5001 21.0164Z"/>
</mask>
<path d="M18.5001 21.0164C18.7762 21.0164 19.0001 20.7925 19.0001 20.5164C19.0001 20.2402 18.7762 20.0164 18.5001 20.0164C18.2239 20.0164 18.0001 20.2402 18.0001 20.5164C18.0001 20.7925 18.2239 21.0164 18.5001 21.0164Z" fill="white"/>
<path d="M18.0001 20.5164C18.0001 20.2402 18.2239 20.0164 18.5001 20.0164V22.0164C19.3285 22.0164 20.0001 21.3448 20.0001 20.5164H18.0001ZM18.5001 20.0164C18.7762 20.0164 19.0001 20.2402 19.0001 20.5164H17.0001C17.0001 21.3448 17.6716 22.0164 18.5001 22.0164V20.0164ZM19.0001 20.5164C19.0001 20.7925 18.7762 21.0164 18.5001 21.0164V19.0164C17.6716 19.0164 17.0001 19.6879 17.0001 20.5164H19.0001ZM18.5001 21.0164C18.2239 21.0164 18.0001 20.7925 18.0001 20.5164H20.0001C20.0001 19.6879 19.3285 19.0164 18.5001 19.0164V21.0164Z" fill="white" mask="url(#path-5-inside-1_142_3204)"/>
<path d="M17.6033 5.8725C18.3447 5.9072 18.3509 7.18 17.6033 7.21805H5.48505C5.17552 7.21805 4.9236 6.91627 4.9236 6.54513C4.9236 6.174 5.17552 5.8724 5.48505 5.8724L17.6033 5.8725Z" fill="#A83B3B"/>
<path d="M15.9875 9.74504C16.7305 9.78038 16.7337 11.0533 15.9875 11.0905H8.71654C8.407 11.0905 8.15527 10.7888 8.15527 10.4176C8.15527 10.0463 8.407 9.74496 8.71654 9.74496L15.9875 9.74504Z" fill="#A83B3B"/>
<path d="M11.9482 13.6175C12.6917 13.6535 12.6939 14.926 11.9482 14.9632H7.10095C6.7914 14.9632 6.53946 14.6613 6.53946 14.2902C6.53946 13.9192 6.7914 13.6173 7.10095 13.6173L11.9482 13.6175Z" fill="#A83B3B"/>
<path d="M9.52455 17.4899C9.83409 17.4899 10.086 17.7917 10.086 18.1628C10.086 18.5339 9.83409 18.8357 9.52455 18.8357H5.48507C4.74129 18.7996 4.73958 17.527 5.48507 17.49L9.52455 17.4899Z" fill="#A83B3B"/>
<path d="M8.71654 21.3624C9.46095 21.3986 9.46149 22.6714 8.71654 22.7079H7.10095C6.7914 22.7079 6.53946 22.4061 6.53946 22.0351C6.53946 21.6642 6.7914 21.3624 7.10095 21.3624H8.71654Z" fill="#A83B3B"/>
<path d="M14.9333 2.67292C14.9333 3.04387 14.6814 3.34583 14.3718 3.34583H3.06153C2.75188 3.34583 2.50006 3.04395 2.50006 2.67292C2.50006 2.30188 2.75188 2 3.06153 2H14.3718C14.6814 2.00008 14.9333 2.30186 14.9333 2.67292Z" fill="#A83B3B"/>
</svg>
