<svg width="25" height="24" viewBox="0 0 25 24" fill="none" xmlns="http://www.w3.org/2000/svg">
<path d="M17.7501 13.9048C17.7501 16.868 15.3885 19.25 12.5001 19.25C9.61166 19.25 7.25006 16.868 7.25006 13.9048C7.25006 13.4 7.43198 12.7319 7.78609 11.9386C8.13455 11.1578 8.62234 10.3155 9.1704 9.47979C10.2662 7.80895 11.563 6.22458 12.3508 5.30523C12.4328 5.20948 12.5673 5.20949 12.6493 5.30523L13.2189 4.81722L12.6493 5.30523C13.4371 6.22457 14.734 7.80895 15.8297 9.47979C16.3778 10.3155 16.8656 11.1578 17.214 11.9386C17.5681 12.7319 17.7501 13.4 17.7501 13.9048Z" stroke="#677A8E" stroke-width="1.5"/>
</svg>
