<svg width="25" height="24" viewBox="0 0 25 24" fill="none" xmlns="http://www.w3.org/2000/svg">
<path d="M15.4329 12.8352C17.7059 15.4022 16.1694 19.9437 12.5128 20C8.84445 19.8859 7.297 15.4348 9.55155 12.8343V7.13795C9.55155 5.40772 10.8708 4 12.4921 4C14.1135 4 15.4329 5.40772 15.4329 7.13795V12.8352ZM14.6632 17.9976C15.8122 16.7809 15.7813 14.6231 14.5901 13.4447C14.4964 13.3437 14.4445 13.2124 14.4445 13.0763V7.13803C14.4441 5.98195 13.5623 5.04108 12.4791 5.04064C11.3945 5.04064 10.5123 5.98149 10.5119 7.13788V13.0772C10.5118 13.2134 10.4596 13.3446 10.3657 13.4453C9.25393 14.5801 9.15933 16.5292 10.1343 17.7764C11.0349 18.999 12.768 19.337 14.0309 18.5044C14.0309 18.5044 14.3935 18.2973 14.6632 17.9976Z" fill="#677A8E"/>
<path d="M13.0863 14.6512C14.113 15.2875 13.7235 16.9891 12.4921 17.008C11.1911 16.9652 10.8643 15.1814 12.0051 14.5854V7.13803C12.0051 6.85137 12.2236 6.6181 12.4922 6.6181C12.7607 6.6181 12.9794 6.85134 12.9794 7.13803V14.5854L13.0863 14.6512Z" fill="#677A8E"/>
</svg>
