<svg width="25" height="24" viewBox="0 0 25 24" fill="none" xmlns="http://www.w3.org/2000/svg">
<path d="M19.5231 15.666C21.6099 14.8944 23.1133 13.0022 23.1133 10.7265C23.1133 7.83857 20.7716 5.57848 17.9235 5.57848C17.2906 5.57848 16.7209 5.70404 16.1513 5.89238C15.9614 3.75785 14.1893 2 11.9741 2C9.63233 2 7.73359 3.88341 7.73359 6.20628C7.73359 6.70852 7.86018 7.21076 7.98676 7.65022C7.79689 7.58744 7.54373 7.58744 7.35385 7.58744C5.01208 7.58744 3.11334 9.47085 3.11334 11.7937C3.11334 13.5165 4.17985 15.0205 5.69612 15.666" stroke="#677A8E" stroke-width="1.5" stroke-linecap="round" stroke-linejoin="round"/>
<path d="M9.50006 12.4833V17.6991M15.5001 9.72559V18M12.5001 11.0739V15.4544" stroke="#677A8E" stroke-width="1.5" stroke-linecap="round" stroke-linejoin="round"/>
<path d="M22.4714 20.8419C22.5817 21.3219 22.3639 21.8269 21.9856 21.9672C21.7587 22.052 21.542 22.1699 21.3407 22.318C20.1674 23.2429 18.639 23.1859 17.4579 22.317C17.0173 21.9954 16.5073 21.8247 15.9868 21.8245C15.4662 21.8244 14.9562 21.9948 14.5154 22.3162C13.9286 22.749 13.2477 22.979 12.5523 22.9791C11.857 22.9792 11.1759 22.7496 10.589 22.317C10.148 21.9966 9.63821 21.8267 9.11787 21.8265C8.59752 21.8264 8.08763 21.9961 7.64649 22.3162C7.06857 22.7614 6.39039 22.9992 5.69663 23.0001C5.00287 23.0009 4.32428 22.7646 3.74558 22.3208C3.54334 22.1715 3.32558 22.0527 3.0975 21.9672C2.71715 21.8258 2.49957 21.321 2.61026 20.8408C2.71585 20.3738 3.11421 20.0812 3.49495 20.224C3.83251 20.3571 4.15362 20.5408 4.45013 20.7704C4.81869 21.0487 5.24883 21.1973 5.68861 21.1983C6.12839 21.1992 6.559 21.0525 6.92845 20.7757C7.58288 20.3058 8.33735 20.0568 9.10704 20.0569C9.87673 20.0569 10.6312 20.306 11.2855 20.776C11.6572 21.0526 12.0895 21.1996 12.531 21.1996C12.9726 21.1996 13.4049 21.0526 13.7765 20.776C14.431 20.306 15.1854 20.057 15.9552 20.057C16.7249 20.0569 17.4794 20.3058 18.1339 20.7758C18.5025 21.0518 18.9321 21.1984 19.3708 21.1981C19.8096 21.1978 20.239 21.0505 20.6073 20.774C20.893 20.5525 21.2014 20.3734 21.5255 20.241L21.5855 20.225C21.9666 20.0809 22.3659 20.3739 22.4714 20.8419Z" fill="#677A8E"/>
</svg>
