<svg width="25" height="24" viewBox="0 0 25 24" fill="none" xmlns="http://www.w3.org/2000/svg">
<path d="M6.61399 16.3911C4.3355 16.3283 2.50006 14.4449 2.50006 12.1848C2.50006 9.86197 4.3988 7.97856 6.74057 7.97856C6.93044 7.97856 7.18361 7.97856 7.37348 8.04134C7.2469 7.60188 7.12031 7.09963 7.12031 6.59739C7.12031 4.27452 9.01905 2.39111 11.3608 2.39111C13.576 2.39111 15.3482 4.14896 15.538 6.28349C16.1077 6.09515 16.6773 5.96959 17.3102 5.96959C20.1583 5.96959 22.5001 8.22968 22.5001 11.1176C22.5001 13.8799 20.2849 16.0772 17.5001 16.3911" stroke="#677A8E" stroke-width="1.5" stroke-linecap="round" stroke-linejoin="round"/>
<path d="M9.71844 18.6712C9.88164 18.8304 9.77826 19.1301 9.52832 19.1322C9.49209 19.132 9.45631 19.1248 9.42333 19.1111C9.39034 19.0974 9.36091 19.0775 9.33695 19.0526C9.23272 18.952 9.23309 18.7713 9.33809 18.6712C9.36199 18.6467 9.39128 18.6271 9.42406 18.6137C9.45683 18.6003 9.49235 18.5934 9.52826 18.5934C9.56418 18.5934 9.59969 18.6003 9.63247 18.6137C9.66524 18.6271 9.69454 18.6467 9.71844 18.6712Z" fill="#677A8E"/>
<path d="M9.33808 14.1107C9.17479 13.9516 9.27835 13.6517 9.52825 13.6498C9.77852 13.6515 9.88187 13.9531 9.71844 14.1108C9.69454 14.1353 9.66524 14.1549 9.63246 14.1683C9.59968 14.1817 9.56416 14.1886 9.52824 14.1886C9.49231 14.1886 9.4568 14.1817 9.42402 14.1682C9.39125 14.1548 9.36196 14.1352 9.33808 14.1107Z" fill="#677A8E"/>
<path d="M14.6592 18.6712C14.8227 18.8288 14.7193 19.1304 14.4691 19.1322C14.4328 19.132 14.397 19.1248 14.3641 19.1111C14.3311 19.0974 14.3017 19.0775 14.2777 19.0527C14.1734 18.9521 14.1739 18.7714 14.2788 18.6712C14.3027 18.6468 14.332 18.6271 14.3648 18.6137C14.3976 18.6003 14.4331 18.5934 14.469 18.5934C14.5049 18.5934 14.5405 18.6003 14.5732 18.6137C14.606 18.6271 14.6353 18.6467 14.6592 18.6712Z" fill="#677A8E"/>
<path d="M14.2789 14.1107C14.1733 14.0089 14.1736 13.8291 14.2789 13.7282C14.3028 13.7037 14.3321 13.6841 14.3648 13.6706C14.3976 13.6571 14.4331 13.65 14.4691 13.6498C14.7193 13.6516 14.8227 13.9531 14.6592 14.1108C14.6353 14.1353 14.606 14.1549 14.5732 14.1683C14.5405 14.1817 14.5049 14.1887 14.469 14.1887C14.4331 14.1887 14.3976 14.1817 14.3648 14.1683C14.332 14.1548 14.3027 14.1352 14.2789 14.1107Z" fill="#677A8E"/>
<path d="M15.4917 16.1213C15.8495 16.136 15.8494 16.6461 15.4917 16.6607H14.5872L15.2974 17.3652C15.4015 17.4659 15.4009 17.6467 15.2958 17.7466C15.2427 17.7992 15.1753 17.827 15.1036 17.827C15.0673 17.8268 15.0315 17.8197 14.9985 17.8059C14.9655 17.7922 14.9361 17.7722 14.9121 17.7473L13.8293 16.6607H12.6473L13.7449 17.7533C13.7962 17.8058 13.8241 17.8739 13.8231 17.9443C13.8268 18.0822 13.7016 18.2176 13.5511 18.2151C13.5149 18.2149 13.479 18.2077 13.446 18.194C13.413 18.1802 13.3836 18.1602 13.3597 18.1353L12.2684 17.0395V18.2213L13.3568 19.3055C13.52 19.4659 13.4122 19.7645 13.163 19.7672C13.1268 19.767 13.0909 19.7598 13.0579 19.7461C13.0248 19.7323 12.9954 19.7123 12.9714 19.6874L12.2684 18.9791V19.8834C12.2684 20.0321 12.1474 20.1531 11.9986 20.1531C11.8498 20.1531 11.7289 20.0321 11.7289 19.8834V18.9791L11.0258 19.6874C11.0018 19.7122 10.9722 19.732 10.9392 19.7455C10.9061 19.7591 10.8703 19.7661 10.8341 19.7661C10.7978 19.766 10.762 19.759 10.729 19.7454C10.6959 19.7318 10.6664 19.7119 10.6424 19.6871C10.5912 19.6342 10.563 19.566 10.563 19.4954C10.563 19.4247 10.5912 19.3565 10.6424 19.3036L11.7289 18.2213V17.0395L10.636 18.137C10.6121 18.1614 10.5828 18.1809 10.5501 18.1944C10.5174 18.2079 10.482 18.2149 10.4461 18.2151C10.2926 18.2177 10.1696 18.0786 10.1742 17.9421C10.1738 17.8717 10.2022 17.8038 10.254 17.7517L11.35 16.6607H10.168L9.08379 17.7486C9.05987 17.7731 9.03059 17.7927 8.99784 17.8062C8.96509 17.8197 8.92961 17.8268 8.89368 17.827C8.64237 17.8253 8.53772 17.5199 8.70151 17.3637L9.41001 16.6607H8.50549C8.35679 16.6607 8.23584 16.5397 8.23584 16.391C8.23584 16.2422 8.35679 16.1212 8.50549 16.1212H9.41001L8.70151 15.4183C8.53812 15.2599 8.6425 14.9571 8.89368 14.9555C8.92997 14.9557 8.9658 14.9629 8.99885 14.9766C9.0319 14.9903 9.06141 15.0102 9.08547 15.035L10.168 16.1212H11.35L10.2541 15.0304C10.2024 14.9779 10.1741 14.9095 10.1748 14.8389C10.1713 14.7002 10.2927 14.5656 10.4462 14.5676C10.4825 14.5678 10.5183 14.575 10.5514 14.5887C10.5844 14.6024 10.6139 14.6223 10.638 14.6471L11.7289 15.7425V14.5607L10.6423 13.4783C10.5911 13.4254 10.5629 13.3572 10.563 13.2866C10.563 13.216 10.5912 13.1478 10.6424 13.0949C10.6665 13.0701 10.696 13.0502 10.7291 13.0366C10.7621 13.023 10.798 13.0159 10.8343 13.0159C10.8706 13.0159 10.9064 13.023 10.9395 13.0366C10.9726 13.0502 11.0021 13.0701 11.0261 13.0949L11.7289 13.8029V12.8986C11.7289 12.7499 11.8499 12.6289 11.9986 12.6289C12.1474 12.6289 12.2684 12.7499 12.2684 12.8986V13.8029L12.9715 13.0945C12.9955 13.0698 13.025 13.05 13.058 13.0363C13.091 13.0227 13.1268 13.0156 13.163 13.0154C13.4143 13.0171 13.5186 13.3197 13.3549 13.4785L12.2684 14.5607V15.7425L13.3595 14.6469C13.3835 14.6221 13.413 14.6022 13.446 14.5886C13.4791 14.5749 13.5149 14.5678 13.5511 14.5676C13.7046 14.5656 13.826 14.7002 13.8223 14.8389C13.8231 14.9096 13.7947 14.9781 13.7429 15.0306L12.6472 16.1213H13.8292L14.9119 15.0349C14.936 15.0102 14.9655 14.9903 14.9985 14.9766C15.0315 14.963 15.0673 14.9558 15.1035 14.9556C15.3548 14.9574 15.4592 15.2599 15.2954 15.4187L14.5871 16.1213L15.4917 16.1213Z" fill="#677A8E"/>
<path d="M17.4962 18.7668L16.92 20.5248M7.07626 19L6.50006 20.758" stroke="#677A8E" stroke-width="1.5" stroke-linecap="round" stroke-linejoin="round"/>
</svg>
