<svg width="24" height="24" viewBox="0 0 24 24" fill="none" xmlns="http://www.w3.org/2000/svg">
<circle cx="12.2485" cy="11.8117" r="11.7333" fill="white"/>
<path fill-rule="evenodd" clip-rule="evenodd" d="M18.8085 12.0835C17.0785 12.0101 15.6985 10.5844 15.6985 8.83635C15.6985 8.29464 15.8311 7.78388 16.0655 7.33472C16.019 7.33275 15.9723 7.33176 15.9253 7.33176C14.1303 7.33176 12.6752 8.78689 12.6752 10.5819C12.6752 12.3769 14.1303 13.832 15.9253 13.832C17.1786 13.832 18.2662 13.1227 18.8085 12.0835Z" fill="url(#paint0_linear_19_4103)"/>
<circle cx="15.7152" cy="16.0252" r="0.266667" fill="#5225FF"/>
<circle cx="11.7152" cy="8.93184" r="0.213333" fill="#9225FF"/>
<circle cx="17.7952" cy="10.7451" r="0.213333" fill="#9225FF"/>
<circle cx="17.9552" cy="8.9852" r="0.16" fill="black"/>
<path d="M15.1773 11.6255L14.9923 11.4922C14.973 11.4763 14.9497 11.4636 14.9238 11.4549C14.8979 11.4462 14.87 11.4417 14.8417 11.4417C14.8135 11.4417 14.7856 11.4462 14.7597 11.4549C14.7338 11.4636 14.7105 11.4763 14.6911 11.4922L14.6481 11.5255C14.3081 11.7864 13.8488 11.9327 13.3702 11.9327C12.8916 11.9327 12.4323 11.7864 12.0923 11.5255C11.8609 11.3458 11.5859 11.2032 11.2832 11.1059C10.9805 11.0086 10.6559 10.9585 10.3282 10.9585C10.0004 10.9585 9.67588 11.0086 9.37316 11.1059C9.07044 11.2032 8.79549 11.3458 8.56406 11.5255L8.4737 11.5955C8.45312 11.6104 8.43672 11.6285 8.42551 11.6486C8.41429 11.6686 8.40851 11.6902 8.40851 11.7121C8.40851 11.734 8.41429 11.7556 8.42551 11.7756C8.43672 11.7957 8.45312 11.8138 8.4737 11.8287L8.65442 11.9587C8.69536 11.9894 8.75014 12.0066 8.80716 12.0066C8.86419 12.0066 8.91897 11.9894 8.95991 11.9587L9.05027 11.8887C9.21808 11.7587 9.4173 11.6556 9.63657 11.5853C9.85583 11.515 10.0908 11.4788 10.3282 11.4788C10.5655 11.4788 10.8005 11.515 11.0198 11.5853C11.239 11.6556 11.4383 11.7587 11.6061 11.8887C11.8378 12.0679 12.1129 12.2099 12.4156 12.3065C12.7184 12.4031 13.0428 12.4525 13.3702 12.4518C13.6977 12.4527 14.0221 12.4034 14.3249 12.3067C14.6277 12.2101 14.9028 12.068 15.1343 11.8887L15.1773 11.8554C15.2145 11.824 15.2352 11.783 15.2352 11.7404C15.2352 11.6979 15.2145 11.6568 15.1773 11.6255Z" fill="#121212"/>
<path d="M12.404 13.2844L12.219 13.1606C12.1997 13.1458 12.1764 13.134 12.1505 13.126C12.1246 13.1179 12.0966 13.1137 12.0684 13.1137C12.0402 13.1137 12.0123 13.1179 11.9864 13.126C11.9605 13.134 11.9371 13.1458 11.9178 13.1606L11.8748 13.1916C11.5348 13.4338 11.0755 13.5697 10.5969 13.5697C10.1183 13.5697 9.659 13.4338 9.31898 13.1916C9.08755 13.0247 8.8126 12.8922 8.50988 12.8019C8.20716 12.7115 7.88262 12.665 7.55486 12.665C7.2271 12.665 6.90256 12.7115 6.59984 12.8019C6.29712 12.8922 6.02217 13.0247 5.79074 13.1916L5.70039 13.2565C5.67981 13.2704 5.6634 13.2872 5.65219 13.3058C5.64098 13.3244 5.63519 13.3445 5.63519 13.3648C5.63519 13.3851 5.64098 13.4052 5.65219 13.4238C5.6634 13.4424 5.67981 13.4592 5.70039 13.4731L5.8811 13.5938C5.92204 13.6223 5.97683 13.6383 6.03385 13.6383C6.09087 13.6383 6.14565 13.6223 6.18659 13.5938L6.27695 13.5288C6.44476 13.4081 6.64399 13.3124 6.86325 13.2471C7.08252 13.1818 7.31753 13.1481 7.55486 13.1481C7.79219 13.1481 8.0272 13.1818 8.24647 13.2471C8.46573 13.3124 8.66496 13.4081 8.83277 13.5288C9.06447 13.6952 9.33958 13.827 9.64232 13.9167C9.94505 14.0065 10.2694 14.0523 10.5969 14.0517C10.9244 14.0525 11.2488 14.0067 11.5516 13.917C11.8544 13.8272 12.1294 13.6953 12.361 13.5288L12.404 13.4979C12.4412 13.4687 12.4619 13.4307 12.4619 13.3911C12.4619 13.3516 12.4412 13.3135 12.404 13.2844Z" fill="#121212"/>
<path d="M15.284 15.3638L15.099 15.5066C15.0797 15.5236 15.0564 15.5372 15.0305 15.5465C15.0046 15.5558 14.9766 15.5606 14.9484 15.5606C14.9202 15.5606 14.8923 15.5558 14.8664 15.5465C14.8405 15.5372 14.8171 15.5236 14.7978 15.5066L14.7548 15.4709C14.4148 15.1914 13.9555 15.0346 13.4769 15.0346C12.9983 15.0346 12.539 15.1914 12.199 15.4709C11.9676 15.6634 11.6926 15.8162 11.3899 15.9205C11.0872 16.0247 10.7626 16.0784 10.4349 16.0784C10.1071 16.0784 9.78257 16.0247 9.47985 15.9205C9.17713 15.8162 8.90218 15.6634 8.67075 15.4709L8.58039 15.3959C8.55981 15.3799 8.54341 15.3605 8.5322 15.339C8.52098 15.3175 8.5152 15.2943 8.5152 15.2709C8.5152 15.2475 8.52098 15.2243 8.5322 15.2029C8.54341 15.1814 8.55981 15.162 8.58039 15.146L8.76111 15.0067C8.80205 14.9738 8.85683 14.9554 8.91385 14.9554C8.97088 14.9554 9.02566 14.9738 9.0666 15.0067L9.15696 15.0817C9.32477 15.221 9.52399 15.3314 9.74326 15.4068C9.96252 15.4822 10.1975 15.5209 10.4349 15.5209C10.6722 15.5209 10.9072 15.4822 11.1265 15.4068C11.3457 15.3314 11.545 15.221 11.7128 15.0817C11.9445 14.8897 12.2196 14.7376 12.5223 14.6341C12.8251 14.5306 13.1494 14.4776 13.4769 14.4784C13.8044 14.4774 14.1288 14.5303 14.4316 14.6338C14.7344 14.7374 15.0094 14.8896 15.241 15.0817L15.284 15.1174C15.3212 15.151 15.3419 15.195 15.3419 15.2406C15.3419 15.2862 15.3212 15.3302 15.284 15.3638Z" fill="#121212"/>
<defs>
<linearGradient id="paint0_linear_19_4103" x1="15.2201" y1="13.832" x2="15.2201" y2="7.33189" gradientUnits="userSpaceOnUse">
<stop stop-color="#B486FF"/>
<stop offset="1" stop-color="#4C20FF"/>
</linearGradient>
</defs>
</svg>
