<svg width="25" height="25" viewBox="0 0 25 25" fill="none" xmlns="http://www.w3.org/2000/svg">
<ellipse cx="12.0485" cy="12.9067" rx="12" ry="12" fill="white"/>
<path fill-rule="evenodd" clip-rule="evenodd" d="M7.48701 11.6448C7.93252 11.1993 8.49599 10.9437 9.07688 10.8779C9.14133 9.45696 10.3138 8.32471 11.7507 8.32471C13.1414 8.32471 14.2845 9.38546 14.4148 10.7421C15.7489 10.5335 17.0531 11.3607 17.4105 12.6945C17.7928 14.1214 16.9469 15.588 15.5208 15.9718L15.5179 15.9726C15.385 16.0082 15.2485 15.9294 15.2129 15.7966C15.1773 15.6638 15.2561 15.5272 15.3889 15.4916L15.3889 15.4916C16.5511 15.1802 17.2409 13.9856 16.9294 12.8234C16.618 11.6612 15.4234 10.9715 14.2612 11.2829L14.2612 11.2829C14.1342 11.3169 14.0038 11.2463 13.9615 11.1239C13.941 11.0877 13.9293 11.0459 13.9293 11.0013V11.0013H13.9292V11.0013C13.9292 9.79805 12.9538 8.82266 11.7506 8.82266C10.5921 8.82266 9.64486 9.72687 9.57602 10.868C10.1924 10.9131 10.7962 11.1707 11.2683 11.6408L11.2724 11.6448C11.3696 11.7421 11.3696 11.8997 11.2724 11.997C11.1751 12.0942 11.0175 12.0942 10.9203 11.997L10.9202 11.9969L10.9202 11.9969C10.0694 11.1461 8.68995 11.1461 7.83916 11.9969C6.98975 12.8463 6.98836 14.2226 7.83498 15.0738L7.83926 15.0779C7.9365 15.1752 7.9365 15.3328 7.83926 15.4301C7.74203 15.5273 7.58438 15.5273 7.48715 15.4301L7.48709 15.43L7.48702 15.4301L7.48701 15.4301C6.44175 14.3848 6.44175 12.6901 7.48701 11.6448Z" fill="black"/>
<path fill-rule="evenodd" clip-rule="evenodd" d="M8.99397 14.8704C8.87347 14.8704 8.77579 14.968 8.77579 15.0885C8.77579 15.209 8.87348 15.3067 8.99397 15.3067H12.3758C12.4963 15.3067 12.594 15.209 12.594 15.0885C12.594 14.968 12.4963 14.8704 12.3758 14.8704H8.99397ZM8.99397 17.0522C8.87347 17.0522 8.77579 17.1499 8.77579 17.2704C8.77579 17.3909 8.87347 17.4885 8.99397 17.4885H12.3758C12.4963 17.4885 12.594 17.3909 12.594 17.2704C12.594 17.1499 12.4963 17.0522 12.3758 17.0522H8.99397ZM10.8485 16.1795C10.8485 16.059 10.9462 15.9613 11.0667 15.9613H14.4485C14.569 15.9613 14.6667 16.059 14.6667 16.1795C14.6667 16.3 14.569 16.3976 14.4485 16.3976H11.0667C10.9462 16.3976 10.8485 16.3 10.8485 16.1795ZM13.2485 14.8704C13.128 14.8704 13.0303 14.968 13.0303 15.0885C13.0303 15.209 13.128 15.3067 13.2485 15.3067H14.4485C14.569 15.3067 14.6667 15.209 14.6667 15.0885C14.6667 14.968 14.569 14.8704 14.4485 14.8704H13.2485ZM13.0303 17.2704C13.0303 17.1499 13.128 17.0522 13.2485 17.0522H14.4485C14.569 17.0522 14.6667 17.1499 14.6667 17.2704C14.6667 17.3909 14.569 17.4885 14.4485 17.4885H13.2485C13.128 17.4885 13.0303 17.3909 13.0303 17.2704ZM8.99397 15.9613C8.87347 15.9613 8.77579 16.059 8.77579 16.1795C8.77579 16.3 8.87347 16.3976 8.99397 16.3976H10.194C10.3145 16.3976 10.4121 16.3 10.4121 16.1795C10.4121 16.059 10.3145 15.9613 10.194 15.9613H8.99397Z" fill="#B6C4DA"/>
</svg>
