<svg width="20" height="21" viewBox="0 0 20 21" fill="none" xmlns="http://www.w3.org/2000/svg">
<path fill-rule="evenodd" clip-rule="evenodd" d="M11.8752 11.974C12.3322 11.9737 12.7804 12.0986 13.1713 12.3352C13.5623 12.5718 13.881 12.911 14.0926 13.3161C14.3043 13.7211 14.4009 14.1764 14.372 14.6325C14.343 15.0886 14.1896 15.528 13.9283 15.903C13.6671 16.278 13.3081 16.5742 12.8903 16.7594C12.4726 16.9447 12.012 17.0118 11.5587 16.9537C11.1054 16.8955 10.6768 16.7142 10.3193 16.4294C9.96185 16.1447 9.68929 15.7674 9.53124 15.3386C9.41187 15.0147 9.57765 14.6554 9.90153 14.536C10.2254 14.4166 10.5847 14.5824 10.7041 14.9063C10.7831 15.1207 10.9194 15.3093 11.0981 15.4517C11.2769 15.5941 11.4912 15.6847 11.7178 15.7138C11.9445 15.7429 12.1748 15.7093 12.3837 15.6167C12.5925 15.5241 12.7721 15.376 12.9027 15.1885C13.0333 15.001 13.11 14.7813 13.1245 14.5532C13.139 14.3252 13.0906 14.0975 12.9848 13.895C12.879 13.6925 12.7197 13.5229 12.5242 13.4046C12.3287 13.2863 12.1045 13.2238 11.876 13.224L3.12549 13.224C2.78031 13.224 2.50049 12.9442 2.50049 12.599C2.50049 12.2538 2.78031 11.974 3.12549 11.974H11.8752Z" fill="#1B51B3"/>
<path fill-rule="evenodd" clip-rule="evenodd" d="M9.88366 4.58129C9.67477 4.48867 9.44449 4.45508 9.21784 4.48417C8.9912 4.51326 8.77687 4.60392 8.59814 4.74629C8.41942 4.88867 8.28313 5.07731 8.20411 5.29171C8.08474 5.61559 7.72541 5.78137 7.40153 5.662C7.07765 5.54262 6.91187 5.1833 7.03124 4.85942C7.18929 4.43061 7.46185 4.05333 7.8193 3.76859C8.17676 3.48384 8.60542 3.30252 9.05871 3.24434C9.512 3.18616 9.97256 3.25334 10.3903 3.43859C10.8081 3.62383 11.1671 3.92005 11.4283 4.29504C11.6896 4.67003 11.843 5.10945 11.872 5.56553C11.9009 6.02162 11.8043 6.47692 11.5926 6.88195C11.381 7.28697 11.0623 7.62623 10.6713 7.86284C10.2805 8.09937 9.83232 8.22427 9.37549 8.224H1.87549C1.53031 8.224 1.25049 7.94418 1.25049 7.599C1.25049 7.25382 1.53031 6.974 1.87549 6.974H9.37549C9.60399 6.97418 9.82867 6.91173 10.0242 6.79342C10.2197 6.67512 10.379 6.50549 10.4848 6.30297C10.5906 6.10046 10.639 5.87281 10.6245 5.64477C10.61 5.41672 10.5333 5.19701 10.4027 5.00952C10.2721 4.82202 10.0925 4.67392 9.88366 4.58129Z" fill="#1B51B3"/>
<path fill-rule="evenodd" clip-rule="evenodd" d="M16.7587 7.08129C16.5498 6.98867 16.3195 6.95508 16.0928 6.98417C15.8662 7.01326 15.6519 7.10392 15.4731 7.24629C15.2944 7.38867 15.1581 7.57731 15.0791 7.79171C14.9597 8.11559 14.6004 8.28137 14.2765 8.162C13.9527 8.04262 13.7869 7.68329 13.9062 7.35942C14.0643 6.93061 14.3369 6.55333 14.6943 6.26859C15.0518 5.98384 15.4804 5.80252 15.9337 5.74434C16.387 5.68616 16.8476 5.75334 17.2653 5.93859C17.6831 6.12383 18.0421 6.42005 18.3033 6.79504C18.5646 7.17003 18.718 7.60945 18.747 8.06553C18.7759 8.52162 18.6793 8.97692 18.4676 9.38194C18.256 9.78697 17.9373 10.1262 17.5463 10.3628C17.1555 10.5994 16.7073 10.7243 16.2504 10.724C16.2503 10.724 16.2505 10.724 16.2504 10.724H2.50049C2.15531 10.724 1.87549 10.4442 1.87549 10.099C1.87549 9.75382 2.15531 9.474 2.50049 9.474H16.2505C16.479 9.47418 16.7037 9.41173 16.8992 9.29342C17.0947 9.17511 17.254 9.00549 17.3598 8.80297C17.4656 8.60046 17.514 8.37281 17.4995 8.14477C17.485 7.91672 17.4083 7.69701 17.2777 7.50952C17.1471 7.32202 16.9675 7.17392 16.7587 7.08129Z" fill="#1B51B3"/>
</svg>
